<svg viewBox="0 0 330 200" xmlns="http://www.w3.org/2000/svg"><g><g><g><g><g><line x1="50" y1="178" x2="45" y2="178" style="visibility: inherit;" fill="rgb(0, 0, 0)" stroke="rgb(204, 204, 204)" stroke-width="1px"></line><line x1="50" y1="161.8181818181818" x2="45" y2="161.8181818181818" style="visibility: inherit;" fill="rgb(0, 0, 0)" stroke="rgb(204, 204, 204)" stroke-width="1px"></line><line x1="50" y1="145.63636363636363" x2="45" y2="145.63636363636363" style="visibility: inherit;" fill="rgb(0, 0, 0)" stroke="rgb(204, 204, 204)" stroke-width="1px"></line><line x1="50" y1="129.45454545454544" x2="45" y2="129.45454545454544" style="visibility: inherit;" fill="rgb(0, 0, 0)" stroke="rgb(204, 204, 204)" stroke-width="1px"></line><line x1="50" y1="113.27272727272727" x2="45" y2="113.27272727272727" style="visibility: inherit;" fill="rgb(0, 0, 0)" stroke="rgb(204, 204, 204)" stroke-width="1px"></line><line x1="50" y1="97.0909090909091" x2="45" y2="97.0909090909091" style="visibility: inherit;" fill="rgb(0, 0, 0)" stroke="rgb(204, 204, 204)" stroke-width="1px"></line><line x1="50" y1="80.90909090909092" x2="45" y2="80.90909090909092" style="visibility: inherit;" fill="rgb(0, 0, 0)" stroke="rgb(204, 204, 204)" stroke-width="1px"></line><line x1="50" y1="64.72727272727275" x2="45" y2="64.72727272727275" style="visibility: inherit;" fill="rgb(0, 0, 0)" stroke="rgb(204, 204, 204)" stroke-width="1px"></line><line x1="50" y1="48.54545454545456" x2="45" y2="48.54545454545456" style="visibility: inherit;" fill="rgb(0, 0, 0)" stroke="rgb(204, 204, 204)" stroke-width="1px"></line><line x1="50" y1="32.363636363636374" x2="45" y2="32.363636363636374" style="visibility: inherit;" fill="rgb(0, 0, 0)" stroke="rgb(204, 204, 204)" stroke-width="1px"></line><line x1="50" y1="16.181818181818187" x2="45" y2="16.181818181818187" style="visibility: inherit;" fill="rgb(0, 0, 0)" stroke="rgb(204, 204, 204)" stroke-width="1px"></line><line x1="50" y1="0" x2="45" y2="0" style="visibility: inherit;" fill="rgb(0, 0, 0)" stroke="rgb(204, 204, 204)" stroke-width="1px"></line></g><g transform="translate(40, 0)"><text x="0" y="178" dx="0em" dy="0.3em" style="text-anchor: end; visibility: hidden; font-family: &quot;Helvetica Neue&quot;, sans-serif; font-size: 12px; font-weight: 200;" fill="rgb(50, 49, 63)" stroke="none" stroke-width="1px">-0.1</text><text x="0" y="161.8181818181818" dx="0em" dy="0.3em" style="text-anchor: end; visibility: inherit; font-family: &quot;Helvetica Neue&quot;, sans-serif; font-size: 12px; font-weight: 200;" fill="rgb(50, 49, 63)" stroke="none" stroke-width="1px">0</text><text x="0" y="145.63636363636363" dx="0em" dy="0.3em" style="text-anchor: end; visibility: hidden; font-family: &quot;Helvetica Neue&quot;, sans-serif; font-size: 12px; font-weight: 200;" fill="rgb(50, 49, 63)" stroke="none" stroke-width="1px">0.1</text><text x="0" y="129.45454545454544" dx="0em" dy="0.3em" style="text-anchor: end; visibility: inherit; font-family: &quot;Helvetica Neue&quot;, sans-serif; font-size: 12px; font-weight: 200;" fill="rgb(50, 49, 63)" stroke="none" stroke-width="1px">0.2</text><text x="0" y="113.27272727272727" dx="0em" dy="0.3em" style="text-anchor: end; visibility: hidden; font-family: &quot;Helvetica Neue&quot;, sans-serif; font-size: 12px; font-weight: 200;" fill="rgb(50, 49, 63)" stroke="none" stroke-width="1px">0.3</text><text x="0" y="97.0909090909091" dx="0em" dy="0.3em" style="text-anchor: end; visibility: inherit; font-family: &quot;Helvetica Neue&quot;, sans-serif; font-size: 12px; font-weight: 200;" fill="rgb(50, 49, 63)" stroke="none" stroke-width="1px">0.4</text><text x="0" y="80.90909090909092" dx="0em" dy="0.3em" style="text-anchor: end; visibility: hidden; font-family: &quot;Helvetica Neue&quot;, sans-serif; font-size: 12px; font-weight: 200;" fill="rgb(50, 49, 63)" stroke="none" stroke-width="1px">0.5</text><text x="0" y="64.72727272727275" dx="0em" dy="0.3em" style="text-anchor: end; visibility: inherit; font-family: &quot;Helvetica Neue&quot;, sans-serif; font-size: 12px; font-weight: 200;" fill="rgb(50, 49, 63)" stroke="none" stroke-width="1px">0.6</text><text x="0" y="48.54545454545456" dx="0em" dy="0.3em" style="text-anchor: end; visibility: hidden; font-family: &quot;Helvetica Neue&quot;, sans-serif; font-size: 12px; font-weight: 200;" fill="rgb(50, 49, 63)" stroke="none" stroke-width="1px">0.7</text><text x="0" y="32.363636363636374" dx="0em" dy="0.3em" style="text-anchor: end; visibility: inherit; font-family: &quot;Helvetica Neue&quot;, sans-serif; font-size: 12px; font-weight: 200;" fill="rgb(50, 49, 63)" stroke="none" stroke-width="1px">0.8</text><text x="0" y="16.181818181818187" dx="0em" dy="0.3em" style="text-anchor: end; visibility: hidden; font-family: &quot;Helvetica Neue&quot;, sans-serif; font-size: 12px; font-weight: 200;" fill="rgb(50, 49, 63)" stroke="none" stroke-width="1px">0.9</text><text x="0" y="0" dx="0em" dy="0.3em" style="text-anchor: end; visibility: hidden; font-family: &quot;Helvetica Neue&quot;, sans-serif; font-size: 12px; font-weight: 200;" fill="rgb(50, 49, 63)" stroke="none" stroke-width="1px">1</text></g><line x1="50" y1="0" x2="50" y2="178" fill="rgb(0, 0, 0)" stroke="rgb(204, 204, 204)" stroke-width="1px"></line></g></g><g transform="translate(50, 0)" clip-path="url(#clip_0)"><clipPath id="clip_0"><rect width="280" height="178"></rect></clipPath><g><g><g><line x1="0" y1="0" x2="0" y2="178" fill="rgb(0, 0, 0)" stroke="rgb(60, 60, 60)" stroke-width="1px" opacity="0.25"></line><line x1="31.11111111111111" y1="0" x2="31.11111111111111" y2="178" fill="rgb(0, 0, 0)" stroke="rgb(60, 60, 60)" stroke-width="1px" opacity="0.25"></line><line x1="62.22222222222222" y1="0" x2="62.22222222222222" y2="178" fill="rgb(0, 0, 0)" stroke="rgb(60, 60, 60)" stroke-width="1px" opacity="0.25"></line><line x1="93.33333333333333" y1="0" x2="93.33333333333333" y2="178" fill="rgb(0, 0, 0)" stroke="rgb(60, 60, 60)" stroke-width="1px" opacity="0.25"></line><line x1="124.44444444444444" y1="0" x2="124.44444444444444" y2="178" fill="rgb(0, 0, 0)" stroke="rgb(60, 60, 60)" stroke-width="1px" opacity="0.25"></line><line x1="155.55555555555557" y1="0" x2="155.55555555555557" y2="178" fill="rgb(0, 0, 0)" stroke="rgb(60, 60, 60)" stroke-width="1px" opacity="0.25"></line><line x1="186.66666666666666" y1="0" x2="186.66666666666666" y2="178" fill="rgb(0, 0, 0)" stroke="rgb(60, 60, 60)" stroke-width="1px" opacity="0.25"></line><line x1="217.77777777777777" y1="0" x2="217.77777777777777" y2="178" fill="rgb(0, 0, 0)" stroke="rgb(60, 60, 60)" stroke-width="1px" opacity="0.25"></line><line x1="248.88888888888889" y1="0" x2="248.88888888888889" y2="178" fill="rgb(0, 0, 0)" stroke="rgb(60, 60, 60)" stroke-width="1px" opacity="0.25"></line><line x1="280" y1="0" x2="280" y2="178" fill="rgb(0, 0, 0)" stroke="rgb(60, 60, 60)" stroke-width="1px" opacity="0.25"></line></g><g><line x1="0" y1="178" x2="280" y2="178" fill="rgb(0, 0, 0)" stroke="rgb(60, 60, 60)" stroke-width="1px" opacity="0.25"></line><line x1="0" y1="161.8181818181818" x2="280" y2="161.8181818181818" fill="rgb(0, 0, 0)" stroke="rgb(60, 60, 60)" stroke-width="1px" opacity="0.25"></line><line x1="0" y1="145.63636363636363" x2="280" y2="145.63636363636363" fill="rgb(0, 0, 0)" stroke="rgb(60, 60, 60)" stroke-width="1px" opacity="0.25"></line><line x1="0" y1="129.45454545454544" x2="280" y2="129.45454545454544" fill="rgb(0, 0, 0)" stroke="rgb(60, 60, 60)" stroke-width="1px" opacity="0.25"></line><line x1="0" y1="113.27272727272727" x2="280" y2="113.27272727272727" fill="rgb(0, 0, 0)" stroke="rgb(60, 60, 60)" stroke-width="1px" opacity="0.25"></line><line x1="0" y1="97.0909090909091" x2="280" y2="97.0909090909091" fill="rgb(0, 0, 0)" stroke="rgb(60, 60, 60)" stroke-width="1px" opacity="0.25"></line><line x1="0" y1="80.90909090909092" x2="280" y2="80.90909090909092" fill="rgb(0, 0, 0)" stroke="rgb(60, 60, 60)" stroke-width="1px" opacity="0.25"></line><line x1="0" y1="64.72727272727275" x2="280" y2="64.72727272727275" fill="rgb(0, 0, 0)" stroke="rgb(60, 60, 60)" stroke-width="1px" opacity="0.25"></line><line x1="0" y1="48.54545454545456" x2="280" y2="48.54545454545456" fill="rgb(0, 0, 0)" stroke="rgb(60, 60, 60)" stroke-width="1px" opacity="0.25"></line><line x1="0" y1="32.363636363636374" x2="280" y2="32.363636363636374" fill="rgb(0, 0, 0)" stroke="rgb(60, 60, 60)" stroke-width="1px" opacity="0.25"></line><line x1="0" y1="16.181818181818187" x2="280" y2="16.181818181818187" fill="rgb(0, 0, 0)" stroke="rgb(60, 60, 60)" stroke-width="1px" opacity="0.25"></line><line x1="0" y1="0" x2="280" y2="0" fill="rgb(0, 0, 0)" stroke="rgb(60, 60, 60)" stroke-width="1px" opacity="0.25"></line></g></g></g><g><g><line x1="0" y1="161.8181818181818" x2="280" y2="161.8181818181818" fill="rgb(0, 0, 0)" stroke="rgb(153, 153, 153)" stroke-width="1.5px"></line></g></g><g><g><line x1="31.11111111111111" y1="0" x2="31.11111111111111" y2="178" fill="rgb(0, 0, 0)" stroke="rgb(153, 153, 153)" stroke-width="1.5px"></line></g></g><g><g><g><g><g><path stroke="rgb(255, 112, 67)" stroke-width="2px" d="M31.176444444444442,135.5964362079447L31.37088888888889,115.38116200403735L31.467333333333332,97.44655246084388L31.848444444444443,146.3945152678273L31.94488888888889,140.43768606402656L32.01177777777778,97.44655246084388L32.022666666666666,113.44628436998889L32.09733333333333,43.07027177377182L32.117555555555555,91.97049487720837L32.22177777777778,82.87069033492696L32.367999999999995,132.18024971810254L32.68844444444444,126.92319894378835L33.184666666666665,38.12243374911222L33.26555555555556,147.0114614475857L33.276444444444444,150.6917094913396L33.34488888888889,129.65896595608106L33.80844444444445,146.3945152678273L33.81311111111111,148.17230773243037L34.03088888888889,148.17230773243037L34.093111111111114,115.38116200403735L34.278222222222226,52.380103523081004L34.699777777777776,152.74595989422366L34.827333333333335,64.9943710457195L34.97666666666667,128.31899903037333L34.97822222222222,129.65896595608106L35.28777777777778,111.43078804016115L35.83688888888889,117.23864241079852L36.135555555555555,68.86732849207793L36.160444444444444,113.44628436998889L36.252222222222215,86.02859269488943L36.739111111111114,142.11391667073423L36.74222222222222,143.65873137658292L36.82,120.73367530649358L37.05488888888889,135.5964362079447L37.26488888888889,129.65896595608106L37.82644444444444,141.29290637644854L37.955555555555556,149.74518610672519L38.09866666666667,76.15467602556403L38.12511111111112,119.02182167226619L38.384888888888895,147.60373059998858L38.84377777777778,27.599709467454403L39.09733333333333,109.33131651444869L39.425555555555555,111.43078804016115L39.44733333333333,133.3657670021057L40.013555555555556,145.75186244466087L40.23288888888889,146.3945152678273L40.29977777777778,115.38116200403735L40.42888888888889,134.5038616657257L40.75555555555555,134.5038616657257L40.78511111111111,149.24214512109756L41.531777777777776,142.9020877588879L41.550444444444445,150.22810617631131L41.77288888888889,151.56402456489477L41.94711111111111,129.65896595608106L42.24111111111111,86.02859269488943L42.715555555555554,134.5038616657257L42.72022222222222,137.65222018415278L43.24133333333334,117.23864241079852L43.29577777777778,151.13676766102964L43.65822222222222,89.06017780303956L43.83555555555556,149.74518610672519L43.89933333333333,122.37705826759338L44.330222222222226,117.23864241079852L44.345777777777776,132.18024971810254L44.49044444444445,150.22810617631131L44.92133333333334,148.71814288876274L45.01,139.5468318733302L45.51555555555556,100.0214220718904L45.83911111111111,94.76440505547957L45.97288888888889,126.92319894378835L45.99311111111111,141.29290637644854L46.196888888888886,132.18024971810254L47.28733333333333,133.3657670021057L47.41177777777778,142.9020877588879L47.47866666666667,104.8662840236317L47.61088888888889,130.94533497636968L47.88,22.007269100709408L48.06977777777778,145.0824323702942L48.074444444444445,147.0114614475857L48.169333333333334,140.43768606402656L48.25333333333334,120.73367530649358L48.38088888888889,136.64530632170764L49.04977777777778,145.0824323702942L49.102666666666664,89.06017780303956L49.28777777777778,151.97419092736462L49.40288888888889,16.1818220398643L49.72955555555555,16.1818220398643L49.73733333333333,43.07027177377182L50.03288888888889,146.3945152678273L50.22888888888888,134.5038616657257L51.142,152.74595989422366L51.38622222222222,82.87069033492696L51.42822222222222,135.5964362079447L52.262,91.97049487720837L52.297777777777775,134.5038616657257L52.593333333333334,100.0214220718904L53.23266666666667,72.58535645224833L53.346222222222224,82.87069033492696L53.41466666666667,148.71814288876274L53.58422222222222,115.38116200403735L53.88133333333334,60.960050821304335L53.928,132.18024971810254L54.10066666666667,64.9943710457195L54.24688888888888,125.46924122355202L55.18022222222223,38.12243374911222L55.233111111111114,130.94533497636968L55.632888888888886,82.87069033492696L56.18044444444444,89.06017780303956L56.49933333333333,72.58535645224833L57.333111111111116,148.17230773243037L57.65822222222222,147.60373059998858L57.70644444444444,91.97049487720837L58.04866666666667,115.38116200403735L58.08288888888889,142.9020877588879L58.40022222222222,137.65222018415278L58.422,148.17230773243037L59.81266666666667,135.5964362079447L60.84711111111111,52.380103523081004L60.92955555555555,149.24214512109756L61.492666666666665,27.599709467454403L61.662222222222226,134.5038616657257L61.684,146.3945152678273L61.803777777777775,150.22810617631131L62.214444444444446,139.5468318733302L62.30466666666667,125.46924122355202L62.318666666666665,136.64530632170764L62.43688888888889,142.11391667073423L62.60177777777778,82.87069033492696L62.614222222222224,104.8662840236317L62.724666666666664,107.14436379345982L62.906666666666666,22.007269100709408L63.06066666666667,119.02182167226619L63.12133333333334,153.108848313039L63.434,149.24214512109756L63.43866666666667,150.6917094913396L63.55222222222222,151.97419092736462L63.90222222222222,68.86732849207793L64.00177777777778,43.07027177377182L64.13866666666667,104.8662840236317L64.274,133.3657670021057L64.59133333333332,125.46924122355202L65.09688888888888,60.960050821304335L65.71444444444445,147.0114614475857L65.84666666666666,22.007269100709408L65.89022222222222,117.23864241079852L67.10355555555556,132.18024971810254L67.11911111111111,142.11391667073423L67.18755555555556,104.8662840236317L67.22800000000001,142.11391667073423L67.33377777777778,140.43768606402656L67.45044444444444,144.38510862263766L67.55311111111111,141.29290637644854L67.72888888888889,100.0214220718904L67.93111111111111,68.86732849207793L67.94822222222223,102.49329149723054L67.97933333333333,135.5964362079447L68.348,153.108848313039L68.67311111111111,152.74595989422366L68.88311111111112,150.6917094913396L68.88622222222223,151.56402456489477L68.94533333333334,123.95470253445887L69.41044444444445,144.38510862263766L69.56288888888889,64.9943710457195L69.57533333333333,91.97049487720837L69.846,144.38510862263766L69.89733333333334,82.87069033492696L70.39355555555555,145.75186244466087L70.51644444444445,150.6917094913396L70.60822222222222,144.38510862263766L71.26311111111112,145.0824323702942L71.31755555555556,91.97049487720837L71.43266666666666,102.49329149723054L72.02688888888889,145.75186244466087L72.79533333333333,148.17230773243037L72.79688888888889,148.71814288876274L73.35066666666667,151.56402456489477L73.35844444444444,16.1818220398643L73.89666666666668,151.97419092736462L74.0491111111111,107.14436379345982L74.10355555555554,148.71814288876274L74.39444444444445,128.31899903037333L74.536,147.60373059998858L75.348,94.76440505547957L75.51133333333333,145.75186244466087L76.17555555555555,149.74518610672519L76.216,89.06017780303956L76.31866666666667,76.15467602556403L76.5348888888889,72.58535645224833L76.63133333333333,38.12243374911222L76.95488888888889,27.599709467454403L76.97977777777777,91.97049487720837L77.17266666666667,27.599709467454403L77.51177777777778,64.9943710457195L77.78555555555555,139.5468318733302L77.826,27.599709467454403L78.04844444444444,43.07027177377182L78.28644444444444,91.97049487720837L78.50888888888889,100.0214220718904L78.72977777777778,104.8662840236317L78.876,140.43768606402656L78.89777777777778,149.74518610672519L79.9648888888889,140.43768606402656L80.02244444444445,79.58120931278576L80.416,147.60373059998858L80.70222222222222,120.73367530649358L80.78933333333333,89.06017780303956L80.8951111111111,82.87069033492696L81.21088888888889,56.75762588327582L81.56555555555555,111.43078804016115L81.732,150.6917094913396L81.91088888888889,130.94533497636968L82.07422222222222,32.968450676311164L82.27955555555555,151.56402456489477L82.292,32.968450676311164L82.49733333333334,151.56402456489477L82.726,27.599709467454403L82.866,102.49329149723054L83.02777777777777,147.0114614475857L83.07133333333334,79.58120931278576L83.5908888888889,152.74595989422366L83.60955555555556,64.9943710457195L83.6391111111111,117.23864241079852L83.66555555555556,139.5468318733302L83.74955555555556,119.02182167226619L83.8071111111111,152.3679503459822L83.86466666666666,125.46924122355202L84.05600000000001,89.06017780303956L84.56311111111111,150.6917094913396L84.59577777777778,79.58120931278576L84.81666666666666,86.02859269488943L84.93177777777777,97.44655246084388L85.218,151.13676766102964L86.07355555555556,145.75186244466087L86.10622222222221,43.07027177377182L86.142,115.38116200403735L86.30688888888889,151.13676766102964L86.44688888888889,79.58120931278576L86.75488888888889,27.599709467454403L86.87622222222222,64.9943710457195L87.03800000000001,137.65222018415278L87.16866666666667,148.17230773243037L87.49377777777778,147.60373059998858L87.53888888888889,86.02859269488943L88.08955555555556,97.44655246084388L88.13622222222223,142.9020877588879L88.30422222222222,91.97049487720837L88.43333333333334,120.73367530649358L88.52199999999999,91.97049487720837L88.9808888888889,123.95470253445887L89.42733333333334,133.3657670021057L89.8551111111111,126.92319894378835L90.02933333333334,52.380103523081004L90.52088888888889,136.64530632170764L90.90511111111111,64.9943710457195L90.92999999999999,111.43078804016115L91.34222222222223,68.86732849207793L91.52888888888889,149.74518610672519L91.74822222222221,150.22810617631131L92.23822222222222,113.44628436998889L92.86977777777778,76.15467602556403L92.99266666666666,102.49329149723054L93.14355555555555,142.11391667073423L93.19177777777777,64.9943710457195L93.36444444444444,143.65873137658292L93.79377777777778,140.43768606402656L94.11111111111111,134.5038616657257L94.36466666666668,151.13676766102964L94.37088888888889,152.74595989422366L94.42222222222222,120.73367530649358L94.45333333333333,143.65873137658292L94.56688888888888,145.75186244466087L94.9511111111111,100.0214220718904L95.26844444444446,82.87069033492696L95.31044444444444,135.5964362079447L95.41933333333333,135.5964362079447L95.72733333333333,119.02182167226619L95.75222222222223,139.5468318733302L96.65288888888888,151.56402456489477L97.14444444444445,120.73367530649358L97.17244444444444,142.11391667073423L97.49911111111112,142.11391667073423L98.80577777777778,142.11391667073423L98.94422222222221,152.74595989422366L98.994,119.02182167226619L99.106,122.37705826759338L99.14800000000001,148.71814288876274L99.15422222222222,150.6917094913396L99.25222222222223,147.0114614475857L99.54466666666666,125.46924122355202L99.6691111111111,137.65222018415278L99.86666666666667,120.73367530649358L99.87755555555556,130.94533497636968L99.946,72.58535645224833L100.02844444444443,151.56402456489477L100.82488888888889,89.06017780303956L101.05511111111112,109.33131651444869L101.59333333333333,100.0214220718904L101.60733333333333,119.02182167226619L101.68977777777778,76.15467602556403L101.89977777777779,56.75762588327582L102.13466666666667,94.76440505547957L103.16133333333333,142.11391667073423L103.18622222222221,151.56402456489477L103.30911111111112,38.12243374911222L103.44288888888889,97.44655246084388L104.69044444444444,144.38510862263766L105.13222222222223,147.0114614475857L105.21466666666667,132.18024971810254L105.26288888888888,16.1818220398643L105.31888888888889,128.31899903037333L105.37955555555556,43.07027177377182L105.59422222222223,32.968450676311164L105.69533333333334,152.74595989422366L105.73111111111112,100.0214220718904L105.896,147.60373059998858L106.05933333333334,102.49329149723054L106.13088888888889,152.74595989422366L106.58977777777778,76.15467602556403L107.09066666666666,146.3945152678273L107.75644444444444,150.6917094913396L107.87933333333332,27.599709467454403L108.07533333333333,148.17230773243037L108.89822222222222,113.44628436998889L108.976,52.380103523081004L109.12066666666666,119.02182167226619L109.14555555555556,139.5468318733302L109.19222222222223,47.82018238847908L109.30577777777778,60.960050821304335L109.86733333333332,97.44655246084388L110.16288888888889,16.1818220398643L110.41177777777777,97.44655246084388L110.65288888888888,126.92319894378835L110.79755555555555,148.17230773243037L110.8831111111111,136.64530632170764L111.68577777777777,153.108848313039L111.69822222222223,52.380103523081004L111.92844444444445,82.87069033492696L112.00155555555556,150.22810617631131L112.45422222222221,32.968450676311164L112.5491111111111,151.13676766102964L112.79333333333334,68.86732849207793L113.06088888888888,136.64530632170764L113.40933333333334,147.60373059998858L113.46066666666667,97.44655246084388L113.69866666666667,123.95470253445887L113.72200000000001,141.29290637644854L114.28355555555555,148.71814288876274L114.65377777777778,89.06017780303956L114.66466666666666,107.14436379345982L114.6708888888889,115.38116200403735L114.6771111111111,122.37705826759338L114.89644444444444,123.95470253445887L114.9648888888889,52.380103523081004L115.22311111111111,123.95470253445887L115.27911111111112,153.108848313039L115.30244444444445,79.58120931278576L115.48599999999999,150.22810617631131L116.18599999999999,102.49329149723054L116.36644444444444,152.74595989422366L116.56866666666667,148.17230773243037L116.63866666666667,123.95470253445887L116.96688888888889,125.46924122355202L117.13177777777778,16.1818220398643L117.51133333333334,125.46924122355202L117.52377777777777,135.5964362079447L117.77577777777778,151.13676766102964L117.85822222222221,140.43768606402656L118.74644444444445,148.17230773243037L119.0108888888889,91.97049487720837L119.03266666666666,122.37705826759338L119.16799999999999,142.11391667073423L119.44644444444444,91.97049487720837L119.49777777777777,143.65873137658292L119.77622222222222,97.44655246084388L120.24288888888888,133.3657670021057L120.25222222222222,139.5468318733302L120.53066666666666,82.87069033492696L120.96,68.86732849207793L121.79222222222222,147.0114614475857L122.01777777777778,149.74518610672519L122.19822222222221,129.65896595608106L122.33044444444444,144.38510862263766L122.45177777777778,149.24214512109756L122.49377777777778,89.06017780303956L122.52022222222222,125.46924122355202L123.29955555555556,138.61885845661163L123.37266666666666,102.49329149723054L123.5608888888889,32.968450676311164L123.88444444444444,22.007269100709408L123.93111111111111,120.73367530649358L124.72288888888889,142.9020877588879L124.73222222222222,147.0114614475857L124.76644444444445,56.75762588327582L124.90644444444445,115.38116200403735L125.18333333333334,151.97419092736462L126.31888888888888,111.43078804016115L126.42933333333333,113.44628436998889L126.68133333333334,142.11391667073423L126.83066666666667,43.07027177377182L127.05777777777777,68.86732849207793L127.77177777777777,142.9020877588879L127.89622222222224,149.24214512109756L128.35822222222222,52.380103523081004L128.40644444444445,130.94533497636968L128.91511111111112,82.87069033492696L129.14844444444444,109.33131651444869L129.45333333333332,68.86732849207793L129.7768888888889,60.960050821304335L129.77844444444443,64.9943710457195L129.90911111111112,107.14436379345982L130.1548888888889,135.5964362079447L130.45666666666665,111.43078804016115L130.648,60.960050821304335L130.8191111111111,142.11391667073423L131.01666666666665,128.31899903037333L131.46155555555555,135.5964362079447L131.4771111111111,144.38510862263766L131.73533333333333,56.75762588327582L132.04955555555554,16.1818220398643L132.60333333333335,47.82018238847908L132.67644444444446,145.0824323702942L132.92222222222222,22.007269100709408L132.97044444444444,122.37705826759338L133.1571111111111,72.58535645224833L133.22244444444445,145.75186244466087L133.3251111111111,142.9020877588879L133.6331111111111,130.94533497636968L133.85399999999998,133.3657670021057L134.24133333333333,60.960050821304335L135.002,56.75762588327582L135.25244444444445,117.23864241079852L135.296,147.60373059998858L135.36599999999999,122.37705826759338L136.01777777777778,120.73367530649358L137.298,79.58120931278576L137.326,122.37705826759338L137.47688888888888,148.71814288876274L137.55622222222223,133.3657670021057L137.80666666666667,149.74518610672519L138.334,142.9020877588879L138.4257777777778,132.18024971810254L138.71044444444445,72.58535645224833L138.73222222222222,111.43078804016115L139.1522222222222,86.02859269488943L139.1848888888889,129.65896595608106L139.5628888888889,16.1818220398643L139.68577777777776,60.960050821304335L139.86777777777777,147.0114614475857L140.71866666666668,136.64530632170764L140.90222222222224,100.0214220718904L141.02044444444445,113.44628436998889L141.42333333333335,47.82018238847908L141.54933333333332,89.06017780303956L142.22133333333335,117.23864241079852L142.41733333333335,82.87069033492696L142.45777777777778,134.5038616657257L142.63822222222223,89.06017780303956L142.8777777777778,120.73367530649358L142.96488888888888,89.06017780303956L143.0442222222222,152.74595989422366L143.07844444444444,97.44655246084388L143.12977777777778,145.0824323702942L143.16866666666667,56.75762588327582L143.5731111111111,148.17230773243037L143.5762222222222,149.24214512109756L143.7348888888889,102.49329149723054L143.73955555555557,109.33131651444869L143.9791111111111,132.18024971810254L144.23577777777777,151.13676766102964L144.46911111111112,38.12243374911222L144.68066666666667,16.1818220398643L144.94511111111112,119.02182167226619L145.16133333333332,117.23864241079852L145.894,64.9943710457195L145.90177777777777,82.87069033492696L145.9748888888889,150.22810617631131L146.0682222222222,144.38510862263766L146.104,43.07027177377182L146.5131111111111,148.17230773243037L147.62377777777778,27.599709467454403L148.0437777777778,150.22810617631131L148.50733333333332,64.9943710457195L148.5353333333333,115.38116200403735L148.65977777777778,130.94533497636968L149.22133333333335,142.11391667073423L149.48733333333334,64.9943710457195L149.67244444444447,148.71814288876274L150.00377777777777,150.22810617631131L150.08311111111112,136.64530632170764L150.3071111111111,140.43768606402656L150.38022222222222,107.14436379345982L150.56222222222223,22.007269100709408L150.74266666666665,140.43768606402656L150.75355555555555,145.75186244466087L151.19688888888888,148.71814288876274L151.7133333333333,134.5038616657257L152.13644444444444,123.95470253445887L152.29044444444446,150.22810617631131L152.65444444444444,86.02859269488943L152.768,94.76440505547957L152.85666666666668,47.82018238847908L153.64999999999998,111.43078804016115L153.75577777777778,107.14436379345982L153.87555555555556,120.73367530649358L153.89733333333334,138.61885845661163L153.958,79.58120931278576L154.0077777777778,139.5468318733302L154.65022222222223,132.18024971810254L154.92866666666666,56.75762588327582L155.51666666666668,128.31899903037333L155.6037777777778,102.49329149723054L155.60999999999999,111.43078804016115L155.7111111111111,100.0214220718904L155.81222222222223,86.02859269488943L156.16222222222223,120.73367530649358L156.1871111111111,140.43768606402656L156.4111111111111,143.65873137658292L156.45155555555556,52.380103523081004L156.5091111111111,137.65222018415278L157.1048888888889,52.380103523081004L157.13444444444445,111.43078804016115L157.29311111111113,148.17230773243037L157.7037777777778,135.5964362079447L157.87955555555556,82.87069033492696L157.93400000000003,142.9020877588879L158.592,145.0824323702942L159.81155555555557,152.3679503459822L159.86444444444444,120.73367530649358L159.98733333333334,133.3657670021057L160.3388888888889,147.0114614475857L160.4197777777778,130.94533497636968L160.63755555555556,130.94533497636968L161.01555555555555,22.007269100709408L161.40755555555558,136.64530632170764L161.65800000000002,151.13676766102964L162.03444444444443,111.43078804016115L162.08422222222222,148.17230773243037L162.414,149.24214512109756L162.71266666666665,135.5964362079447L162.8448888888889,147.60373059998858L163.0502222222222,142.11391667073423L163.36444444444444,134.5038616657257L163.41422222222224,32.968450676311164L163.47177777777776,133.3657670021057L163.59622222222222,142.9020877588879L163.8311111111111,149.74518610672519L164.12355555555555,132.18024971810254L164.17177777777778,16.1818220398643L164.2231111111111,123.95470253445887L164.40044444444445,52.380103523081004L164.49844444444443,16.1818220398643L164.86555555555557,111.43078804016115L164.91066666666666,146.3945152678273L166.10222222222222,143.65873137658292L166.12244444444445,151.13676766102964L166.23444444444445,151.97419092736462L166.45688888888887,153.108848313039L167.05577777777776,125.46924122355202L167.14444444444445,100.0214220718904L167.30933333333334,147.60373059998858L167.41044444444444,144.38510862263766L167.48044444444446,113.44628436998889L167.73399999999998,142.9020877588879L168.2131111111111,56.75762588327582L169.04844444444444,146.3945152678273L169.26777777777778,147.0114614475857L169.9631111111111,76.15467602556403L170.09533333333334,115.38116200403735L170.1202222222222,137.65222018415278L170.71444444444444,47.82018238847908L170.7408888888889,104.8662840236317L170.9431111111111,76.15467602556403L171.0691111111111,107.14436379345982L171.16555555555556,86.02859269488943L171.47977777777777,56.75762588327582L171.8111111111111,68.86732849207793L172.78177777777776,43.07027177377182L172.8128888888889,109.33131651444869L173.13333333333333,100.0214220718904L173.404,146.3945152678273L173.63733333333332,151.56402456489477L173.66844444444445,82.87069033492696L173.67311111111113,91.97049487720837L173.80533333333335,123.95470253445887L173.81,128.31899903037333L174.36844444444444,138.61885845661163L174.4088888888889,22.007269100709408L175.35622222222221,142.9020877588879L175.448,132.18024971810254L175.9737777777778,113.44628436998889L176.12466666666666,145.75186244466087L176.51044444444446,102.49329149723054L177.17933333333335,122.37705826759338L177.92444444444445,100.0214220718904L178.16711111111113,129.65896595608106L178.55288888888887,43.07027177377182L178.71933333333334,135.5964362079447L178.97755555555557,152.74595989422366L179.1751111111111,146.3945152678273L179.38822222222223,144.38510862263766L179.47533333333334,130.94533497636968L179.5251111111111,16.1818220398643L179.63555555555556,22.007269100709408L180.2266666666667,120.73367530649358L180.3651111111111,142.9020877588879L180.4008888888889,32.968450676311164L180.91266666666667,144.38510862263766L181.27666666666667,47.82018238847908L181.3777777777778,22.007269100709408L182.028,153.108848313039L182.24266666666668,152.3679503459822L182.35155555555556,152.3679503459822L182.46044444444445,152.3679503459822L182.6471111111111,140.43768606402656L182.71555555555557,100.0214220718904L182.9271111111111,89.06017780303956L183.15422222222224,104.8662840236317L183.23822222222222,52.380103523081004L183.36266666666668,89.06017780303956L183.5337777777778,147.60373059998858L183.77177777777777,16.1818220398643L183.8853333333333,32.968450676311164L184.18400000000003,146.3945152678273L184.2928888888889,146.3945152678273L184.36911111111112,125.46924122355202L185.19666666666666,47.82018238847908L185.89822222222222,129.65896595608106L186.0631111111111,32.968450676311164L186.06622222222222,43.07027177377182L186.4862222222222,151.56402456489477L187.10844444444444,138.61885845661163L187.54711111111112,140.43768606402656L187.58288888888887,16.1818220398643L187.83488888888888,102.49329149723054L188.00133333333332,148.71814288876274L188.0931111111111,141.29290637644854L188.10711111111112,147.60373059998858L188.21755555555555,148.17230773243037L188.33422222222222,150.6917094913396L188.46333333333334,47.82018238847908L188.58622222222223,82.87069033492696L188.74333333333334,139.5468318733302L188.77444444444444,151.97419092736462L188.89266666666666,27.599709467454403L188.98133333333334,148.71814288876274L188.99844444444446,16.1818220398643L189.65800000000002,38.12243374911222L189.6891111111111,107.14436379345982L190.25533333333334,130.94533497636968L190.56955555555555,119.02182167226619L190.61933333333332,150.22810617631131L190.70333333333335,139.5468318733302L190.84333333333333,151.97419092736462L191.14666666666665,143.65873137658292L191.1948888888889,72.58535645224833L191.28044444444444,152.3679503459822L191.3348888888889,122.37705826759338L191.35044444444443,135.5964362079447L191.65377777777778,113.44628436998889L192.052,32.968450676311164L192.13755555555554,148.17230773243037L192.80644444444442,152.74595989422366L193.31822222222223,140.43768606402656L193.40844444444446,126.92319894378835L193.98399999999998,146.3945152678273L194.14577777777777,94.76440505547957L194.16755555555557,123.95470253445887L194.1971111111111,144.38510862263766L194.2608888888889,104.8662840236317L194.28266666666667,129.65896595608106L194.30599999999998,144.38510862263766L194.3262222222222,151.56402456489477L194.38688888888888,125.46924122355202L194.58911111111112,107.14436379345982L194.85666666666665,147.0114614475857L195.11955555555556,82.87069033492696L195.39333333333332,143.65873137658292L195.53644444444444,32.968450676311164L195.64844444444444,43.07027177377182L195.67022222222224,94.76440505547957L196.32666666666668,100.0214220718904L196.41533333333334,56.75762588327582L196.60666666666668,149.74518610672519L196.88044444444444,113.44628436998889L197.036,147.60373059998858L197.19622222222222,97.44655246084388L197.7157777777778,38.12243374911222L198.744,126.92319894378835L198.80622222222223,43.07027177377182L198.85755555555556,130.94533497636968L199.14377777777779,72.58535645224833L199.80955555555556,97.44655246084388L200.02266666666668,89.06017780303956L201.04311111111113,136.64530632170764L201.04466666666667,137.65222018415278L201.1348888888889,122.37705826759338L201.446,102.49329149723054L201.5688888888889,120.73367530649358L201.9453333333333,150.6917094913396L202.3202222222222,107.14436379345982L202.51933333333332,72.58535645224833L202.57066666666668,138.61885845661163L202.87244444444445,117.23864241079852L202.96577777777776,94.76440505547957L203.13377777777777,147.60373059998858L203.18977777777778,104.8662840236317L203.21933333333334,135.5964362079447L203.36866666666668,152.74595989422366L204.07955555555557,126.92319894378835L204.14333333333332,47.82018238847908L204.28022222222222,107.14436379345982L204.62555555555556,128.31899903037333L204.86355555555554,142.11391667073423L205.15755555555558,115.38116200403735L205.2011111111111,147.0114614475857L206.06444444444443,143.65873137658292L206.36622222222223,126.92319894378835L206.4268888888889,38.12243374911222L206.73644444444446,150.6917094913396L207.38977777777777,150.6917094913396L207.6091111111111,151.13676766102964L207.80511111111113,142.9020877588879L208.04155555555556,150.22810617631131L208.41333333333333,100.0214220718904L208.89866666666666,145.0824323702942L209.15844444444443,64.9943710457195L209.1708888888889,91.97049487720837L209.72,100.0214220718904L210.14933333333335,89.06017780303956L210.23177777777778,16.1818220398643L210.7871111111111,52.380103523081004L210.80577777777776,94.76440505547957L211.19,147.0114614475857L211.2008888888889,150.6917094913396L211.36577777777777,117.23864241079852L211.6162222222222,142.9020877588879L211.75622222222222,16.1818220398643L212.26022222222224,137.65222018415278L212.52622222222223,43.07027177377182L212.60244444444447,145.75186244466087L212.66155555555557,102.49329149723054L212.71444444444444,147.0114614475857L212.77355555555553,107.14436379345982L212.83422222222222,150.6917094913396L213.01466666666667,132.18024971810254L213.136,140.43768606402656L213.1577777777778,149.74518610672519L213.18422222222222,56.75762588327582L213.35222222222222,139.5468318733302L214.0988888888889,128.31899903037333L214.39444444444445,86.02859269488943L214.5748888888889,150.22810617631131L214.91711111111113,27.599709467454403L214.9622222222222,120.73367530649358L215.67933333333332,27.599709467454403L216.0791111111111,142.11391667073423L216.12422222222222,56.75762588327582L216.2191111111111,153.108848313039L216.692,104.8662840236317L216.95333333333335,143.65873137658292L217.74511111111113,16.1818220398643L217.76844444444444,82.87069033492696L218.23044444444443,122.37705826759338L219.10622222222221,126.92319894378835L219.632,104.8662840236317L219.63355555555557,107.14436379345982L219.8062222222222,151.56402456489477L219.84977777777777,104.8662840236317L219.89644444444443,145.0824323702942L219.96022222222223,107.14436379345982L220.14066666666668,16.1818220398643L220.63222222222223,128.31899903037333L220.69755555555557,56.75762588327582L220.75355555555555,137.65222018415278L221.20777777777778,147.0114614475857L221.256,89.06017780303956L221.7117777777778,119.02182167226619L221.85644444444443,145.0824323702942L221.8751111111111,151.56402456489477L222.03844444444445,119.02182167226619L222.55022222222223,60.960050821304335L223.39177777777778,149.24214512109756L223.42911111111113,79.58120931278576L223.48044444444443,140.43768606402656L224.16022222222222,151.13676766102964L224.26288888888888,149.24214512109756L224.30644444444445,91.97049487720837L224.82755555555556,32.968450676311164L225.10600000000002,135.5964362079447L225.1822222222222,100.0214220718904L225.1868888888889,107.14436379345982L225.204,126.92319894378835L225.27244444444443,60.960050821304335L225.62244444444445,107.14436379345982L226.0066666666667,149.74518610672519L227.80177777777777,109.33131651444869L228.1797777777778,148.17230773243037L228.56555555555553,111.43078804016115L228.648,60.960050821304335L228.81755555555554,141.29290637644854L229.02444444444444,134.5038616657257L229.31066666666666,82.87069033492696L229.50977777777777,32.968450676311164L229.59222222222223,147.0114614475857L229.65755555555555,115.38116200403735L229.82711111111112,152.3679503459822L229.838,38.12243374911222L229.88777777777779,128.31899903037333L229.93755555555555,152.74595989422366L230.03244444444442,148.71814288876274L230.06044444444444,52.380103523081004L230.39644444444446,76.15467602556403L230.69511111111112,151.56402456489477L230.8568888888889,117.23864241079852L230.95333333333332,100.0214220718904L231.224,146.3945152678273L231.54755555555556,145.0824323702942L232.0048888888889,152.3679503459822L232.06711111111113,129.65896595608106L232.27244444444443,117.23864241079852L232.4093333333333,140.43768606402656L232.428,148.71814288876274L232.44044444444444,152.3679503459822L232.55866666666668,32.968450676311164L232.62555555555556,139.5468318733302L232.8231111111111,123.95470253445887L233.05955555555553,138.61885845661163L233.21666666666667,47.82018238847908L233.44377777777777,72.58535645224833L233.59,128.31899903037333L233.8248888888889,140.43768606402656L234.42688888888887,79.58120931278576L234.77377777777778,113.44628436998889L234.8671111111111,89.06017780303956L234.906,135.5964362079447L235.65266666666668,122.37705826759338L235.66977777777777,136.64530632170764L235.94666666666666,68.86732849207793L235.98244444444444,125.46924122355202L236.03066666666666,151.56402456489477L236.25155555555557,152.3679503459822L236.27333333333334,68.86732849207793L237.23155555555556,152.3679503459822L237.49599999999998,113.44628436998889L237.86933333333334,147.60373059998858L237.8942222222222,32.968450676311164L238.32044444444446,152.3679503459822L238.49466666666666,132.18024971810254L238.77155555555558,52.380103523081004L238.82133333333334,132.18024971810254L238.93333333333334,134.5038616657257L239.33777777777777,100.0214220718904L239.56644444444444,115.38116200403735L240.14044444444443,140.43768606402656L240.16066666666666,149.24214512109756L240.29288888888888,43.07027177377182L240.84511111111112,64.9943710457195L240.88088888888888,123.95470253445887L240.88866666666667,130.94533497636968L240.91977777777777,148.17230773243037L241.08466666666666,107.14436379345982L241.61977777777776,91.97049487720837L242.0677777777778,111.43078804016115L242.46755555555558,32.968450676311164L242.99177777777777,149.24214512109756L243.10222222222222,149.74518610672519L243.22355555555555,153.108848313039L243.71355555555556,125.46924122355202L243.72133333333332,132.18024971810254L243.7446666666667,145.75186244466087L244.25799999999998,125.46924122355202L244.30777777777777,151.97419092736462L244.61422222222222,145.0824323702942L244.972,32.968450676311164L245.10111111111112,86.02859269488943L245.13066666666666,126.92319894378835L245.2908888888889,152.74595989422366L245.37955555555556,146.3945152678273L245.72488888888887,152.3679503459822L246.02044444444445,140.43768606402656L246.46844444444446,146.3945152678273L246.512,76.15467602556403L246.64577777777777,117.23864241079852L247.23844444444444,149.24214512109756L247.27266666666665,72.58535645224833L247.73466666666667,117.23864241079852L247.96022222222223,125.46924122355202L248.03177777777776,64.9943710457195L248.85000000000002,139.5468318733302L248.91222222222223,86.02859269488943L248.92466666666667,107.14436379345982L248.9588888888889,139.5468318733302L248.97444444444443,147.0114614475857L249.09266666666664,150.22810617631131L249.14555555555555,111.43078804016115L249.28088888888888,136.64530632170764L249.32911111111113,38.12243374911222L250.05555555555557,143.65873137658292L250.3308888888889,91.97049487720837L250.42733333333334,64.9943710457195L250.78977777777777,123.95470253445887L250.7991111111111,132.18024971810254L251.77133333333333,125.46924122355202L251.8273333333333,16.1818220398643L251.9782222222222,113.44628436998889L252.27844444444443,64.9943710457195L252.3048888888889,113.44628436998889L252.30644444444442,115.38116200403735L252.77155555555555,140.43768606402656L252.82755555555553,76.15467602556403L253.16822222222223,102.49329149723054L253.38755555555554,104.8662840236317L253.84488888888887,129.65896595608106L254.08755555555555,145.0824323702942L254.31,147.0114614475857L254.4437777777778,27.599709467454403L254.45933333333335,72.58535645224833L254.67866666666666,76.15467602556403L254.74866666666668,148.17230773243037L254.78755555555554,76.15467602556403L254.98355555555554,153.108848313039L255.09244444444445,153.108848313039L255.35533333333333,115.38116200403735L255.46266666666668,113.44628436998889L255.55444444444444,86.02859269488943L255.73955555555557,151.56402456489477L255.93244444444446,142.11391667073423L257.1022222222222,120.73367530649358L257.6186666666667,76.15467602556403L257.6357777777778,107.14436379345982L257.7726666666667,135.5964362079447L257.8333333333333,68.86732849207793L257.8971111111111,144.38510862263766L258.1164444444444,145.0824323702942L258.70755555555553,76.15467602556403L258.8428888888889,119.02182167226619L259.30488888888885,140.43768606402656L260.23822222222225,89.06017780303956L260.33155555555555,52.380103523081004L260.34711111111113,89.06017780303956L260.5415555555556,27.599709467454403L261.4313333333333,79.58120931278576L261.62733333333335,16.1818220398643L261.7813333333333,117.23864241079852L261.9928888888889,109.33131651444869L262.18266666666665,52.380103523081004L262.2728888888889,151.56402456489477L262.3802222222222,151.13676766102964L262.38644444444446,152.74595989422366L262.54355555555554,117.23864241079852L262.67733333333337,138.61885845661163L262.7006666666667,149.24214512109756L263.57644444444446,150.6917094913396L263.7522222222222,128.31899903037333L263.9513333333333,107.14436379345982L263.9746666666667,132.18024971810254L264.08355555555556,132.18024971810254L264.26711111111115,89.06017780303956L264.34644444444444,152.74595989422366L264.45377777777776,152.3679503459822L264.46,22.007269100709408L265.2797777777778,130.94533497636968L265.3093333333333,147.60373059998858L265.4337777777778,152.3679503459822L265.6235555555556,142.11391667073423L265.7868888888889,79.58120931278576L266.06533333333334,145.0824323702942L266.0871111111111,152.3679503459822L266.1431111111111,123.95470253445887L266.2068888888889,38.12243374911222L266.3531111111111,115.38116200403735L266.4293333333333,52.380103523081004L266.45422222222226,104.8662840236317L266.58022222222223,125.46924122355202L266.70933333333335,140.43768606402656L266.8446666666666,151.13676766102964L266.87266666666665,72.58535645224833L267.0826666666667,52.380103523081004L267.29422222222223,32.968450676311164L267.8962222222222,133.3657670021057L267.9537777777778,52.380103523081004L268.3691111111111,151.13676766102964L268.68955555555556,149.24214512109756L268.7471111111111,113.44628436998889L269.976,140.43768606402656L270.08022222222223,137.65222018415278L270.1751111111111,126.92319894378835L270.3322222222222,151.97419092736462L270.7351111111111,138.61885845661163L270.8346666666667,132.18024971810254L271.4771111111111,122.37705826759338L271.69955555555555,126.92319894378835L272.20355555555557,60.960050821304335L272.5162222222222,16.1818220398643L272.6375555555556,56.75762588327582L272.65155555555555,89.06017780303956L273.1306666666667,138.61885845661163L273.34222222222223,134.5038616657257L273.36555555555555,147.0114614475857L273.42622222222224,109.33131651444869" style="fill: none;" fill="none"></path></g></g></g></g></g></g><g transform="translate(50, 178)" clip-path="url(#clip_1)"><clipPath id="clip_1"><rect width="280" height="22"></rect></clipPath><g><g><line x1="0" y1="0" x2="0" y2="5" style="visibility: inherit;" fill="rgb(0, 0, 0)" stroke="rgb(204, 204, 204)" stroke-width="1px"></line><line x1="31.11111111111111" y1="0" x2="31.11111111111111" y2="5" style="visibility: inherit;" fill="rgb(0, 0, 0)" stroke="rgb(204, 204, 204)" stroke-width="1px"></line><line x1="62.22222222222222" y1="0" x2="62.22222222222222" y2="5" style="visibility: inherit;" fill="rgb(0, 0, 0)" stroke="rgb(204, 204, 204)" stroke-width="1px"></line><line x1="93.33333333333333" y1="0" x2="93.33333333333333" y2="5" style="visibility: inherit;" fill="rgb(0, 0, 0)" stroke="rgb(204, 204, 204)" stroke-width="1px"></line><line x1="124.44444444444444" y1="0" x2="124.44444444444444" y2="5" style="visibility: inherit;" fill="rgb(0, 0, 0)" stroke="rgb(204, 204, 204)" stroke-width="1px"></line><line x1="155.55555555555557" y1="0" x2="155.55555555555557" y2="5" style="visibility: inherit;" fill="rgb(0, 0, 0)" stroke="rgb(204, 204, 204)" stroke-width="1px"></line><line x1="186.66666666666666" y1="0" x2="186.66666666666666" y2="5" style="visibility: inherit;" fill="rgb(0, 0, 0)" stroke="rgb(204, 204, 204)" stroke-width="1px"></line><line x1="217.77777777777777" y1="0" x2="217.77777777777777" y2="5" style="visibility: inherit;" fill="rgb(0, 0, 0)" stroke="rgb(204, 204, 204)" stroke-width="1px"></line><line x1="248.88888888888889" y1="0" x2="248.88888888888889" y2="5" style="visibility: inherit;" fill="rgb(0, 0, 0)" stroke="rgb(204, 204, 204)" stroke-width="1px"></line><line x1="280" y1="0" x2="280" y2="5" style="visibility: inherit;" fill="rgb(0, 0, 0)" stroke="rgb(204, 204, 204)" stroke-width="1px"></line></g><g transform="translate(0, 8)"><text x="0" y="0" dx="0em" dy="0.95em" style="text-anchor: middle; visibility: hidden; font-family: &quot;Helvetica Neue&quot;, sans-serif; font-size: 12px; font-weight: 200;" fill="rgb(50, 49, 63)" stroke="none" stroke-width="1px">-20k</text><text x="31.11111111111111" y="0" dx="0em" dy="0.95em" style="text-anchor: middle; visibility: inherit; font-family: &quot;Helvetica Neue&quot;, sans-serif; font-size: 12px; font-weight: 200;" fill="rgb(50, 49, 63)" stroke="none" stroke-width="1px">0</text><text x="62.22222222222222" y="0" dx="0em" dy="0.95em" style="text-anchor: middle; visibility: hidden; font-family: &quot;Helvetica Neue&quot;, sans-serif; font-size: 12px; font-weight: 200;" fill="rgb(50, 49, 63)" stroke="none" stroke-width="1px">20k</text><text x="93.33333333333333" y="0" dx="0em" dy="0.95em" style="text-anchor: middle; visibility: inherit; font-family: &quot;Helvetica Neue&quot;, sans-serif; font-size: 12px; font-weight: 200;" fill="rgb(50, 49, 63)" stroke="none" stroke-width="1px">40k</text><text x="124.44444444444444" y="0" dx="0em" dy="0.95em" style="text-anchor: middle; visibility: hidden; font-family: &quot;Helvetica Neue&quot;, sans-serif; font-size: 12px; font-weight: 200;" fill="rgb(50, 49, 63)" stroke="none" stroke-width="1px">60k</text><text x="155.55555555555557" y="0" dx="0em" dy="0.95em" style="text-anchor: middle; visibility: inherit; font-family: &quot;Helvetica Neue&quot;, sans-serif; font-size: 12px; font-weight: 200;" fill="rgb(50, 49, 63)" stroke="none" stroke-width="1px">80k</text><text x="186.66666666666666" y="0" dx="0em" dy="0.95em" style="text-anchor: middle; visibility: hidden; font-family: &quot;Helvetica Neue&quot;, sans-serif; font-size: 12px; font-weight: 200;" fill="rgb(50, 49, 63)" stroke="none" stroke-width="1px">100k</text><text x="217.77777777777777" y="0" dx="0em" dy="0.95em" style="text-anchor: middle; visibility: inherit; font-family: &quot;Helvetica Neue&quot;, sans-serif; font-size: 12px; font-weight: 200;" fill="rgb(50, 49, 63)" stroke="none" stroke-width="1px">120k</text><text x="248.88888888888889" y="0" dx="0em" dy="0.95em" style="text-anchor: middle; visibility: hidden; font-family: &quot;Helvetica Neue&quot;, sans-serif; font-size: 12px; font-weight: 200;" fill="rgb(50, 49, 63)" stroke="none" stroke-width="1px">140k</text><text x="280" y="0" dx="0em" dy="0.95em" style="text-anchor: middle; visibility: hidden; font-family: &quot;Helvetica Neue&quot;, sans-serif; font-size: 12px; font-weight: 200;" fill="rgb(50, 49, 63)" stroke="none" stroke-width="1px">160k</text></g><line x1="0" y1="0" x2="280" y2="0" fill="rgb(0, 0, 0)" stroke="rgb(204, 204, 204)" stroke-width="1px"></line></g></g></g></g></svg>