<svg viewBox="0 0 330 200" xmlns="http://www.w3.org/2000/svg"><g><g><g><g><g><line x1="50" y1="178" x2="45" y2="178" style="visibility: inherit;" fill="rgb(0, 0, 0)" stroke="rgb(204, 204, 204)" stroke-width="1px"></line><line x1="50" y1="161.8181818181818" x2="45" y2="161.8181818181818" style="visibility: inherit;" fill="rgb(0, 0, 0)" stroke="rgb(204, 204, 204)" stroke-width="1px"></line><line x1="50" y1="145.63636363636363" x2="45" y2="145.63636363636363" style="visibility: inherit;" fill="rgb(0, 0, 0)" stroke="rgb(204, 204, 204)" stroke-width="1px"></line><line x1="50" y1="129.45454545454544" x2="45" y2="129.45454545454544" style="visibility: inherit;" fill="rgb(0, 0, 0)" stroke="rgb(204, 204, 204)" stroke-width="1px"></line><line x1="50" y1="113.27272727272727" x2="45" y2="113.27272727272727" style="visibility: inherit;" fill="rgb(0, 0, 0)" stroke="rgb(204, 204, 204)" stroke-width="1px"></line><line x1="50" y1="97.0909090909091" x2="45" y2="97.0909090909091" style="visibility: inherit;" fill="rgb(0, 0, 0)" stroke="rgb(204, 204, 204)" stroke-width="1px"></line><line x1="50" y1="80.90909090909092" x2="45" y2="80.90909090909092" style="visibility: inherit;" fill="rgb(0, 0, 0)" stroke="rgb(204, 204, 204)" stroke-width="1px"></line><line x1="50" y1="64.72727272727275" x2="45" y2="64.72727272727275" style="visibility: inherit;" fill="rgb(0, 0, 0)" stroke="rgb(204, 204, 204)" stroke-width="1px"></line><line x1="50" y1="48.54545454545456" x2="45" y2="48.54545454545456" style="visibility: inherit;" fill="rgb(0, 0, 0)" stroke="rgb(204, 204, 204)" stroke-width="1px"></line><line x1="50" y1="32.363636363636374" x2="45" y2="32.363636363636374" style="visibility: inherit;" fill="rgb(0, 0, 0)" stroke="rgb(204, 204, 204)" stroke-width="1px"></line><line x1="50" y1="16.181818181818187" x2="45" y2="16.181818181818187" style="visibility: inherit;" fill="rgb(0, 0, 0)" stroke="rgb(204, 204, 204)" stroke-width="1px"></line><line x1="50" y1="0" x2="45" y2="0" style="visibility: inherit;" fill="rgb(0, 0, 0)" stroke="rgb(204, 204, 204)" stroke-width="1px"></line></g><g transform="translate(40, 0)"><text x="0" y="178" dx="0em" dy="0.3em" style="text-anchor: end; visibility: hidden; font-family: &quot;Helvetica Neue&quot;, sans-serif; font-size: 12px; font-weight: 200;" fill="rgb(50, 49, 63)" stroke="none" stroke-width="1px">-0.1</text><text x="0" y="161.8181818181818" dx="0em" dy="0.3em" style="text-anchor: end; visibility: inherit; font-family: &quot;Helvetica Neue&quot;, sans-serif; font-size: 12px; font-weight: 200;" fill="rgb(50, 49, 63)" stroke="none" stroke-width="1px">0</text><text x="0" y="145.63636363636363" dx="0em" dy="0.3em" style="text-anchor: end; visibility: hidden; font-family: &quot;Helvetica Neue&quot;, sans-serif; font-size: 12px; font-weight: 200;" fill="rgb(50, 49, 63)" stroke="none" stroke-width="1px">0.1</text><text x="0" y="129.45454545454544" dx="0em" dy="0.3em" style="text-anchor: end; visibility: inherit; font-family: &quot;Helvetica Neue&quot;, sans-serif; font-size: 12px; font-weight: 200;" fill="rgb(50, 49, 63)" stroke="none" stroke-width="1px">0.2</text><text x="0" y="113.27272727272727" dx="0em" dy="0.3em" style="text-anchor: end; visibility: hidden; font-family: &quot;Helvetica Neue&quot;, sans-serif; font-size: 12px; font-weight: 200;" fill="rgb(50, 49, 63)" stroke="none" stroke-width="1px">0.3</text><text x="0" y="97.0909090909091" dx="0em" dy="0.3em" style="text-anchor: end; visibility: inherit; font-family: &quot;Helvetica Neue&quot;, sans-serif; font-size: 12px; font-weight: 200;" fill="rgb(50, 49, 63)" stroke="none" stroke-width="1px">0.4</text><text x="0" y="80.90909090909092" dx="0em" dy="0.3em" style="text-anchor: end; visibility: hidden; font-family: &quot;Helvetica Neue&quot;, sans-serif; font-size: 12px; font-weight: 200;" fill="rgb(50, 49, 63)" stroke="none" stroke-width="1px">0.5</text><text x="0" y="64.72727272727275" dx="0em" dy="0.3em" style="text-anchor: end; visibility: inherit; font-family: &quot;Helvetica Neue&quot;, sans-serif; font-size: 12px; font-weight: 200;" fill="rgb(50, 49, 63)" stroke="none" stroke-width="1px">0.6</text><text x="0" y="48.54545454545456" dx="0em" dy="0.3em" style="text-anchor: end; visibility: hidden; font-family: &quot;Helvetica Neue&quot;, sans-serif; font-size: 12px; font-weight: 200;" fill="rgb(50, 49, 63)" stroke="none" stroke-width="1px">0.7</text><text x="0" y="32.363636363636374" dx="0em" dy="0.3em" style="text-anchor: end; visibility: inherit; font-family: &quot;Helvetica Neue&quot;, sans-serif; font-size: 12px; font-weight: 200;" fill="rgb(50, 49, 63)" stroke="none" stroke-width="1px">0.8</text><text x="0" y="16.181818181818187" dx="0em" dy="0.3em" style="text-anchor: end; visibility: hidden; font-family: &quot;Helvetica Neue&quot;, sans-serif; font-size: 12px; font-weight: 200;" fill="rgb(50, 49, 63)" stroke="none" stroke-width="1px">0.9</text><text x="0" y="0" dx="0em" dy="0.3em" style="text-anchor: end; visibility: hidden; font-family: &quot;Helvetica Neue&quot;, sans-serif; font-size: 12px; font-weight: 200;" fill="rgb(50, 49, 63)" stroke="none" stroke-width="1px">1</text></g><line x1="50" y1="0" x2="50" y2="178" fill="rgb(0, 0, 0)" stroke="rgb(204, 204, 204)" stroke-width="1px"></line></g></g><g transform="translate(50, 0)" clip-path="url(#clip_0)"><clipPath id="clip_0"><rect width="280" height="178"></rect></clipPath><g><g><g><line x1="0" y1="0" x2="0" y2="178" fill="rgb(0, 0, 0)" stroke="rgb(60, 60, 60)" stroke-width="1px" opacity="0.25"></line><line x1="31.11111111111111" y1="0" x2="31.11111111111111" y2="178" fill="rgb(0, 0, 0)" stroke="rgb(60, 60, 60)" stroke-width="1px" opacity="0.25"></line><line x1="62.22222222222222" y1="0" x2="62.22222222222222" y2="178" fill="rgb(0, 0, 0)" stroke="rgb(60, 60, 60)" stroke-width="1px" opacity="0.25"></line><line x1="93.33333333333333" y1="0" x2="93.33333333333333" y2="178" fill="rgb(0, 0, 0)" stroke="rgb(60, 60, 60)" stroke-width="1px" opacity="0.25"></line><line x1="124.44444444444444" y1="0" x2="124.44444444444444" y2="178" fill="rgb(0, 0, 0)" stroke="rgb(60, 60, 60)" stroke-width="1px" opacity="0.25"></line><line x1="155.55555555555557" y1="0" x2="155.55555555555557" y2="178" fill="rgb(0, 0, 0)" stroke="rgb(60, 60, 60)" stroke-width="1px" opacity="0.25"></line><line x1="186.66666666666666" y1="0" x2="186.66666666666666" y2="178" fill="rgb(0, 0, 0)" stroke="rgb(60, 60, 60)" stroke-width="1px" opacity="0.25"></line><line x1="217.77777777777777" y1="0" x2="217.77777777777777" y2="178" fill="rgb(0, 0, 0)" stroke="rgb(60, 60, 60)" stroke-width="1px" opacity="0.25"></line><line x1="248.88888888888889" y1="0" x2="248.88888888888889" y2="178" fill="rgb(0, 0, 0)" stroke="rgb(60, 60, 60)" stroke-width="1px" opacity="0.25"></line><line x1="280" y1="0" x2="280" y2="178" fill="rgb(0, 0, 0)" stroke="rgb(60, 60, 60)" stroke-width="1px" opacity="0.25"></line></g><g><line x1="0" y1="178" x2="280" y2="178" fill="rgb(0, 0, 0)" stroke="rgb(60, 60, 60)" stroke-width="1px" opacity="0.25"></line><line x1="0" y1="161.8181818181818" x2="280" y2="161.8181818181818" fill="rgb(0, 0, 0)" stroke="rgb(60, 60, 60)" stroke-width="1px" opacity="0.25"></line><line x1="0" y1="145.63636363636363" x2="280" y2="145.63636363636363" fill="rgb(0, 0, 0)" stroke="rgb(60, 60, 60)" stroke-width="1px" opacity="0.25"></line><line x1="0" y1="129.45454545454544" x2="280" y2="129.45454545454544" fill="rgb(0, 0, 0)" stroke="rgb(60, 60, 60)" stroke-width="1px" opacity="0.25"></line><line x1="0" y1="113.27272727272727" x2="280" y2="113.27272727272727" fill="rgb(0, 0, 0)" stroke="rgb(60, 60, 60)" stroke-width="1px" opacity="0.25"></line><line x1="0" y1="97.0909090909091" x2="280" y2="97.0909090909091" fill="rgb(0, 0, 0)" stroke="rgb(60, 60, 60)" stroke-width="1px" opacity="0.25"></line><line x1="0" y1="80.90909090909092" x2="280" y2="80.90909090909092" fill="rgb(0, 0, 0)" stroke="rgb(60, 60, 60)" stroke-width="1px" opacity="0.25"></line><line x1="0" y1="64.72727272727275" x2="280" y2="64.72727272727275" fill="rgb(0, 0, 0)" stroke="rgb(60, 60, 60)" stroke-width="1px" opacity="0.25"></line><line x1="0" y1="48.54545454545456" x2="280" y2="48.54545454545456" fill="rgb(0, 0, 0)" stroke="rgb(60, 60, 60)" stroke-width="1px" opacity="0.25"></line><line x1="0" y1="32.363636363636374" x2="280" y2="32.363636363636374" fill="rgb(0, 0, 0)" stroke="rgb(60, 60, 60)" stroke-width="1px" opacity="0.25"></line><line x1="0" y1="16.181818181818187" x2="280" y2="16.181818181818187" fill="rgb(0, 0, 0)" stroke="rgb(60, 60, 60)" stroke-width="1px" opacity="0.25"></line><line x1="0" y1="0" x2="280" y2="0" fill="rgb(0, 0, 0)" stroke="rgb(60, 60, 60)" stroke-width="1px" opacity="0.25"></line></g></g></g><g><g><line x1="0" y1="161.8181818181818" x2="280" y2="161.8181818181818" fill="rgb(0, 0, 0)" stroke="rgb(153, 153, 153)" stroke-width="1.5px"></line></g></g><g><g><line x1="31.11111111111111" y1="0" x2="31.11111111111111" y2="178" fill="rgb(0, 0, 0)" stroke="rgb(153, 153, 153)" stroke-width="1.5px"></line></g></g><g><g><g><g><g><path stroke="rgb(255, 112, 67)" stroke-width="2px" d="M31.176444444444442,135.5964362079447L31.37088888888889,125.48374275926616L31.467333333333332,116.12866069608987L31.848444444444443,123.70648349729734L31.94488888888889,127.05942318749668L32.01177777777778,122.11159163457955L32.022666666666666,120.86997193958972L32.09733333333333,111.1109209684975L32.117555555555555,108.9756859171459L32.22177777777778,106.35341756355113L32.367999999999995,108.71307435558239L32.68844444444444,110.2389491377052L33.184666666666665,104.65816262890284L33.26555555555556,107.70311147491702L33.276444444444444,110.58913287857287L33.34488888888889,111.78996176985736L33.80844444444445,113.8418571137838L33.81311111111111,115.76536733420224L34.03088888888889,117.48639762633789L34.093111111111114,117.38013235662014L34.278222222222226,114.25382694561327L34.699777777777776,116.02191105541121L34.827333333333335,113.77882021780009L34.97666666666667,114.39165721478781L34.97822222222222,115.00970964419429L35.28777777777778,114.87033043123748L35.83688888888889,114.95919131209033L36.135555555555555,113.29072302896613L36.160444444444444,113.29616268739335L36.252222222222215,112.37399623591976L36.739111111111114,113.3478155774411L36.74222222222222,114.30979433519902L36.82,114.50758966185133L37.05488888888889,115.13814387632087L37.26488888888889,115.56011981602703L37.82644444444444,116.28750561189051L37.955555555555556,117.20814709136239L38.09866666666667,116.10767605685365L38.12511111111112,116.18382692050812L38.384888888888895,116.98474643266469L38.84377777777778,114.76071576145745L39.09733333333333,114.62877528582857L39.425555555555555,114.5528302230597L39.44733333333333,114.9896586304591L40.013555555555556,115.68841781439356L40.23288888888889,116.3710786646623L40.29977777777778,116.34952830353679L40.42888888888889,116.7367042602977L40.75555555555555,117.10807414295235L40.78511111111111,117.76663515707713L41.531777777777776,118.2719153025653L41.550444444444445,118.90226674774816L41.77288888888889,119.53469334845082L41.94711111111111,119.72719383543318L42.24111111111111,119.09779457654619L42.715555555555554,119.38054030104945L42.72022222222222,119.71015845299112L43.24133333333334,119.66631970817355L43.29577777777778,120.2153404100255L43.65822222222222,119.6806139438602L43.83555555555556,120.18841449188108L43.89933333333333,120.22480317945764L44.330222222222226,120.17591874128416L44.345777777777776,120.36945882956587L44.49044444444445,120.84368404222775L44.92133333333334,121.27990372693293L45.01,121.56164360025514L45.51555555555556,121.23414182332417L45.83911111111111,120.83732715812044L45.97288888888889,120.92730315753911L45.99311111111111,121.22430254408528L46.196888888888886,121.3819361178769L47.28733333333333,121.55208093713502L47.41177777777778,121.85125697760358L47.47866666666667,121.61630523787963L47.61088888888889,121.74371786633591L47.88,120.39857860140572L48.06977777777778,120.72738244481151L48.074444444444445,121.07324106784394L48.169333333333334,121.32498695193402L48.25333333333334,121.31739081010738L48.38088888888889,121.51199186970835L49.04977777777778,121.80777937823221L49.102666666666664,121.40151881553341L49.28777777777778,121.776520416453L49.40288888888889,120.49573471510962L49.72955555555555,119.24441031473786L49.73733333333333,118.34058209690272L50.03288888888889,118.66987230636819L50.22888888888888,118.85375333316026L51.142,119.2432121237893L51.38622222222222,118.82959111876832L51.42822222222222,119.01830302813453L52.262,118.71696843020334L52.297777777777775,118.89108162086576L52.593333333333334,118.68503512373246L53.23266666666667,118.18659576493462L53.346222222222224,117.80846313221086L53.41466666666667,118.13623591474168L53.58422222222222,118.10729844974085L53.88133333333334,117.51271229920285L53.928,117.6638982574907L54.10066666666667,117.12601235444723L54.24688888888888,117.21043953613726L55.18022222222223,116.4173608638859L55.233111111111114,116.5617410414714L55.632888888888886,116.22988283963436L56.18044444444444,115.96460784873457L56.49933333333333,115.54474831292869L57.333111111111116,115.85782711257616L57.65822222222222,116.15984990758287L57.70644444444444,115.93166101905169L58.04866666666667,115.9265113477326L58.08288888888889,116.17676500615502L58.40022222222222,116.37435829913474L58.422,116.66454790955902L59.81266666666667,116.83592858191165L60.84711111111111,116.2571040417713L60.92955555555555,116.5509703537711L61.492666666666665,115.76471516406664L61.662222222222226,115.92906527070747L61.684,116.19419972986137L61.803777777777775,116.48812567121453L62.214444444444446,116.68575766962167L62.30466666666667,116.76047365658182L62.318666666666665,116.92836212385318L62.43688888888889,117.13943379073997L62.60177777777778,116.85434312913793L62.614222222222224,116.75533598160612L62.724666666666664,116.67653277005971L62.906666666666666,115.90585970270138L63.06066666666667,115.93104593409493L63.12133333333334,116.22943953304716L63.434,116.49255487398341L63.43866666666667,116.7632396538734L63.55222222222222,117.04001884334184L63.90222222222222,116.66393278870916L64.00177777777778,116.09326876606299L64.13866666666667,116.00679592180475L64.274,116.13960860768739L64.59133333333332,116.21051758355014L65.09688888888888,115.793345228043L65.71444444444445,116.02752569382972L65.84666666666666,115.32679521336769L65.89022222222222,115.34095280131845L67.10355555555556,115.46485732921167L67.11911111111111,115.65970381530231L67.18755555555556,115.581281926834L67.22800000000001,115.77286005748769L67.33377777777778,115.94985076292681L67.45044444444444,116.15264503887994L67.55311111111111,116.3308473935986L67.72888888888889,116.21594046947015L67.93111111111111,115.88435369490327L67.94822222222223,115.79113443321512L67.97933333333333,115.92818815086244L68.348,116.18396603326488L68.67311111111111,116.4340177727966L68.88311111111112,116.66695000281675L68.88622222222223,116.90286151299549L68.94533333333334,116.95026040314653L69.41044444444445,117.13361444623214L69.56288888888889,116.78712386344634L69.57533333333333,116.62313113544676L69.846,116.80556413679594L69.89733333333334,116.58380252828374L70.39355555555555,116.77336419200086L70.51644444444445,116.99259218372065L70.60822222222222,117.16867906873651L71.26311111111112,117.34714783332095L71.31755555555556,117.18577061882202L71.43266666666666,117.09283511318812L72.02688888888889,117.27315406911461L72.79533333333333,117.46654421900192L72.79688888888889,117.66111702469874L73.35066666666667,117.87109953833388L73.35844444444444,117.24452662971984L73.89666666666668,117.45741950614405L74.0491111111111,117.39452312295371L74.10355555555554,117.58458785355691L74.39444444444445,117.64939344347123L74.536,117.8293268600486L75.348,117.69146788491494L75.51133333333333,117.85835419446106L76.17555555555555,118.04706422301396L76.216,117.87635597686095L76.31866666666667,117.63184601384089L76.5348888888889,117.36912794106016L76.63133333333333,116.90917158164049L76.95488888888889,116.3932881914266L76.97977777777777,116.25288402416992L77.17266666666667,115.74563477042858L77.51177777777778,115.45661457393987L77.78555555555555,115.59316337080958L77.826,115.09671412185037L78.04844444444444,114.69222655669604L78.28644444444444,114.565211670037L78.50888888888889,114.48428308957685L78.72977777777778,114.43100713334599L78.876,114.57441221232018L78.89777777777778,114.76747807811364L79.9648888888889,114.9077619062935L80.02244444444445,114.71556573329221L80.416,114.89370467903163L80.70222222222222,114.92519782590523L80.78933333333333,114.78632583176993L80.8951111111111,114.61571287698094L81.21088888888889,114.30775640703796L81.56555555555555,114.29250931204335L81.732,114.48458859389572L81.91088888888889,114.5710823348498L82.07422222222222,114.14411414884607L82.27955555555555,114.33908061311803L82.292,113.91689813208784L82.49733333333334,114.1114113715227L82.726,113.66628189568772L82.866,113.6090307266117L83.02777777777777,113.77948411100894L83.07133333333334,113.60568262723977L83.5908888888889,113.80379149881047L83.60955555555556,113.55774150482046L83.6391111111111,113.5762223730702L83.66555555555556,113.70609203216654L83.74955555555556,113.73256815902771L83.8071111111111,113.92423695357985L83.86466666666666,113.98128535365844L84.05600000000001,113.85862383140717L84.56311111111111,114.03920778005744L84.59577777777778,113.87092509254447L84.81666666666666,113.73547740303317L84.93177777777777,113.65653993750463L85.218,113.83747629736288L86.07355555555556,113.99095602781026L86.10622222222221,113.651185020687L86.142,113.65944179642555L86.30688888888889,113.83764001178976L86.44688888888889,113.67536590821352L86.75488888888889,113.26914010992263L86.87622222222222,113.04215621595709L87.03800000000001,113.15744387659603L87.16866666666667,113.3208714292033L87.49377777777778,113.48029776395477L87.53888888888889,113.35310279809697L88.08955555555556,113.27966806962681L88.13622222222223,113.4159311395192L88.30422222222222,113.3176360388024L88.43333333333334,113.35150606214557L88.52199999999999,113.25420327349174L88.9808888888889,113.30272784221295L89.42733333333334,113.39338913937385L89.8551111111111,113.45431355565044L90.02933333333334,113.1802578308355L90.52088888888889,113.28518564217134L90.90511111111111,113.06999242613044L90.92999999999999,113.06271297333285L91.34222222222223,112.86712111713082L91.52888888888889,113.0297721377788L91.74822222222221,113.19327806942633L92.23822222222222,113.19438639971627L92.86977777777778,113.03267533759562L92.99266666666666,112.98681597237079L93.14355555555555,113.11313159987037L93.19177777777777,112.90514873373225L93.36444444444444,113.03763424480793L93.79377777777778,113.15528366498745L94.11111111111111,113.24664853604892L94.36466666666668,113.40827566250141L94.37088888888889,113.57553143475296L94.42222222222222,113.60586774816977L94.45333333333333,113.73282112595497L94.56688888888888,113.86764557863174L94.9511111111111,113.80952907239147L95.26844444444446,113.68008391070009L95.31044444444444,113.77148882182505L95.41933333333333,113.86222482729305L95.72733333333333,113.88360804801367L95.75222222222223,113.98963227794243L96.65288888888888,114.14438135556131L97.14444444444445,114.17143481189058L97.17244444444444,114.28580219111089L97.49911111111112,114.39935027021936L98.80577777777778,114.5120877654706L98.94422222222221,114.66714009111766L98.994,114.68474612366515L99.106,114.71575188773619L99.14800000000001,114.85239279910905L99.15422222222222,114.9959820868044L99.25222222222223,115.12386678793197L99.54466666666666,115.16506764607567L99.6691111111111,115.25435730031231L99.86666666666667,115.27604956711704L99.87755555555556,115.33790024588154L99.946,115.1696409198457L100.02844444444443,115.3124574514128L100.82488888888889,115.20974028000634L101.05511111111112,115.18680659774869L101.59333333333333,115.12781256034944L101.60733333333333,115.14291678148709L101.68977777777778,114.99212191920222L101.89977777777779,114.76753234965021L102.13466666666667,114.69060720792113L103.16133333333333,114.79576856294344L103.18622222222221,114.93636683003834L103.30911111111112,114.64346488041443L103.44288888888889,114.57807467146158L104.69044444444444,114.69109735803818L105.13222222222223,114.81330892966955L105.21466666666667,114.87879564394339L105.26288888888888,114.50766052861464L105.31888888888889,114.55945302305585L105.37955555555556,114.29210393198319L105.59422222222223,113.98880767339062L105.69533333333334,114.1329588665192L105.73111111111112,114.08061554212344L105.896,114.20462543500848L106.05933333333334,114.16141907841914L106.13088888888889,114.303386353506L106.58977777777778,114.16339774837124L107.09066666666666,114.28135655307359L107.75644444444444,114.41425695482778L107.87933333333332,114.09821515841003L108.07533333333333,114.22193264953472L108.89822222222222,114.21912378638174L108.976,113.99577097847929L109.12066666666666,114.01387699244032L109.14555555555556,114.1056190148252L109.19222222222223,113.86806594383333L109.30577777777778,113.67894339235782L109.86733333333332,113.62106883730712L110.16288888888889,113.27455036707047L110.41177777777777,113.21840554562885L110.65288888888888,113.2668954572129L110.79755555555555,113.39008412366411L110.8831111111111,113.4719497216601L111.68577777777777,113.6111331182815L111.69822222222223,113.3966614246383L111.92844444444445,113.29000614158187L112.00155555555556,113.41874382504348L112.45422222222221,113.13905134732752L112.5491111111111,113.27082737529105L112.79333333333334,113.11721521677474L113.06088888888888,113.19841002742332L113.40933333333334,113.31685156786405L113.46066666666667,113.26235061892484L113.69866666666667,113.29898057044862L113.72200000000001,113.39465032668959L114.28355555555555,113.51507787629197L114.65377777777778,113.43190474962806L114.66466666666666,113.4105715284791L114.6708888888889,113.41724165375221L114.6771111111111,113.4474970081179L114.89644444444444,113.48289342909864L114.9648888888889,113.277538262094L115.22311111111111,113.31333771902374L115.27911111111112,113.44645484860638L115.30244444444445,113.33343965041087L115.48599999999999,113.45627754425983L116.18599999999999,113.4198619706579L116.36644444444444,113.55018825822575L116.56866666666667,113.66466072106012L116.63866666666667,113.69860480075478L116.96688888888889,113.73734391295602L117.13177777777778,113.41700649360851L117.51133333333334,113.45649154930982L117.52377777777777,113.52886083798316L117.77577777777778,113.65151230817676L117.85822222222221,113.73867352952816L118.74644444444445,113.85046732599208L119.0108888888889,113.77959005248633L119.03266666666666,113.80737818449117L119.16799999999999,113.89866482344387L119.44644444444444,113.82810497496929L119.49777777777777,113.92388071680554L119.77622222222222,113.87109445212316L120.24288888888888,113.93340967275752L120.25222222222222,114.0151041894296L120.53066666666666,113.91598548784688L120.96,113.77292804638748L121.79222222222222,113.8782518718364L122.01777777777778,113.99165843313541L122.19822222222221,114.04108954952386L122.33044444444444,114.13662052997722L122.45177777777778,114.24690506617047L122.49377777777778,114.1679496659088L122.52022222222222,114.20330150688156L123.29955555555556,114.27951420565824L123.37266666666666,114.24280161966996L123.5608888888889,113.9901766143012L123.88444444444444,113.70486772692483L123.93111111111111,113.7266236741371L124.72288888888889,113.81674033882692L124.73222222222222,113.91905789539493L124.76644444444445,113.74323281446873L124.90644444444445,113.74826054755793L125.18333333333334,113.86535525967706L126.31888888888888,113.85791298210498L126.42933333333333,113.85665724925148L126.68133333333334,113.94268371257375L126.83066666666667,113.72735979300867L127.05777777777777,113.59134367933149L127.77177777777777,113.68003396163023L127.89622222222224,113.78742246700112L128.35822222222222,113.60236180144071L128.40644444444445,113.65452255949592L128.91511111111112,113.56212255144013L129.14844444444444,113.54944883352798L129.45333333333332,113.41586654200539L129.7768888888889,113.25935529907584L129.77844444444443,113.11563324438869L129.90911111111112,113.09788727079773L130.1548888888889,113.1646189620447L130.45666666666665,113.15948643362182L130.648,113.00526670126808L130.8191111111111,113.09109850325991L131.01666666666665,113.13591322712269L131.46155555555555,113.20188491119353L131.4771111111111,113.29330006680648L131.73533333333333,113.1278824666483L132.04955555555554,112.8447734485533L132.60333333333335,112.65524779490708L132.67644444444446,112.74958193145937L132.92222222222222,112.48610587450543L132.97044444444444,112.51477031712773L133.1571111111111,112.39927222907275L133.22244444444445,112.49556424464407L133.3251111111111,112.5831853437906L133.6331111111111,112.63599933952393L133.85399999999998,112.69551151964878L134.24133333333333,112.54726380640942L135.002,112.38769653984225L135.25244444444445,112.40154525825128L135.296,112.50185612354942L135.36599999999999,112.52994418926417L136.01777777777778,112.55323512960676L137.298,112.4597971856383L137.326,112.48784982219782L137.47688888888888,112.59014621753501L137.55622222222223,112.6486995040304L137.80666666666667,112.753061183033L138.334,112.83772440678656L138.4257777777778,112.89194323366839L138.71044444444445,112.77916362087214L138.73222222222222,112.77539757786317L139.1522222222222,112.70082686344739L139.1848888888889,112.74802216356116L139.5628888888889,112.47975221664936L139.68577777777776,112.33687970230642L139.86777777777777,112.43286775668221L140.71866666666668,112.49977562979073L140.90222222222224,112.46535404727256L141.02044444444445,112.46805519706314L141.42333333333335,112.29034849401708L141.54933333333332,112.22660393475545L142.22133333333335,112.24033323333714L142.41733333333335,112.1600216990223L142.45777777777778,112.22101532246761L142.63822222222223,112.15790065479189L142.8777777777778,112.18122990934395L142.96488888888888,112.1184401830505L143.0442222222222,112.22858316464527L143.07844444444444,112.18857688583849L143.12977777777778,112.2774495876198L143.16866666666667,112.12770083060032L143.5731111111111,112.2247560679874L143.5762222222222,112.3242622315029L143.7348888888889,112.29788020872631L143.73955555555557,112.28993263037624L143.9791111111111,112.34313050183582L144.23577777777777,112.44671300552767L144.46911111111112,112.24859136968546L144.68066666666667,111.99293794846089L144.94511111111112,112.01161223112543L145.16133333333332,112.02547639351572L145.894,111.90093699039964L145.90177777777777,111.82419073719879L145.9748888888889,111.92555122976329L146.0682222222222,112.0110824038182L146.104,111.82971938725761L146.5131111111111,111.92517040643808L147.62377777777778,111.70405568096206L148.0437777777778,111.80490824916834L148.50733333333332,111.68256033737063L148.5353333333333,111.69221173588419L148.65977777777778,111.74237149648543L149.22133333333335,111.82137103365068L149.48733333333334,111.69976385851503L149.67244444444447,111.79574530071865L150.00377777777777,111.89523445543838L150.08311111111112,111.95920289155836L150.3071111111111,112.03269124135264L150.38022222222222,112.02009688213766L150.56222222222223,111.78855151143236L150.74266666666665,111.8621316960901L150.75355555555555,111.94903512347499L151.19688888888888,112.0431748737785L151.7133333333333,112.10059126376898L152.13644444444444,112.13084691331778L152.29044444444446,112.22793312780139L152.65444444444444,112.16127052591108L152.768,112.11707353684427L152.85666666666668,111.95397760391457L153.64999999999998,111.9526525138387L153.75577777777778,111.9404931255666L153.87555555555556,111.96269572382627L153.89733333333334,112.02989948430285L153.958,111.94821623662676L154.0077777777778,112.01758511403563L154.65022222222223,112.0681872081704L154.92866666666666,111.92958393914589L155.51666666666668,111.97059257717468L155.6037777777778,111.94691459514792L155.60999999999999,111.94562703964823L155.7111111111111,111.91592470734497L155.81222222222223,111.85153723235393L156.16222222222223,111.87359625208711L156.1871111111111,111.94443082331394L156.4111111111111,112.02296122209285L156.45155555555556,111.87549230748223L156.5091111111111,111.9391323973516L157.1048888888889,111.79230295833209L157.13444444444445,111.79141302830678L157.29311111111113,111.88084003211853L157.7037777777778,111.93904989529216L157.87955555555556,111.86780531469724L157.93400000000003,111.94375803688015L158.592,112.02474379113286L159.81155555555557,112.12319415208282L159.86444444444444,112.14417626627112L159.98733333333334,112.19581507433762L160.3388888888889,112.28041124448501L160.4197777777778,112.3256991185866L160.63755555555556,112.3708127594682L161.01555555555555,112.15218141412178L161.40755555555558,112.21135765077634L161.65800000000002,112.3052698043951L162.03444444444443,112.30316298987758L162.08422222222222,112.38945786069722L162.414,112.4779944953229L162.71266666666665,112.53345754644774L162.8448888888889,112.6174764786893L163.0502222222222,112.68804351545724L163.36444444444444,112.74016292567256L163.41422222222224,112.54984747090477L163.47177777777776,112.5994403516115L163.59622222222222,112.67153521653397L163.8311111111111,112.7596179060204L164.12355555555555,112.8056956744044L164.17177777777778,112.57675823837135L164.2231111111111,112.60367990064368L164.40044444444445,112.46137766781851L164.49844444444443,112.23418843102894L164.86555555555557,112.23229523488006L164.91066666666666,112.31268873685151L166.10222222222222,112.38635527374204L166.12244444444445,112.47730008253839L166.23444444444445,112.56987214105904L166.45688888888887,112.66475911197001L167.05577777777776,112.6946896127751L167.14444444444445,112.66510539521977L167.30933333333334,112.74655672310165L167.41044444444444,112.82021663181189L167.48044444444446,112.82167229020754L167.73399999999998,112.89151914918828L168.2131111111111,112.76134808520156L169.04844444444444,112.83923860925033L169.26777777777778,112.9182735230297L169.9631111111111,112.83335665435176L170.09533333333334,112.83923389864954L170.1202222222222,112.89639747260375L170.71444444444444,112.74667162857065L170.7408888888889,112.72856416958199L170.9431111111111,112.64463405681006L171.0691111111111,112.63202830538252L171.16555555555556,112.57113609246984L171.47977777777777,112.4435498130421L171.8111111111111,112.34406516066932L172.78177777777776,112.1861155191366L172.8128888888889,112.17961467675873L173.13333333333333,112.15196380630454L173.404,112.22974110483771L173.63733333333332,112.31897013753188L173.66844444444445,112.25225193644793L173.67311111111113,112.20635954649809L173.80533333333335,112.23290949358342L173.81,112.26921652208833L174.36844444444444,112.32861418502615L174.4088888888889,112.12526582212406L175.35622222222221,112.19446977865844L175.448,112.23935324018855L175.9737777777778,112.24206035725673L176.12466666666666,112.31712871737028L176.51044444444446,112.29514870416212L177.17933333333335,112.3176782541977L177.92444444444445,112.29023429582433L178.16711111111113,112.3289517932888L178.55288888888887,112.17475338233562L178.71933333333334,112.22683584192679L178.97755555555557,112.31682751441168L179.1751111111111,112.39242066705461L179.38822222222223,112.4633023968714L179.47533333333334,112.50420074039877L179.5251111111111,112.29131000494424L179.63555555555556,112.09200633713775L180.2266666666667,112.11105997147034L180.3651111111111,112.17886805008308L180.4008888888889,112.00464012754004L180.91266666666667,112.07577751888634L181.27666666666667,111.934781694401L181.3777777777778,111.73768945903974L182.028,111.82825383291271L182.24266666666668,111.91689267947753L182.35155555555556,112.00523290676274L182.46044444444445,112.09327597728647L182.6471111111111,112.1550306006645L182.71555555555557,112.1286259502372L182.9271111111111,112.07848433451872L183.15422222222224,112.06282626075004L183.23822222222222,111.93340342912464L183.36266666666668,111.88386040632847L183.5337777777778,111.96113894016332L183.77177777777777,111.75416496238142L183.8853333333333,111.58411067429087L184.18400000000003,111.65915992638783L184.2928888888889,111.7339609108835L184.36911111111112,111.76350512518877L185.19666666666666,111.62612290066544L185.89822222222222,111.66482201680354L186.0631111111111,111.49613015979462L186.06622222222222,111.34962149867009L186.4862222222222,111.43562762107581L187.10844444444444,111.49369798787549L187.54711111111112,111.55545960756082L187.58288888888887,111.352178735581L187.83488888888888,111.33331810312774L188.00133333333332,111.41282089552016L188.0931111111111,111.47629255678618L188.10711111111112,111.55294874671364L188.21755555555555,111.63056163972847L188.33422222222222,111.71325720812514L188.46333333333334,111.5781414030543L188.58622222222223,111.51750085025878L188.74333333333334,111.57664317974232L188.77444444444444,111.66178812888793L188.89266666666666,111.48480852408733L188.98133333333334,111.56311095531295L188.99844444444446,111.36274324659243L189.65800000000002,111.20905631149664L189.6891111111111,111.20053634841612L190.25533333333334,111.24187791772792L190.56955555555555,111.25814973044255L190.61933333333332,111.33956682925913L190.70333333333335,111.39843409900436L190.84333333333333,111.48302190133778L191.14666666666665,111.5500255458312L191.1948888888889,111.46897210662598L191.28044444444444,111.55395745346931L191.3348888888889,111.57642291826573L191.35044444444443,111.62622758406158L191.65377777777778,111.62999736205649L192.052,111.46724461305132L192.13755555555554,111.54310722697262L192.80644444444442,111.62817519269184L193.31822222222223,111.68759244126528L193.40844444444446,111.718981279536L193.98399999999998,111.79034515801766L194.14577777777777,111.75534200815116L194.16755555555557,111.78039587557808L194.1971111111111,111.84728580082393L194.2608888888889,111.8329790292865L194.28266666666667,111.8694730717705L194.30599999999998,111.93597068611838L194.3262222222222,112.01692927316742L194.38688888888888,112.04438319472912L194.58911111111112,112.03439347128372L194.85666666666665,112.10562761277002L195.11955555555556,112.04614952391586L195.39333333333332,112.11039843421653L195.53644444444444,111.94971747845831L195.64844444444444,111.81001629109922L195.67022222222224,111.77547991847773L196.32666666666668,111.75168925475928L196.41533333333334,111.64049303128276L196.60666666666668,111.71746083381387L196.88044444444444,111.72094933257627L197.036,111.79328161756385L197.19622222222222,111.76439091807711L197.7157777777778,111.61624474500721L198.744,111.64700675722679L198.80622222222223,111.50932877694417L198.85755555555556,111.54831016642541L199.14377777777779,111.47024349904696L199.80955555555556,111.442173625407L200.02266666666668,111.39741856377125L201.04311111111113,111.44785385067527L201.04466666666667,111.50014763471039L201.1348888888889,111.52183215369094L201.446,111.50385046488397L201.5688888888889,111.52221483023048L201.9453333333333,111.6000723984526L202.3202222222222,111.59122448425472L202.51933333333332,111.51384493876509L202.57066666666668,111.56756281199485L202.87244444444445,111.57879097542026L202.96577777777776,111.54553278336708L203.13377777777777,111.61678479456286L203.18977777777778,111.60345862224196L203.21933333333334,111.6507770974021L203.36866666666668,111.73174548706768L204.07955555555557,111.76164765914591L204.14333333333332,111.63590992046237L204.28022222222222,111.62708604431016L204.62555555555556,111.65984657694916L204.86355555555554,111.71956004688478L205.15755555555558,111.72673272001519L205.2011111111111,111.79578538597728L206.06444444444443,111.8580819606854L206.36622222222223,111.88750829294702L206.4268888888889,111.74356195977329L206.73644444444446,111.81949374818718L207.38977777777777,111.89520560992064L207.6091111111111,111.97156448552178L207.80511111111113,112.03169430702069L208.04155555555556,112.10587919101917L208.41333333333333,112.0824309104623L208.89866666666666,112.14640286377418L209.15844444444443,112.05508228595079L209.1708888888889,112.01622034127384L209.72,111.99303311902611L210.14933333333335,111.94874279542292L210.23177777777778,111.76395981242065L210.7871111111111,111.6494846273502L210.80577777777776,111.616965165173L211.19,111.68506938764769L211.2008888888889,111.76005460931508L211.36577777777777,111.7705767805872L211.6162222222222,111.83031294217031L211.75622222222222,111.64694797087928L212.26022222222224,111.69675625264819L212.52622222222223,111.56543513399644L212.60244444444447,111.63079331610186L212.66155555555557,111.61334000189579L212.71444444444444,111.68089159332317L212.77355555555553,111.6722422200636L212.83422222222222,111.74656960317569L213.01466666666667,111.7854581120204L213.136,111.83993860626715L213.1577777777778,111.911948250249L213.18422222222222,111.8072642501508L213.35222222222222,111.85986726229997L214.0988888888889,111.89105104223228L214.39444444444445,111.84209533998293L214.5748888888889,111.91469236811345L214.91711111111113,111.75537477726807L214.9622222222222,111.77232467009695L215.67933333333332,111.61355841112797L216.0791111111111,111.67103720294078L216.12422222222222,111.56764277424566L216.2191111111111,111.645790178408L216.692,111.63304778564226L216.95333333333335,111.69318863020557L217.74511111111113,111.51398571274177L217.76844444444444,111.46029086494013L218.23044444444443,111.48073760243769L219.10622222222221,111.50963558522096L219.632,111.49721448715515L219.63355555555557,111.48908301868356L219.8062222222222,111.56388124005755L219.84977777777777,111.5513912738252L219.89644444444443,111.61386736382299L219.96022222222223,111.60554682679721L220.14066666666668,111.42805661966034L220.63222222222223,111.45944714401881L220.69755555555557,111.35787518550488L220.75355555555555,111.40665750433583L221.20777777777778,111.47265651339931L221.256,111.43114695368305L221.7117777777778,111.44519347312726L221.85644444444443,111.50738618210879L221.8751111111111,111.58138505546206L222.03844444444445,111.59511855391521L222.55022222222223,111.50173573294676L223.39177777777778,111.57127909939581L223.42911111111113,111.51238138047033L223.48044444444443,111.565591727028L224.16022222222222,111.6383249161721L224.26288888888888,111.70738416344822L224.30644444444445,111.67116774959734L224.82755555555556,111.52687184746465L225.10600000000002,111.57096495409529L225.1822222222222,111.54982489857022L225.1868888888889,111.54176791979904L225.204,111.56987513180142L225.27244444444443,111.47746987184988L225.62244444444445,111.46956485725059L226.0066666666667,111.5393347008238L227.80177777777777,111.53531317423344L228.1797777777778,111.60198641824343L228.56555555555553,111.60167512084672L228.648,111.50966656516773L228.81755555555554,111.56373426740714L229.02444444444444,111.60534523670863L229.31066666666666,111.55326599325277L229.50977777777777,111.41095297421951L229.59222222222223,111.47537140605776L229.65755555555555,111.48243314229741L229.82711111111112,111.55629517527548L229.838,111.42373960439954L229.88777777777779,111.45421272799253L229.93755555555555,111.52862875631988L230.03244444444442,111.59559801333701L230.06044444444444,111.48905064886529L230.39644444444446,111.42552373456518L230.69511111111112,111.4976303520127L230.8568888888889,111.50793555807915L230.95333333333332,111.48733346644339L231.224,111.54989297964563L231.54755555555556,111.60994133518497L232.0048888888889,111.6828710228974L232.06711111111113,111.71501089008127L232.27244444444443,111.7248789406944L232.4093333333333,111.77613448829864L232.428,111.8420283395703L232.44044444444444,111.91425824811914L232.55866666666668,111.77366203910495L232.62555555555556,111.82308525168723L232.8231111111111,111.84465702306721L233.05955555555553,111.89222841091454L233.21666666666667,111.77847598290607L233.44377777777777,111.70894709218783L233.59,111.73839066051058L233.8248888888889,111.78922477516161L234.42688888888887,111.73221974658199L234.77377777777778,111.73525113898434L234.8671111111111,111.69518015363566L234.906,111.7373856479211L235.65266666666668,111.75615909678288L235.66977777777777,111.80004185678688L235.94666666666666,111.72440369618793L235.98244444444444,111.7486006959391L236.03066666666666,111.8186402096964L236.25155555555557,111.889916600234L236.27333333333334,111.81435001621237L237.23155555555556,111.88552613150779L237.49599999999998,111.88826337028051L237.86933333333334,111.95085354162121L237.8942222222222,111.81254357476469L238.32044444444446,111.88350883496223L238.49466666666666,111.91899816640172L238.77155555555558,111.81497086795306L238.82133333333334,111.85052683729539L238.93333333333334,111.89004806996641L239.33777777777777,111.86935735382156L239.56644444444444,111.87547497712195L240.14044444444443,111.92519394125665L240.16066666666666,111.99010442233485L240.29288888888888,111.8703113032108L240.84511111111112,111.78889390985243L240.88088888888888,111.81000877352879L240.88866666666667,111.84319545492377L240.91977777777777,111.90615534335161L241.08466666666666,111.89790900207191L241.61977777777776,111.86342448233785L242.0677777777778,111.86267634867767L242.46755555555558,111.72634845532743L242.99177777777777,111.79112796179446L243.10222222222222,111.85661663348114L243.22355555555555,111.92774461049845L243.71355555555556,111.95107625028027L243.72133333333332,111.98590539949146L243.7446666666667,112.04399928991472L244.25799999999998,112.06708061445204L244.30777777777777,112.13564153418257L244.61422222222222,112.1922039245997L244.972,112.05629159151155L245.10111111111112,112.01167169282803L245.13066666666666,112.03721662867675L245.2908888888889,112.1069050778849L245.37955555555556,112.16555956829085L245.72488888888887,112.23428340601502L246.02044444444445,112.28246143530545L246.46844444444446,112.34069158657775L246.512,112.27896477185516L246.64577777777777,112.2874191199549L247.23844444444444,112.3503683987766L247.27266666666665,112.28267964672222L247.73466666666667,112.2911098599985L247.96022222222223,112.3135104787887L248.03177777777776,112.23313210903397L248.85000000000002,112.27949596796755L248.91222222222223,112.23496721840374L248.92466666666667,112.22633816354254L248.9588888888889,112.27261681945318L248.97444444444443,112.33142074298486L249.09266666666664,112.3955256700783L249.14555555555555,112.39389487586836L249.28088888888888,112.43486122178399L249.32911111111113,112.30941648979407L250.05555555555557,112.36230000445936L250.3308888888889,112.32792445018211L250.42733333333334,112.24818643348274L250.78977777777777,112.26789371732903L250.7991111111111,112.3013921924393L251.77133333333333,112.32352930697924L251.8273333333333,112.16201080244127L251.9782222222222,112.16416692169241L252.27844444444443,112.08502902498923L252.3048888888889,112.0873112889515L252.30644444444442,112.09282998465056L252.77155555555555,112.14028843409614L252.82755555555553,112.08007749088324L253.16822222222223,112.06404772059557L253.38755555555554,112.05202064411144L253.84488888888887,112.08142117772925L254.08755555555555,112.13649023485532L254.31,112.19464749415005L254.4437777777778,112.05367167867762L254.45933333333335,111.98794230793187L254.67866666666666,111.92830632076009L254.74866666666668,111.98858583783506L254.78755555555554,111.92902786444046L254.98355555555554,111.9974257587121L255.09244444444445,112.06566494391095L255.35533333333333,112.07116457421316L255.46266666666668,112.0734440730731L255.55444444444444,112.03029860360382L255.73955555555557,112.09574654728486L255.93244444444446,112.14540896834728L257.1022222222222,112.15960820713893L257.6186666666667,112.10011903697207L257.6357777777778,112.09193622472873L257.7726666666667,112.13072097905558L257.8333333333333,112.05937847364076L257.8971111111111,112.11264990316172L258.1164444444444,112.16694752098347L258.70755555555553,112.1076775983703L258.8428888888889,112.11904973009423L259.30488888888885,112.16559717707369L260.23822222222225,112.12764314518752L260.33155555555555,112.02956210108991L260.34711111111113,111.991879935113L260.5415555555556,111.85351993064187L261.4313333333333,111.80064365789354L261.62733333333335,111.64407783045101L261.7813333333333,111.65323251012154L261.9928888888889,111.64943545337151L262.18266666666665,111.55257315009983L262.2728888888889,111.61792135939763L262.3802222222222,111.68242418185649L262.38644444444446,111.74940590656506L262.54355555555554,111.75835415224556L262.67733333333337,111.80211306643089L262.7006666666667,111.86306892467337L263.57644444444446,111.92624588585328L263.7522222222222,111.95290134682818L263.9513333333333,111.9450873090772L263.9746666666667,111.97794959903304L264.08355555555556,112.01073805937776L264.26711111111115,111.97351234737243L264.34644444444444,112.03960397673362L264.45377777777776,112.1049351537736L264.46,111.9590690314193L265.2797777777778,111.98978836015536L265.3093333333333,112.04737528806318L265.4337777777778,112.11253253278022L265.6235555555556,112.16098432554726L265.7868888888889,112.1084008076446L266.06533333333334,112.16158799618333L266.0871111111111,112.2264012202146L266.1431111111111,112.24529584382137L266.2068888888889,112.12595474695911L266.3531111111111,112.1311925797687L266.4293333333333,112.03510784846749L266.45422222222226,112.02358678801932L266.58022222222223,112.0451822704374L266.70933333333335,112.09075672688631L266.8446666666666,112.15339384088738L266.87266666666665,112.08995762604316L267.0826666666667,111.99428738539588L267.29422222222223,111.86774428141597L267.8962222222222,111.90214811516911L267.9537777777778,111.80695061945086L268.3691111111111,111.86981568692991L268.68955555555556,111.92951616668306L268.7471111111111,111.9319376834253L269.976,111.97741991124667L270.08022222222223,112.01836084942877L270.1751111111111,112.04211392368235L270.3322222222222,112.1057138659868L270.7351111111111,112.14791641963217L270.8346666666667,112.17978422131094L271.4771111111111,112.1959966525048L271.69955555555555,112.21939731763005L272.20355555555557,112.13799714692318L272.5162222222222,111.98570767315098L272.6375555555556,111.89810809208716L272.65155555555555,111.86190511135484L273.1306666666667,111.90429577026597L273.34222222222223,111.94007903198792L273.36555555555555,111.9955773008235L273.42622222222224,111.9913637289299" style="fill: none;" fill="none"></path></g></g></g></g><g opacity="0.2"><g><g><g><path stroke="rgb(255, 112, 67)" stroke-width="2px" d="M31.176444444444442,135.5964362079447L31.37088888888889,115.38116200403735L31.467333333333332,97.44655246084388L31.848444444444443,146.3945152678273L31.94488888888889,140.43768606402656L32.01177777777778,97.44655246084388L32.022666666666666,113.44628436998889L32.09733333333333,43.07027177377182L32.117555555555555,91.97049487720837L32.22177777777778,82.87069033492696L32.367999999999995,132.18024971810254L32.68844444444444,126.92319894378835L33.184666666666665,38.12243374911222L33.26555555555556,147.0114614475857L33.276444444444444,150.6917094913396L33.34488888888889,129.65896595608106L33.80844444444445,146.3945152678273L33.81311111111111,148.17230773243037L34.03088888888889,148.17230773243037L34.093111111111114,115.38116200403735L34.278222222222226,52.380103523081004L34.699777777777776,152.74595989422366L34.827333333333335,64.9943710457195L34.97666666666667,128.31899903037333L34.97822222222222,129.65896595608106L35.28777777777778,111.43078804016115L35.83688888888889,117.23864241079852L36.135555555555555,68.86732849207793L36.160444444444444,113.44628436998889L36.252222222222215,86.02859269488943L36.739111111111114,142.11391667073423L36.74222222222222,143.65873137658292L36.82,120.73367530649358L37.05488888888889,135.5964362079447L37.26488888888889,129.65896595608106L37.82644444444444,141.29290637644854L37.955555555555556,149.74518610672519L38.09866666666667,76.15467602556403L38.12511111111112,119.02182167226619L38.384888888888895,147.60373059998858L38.84377777777778,27.599709467454403L39.09733333333333,109.33131651444869L39.425555555555555,111.43078804016115L39.44733333333333,133.3657670021057L40.013555555555556,145.75186244466087L40.23288888888889,146.3945152678273L40.29977777777778,115.38116200403735L40.42888888888889,134.5038616657257L40.75555555555555,134.5038616657257L40.78511111111111,149.24214512109756L41.531777777777776,142.9020877588879L41.550444444444445,150.22810617631131L41.77288888888889,151.56402456489477L41.94711111111111,129.65896595608106L42.24111111111111,86.02859269488943L42.715555555555554,134.5038616657257L42.72022222222222,137.65222018415278L43.24133333333334,117.23864241079852L43.29577777777778,151.13676766102964L43.65822222222222,89.06017780303956L43.83555555555556,149.74518610672519L43.89933333333333,122.37705826759338L44.330222222222226,117.23864241079852L44.345777777777776,132.18024971810254L44.49044444444445,150.22810617631131L44.92133333333334,148.71814288876274L45.01,139.5468318733302L45.51555555555556,100.0214220718904L45.83911111111111,94.76440505547957L45.97288888888889,126.92319894378835L45.99311111111111,141.29290637644854L46.196888888888886,132.18024971810254L47.28733333333333,133.3657670021057L47.41177777777778,142.9020877588879L47.47866666666667,104.8662840236317L47.61088888888889,130.94533497636968L47.88,22.007269100709408L48.06977777777778,145.0824323702942L48.074444444444445,147.0114614475857L48.169333333333334,140.43768606402656L48.25333333333334,120.73367530649358L48.38088888888889,136.64530632170764L49.04977777777778,145.0824323702942L49.102666666666664,89.06017780303956L49.28777777777778,151.97419092736462L49.40288888888889,16.1818220398643L49.72955555555555,16.1818220398643L49.73733333333333,43.07027177377182L50.03288888888889,146.3945152678273L50.22888888888888,134.5038616657257L51.142,152.74595989422366L51.38622222222222,82.87069033492696L51.42822222222222,135.5964362079447L52.262,91.97049487720837L52.297777777777775,134.5038616657257L52.593333333333334,100.0214220718904L53.23266666666667,72.58535645224833L53.346222222222224,82.87069033492696L53.41466666666667,148.71814288876274L53.58422222222222,115.38116200403735L53.88133333333334,60.960050821304335L53.928,132.18024971810254L54.10066666666667,64.9943710457195L54.24688888888888,125.46924122355202L55.18022222222223,38.12243374911222L55.233111111111114,130.94533497636968L55.632888888888886,82.87069033492696L56.18044444444444,89.06017780303956L56.49933333333333,72.58535645224833L57.333111111111116,148.17230773243037L57.65822222222222,147.60373059998858L57.70644444444444,91.97049487720837L58.04866666666667,115.38116200403735L58.08288888888889,142.9020877588879L58.40022222222222,137.65222018415278L58.422,148.17230773243037L59.81266666666667,135.5964362079447L60.84711111111111,52.380103523081004L60.92955555555555,149.24214512109756L61.492666666666665,27.599709467454403L61.662222222222226,134.5038616657257L61.684,146.3945152678273L61.803777777777775,150.22810617631131L62.214444444444446,139.5468318733302L62.30466666666667,125.46924122355202L62.318666666666665,136.64530632170764L62.43688888888889,142.11391667073423L62.60177777777778,82.87069033492696L62.614222222222224,104.8662840236317L62.724666666666664,107.14436379345982L62.906666666666666,22.007269100709408L63.06066666666667,119.02182167226619L63.12133333333334,153.108848313039L63.434,149.24214512109756L63.43866666666667,150.6917094913396L63.55222222222222,151.97419092736462L63.90222222222222,68.86732849207793L64.00177777777778,43.07027177377182L64.13866666666667,104.8662840236317L64.274,133.3657670021057L64.59133333333332,125.46924122355202L65.09688888888888,60.960050821304335L65.71444444444445,147.0114614475857L65.84666666666666,22.007269100709408L65.89022222222222,117.23864241079852L67.10355555555556,132.18024971810254L67.11911111111111,142.11391667073423L67.18755555555556,104.8662840236317L67.22800000000001,142.11391667073423L67.33377777777778,140.43768606402656L67.45044444444444,144.38510862263766L67.55311111111111,141.29290637644854L67.72888888888889,100.0214220718904L67.93111111111111,68.86732849207793L67.94822222222223,102.49329149723054L67.97933333333333,135.5964362079447L68.348,153.108848313039L68.67311111111111,152.74595989422366L68.88311111111112,150.6917094913396L68.88622222222223,151.56402456489477L68.94533333333334,123.95470253445887L69.41044444444445,144.38510862263766L69.56288888888889,64.9943710457195L69.57533333333333,91.97049487720837L69.846,144.38510862263766L69.89733333333334,82.87069033492696L70.39355555555555,145.75186244466087L70.51644444444445,150.6917094913396L70.60822222222222,144.38510862263766L71.26311111111112,145.0824323702942L71.31755555555556,91.97049487720837L71.43266666666666,102.49329149723054L72.02688888888889,145.75186244466087L72.79533333333333,148.17230773243037L72.79688888888889,148.71814288876274L73.35066666666667,151.56402456489477L73.35844444444444,16.1818220398643L73.89666666666668,151.97419092736462L74.0491111111111,107.14436379345982L74.10355555555554,148.71814288876274L74.39444444444445,128.31899903037333L74.536,147.60373059998858L75.348,94.76440505547957L75.51133333333333,145.75186244466087L76.17555555555555,149.74518610672519L76.216,89.06017780303956L76.31866666666667,76.15467602556403L76.5348888888889,72.58535645224833L76.63133333333333,38.12243374911222L76.95488888888889,27.599709467454403L76.97977777777777,91.97049487720837L77.17266666666667,27.599709467454403L77.51177777777778,64.9943710457195L77.78555555555555,139.5468318733302L77.826,27.599709467454403L78.04844444444444,43.07027177377182L78.28644444444444,91.97049487720837L78.50888888888889,100.0214220718904L78.72977777777778,104.8662840236317L78.876,140.43768606402656L78.89777777777778,149.74518610672519L79.9648888888889,140.43768606402656L80.02244444444445,79.58120931278576L80.416,147.60373059998858L80.70222222222222,120.73367530649358L80.78933333333333,89.06017780303956L80.8951111111111,82.87069033492696L81.21088888888889,56.75762588327582L81.56555555555555,111.43078804016115L81.732,150.6917094913396L81.91088888888889,130.94533497636968L82.07422222222222,32.968450676311164L82.27955555555555,151.56402456489477L82.292,32.968450676311164L82.49733333333334,151.56402456489477L82.726,27.599709467454403L82.866,102.49329149723054L83.02777777777777,147.0114614475857L83.07133333333334,79.58120931278576L83.5908888888889,152.74595989422366L83.60955555555556,64.9943710457195L83.6391111111111,117.23864241079852L83.66555555555556,139.5468318733302L83.74955555555556,119.02182167226619L83.8071111111111,152.3679503459822L83.86466666666666,125.46924122355202L84.05600000000001,89.06017780303956L84.56311111111111,150.6917094913396L84.59577777777778,79.58120931278576L84.81666666666666,86.02859269488943L84.93177777777777,97.44655246084388L85.218,151.13676766102964L86.07355555555556,145.75186244466087L86.10622222222221,43.07027177377182L86.142,115.38116200403735L86.30688888888889,151.13676766102964L86.44688888888889,79.58120931278576L86.75488888888889,27.599709467454403L86.87622222222222,64.9943710457195L87.03800000000001,137.65222018415278L87.16866666666667,148.17230773243037L87.49377777777778,147.60373059998858L87.53888888888889,86.02859269488943L88.08955555555556,97.44655246084388L88.13622222222223,142.9020877588879L88.30422222222222,91.97049487720837L88.43333333333334,120.73367530649358L88.52199999999999,91.97049487720837L88.9808888888889,123.95470253445887L89.42733333333334,133.3657670021057L89.8551111111111,126.92319894378835L90.02933333333334,52.380103523081004L90.52088888888889,136.64530632170764L90.90511111111111,64.9943710457195L90.92999999999999,111.43078804016115L91.34222222222223,68.86732849207793L91.52888888888889,149.74518610672519L91.74822222222221,150.22810617631131L92.23822222222222,113.44628436998889L92.86977777777778,76.15467602556403L92.99266666666666,102.49329149723054L93.14355555555555,142.11391667073423L93.19177777777777,64.9943710457195L93.36444444444444,143.65873137658292L93.79377777777778,140.43768606402656L94.11111111111111,134.5038616657257L94.36466666666668,151.13676766102964L94.37088888888889,152.74595989422366L94.42222222222222,120.73367530649358L94.45333333333333,143.65873137658292L94.56688888888888,145.75186244466087L94.9511111111111,100.0214220718904L95.26844444444446,82.87069033492696L95.31044444444444,135.5964362079447L95.41933333333333,135.5964362079447L95.72733333333333,119.02182167226619L95.75222222222223,139.5468318733302L96.65288888888888,151.56402456489477L97.14444444444445,120.73367530649358L97.17244444444444,142.11391667073423L97.49911111111112,142.11391667073423L98.80577777777778,142.11391667073423L98.94422222222221,152.74595989422366L98.994,119.02182167226619L99.106,122.37705826759338L99.14800000000001,148.71814288876274L99.15422222222222,150.6917094913396L99.25222222222223,147.0114614475857L99.54466666666666,125.46924122355202L99.6691111111111,137.65222018415278L99.86666666666667,120.73367530649358L99.87755555555556,130.94533497636968L99.946,72.58535645224833L100.02844444444443,151.56402456489477L100.82488888888889,89.06017780303956L101.05511111111112,109.33131651444869L101.59333333333333,100.0214220718904L101.60733333333333,119.02182167226619L101.68977777777778,76.15467602556403L101.89977777777779,56.75762588327582L102.13466666666667,94.76440505547957L103.16133333333333,142.11391667073423L103.18622222222221,151.56402456489477L103.30911111111112,38.12243374911222L103.44288888888889,97.44655246084388L104.69044444444444,144.38510862263766L105.13222222222223,147.0114614475857L105.21466666666667,132.18024971810254L105.26288888888888,16.1818220398643L105.31888888888889,128.31899903037333L105.37955555555556,43.07027177377182L105.59422222222223,32.968450676311164L105.69533333333334,152.74595989422366L105.73111111111112,100.0214220718904L105.896,147.60373059998858L106.05933333333334,102.49329149723054L106.13088888888889,152.74595989422366L106.58977777777778,76.15467602556403L107.09066666666666,146.3945152678273L107.75644444444444,150.6917094913396L107.87933333333332,27.599709467454403L108.07533333333333,148.17230773243037L108.89822222222222,113.44628436998889L108.976,52.380103523081004L109.12066666666666,119.02182167226619L109.14555555555556,139.5468318733302L109.19222222222223,47.82018238847908L109.30577777777778,60.960050821304335L109.86733333333332,97.44655246084388L110.16288888888889,16.1818220398643L110.41177777777777,97.44655246084388L110.65288888888888,126.92319894378835L110.79755555555555,148.17230773243037L110.8831111111111,136.64530632170764L111.68577777777777,153.108848313039L111.69822222222223,52.380103523081004L111.92844444444445,82.87069033492696L112.00155555555556,150.22810617631131L112.45422222222221,32.968450676311164L112.5491111111111,151.13676766102964L112.79333333333334,68.86732849207793L113.06088888888888,136.64530632170764L113.40933333333334,147.60373059998858L113.46066666666667,97.44655246084388L113.69866666666667,123.95470253445887L113.72200000000001,141.29290637644854L114.28355555555555,148.71814288876274L114.65377777777778,89.06017780303956L114.66466666666666,107.14436379345982L114.6708888888889,115.38116200403735L114.6771111111111,122.37705826759338L114.89644444444444,123.95470253445887L114.9648888888889,52.380103523081004L115.22311111111111,123.95470253445887L115.27911111111112,153.108848313039L115.30244444444445,79.58120931278576L115.48599999999999,150.22810617631131L116.18599999999999,102.49329149723054L116.36644444444444,152.74595989422366L116.56866666666667,148.17230773243037L116.63866666666667,123.95470253445887L116.96688888888889,125.46924122355202L117.13177777777778,16.1818220398643L117.51133333333334,125.46924122355202L117.52377777777777,135.5964362079447L117.77577777777778,151.13676766102964L117.85822222222221,140.43768606402656L118.74644444444445,148.17230773243037L119.0108888888889,91.97049487720837L119.03266666666666,122.37705826759338L119.16799999999999,142.11391667073423L119.44644444444444,91.97049487720837L119.49777777777777,143.65873137658292L119.77622222222222,97.44655246084388L120.24288888888888,133.3657670021057L120.25222222222222,139.5468318733302L120.53066666666666,82.87069033492696L120.96,68.86732849207793L121.79222222222222,147.0114614475857L122.01777777777778,149.74518610672519L122.19822222222221,129.65896595608106L122.33044444444444,144.38510862263766L122.45177777777778,149.24214512109756L122.49377777777778,89.06017780303956L122.52022222222222,125.46924122355202L123.29955555555556,138.61885845661163L123.37266666666666,102.49329149723054L123.5608888888889,32.968450676311164L123.88444444444444,22.007269100709408L123.93111111111111,120.73367530649358L124.72288888888889,142.9020877588879L124.73222222222222,147.0114614475857L124.76644444444445,56.75762588327582L124.90644444444445,115.38116200403735L125.18333333333334,151.97419092736462L126.31888888888888,111.43078804016115L126.42933333333333,113.44628436998889L126.68133333333334,142.11391667073423L126.83066666666667,43.07027177377182L127.05777777777777,68.86732849207793L127.77177777777777,142.9020877588879L127.89622222222224,149.24214512109756L128.35822222222222,52.380103523081004L128.40644444444445,130.94533497636968L128.91511111111112,82.87069033492696L129.14844444444444,109.33131651444869L129.45333333333332,68.86732849207793L129.7768888888889,60.960050821304335L129.77844444444443,64.9943710457195L129.90911111111112,107.14436379345982L130.1548888888889,135.5964362079447L130.45666666666665,111.43078804016115L130.648,60.960050821304335L130.8191111111111,142.11391667073423L131.01666666666665,128.31899903037333L131.46155555555555,135.5964362079447L131.4771111111111,144.38510862263766L131.73533333333333,56.75762588327582L132.04955555555554,16.1818220398643L132.60333333333335,47.82018238847908L132.67644444444446,145.0824323702942L132.92222222222222,22.007269100709408L132.97044444444444,122.37705826759338L133.1571111111111,72.58535645224833L133.22244444444445,145.75186244466087L133.3251111111111,142.9020877588879L133.6331111111111,130.94533497636968L133.85399999999998,133.3657670021057L134.24133333333333,60.960050821304335L135.002,56.75762588327582L135.25244444444445,117.23864241079852L135.296,147.60373059998858L135.36599999999999,122.37705826759338L136.01777777777778,120.73367530649358L137.298,79.58120931278576L137.326,122.37705826759338L137.47688888888888,148.71814288876274L137.55622222222223,133.3657670021057L137.80666666666667,149.74518610672519L138.334,142.9020877588879L138.4257777777778,132.18024971810254L138.71044444444445,72.58535645224833L138.73222222222222,111.43078804016115L139.1522222222222,86.02859269488943L139.1848888888889,129.65896595608106L139.5628888888889,16.1818220398643L139.68577777777776,60.960050821304335L139.86777777777777,147.0114614475857L140.71866666666668,136.64530632170764L140.90222222222224,100.0214220718904L141.02044444444445,113.44628436998889L141.42333333333335,47.82018238847908L141.54933333333332,89.06017780303956L142.22133333333335,117.23864241079852L142.41733333333335,82.87069033492696L142.45777777777778,134.5038616657257L142.63822222222223,89.06017780303956L142.8777777777778,120.73367530649358L142.96488888888888,89.06017780303956L143.0442222222222,152.74595989422366L143.07844444444444,97.44655246084388L143.12977777777778,145.0824323702942L143.16866666666667,56.75762588327582L143.5731111111111,148.17230773243037L143.5762222222222,149.24214512109756L143.7348888888889,102.49329149723054L143.73955555555557,109.33131651444869L143.9791111111111,132.18024971810254L144.23577777777777,151.13676766102964L144.46911111111112,38.12243374911222L144.68066666666667,16.1818220398643L144.94511111111112,119.02182167226619L145.16133333333332,117.23864241079852L145.894,64.9943710457195L145.90177777777777,82.87069033492696L145.9748888888889,150.22810617631131L146.0682222222222,144.38510862263766L146.104,43.07027177377182L146.5131111111111,148.17230773243037L147.62377777777778,27.599709467454403L148.0437777777778,150.22810617631131L148.50733333333332,64.9943710457195L148.5353333333333,115.38116200403735L148.65977777777778,130.94533497636968L149.22133333333335,142.11391667073423L149.48733333333334,64.9943710457195L149.67244444444447,148.71814288876274L150.00377777777777,150.22810617631131L150.08311111111112,136.64530632170764L150.3071111111111,140.43768606402656L150.38022222222222,107.14436379345982L150.56222222222223,22.007269100709408L150.74266666666665,140.43768606402656L150.75355555555555,145.75186244466087L151.19688888888888,148.71814288876274L151.7133333333333,134.5038616657257L152.13644444444444,123.95470253445887L152.29044444444446,150.22810617631131L152.65444444444444,86.02859269488943L152.768,94.76440505547957L152.85666666666668,47.82018238847908L153.64999999999998,111.43078804016115L153.75577777777778,107.14436379345982L153.87555555555556,120.73367530649358L153.89733333333334,138.61885845661163L153.958,79.58120931278576L154.0077777777778,139.5468318733302L154.65022222222223,132.18024971810254L154.92866666666666,56.75762588327582L155.51666666666668,128.31899903037333L155.6037777777778,102.49329149723054L155.60999999999999,111.43078804016115L155.7111111111111,100.0214220718904L155.81222222222223,86.02859269488943L156.16222222222223,120.73367530649358L156.1871111111111,140.43768606402656L156.4111111111111,143.65873137658292L156.45155555555556,52.380103523081004L156.5091111111111,137.65222018415278L157.1048888888889,52.380103523081004L157.13444444444445,111.43078804016115L157.29311111111113,148.17230773243037L157.7037777777778,135.5964362079447L157.87955555555556,82.87069033492696L157.93400000000003,142.9020877588879L158.592,145.0824323702942L159.81155555555557,152.3679503459822L159.86444444444444,120.73367530649358L159.98733333333334,133.3657670021057L160.3388888888889,147.0114614475857L160.4197777777778,130.94533497636968L160.63755555555556,130.94533497636968L161.01555555555555,22.007269100709408L161.40755555555558,136.64530632170764L161.65800000000002,151.13676766102964L162.03444444444443,111.43078804016115L162.08422222222222,148.17230773243037L162.414,149.24214512109756L162.71266666666665,135.5964362079447L162.8448888888889,147.60373059998858L163.0502222222222,142.11391667073423L163.36444444444444,134.5038616657257L163.41422222222224,32.968450676311164L163.47177777777776,133.3657670021057L163.59622222222222,142.9020877588879L163.8311111111111,149.74518610672519L164.12355555555555,132.18024971810254L164.17177777777778,16.1818220398643L164.2231111111111,123.95470253445887L164.40044444444445,52.380103523081004L164.49844444444443,16.1818220398643L164.86555555555557,111.43078804016115L164.91066666666666,146.3945152678273L166.10222222222222,143.65873137658292L166.12244444444445,151.13676766102964L166.23444444444445,151.97419092736462L166.45688888888887,153.108848313039L167.05577777777776,125.46924122355202L167.14444444444445,100.0214220718904L167.30933333333334,147.60373059998858L167.41044444444444,144.38510862263766L167.48044444444446,113.44628436998889L167.73399999999998,142.9020877588879L168.2131111111111,56.75762588327582L169.04844444444444,146.3945152678273L169.26777777777778,147.0114614475857L169.9631111111111,76.15467602556403L170.09533333333334,115.38116200403735L170.1202222222222,137.65222018415278L170.71444444444444,47.82018238847908L170.7408888888889,104.8662840236317L170.9431111111111,76.15467602556403L171.0691111111111,107.14436379345982L171.16555555555556,86.02859269488943L171.47977777777777,56.75762588327582L171.8111111111111,68.86732849207793L172.78177777777776,43.07027177377182L172.8128888888889,109.33131651444869L173.13333333333333,100.0214220718904L173.404,146.3945152678273L173.63733333333332,151.56402456489477L173.66844444444445,82.87069033492696L173.67311111111113,91.97049487720837L173.80533333333335,123.95470253445887L173.81,128.31899903037333L174.36844444444444,138.61885845661163L174.4088888888889,22.007269100709408L175.35622222222221,142.9020877588879L175.448,132.18024971810254L175.9737777777778,113.44628436998889L176.12466666666666,145.75186244466087L176.51044444444446,102.49329149723054L177.17933333333335,122.37705826759338L177.92444444444445,100.0214220718904L178.16711111111113,129.65896595608106L178.55288888888887,43.07027177377182L178.71933333333334,135.5964362079447L178.97755555555557,152.74595989422366L179.1751111111111,146.3945152678273L179.38822222222223,144.38510862263766L179.47533333333334,130.94533497636968L179.5251111111111,16.1818220398643L179.63555555555556,22.007269100709408L180.2266666666667,120.73367530649358L180.3651111111111,142.9020877588879L180.4008888888889,32.968450676311164L180.91266666666667,144.38510862263766L181.27666666666667,47.82018238847908L181.3777777777778,22.007269100709408L182.028,153.108848313039L182.24266666666668,152.3679503459822L182.35155555555556,152.3679503459822L182.46044444444445,152.3679503459822L182.6471111111111,140.43768606402656L182.71555555555557,100.0214220718904L182.9271111111111,89.06017780303956L183.15422222222224,104.8662840236317L183.23822222222222,52.380103523081004L183.36266666666668,89.06017780303956L183.5337777777778,147.60373059998858L183.77177777777777,16.1818220398643L183.8853333333333,32.968450676311164L184.18400000000003,146.3945152678273L184.2928888888889,146.3945152678273L184.36911111111112,125.46924122355202L185.19666666666666,47.82018238847908L185.89822222222222,129.65896595608106L186.0631111111111,32.968450676311164L186.06622222222222,43.07027177377182L186.4862222222222,151.56402456489477L187.10844444444444,138.61885845661163L187.54711111111112,140.43768606402656L187.58288888888887,16.1818220398643L187.83488888888888,102.49329149723054L188.00133333333332,148.71814288876274L188.0931111111111,141.29290637644854L188.10711111111112,147.60373059998858L188.21755555555555,148.17230773243037L188.33422222222222,150.6917094913396L188.46333333333334,47.82018238847908L188.58622222222223,82.87069033492696L188.74333333333334,139.5468318733302L188.77444444444444,151.97419092736462L188.89266666666666,27.599709467454403L188.98133333333334,148.71814288876274L188.99844444444446,16.1818220398643L189.65800000000002,38.12243374911222L189.6891111111111,107.14436379345982L190.25533333333334,130.94533497636968L190.56955555555555,119.02182167226619L190.61933333333332,150.22810617631131L190.70333333333335,139.5468318733302L190.84333333333333,151.97419092736462L191.14666666666665,143.65873137658292L191.1948888888889,72.58535645224833L191.28044444444444,152.3679503459822L191.3348888888889,122.37705826759338L191.35044444444443,135.5964362079447L191.65377777777778,113.44628436998889L192.052,32.968450676311164L192.13755555555554,148.17230773243037L192.80644444444442,152.74595989422366L193.31822222222223,140.43768606402656L193.40844444444446,126.92319894378835L193.98399999999998,146.3945152678273L194.14577777777777,94.76440505547957L194.16755555555557,123.95470253445887L194.1971111111111,144.38510862263766L194.2608888888889,104.8662840236317L194.28266666666667,129.65896595608106L194.30599999999998,144.38510862263766L194.3262222222222,151.56402456489477L194.38688888888888,125.46924122355202L194.58911111111112,107.14436379345982L194.85666666666665,147.0114614475857L195.11955555555556,82.87069033492696L195.39333333333332,143.65873137658292L195.53644444444444,32.968450676311164L195.64844444444444,43.07027177377182L195.67022222222224,94.76440505547957L196.32666666666668,100.0214220718904L196.41533333333334,56.75762588327582L196.60666666666668,149.74518610672519L196.88044444444444,113.44628436998889L197.036,147.60373059998858L197.19622222222222,97.44655246084388L197.7157777777778,38.12243374911222L198.744,126.92319894378835L198.80622222222223,43.07027177377182L198.85755555555556,130.94533497636968L199.14377777777779,72.58535645224833L199.80955555555556,97.44655246084388L200.02266666666668,89.06017780303956L201.04311111111113,136.64530632170764L201.04466666666667,137.65222018415278L201.1348888888889,122.37705826759338L201.446,102.49329149723054L201.5688888888889,120.73367530649358L201.9453333333333,150.6917094913396L202.3202222222222,107.14436379345982L202.51933333333332,72.58535645224833L202.57066666666668,138.61885845661163L202.87244444444445,117.23864241079852L202.96577777777776,94.76440505547957L203.13377777777777,147.60373059998858L203.18977777777778,104.8662840236317L203.21933333333334,135.5964362079447L203.36866666666668,152.74595989422366L204.07955555555557,126.92319894378835L204.14333333333332,47.82018238847908L204.28022222222222,107.14436379345982L204.62555555555556,128.31899903037333L204.86355555555554,142.11391667073423L205.15755555555558,115.38116200403735L205.2011111111111,147.0114614475857L206.06444444444443,143.65873137658292L206.36622222222223,126.92319894378835L206.4268888888889,38.12243374911222L206.73644444444446,150.6917094913396L207.38977777777777,150.6917094913396L207.6091111111111,151.13676766102964L207.80511111111113,142.9020877588879L208.04155555555556,150.22810617631131L208.41333333333333,100.0214220718904L208.89866666666666,145.0824323702942L209.15844444444443,64.9943710457195L209.1708888888889,91.97049487720837L209.72,100.0214220718904L210.14933333333335,89.06017780303956L210.23177777777778,16.1818220398643L210.7871111111111,52.380103523081004L210.80577777777776,94.76440505547957L211.19,147.0114614475857L211.2008888888889,150.6917094913396L211.36577777777777,117.23864241079852L211.6162222222222,142.9020877588879L211.75622222222222,16.1818220398643L212.26022222222224,137.65222018415278L212.52622222222223,43.07027177377182L212.60244444444447,145.75186244466087L212.66155555555557,102.49329149723054L212.71444444444444,147.0114614475857L212.77355555555553,107.14436379345982L212.83422222222222,150.6917094913396L213.01466666666667,132.18024971810254L213.136,140.43768606402656L213.1577777777778,149.74518610672519L213.18422222222222,56.75762588327582L213.35222222222222,139.5468318733302L214.0988888888889,128.31899903037333L214.39444444444445,86.02859269488943L214.5748888888889,150.22810617631131L214.91711111111113,27.599709467454403L214.9622222222222,120.73367530649358L215.67933333333332,27.599709467454403L216.0791111111111,142.11391667073423L216.12422222222222,56.75762588327582L216.2191111111111,153.108848313039L216.692,104.8662840236317L216.95333333333335,143.65873137658292L217.74511111111113,16.1818220398643L217.76844444444444,82.87069033492696L218.23044444444443,122.37705826759338L219.10622222222221,126.92319894378835L219.632,104.8662840236317L219.63355555555557,107.14436379345982L219.8062222222222,151.56402456489477L219.84977777777777,104.8662840236317L219.89644444444443,145.0824323702942L219.96022222222223,107.14436379345982L220.14066666666668,16.1818220398643L220.63222222222223,128.31899903037333L220.69755555555557,56.75762588327582L220.75355555555555,137.65222018415278L221.20777777777778,147.0114614475857L221.256,89.06017780303956L221.7117777777778,119.02182167226619L221.85644444444443,145.0824323702942L221.8751111111111,151.56402456489477L222.03844444444445,119.02182167226619L222.55022222222223,60.960050821304335L223.39177777777778,149.24214512109756L223.42911111111113,79.58120931278576L223.48044444444443,140.43768606402656L224.16022222222222,151.13676766102964L224.26288888888888,149.24214512109756L224.30644444444445,91.97049487720837L224.82755555555556,32.968450676311164L225.10600000000002,135.5964362079447L225.1822222222222,100.0214220718904L225.1868888888889,107.14436379345982L225.204,126.92319894378835L225.27244444444443,60.960050821304335L225.62244444444445,107.14436379345982L226.0066666666667,149.74518610672519L227.80177777777777,109.33131651444869L228.1797777777778,148.17230773243037L228.56555555555553,111.43078804016115L228.648,60.960050821304335L228.81755555555554,141.29290637644854L229.02444444444444,134.5038616657257L229.31066666666666,82.87069033492696L229.50977777777777,32.968450676311164L229.59222222222223,147.0114614475857L229.65755555555555,115.38116200403735L229.82711111111112,152.3679503459822L229.838,38.12243374911222L229.88777777777779,128.31899903037333L229.93755555555555,152.74595989422366L230.03244444444442,148.71814288876274L230.06044444444444,52.380103523081004L230.39644444444446,76.15467602556403L230.69511111111112,151.56402456489477L230.8568888888889,117.23864241079852L230.95333333333332,100.0214220718904L231.224,146.3945152678273L231.54755555555556,145.0824323702942L232.0048888888889,152.3679503459822L232.06711111111113,129.65896595608106L232.27244444444443,117.23864241079852L232.4093333333333,140.43768606402656L232.428,148.71814288876274L232.44044444444444,152.3679503459822L232.55866666666668,32.968450676311164L232.62555555555556,139.5468318733302L232.8231111111111,123.95470253445887L233.05955555555553,138.61885845661163L233.21666666666667,47.82018238847908L233.44377777777777,72.58535645224833L233.59,128.31899903037333L233.8248888888889,140.43768606402656L234.42688888888887,79.58120931278576L234.77377777777778,113.44628436998889L234.8671111111111,89.06017780303956L234.906,135.5964362079447L235.65266666666668,122.37705826759338L235.66977777777777,136.64530632170764L235.94666666666666,68.86732849207793L235.98244444444444,125.46924122355202L236.03066666666666,151.56402456489477L236.25155555555557,152.3679503459822L236.27333333333334,68.86732849207793L237.23155555555556,152.3679503459822L237.49599999999998,113.44628436998889L237.86933333333334,147.60373059998858L237.8942222222222,32.968450676311164L238.32044444444446,152.3679503459822L238.49466666666666,132.18024971810254L238.77155555555558,52.380103523081004L238.82133333333334,132.18024971810254L238.93333333333334,134.5038616657257L239.33777777777777,100.0214220718904L239.56644444444444,115.38116200403735L240.14044444444443,140.43768606402656L240.16066666666666,149.24214512109756L240.29288888888888,43.07027177377182L240.84511111111112,64.9943710457195L240.88088888888888,123.95470253445887L240.88866666666667,130.94533497636968L240.91977777777777,148.17230773243037L241.08466666666666,107.14436379345982L241.61977777777776,91.97049487720837L242.0677777777778,111.43078804016115L242.46755555555558,32.968450676311164L242.99177777777777,149.24214512109756L243.10222222222222,149.74518610672519L243.22355555555555,153.108848313039L243.71355555555556,125.46924122355202L243.72133333333332,132.18024971810254L243.7446666666667,145.75186244466087L244.25799999999998,125.46924122355202L244.30777777777777,151.97419092736462L244.61422222222222,145.0824323702942L244.972,32.968450676311164L245.10111111111112,86.02859269488943L245.13066666666666,126.92319894378835L245.2908888888889,152.74595989422366L245.37955555555556,146.3945152678273L245.72488888888887,152.3679503459822L246.02044444444445,140.43768606402656L246.46844444444446,146.3945152678273L246.512,76.15467602556403L246.64577777777777,117.23864241079852L247.23844444444444,149.24214512109756L247.27266666666665,72.58535645224833L247.73466666666667,117.23864241079852L247.96022222222223,125.46924122355202L248.03177777777776,64.9943710457195L248.85000000000002,139.5468318733302L248.91222222222223,86.02859269488943L248.92466666666667,107.14436379345982L248.9588888888889,139.5468318733302L248.97444444444443,147.0114614475857L249.09266666666664,150.22810617631131L249.14555555555555,111.43078804016115L249.28088888888888,136.64530632170764L249.32911111111113,38.12243374911222L250.05555555555557,143.65873137658292L250.3308888888889,91.97049487720837L250.42733333333334,64.9943710457195L250.78977777777777,123.95470253445887L250.7991111111111,132.18024971810254L251.77133333333333,125.46924122355202L251.8273333333333,16.1818220398643L251.9782222222222,113.44628436998889L252.27844444444443,64.9943710457195L252.3048888888889,113.44628436998889L252.30644444444442,115.38116200403735L252.77155555555555,140.43768606402656L252.82755555555553,76.15467602556403L253.16822222222223,102.49329149723054L253.38755555555554,104.8662840236317L253.84488888888887,129.65896595608106L254.08755555555555,145.0824323702942L254.31,147.0114614475857L254.4437777777778,27.599709467454403L254.45933333333335,72.58535645224833L254.67866666666666,76.15467602556403L254.74866666666668,148.17230773243037L254.78755555555554,76.15467602556403L254.98355555555554,153.108848313039L255.09244444444445,153.108848313039L255.35533333333333,115.38116200403735L255.46266666666668,113.44628436998889L255.55444444444444,86.02859269488943L255.73955555555557,151.56402456489477L255.93244444444446,142.11391667073423L257.1022222222222,120.73367530649358L257.6186666666667,76.15467602556403L257.6357777777778,107.14436379345982L257.7726666666667,135.5964362079447L257.8333333333333,68.86732849207793L257.8971111111111,144.38510862263766L258.1164444444444,145.0824323702942L258.70755555555553,76.15467602556403L258.8428888888889,119.02182167226619L259.30488888888885,140.43768606402656L260.23822222222225,89.06017780303956L260.33155555555555,52.380103523081004L260.34711111111113,89.06017780303956L260.5415555555556,27.599709467454403L261.4313333333333,79.58120931278576L261.62733333333335,16.1818220398643L261.7813333333333,117.23864241079852L261.9928888888889,109.33131651444869L262.18266666666665,52.380103523081004L262.2728888888889,151.56402456489477L262.3802222222222,151.13676766102964L262.38644444444446,152.74595989422366L262.54355555555554,117.23864241079852L262.67733333333337,138.61885845661163L262.7006666666667,149.24214512109756L263.57644444444446,150.6917094913396L263.7522222222222,128.31899903037333L263.9513333333333,107.14436379345982L263.9746666666667,132.18024971810254L264.08355555555556,132.18024971810254L264.26711111111115,89.06017780303956L264.34644444444444,152.74595989422366L264.45377777777776,152.3679503459822L264.46,22.007269100709408L265.2797777777778,130.94533497636968L265.3093333333333,147.60373059998858L265.4337777777778,152.3679503459822L265.6235555555556,142.11391667073423L265.7868888888889,79.58120931278576L266.06533333333334,145.0824323702942L266.0871111111111,152.3679503459822L266.1431111111111,123.95470253445887L266.2068888888889,38.12243374911222L266.3531111111111,115.38116200403735L266.4293333333333,52.380103523081004L266.45422222222226,104.8662840236317L266.58022222222223,125.46924122355202L266.70933333333335,140.43768606402656L266.8446666666666,151.13676766102964L266.87266666666665,72.58535645224833L267.0826666666667,52.380103523081004L267.29422222222223,32.968450676311164L267.8962222222222,133.3657670021057L267.9537777777778,52.380103523081004L268.3691111111111,151.13676766102964L268.68955555555556,149.24214512109756L268.7471111111111,113.44628436998889L269.976,140.43768606402656L270.08022222222223,137.65222018415278L270.1751111111111,126.92319894378835L270.3322222222222,151.97419092736462L270.7351111111111,138.61885845661163L270.8346666666667,132.18024971810254L271.4771111111111,122.37705826759338L271.69955555555555,126.92319894378835L272.20355555555557,60.960050821304335L272.5162222222222,16.1818220398643L272.6375555555556,56.75762588327582L272.65155555555555,89.06017780303956L273.1306666666667,138.61885845661163L273.34222222222223,134.5038616657257L273.36555555555555,147.0114614475857L273.42622222222224,109.33131651444869" style="fill: none;" fill="none"></path></g></g></g></g></g></g><g transform="translate(50, 178)" clip-path="url(#clip_1)"><clipPath id="clip_1"><rect width="280" height="22"></rect></clipPath><g><g><line x1="0" y1="0" x2="0" y2="5" style="visibility: inherit;" fill="rgb(0, 0, 0)" stroke="rgb(204, 204, 204)" stroke-width="1px"></line><line x1="31.11111111111111" y1="0" x2="31.11111111111111" y2="5" style="visibility: inherit;" fill="rgb(0, 0, 0)" stroke="rgb(204, 204, 204)" stroke-width="1px"></line><line x1="62.22222222222222" y1="0" x2="62.22222222222222" y2="5" style="visibility: inherit;" fill="rgb(0, 0, 0)" stroke="rgb(204, 204, 204)" stroke-width="1px"></line><line x1="93.33333333333333" y1="0" x2="93.33333333333333" y2="5" style="visibility: inherit;" fill="rgb(0, 0, 0)" stroke="rgb(204, 204, 204)" stroke-width="1px"></line><line x1="124.44444444444444" y1="0" x2="124.44444444444444" y2="5" style="visibility: inherit;" fill="rgb(0, 0, 0)" stroke="rgb(204, 204, 204)" stroke-width="1px"></line><line x1="155.55555555555557" y1="0" x2="155.55555555555557" y2="5" style="visibility: inherit;" fill="rgb(0, 0, 0)" stroke="rgb(204, 204, 204)" stroke-width="1px"></line><line x1="186.66666666666666" y1="0" x2="186.66666666666666" y2="5" style="visibility: inherit;" fill="rgb(0, 0, 0)" stroke="rgb(204, 204, 204)" stroke-width="1px"></line><line x1="217.77777777777777" y1="0" x2="217.77777777777777" y2="5" style="visibility: inherit;" fill="rgb(0, 0, 0)" stroke="rgb(204, 204, 204)" stroke-width="1px"></line><line x1="248.88888888888889" y1="0" x2="248.88888888888889" y2="5" style="visibility: inherit;" fill="rgb(0, 0, 0)" stroke="rgb(204, 204, 204)" stroke-width="1px"></line><line x1="280" y1="0" x2="280" y2="5" style="visibility: inherit;" fill="rgb(0, 0, 0)" stroke="rgb(204, 204, 204)" stroke-width="1px"></line></g><g transform="translate(0, 8)"><text x="0" y="0" dx="0em" dy="0.95em" style="text-anchor: middle; visibility: hidden; font-family: &quot;Helvetica Neue&quot;, sans-serif; font-size: 12px; font-weight: 200;" fill="rgb(50, 49, 63)" stroke="none" stroke-width="1px">-20k</text><text x="31.11111111111111" y="0" dx="0em" dy="0.95em" style="text-anchor: middle; visibility: inherit; font-family: &quot;Helvetica Neue&quot;, sans-serif; font-size: 12px; font-weight: 200;" fill="rgb(50, 49, 63)" stroke="none" stroke-width="1px">0</text><text x="62.22222222222222" y="0" dx="0em" dy="0.95em" style="text-anchor: middle; visibility: hidden; font-family: &quot;Helvetica Neue&quot;, sans-serif; font-size: 12px; font-weight: 200;" fill="rgb(50, 49, 63)" stroke="none" stroke-width="1px">20k</text><text x="93.33333333333333" y="0" dx="0em" dy="0.95em" style="text-anchor: middle; visibility: inherit; font-family: &quot;Helvetica Neue&quot;, sans-serif; font-size: 12px; font-weight: 200;" fill="rgb(50, 49, 63)" stroke="none" stroke-width="1px">40k</text><text x="124.44444444444444" y="0" dx="0em" dy="0.95em" style="text-anchor: middle; visibility: hidden; font-family: &quot;Helvetica Neue&quot;, sans-serif; font-size: 12px; font-weight: 200;" fill="rgb(50, 49, 63)" stroke="none" stroke-width="1px">60k</text><text x="155.55555555555557" y="0" dx="0em" dy="0.95em" style="text-anchor: middle; visibility: inherit; font-family: &quot;Helvetica Neue&quot;, sans-serif; font-size: 12px; font-weight: 200;" fill="rgb(50, 49, 63)" stroke="none" stroke-width="1px">80k</text><text x="186.66666666666666" y="0" dx="0em" dy="0.95em" style="text-anchor: middle; visibility: hidden; font-family: &quot;Helvetica Neue&quot;, sans-serif; font-size: 12px; font-weight: 200;" fill="rgb(50, 49, 63)" stroke="none" stroke-width="1px">100k</text><text x="217.77777777777777" y="0" dx="0em" dy="0.95em" style="text-anchor: middle; visibility: inherit; font-family: &quot;Helvetica Neue&quot;, sans-serif; font-size: 12px; font-weight: 200;" fill="rgb(50, 49, 63)" stroke="none" stroke-width="1px">120k</text><text x="248.88888888888889" y="0" dx="0em" dy="0.95em" style="text-anchor: middle; visibility: hidden; font-family: &quot;Helvetica Neue&quot;, sans-serif; font-size: 12px; font-weight: 200;" fill="rgb(50, 49, 63)" stroke="none" stroke-width="1px">140k</text><text x="280" y="0" dx="0em" dy="0.95em" style="text-anchor: middle; visibility: hidden; font-family: &quot;Helvetica Neue&quot;, sans-serif; font-size: 12px; font-weight: 200;" fill="rgb(50, 49, 63)" stroke="none" stroke-width="1px">160k</text></g><line x1="0" y1="0" x2="280" y2="0" fill="rgb(0, 0, 0)" stroke="rgb(204, 204, 204)" stroke-width="1px"></line></g></g></g></g></svg>