<svg viewBox="0 0 330 200" xmlns="http://www.w3.org/2000/svg"><g><g><g><g><g><line x1="40" y1="178" x2="35" y2="178" style="visibility: inherit;" fill="rgb(0, 0, 0)" stroke="rgb(204, 204, 204)" stroke-width="1px"></line><line x1="40" y1="163.16666666666666" x2="35" y2="163.16666666666666" style="visibility: inherit;" fill="rgb(0, 0, 0)" stroke="rgb(204, 204, 204)" stroke-width="1px"></line><line x1="40" y1="148.33333333333334" x2="35" y2="148.33333333333334" style="visibility: inherit;" fill="rgb(0, 0, 0)" stroke="rgb(204, 204, 204)" stroke-width="1px"></line><line x1="40" y1="133.5" x2="35" y2="133.5" style="visibility: inherit;" fill="rgb(0, 0, 0)" stroke="rgb(204, 204, 204)" stroke-width="1px"></line><line x1="40" y1="118.66666666666667" x2="35" y2="118.66666666666667" style="visibility: inherit;" fill="rgb(0, 0, 0)" stroke="rgb(204, 204, 204)" stroke-width="1px"></line><line x1="40" y1="103.83333333333333" x2="35" y2="103.83333333333333" style="visibility: inherit;" fill="rgb(0, 0, 0)" stroke="rgb(204, 204, 204)" stroke-width="1px"></line><line x1="40" y1="89" x2="35" y2="89" style="visibility: inherit;" fill="rgb(0, 0, 0)" stroke="rgb(204, 204, 204)" stroke-width="1px"></line><line x1="40" y1="74.16666666666666" x2="35" y2="74.16666666666666" style="visibility: inherit;" fill="rgb(0, 0, 0)" stroke="rgb(204, 204, 204)" stroke-width="1px"></line><line x1="40" y1="59.33333333333334" x2="35" y2="59.33333333333334" style="visibility: inherit;" fill="rgb(0, 0, 0)" stroke="rgb(204, 204, 204)" stroke-width="1px"></line><line x1="40" y1="44.5" x2="35" y2="44.5" style="visibility: inherit;" fill="rgb(0, 0, 0)" stroke="rgb(204, 204, 204)" stroke-width="1px"></line><line x1="40" y1="29.666666666666657" x2="35" y2="29.666666666666657" style="visibility: inherit;" fill="rgb(0, 0, 0)" stroke="rgb(204, 204, 204)" stroke-width="1px"></line><line x1="40" y1="14.833333333333343" x2="35" y2="14.833333333333343" style="visibility: inherit;" fill="rgb(0, 0, 0)" stroke="rgb(204, 204, 204)" stroke-width="1px"></line><line x1="40" y1="0" x2="35" y2="0" style="visibility: inherit;" fill="rgb(0, 0, 0)" stroke="rgb(204, 204, 204)" stroke-width="1px"></line></g><g transform="translate(30, 0)"><text x="0" y="178" dx="0em" dy="0.3em" style="text-anchor: end; visibility: hidden; font-family: &quot;Helvetica Neue&quot;, sans-serif; font-size: 12px; font-weight: 200;" fill="rgb(50, 49, 63)" stroke="none" stroke-width="1px">-50</text><text x="0" y="163.16666666666666" dx="0em" dy="0.3em" style="text-anchor: end; visibility: inherit; font-family: &quot;Helvetica Neue&quot;, sans-serif; font-size: 12px; font-weight: 200;" fill="rgb(50, 49, 63)" stroke="none" stroke-width="1px">0</text><text x="0" y="148.33333333333334" dx="0em" dy="0.3em" style="text-anchor: end; visibility: hidden; font-family: &quot;Helvetica Neue&quot;, sans-serif; font-size: 12px; font-weight: 200;" fill="rgb(50, 49, 63)" stroke="none" stroke-width="1px">50</text><text x="0" y="133.5" dx="0em" dy="0.3em" style="text-anchor: end; visibility: inherit; font-family: &quot;Helvetica Neue&quot;, sans-serif; font-size: 12px; font-weight: 200;" fill="rgb(50, 49, 63)" stroke="none" stroke-width="1px">100</text><text x="0" y="118.66666666666667" dx="0em" dy="0.3em" style="text-anchor: end; visibility: hidden; font-family: &quot;Helvetica Neue&quot;, sans-serif; font-size: 12px; font-weight: 200;" fill="rgb(50, 49, 63)" stroke="none" stroke-width="1px">150</text><text x="0" y="103.83333333333333" dx="0em" dy="0.3em" style="text-anchor: end; visibility: inherit; font-family: &quot;Helvetica Neue&quot;, sans-serif; font-size: 12px; font-weight: 200;" fill="rgb(50, 49, 63)" stroke="none" stroke-width="1px">200</text><text x="0" y="89" dx="0em" dy="0.3em" style="text-anchor: end; visibility: hidden; font-family: &quot;Helvetica Neue&quot;, sans-serif; font-size: 12px; font-weight: 200;" fill="rgb(50, 49, 63)" stroke="none" stroke-width="1px">250</text><text x="0" y="74.16666666666666" dx="0em" dy="0.3em" style="text-anchor: end; visibility: inherit; font-family: &quot;Helvetica Neue&quot;, sans-serif; font-size: 12px; font-weight: 200;" fill="rgb(50, 49, 63)" stroke="none" stroke-width="1px">300</text><text x="0" y="59.33333333333334" dx="0em" dy="0.3em" style="text-anchor: end; visibility: hidden; font-family: &quot;Helvetica Neue&quot;, sans-serif; font-size: 12px; font-weight: 200;" fill="rgb(50, 49, 63)" stroke="none" stroke-width="1px">350</text><text x="0" y="44.5" dx="0em" dy="0.3em" style="text-anchor: end; visibility: inherit; font-family: &quot;Helvetica Neue&quot;, sans-serif; font-size: 12px; font-weight: 200;" fill="rgb(50, 49, 63)" stroke="none" stroke-width="1px">400</text><text x="0" y="29.666666666666657" dx="0em" dy="0.3em" style="text-anchor: end; visibility: hidden; font-family: &quot;Helvetica Neue&quot;, sans-serif; font-size: 12px; font-weight: 200;" fill="rgb(50, 49, 63)" stroke="none" stroke-width="1px">450</text><text x="0" y="14.833333333333343" dx="0em" dy="0.3em" style="text-anchor: end; visibility: inherit; font-family: &quot;Helvetica Neue&quot;, sans-serif; font-size: 12px; font-weight: 200;" fill="rgb(50, 49, 63)" stroke="none" stroke-width="1px">500</text><text x="0" y="0" dx="0em" dy="0.3em" style="text-anchor: end; visibility: hidden; font-family: &quot;Helvetica Neue&quot;, sans-serif; font-size: 12px; font-weight: 200;" fill="rgb(50, 49, 63)" stroke="none" stroke-width="1px">550</text></g><line x1="40" y1="0" x2="40" y2="178" fill="rgb(0, 0, 0)" stroke="rgb(204, 204, 204)" stroke-width="1px"></line></g></g><g transform="translate(40, 0)" clip-path="url(#clip_0)"><clipPath id="clip_0"><rect width="290" height="178"></rect></clipPath><g><g><g><line x1="0" y1="0" x2="0" y2="178" fill="rgb(0, 0, 0)" stroke="rgb(60, 60, 60)" stroke-width="1px" opacity="0.25"></line><line x1="32.22222222222222" y1="0" x2="32.22222222222222" y2="178" fill="rgb(0, 0, 0)" stroke="rgb(60, 60, 60)" stroke-width="1px" opacity="0.25"></line><line x1="64.44444444444444" y1="0" x2="64.44444444444444" y2="178" fill="rgb(0, 0, 0)" stroke="rgb(60, 60, 60)" stroke-width="1px" opacity="0.25"></line><line x1="96.66666666666666" y1="0" x2="96.66666666666666" y2="178" fill="rgb(0, 0, 0)" stroke="rgb(60, 60, 60)" stroke-width="1px" opacity="0.25"></line><line x1="128.88888888888889" y1="0" x2="128.88888888888889" y2="178" fill="rgb(0, 0, 0)" stroke="rgb(60, 60, 60)" stroke-width="1px" opacity="0.25"></line><line x1="161.11111111111111" y1="0" x2="161.11111111111111" y2="178" fill="rgb(0, 0, 0)" stroke="rgb(60, 60, 60)" stroke-width="1px" opacity="0.25"></line><line x1="193.33333333333331" y1="0" x2="193.33333333333331" y2="178" fill="rgb(0, 0, 0)" stroke="rgb(60, 60, 60)" stroke-width="1px" opacity="0.25"></line><line x1="225.55555555555557" y1="0" x2="225.55555555555557" y2="178" fill="rgb(0, 0, 0)" stroke="rgb(60, 60, 60)" stroke-width="1px" opacity="0.25"></line><line x1="257.77777777777777" y1="0" x2="257.77777777777777" y2="178" fill="rgb(0, 0, 0)" stroke="rgb(60, 60, 60)" stroke-width="1px" opacity="0.25"></line><line x1="290" y1="0" x2="290" y2="178" fill="rgb(0, 0, 0)" stroke="rgb(60, 60, 60)" stroke-width="1px" opacity="0.25"></line></g><g><line x1="0" y1="178" x2="290" y2="178" fill="rgb(0, 0, 0)" stroke="rgb(60, 60, 60)" stroke-width="1px" opacity="0.25"></line><line x1="0" y1="163.16666666666666" x2="290" y2="163.16666666666666" fill="rgb(0, 0, 0)" stroke="rgb(60, 60, 60)" stroke-width="1px" opacity="0.25"></line><line x1="0" y1="148.33333333333334" x2="290" y2="148.33333333333334" fill="rgb(0, 0, 0)" stroke="rgb(60, 60, 60)" stroke-width="1px" opacity="0.25"></line><line x1="0" y1="133.5" x2="290" y2="133.5" fill="rgb(0, 0, 0)" stroke="rgb(60, 60, 60)" stroke-width="1px" opacity="0.25"></line><line x1="0" y1="118.66666666666667" x2="290" y2="118.66666666666667" fill="rgb(0, 0, 0)" stroke="rgb(60, 60, 60)" stroke-width="1px" opacity="0.25"></line><line x1="0" y1="103.83333333333333" x2="290" y2="103.83333333333333" fill="rgb(0, 0, 0)" stroke="rgb(60, 60, 60)" stroke-width="1px" opacity="0.25"></line><line x1="0" y1="89" x2="290" y2="89" fill="rgb(0, 0, 0)" stroke="rgb(60, 60, 60)" stroke-width="1px" opacity="0.25"></line><line x1="0" y1="74.16666666666666" x2="290" y2="74.16666666666666" fill="rgb(0, 0, 0)" stroke="rgb(60, 60, 60)" stroke-width="1px" opacity="0.25"></line><line x1="0" y1="59.33333333333334" x2="290" y2="59.33333333333334" fill="rgb(0, 0, 0)" stroke="rgb(60, 60, 60)" stroke-width="1px" opacity="0.25"></line><line x1="0" y1="44.5" x2="290" y2="44.5" fill="rgb(0, 0, 0)" stroke="rgb(60, 60, 60)" stroke-width="1px" opacity="0.25"></line><line x1="0" y1="29.666666666666657" x2="290" y2="29.666666666666657" fill="rgb(0, 0, 0)" stroke="rgb(60, 60, 60)" stroke-width="1px" opacity="0.25"></line><line x1="0" y1="14.833333333333343" x2="290" y2="14.833333333333343" fill="rgb(0, 0, 0)" stroke="rgb(60, 60, 60)" stroke-width="1px" opacity="0.25"></line><line x1="0" y1="0" x2="290" y2="0" fill="rgb(0, 0, 0)" stroke="rgb(60, 60, 60)" stroke-width="1px" opacity="0.25"></line></g></g></g><g><g><line x1="0" y1="163.16666666666666" x2="290" y2="163.16666666666666" fill="rgb(0, 0, 0)" stroke="rgb(153, 153, 153)" stroke-width="1.5px"></line></g></g><g><g><line x1="32.22222222222222" y1="0" x2="32.22222222222222" y2="178" fill="rgb(0, 0, 0)" stroke="rgb(153, 153, 153)" stroke-width="1.5px"></line></g></g><g><g><g><g><g><path stroke="rgb(0, 119, 187)" stroke-width="2px" d="M32.779666666666664,96.53525909423828L32.98105555555556,92.23076569153005L33.08094444444445,99.64405504120963L33.47566666666667,102.60185298350981L33.57555555555555,105.20273049704254L33.64483333333334,107.06387843966034L33.65611111111111,108.97850370513235L33.733444444444444,109.0776385656239L33.75438888888889,109.84203293269886L33.86233333333333,109.99506788562641L34.013777777777776,108.57063588243598L34.345666666666666,108.98656139291009L34.85961111111111,110.1589795930611L34.94338888888889,110.10575550140638L34.95466666666667,110.94633942190478L35.025555555555556,110.94197243852963L35.436388888888885,108.78724575801442L35.50566666666667,108.58947727033997L35.5105,108.1235505269306L35.73605555555556,107.88312114031736L35.8005,108.50424121739044L35.992222222222225,106.43167061614075L36.42883333333333,106.78266828926152L36.560944444444445,106.26492565683156L36.71561111111111,106.2410650100419L36.717222222222226,104.83800630306949L37.03783333333333,104.73268232109781L37.60655555555556,104.32681079840863L37.91588888888889,104.64091421433486L37.94166666666666,104.40394553555636L38.036722222222224,104.4678624071431L38.541,103.35716007022464L38.544222222222224,103.44523700480829L38.62477777777778,103.4690998323269L38.86805555555556,103.42928687075906L39.08555555555555,103.13896760949133L39.66716666666667,102.93082833276276L39.80088888888889,102.51457841714851L39.94911111111111,102.33611738621924L39.9765,101.78423624671201L40.245555555555555,101.89586485876195L40.426,101.37961923159303L40.72083333333333,101.42234657394299L40.983444444444444,100.97524743227179L41.32338888888889,100.37430184950868L41.34594444444444,99.78997659200036L41.93238888888889,99.70831106406231L42.159555555555556,98.73632870486365L42.228833333333334,98.8897887456252L42.36255555555556,97.84227814753676L42.70088888888889,97.75874197732949L42.731500000000004,96.98378713259856L43.50483333333333,96.1426813820232L43.52416666666667,95.6144801689704L43.754555555555555,94.68730781450341L43.935,93.98363063063975L44.2395,92.6818336207501L44.605222222222224,91.99775074544895L44.730888888888884,91.77775700673094L44.73572222222222,90.89930494661621L45.275444444444446,90.64571882811985L45.33183333333333,90.47574840719113L45.70722222222222,90.42754817631591L45.89088888888889,90.16901003669145L45.95694444444444,89.64445336651674L46.40322222222222,89.35149587033264L46.419333333333334,89.09628429442567L46.56916666666667,88.9432347575272L47.01544444444445,89.02292670476389L47.107277777777774,88.79811290595447L47.63088888888889,88.52122324046596L47.965999999999994,88.27304786419523L48.10455555555556,88.04760904779899L48.125499999999995,87.66415210833065L48.336555555555556,87.1325472151277L49.46594444444444,86.82643056383424L49.594833333333334,86.76486727172582L49.66411111111111,86.34804564092173L49.80105555555556,86.48098284733484L50.07977777777778,86.07963489532075L50.27633333333333,85.61409864701172L50.281166666666664,85.40748329141884L50.379444444444445,84.43629052492166L50.46644444444444,84.51014314997107L50.598555555555556,84.14145121096281L51.291333333333334,83.82582357619214L51.34611111111111,83.7585686131497L51.53783333333333,83.78122870577319L51.65705555555555,83.7413528745508L51.99538888888889,83.6578023204415L52.00344444444444,83.49791718789773L52.309555555555555,83.19378142215221L52.51255555555556,82.90248809007457L53.458277777777774,82.67808933969287L53.71122222222222,82.41805092465533L53.75472222222222,82.1255515065578L54.61827777777778,82.17333946230778L54.65533333333333,82.38742473365338L54.961444444444446,82.05310528387474L55.62361111111111,82.23097484428595L55.74122222222222,81.89322221365612L55.81211111111111,81.59095266247586L55.98772222222222,81.18591370339747L56.29544444444444,81.08321325326084L56.34377777777778,81.002657276347L56.52261111111111,80.62749643529942L56.674055555555555,80.79737615101669L57.64072222222222,80.90350004794625L57.695499999999996,80.6237033011011L58.10955555555555,80.60233333997755L58.67666666666667,80.44467256294642L59.00694444444444,80.30039339507358L59.8705,80.03704972817971L60.20722222222222,79.74427298352673L60.25716666666666,79.55589632349516L60.61161111111111,79.42436250562281L60.64705555555555,78.90065267912077L60.975722222222224,78.82337736248856L60.99827777777777,78.44008842333074L62.43861111111111,78.37265031001468L63.51,78.66146824656028L63.595388888888884,78.54774107183975L64.17861111111111,78.62160712138824L64.35422222222222,78.50073752529379L64.37677777777778,78.41292998561289L64.50083333333333,78.33597060090054L64.92616666666666,78.04704033312001L65.0196111111111,78.02005814681759L65.03411111111112,77.92169949530229L65.15655555555556,77.39828913080898L65.32733333333333,77.42719529447285L65.34022222222222,77.40080540872552L65.4546111111111,77.23553055072583L65.64311111111111,77.37217169718885L65.8026111111111,77.34145196966506L65.86544444444445,77.37227292583478L66.18927777777778,76.73872882950288L66.19411111111111,76.72738770456098L66.31172222222223,76.71335558711452L66.67422222222223,76.46553821960448L66.77733333333333,76.42372768774985L66.9191111111111,76.33082099324784L67.05927777777778,76.03204478708561L67.38794444444444,75.87181113363137L67.91155555555557,76.03746596828174L68.55116666666666,76.15147209803233L68.68811111111111,76.10703193581632L68.73322222222222,76.01286329790472L69.98988888888888,75.86578052555387L70.006,75.50111515203712L70.07688888888889,75.37056478336315L70.11877777777778,75.32430637665948L70.22833333333334,75.13190734258453L70.34916666666668,75.20897517610251L70.4555,75.07634482589698L70.63755555555555,74.7488355626402L70.847,74.64338165732562L70.86472222222223,74.77303969194699L70.89694444444444,74.80462045842908L71.27877777777778,74.76347477541387L71.6155,74.6303851076233L71.833,74.629041695937L71.83622222222222,74.24772870579841L71.89744444444445,73.93207805280915L72.37916666666666,73.65933676074174L72.53705555555555,73.61605392860335L72.54994444444445,73.52589102693766L72.83027777777778,73.52381521498036L72.88344444444445,73.54095862485013L73.3973888888889,73.59460841099154L73.52466666666666,73.44664486492935L73.61972222222222,73.48236988816797L74.298,73.34665468049475L74.35438888888888,73.32173703796477L74.47361111111111,73.3126221776116L75.08905555555555,73.1406002724774L75.88494444444444,73.00719384851314L75.88655555555556,72.8500967204178L76.4601111111111,72.71690599621617L76.46816666666666,72.658936140659L77.0256111111111,72.62110842360032L77.1835,72.5513022974802L77.23988888888888,72.5654774416914L77.54116666666665,72.477970930334L77.68777777777778,72.45953996275924L78.52877777777779,72.46649999990049L78.69794444444445,72.61680953615472L79.38588888888889,72.51782663550455L79.42777777777778,72.57119141116861L79.5341111111111,72.47947775520473L79.75805555555554,72.37882588412047L79.85794444444446,72.3111220069972L80.19305555555555,72.13749056972102L80.21883333333334,72.18736674427001L80.41861111111112,72.23506775958101L80.76983333333334,72.33845510471318L81.05338888888889,72.23546574923029L81.09527777777778,72.22237020971848L81.32566666666666,72.1056526135864L81.57216666666666,72.05974820593562L81.80255555555556,71.88348664664791L82.03133333333334,71.69677732679179L82.18277777777779,71.44908015626903L82.20533333333333,71.4529447959238L83.31055555555557,71.42639306962717L83.37016666666666,71.32807550706349L83.77777777777777,71.33138571452292L84.07422222222222,71.0231977549276L84.16444444444444,70.76573835240916L84.274,70.68082832568668L84.60105555555555,70.59658688125762L84.9683888888889,70.55312542831004L85.14077777777779,70.338870093515L85.32605555555556,70.32853000403136L85.49522222222222,70.40892620790429L85.70788888888889,70.26428192894686L85.72077777777778,70.33722745284989L85.93344444444445,70.34839108538462L86.17027777777778,70.26067011733713L86.31527777777778,70.25305716738875L86.48283333333333,70.19121751161417L86.52794444444444,70.22754259891909L87.06605555555555,70.1273156804268L87.08538888888889,70.13256813734836L87.116,70.15808950009377L87.1433888888889,70.00017810341662L87.23038888888888,69.96642838196658L87.28999999999999,69.99125989341992L87.34961111111112,69.96558583455213L87.54777777777777,69.84435319433616L87.71694444444444,69.800146501608L88.07300000000001,69.88772540201315L88.10683333333334,69.92599277848481L88.33561111111112,69.83191801693344L88.45483333333333,69.84364590149389L88.75127777777779,69.69268800995191L89.63738888888889,69.56160349664817L89.67122222222223,69.6252259048286L89.70827777777778,69.60329689941133L89.87905555555557,69.72419315836116L90.02405555555556,69.71895826269471L90.34305555555557,69.70281819421905L90.46872222222223,69.83097147330622L90.63627777777778,69.73976342372161L90.66366666666666,69.66516864266282L90.7716111111111,69.73797755815536L91.10833333333333,69.64120521774407L91.15505555555555,69.75006801746727L91.72538888888889,69.74308405348272L91.77372222222223,69.60131572738895L91.94772222222223,69.57970991320398L92.08144444444444,69.60710982833665L92.17327777777778,69.64803047232317L92.64855555555556,69.6340108924549L93.11094444444444,69.44929478325773L93.554,69.44080548448127L93.73444444444445,69.38892050219062L94.24355555555555,69.41279572372235L94.6415,69.23343878212815L94.66727777777778,69.10926278748097L95.09422222222221,69.14158005255631L95.28755555555556,69.07945390137793L95.51472222222222,68.83848937985725L96.02222222222223,68.84417281686088L96.67633333333333,68.71031180278024L96.80361111111112,68.75568700631469L96.95988888888888,68.81997448244655L97.00983333333333,68.76325941005803L97.18866666666666,68.79003835266519L97.63333333333334,68.83736110978644L97.962,68.93019703466706L98.2246111111111,68.99173584093417L98.23105555555556,68.86492047459264L98.28422222222223,68.91497710766312L98.31644444444444,68.9081430229655L98.43405555555556,68.69210668207428L98.832,68.47060012571623L99.16066666666666,68.40827194673115L99.20416666666667,68.43981088268646L99.31694444444445,68.55560019370171L99.63594444444445,68.54298862866061L99.66172222222221,68.61107235001896L100.59455555555556,68.54470349774977L101.10366666666667,68.43745898289657L101.13266666666667,68.36359075759579L101.471,68.43611415634489L102.82433333333333,68.48549954582927L102.96772222222222,68.50656928936148L103.01927777777777,68.6131889185198L103.13527777777777,68.50016116525349L103.17877777777777,68.54023742161972L103.18522222222222,68.62610443143492L103.28672222222222,68.42492443011223L103.58961111111111,68.4597239764101L103.7185,68.4227279614081L103.92311111111111,68.37874958185783L103.93438888888889,68.45952130004122L104.00527777777778,68.46152089763828L104.09066666666666,68.44233311844775L104.91555555555554,68.39088896507212L105.154,68.38590735082481L105.71144444444445,68.39109268363565L105.72594444444445,68.27689497179031L105.81133333333334,68.22950386874355L106.02883333333332,68.15020940121313L106.2721111111111,68.20993490979995L107.33544444444445,68.02736396599347L107.36122222222222,68.01514533995105L107.48849999999999,68.06364574561997L107.62705555555556,68.12325649605226L108.91916666666667,68.17318196285225L109.37672222222223,68.06027142263292L109.46211111111111,68.10742996407978L109.51205555555556,68.08586997191658L109.57005555555556,67.96322309737967L109.6328888888889,67.79559154388303L109.85522222222222,67.77795866315655L109.95994444444445,67.72225966350675L109.99700000000001,67.74554613974723L110.16777777777777,67.67846903280038L110.33694444444444,67.6766483562256L110.41105555555555,67.64105670137337L110.88633333333334,67.7106580799692L111.4051111111111,67.69775628338162L112.09466666666667,67.78465372483383L112.22194444444445,67.58820404049386L112.42494444444444,67.5670524540228L113.27722222222222,67.47267281259057L113.35777777777778,67.50002131112399L113.50761111111112,67.5324124156292L113.53338888888888,67.4840988388599L113.58172222222223,67.4901118795219L113.69933333333334,67.4918572120003L114.28094444444444,67.5249439531774L114.58705555555557,67.45195638687328L114.84483333333334,67.44284674662114L115.09455555555556,67.45580204703244L115.24438888888889,67.42275378091203L115.333,67.44848558277518L116.16433333333333,67.38667380936045L116.17722222222221,67.35515017342873L116.41566666666665,67.36919511168776L116.49138888888889,67.3747690302231L116.96022222222223,67.27222850040326L117.05850000000001,67.29381816741846L117.31144444444445,67.268117182771L117.58855555555556,67.24178016911902L117.94944444444444,67.21557139696388L118.00261111111112,67.18871065037405L118.2491111111111,67.18252995741794L118.27327777777776,67.24671856565863L118.8548888888889,67.25214213170783L119.23833333333334,67.31579699880828L119.24961111111111,67.32548146337435L119.25605555555556,67.2914401190958L119.2625,67.29113317411259L119.48966666666666,67.2406022750283L119.56055555555557,67.21413681187074L119.828,67.2360416174881L119.886,67.22216000205324L119.91016666666665,67.2227276822712L120.10027777777778,67.15242967998529L120.82527777777779,67.06465699529527L121.01216666666667,66.98737465727456L121.22161111111112,67.0322017646161L121.2941111111111,66.97359306990975L121.63405555555556,66.8859240626809L121.80483333333333,66.88916743705384L122.19794444444445,66.90811811586053L122.21083333333333,67.02005573617895L122.47183333333334,67.08881925285488L122.55722222222222,67.14193885908003L123.47716666666668,67.08818382426196L123.75105555555555,67.02665756383296L123.77361111111111,67.03869922666892L123.91377777777778,67.0552826384396L124.20216666666667,67.08502800038788L124.25533333333333,67.12545196185206L124.54372222222223,67.13139357472498L125.02705555555555,67.06846134826577L125.03672222222222,67.1543633552601L125.32511111111111,66.96381555784394L125.76977777777778,66.95090025869018L126.63172222222222,66.92084026122883L126.86533333333334,66.96126545614315L127.05222222222223,66.98943422727982L127.18916666666667,66.96538444463258L127.31483333333334,66.95602571383846L127.35833333333333,67.04522675358844L127.38572222222221,67.06065592928155L128.1928888888889,67.15430005907078L128.2686111111111,67.24726710081038L128.46355555555556,67.19072246234022L128.79866666666666,67.16501898536877L128.84699999999998,67.14853390501324L129.66705555555555,67.110776663385L129.67672222222222,67.08946027039346L129.71216666666666,67.00182604246893L129.85716666666667,66.92003383544737L130.14394444444446,66.88428096060461L131.32005555555554,66.94876447003074L131.43444444444447,67.04940587385511L131.69544444444443,67.02603314591455L131.85011111111112,67.03098534351786L132.08533333333335,66.93123725000127L132.82483333333334,66.96317918317988L132.9537222222222,66.92641025751627L133.43222222222224,67.00734472430965L133.48216666666667,67.03247403737244L134.00900000000001,67.10839408115996L134.25066666666666,67.10365295547436L134.56644444444444,67.06632754831078L134.78877777777777,67.05853637156585L134.90155555555557,67.02215486899303L134.90316666666666,66.9865159388166L135.0385,67.02258775091805L135.29305555555555,67.00270288354216L135.6056111111111,66.97812462764657L135.80377777777778,66.9799748105591L135.981,67.05157297092903L136.18561111111111,67.14621115085164L136.6463888888889,67.1102975960615L136.6625,67.1603413092005L136.92994444444443,67.21741726645213L137.2553888888889,67.20736243712511L137.82894444444443,67.19873882250698L137.90466666666666,67.13622658825267L138.1592222222222,67.13026461473646L138.20916666666668,67.05207845876895L138.4025,67.10439015107475L138.47016666666667,67.17665350693996L138.5765,67.06840249092281L138.8955,66.98114913777569L139.12427777777776,66.94353737068136L139.52544444444445,67.01498066420388L140.31327777777778,67.03056528347402L140.57266666666666,67.02981986037534L140.61777777777777,67.04042528306077L140.6902777777778,67.09985466189895L141.36533333333333,67.05583741324864L142.6912777777778,67.09898782105601L142.7202777777778,67.02695408269695L142.87655555555554,66.98350271078974L142.95872222222224,67.01989143467443L143.2181111111111,67.06022569774004L143.76427777777778,67.10441199534557L143.85933333333332,67.11809498343459L144.15416666666667,67.14514071458143L144.17672222222222,67.15292052897131L144.61172222222223,67.13210559093089L144.64555555555555,67.12310184905736L145.03705555555555,67.1500049219656L145.16433333333336,67.18725570540929L145.35283333333334,67.14868251662304L146.2341111111111,67.13943562607922L146.42422222222223,67.11233129420867L146.54666666666665,67.11467927915386L146.96394444444442,67.18897973952211L147.09444444444446,67.14946125495273L147.79044444444443,67.13977189365188L147.99344444444444,67.12948130348585L148.0353333333333,67.1558367434297L148.2222222222222,67.09492566646878L148.47033333333334,67.09185125377255L148.56055555555557,67.09285288688952L148.64272222222223,67.03721993248182L148.67816666666667,67.1046285789082L148.73133333333334,67.07361624757047L148.77161111111113,67.01025755269224L149.1905,67.02514425657452L149.19372222222222,67.07507990430948L149.35805555555555,67.06236964883236L149.36288888888888,67.08198621148472L149.61100000000002,67.01500008399783L149.87683333333334,66.985808972595L150.1185,67.0435848305225L150.3376111111111,67.0764503832593L150.6115,67.05148984250916L150.83544444444445,67.07989541801344L151.59427777777776,67.04423323693166L151.60233333333335,67.0128141226742L151.67805555555555,67.10387447964844L151.77472222222224,67.1045882416996L151.8117777777778,67.17966199672911L152.2355,67.15408806823476L152.24677777777777,67.1468034513924L153.38583333333335,67.20135361209243L153.82083333333333,67.2199650730831L154.30094444444444,67.1393311575092L154.32994444444446,67.21155158329206L154.45883333333333,67.20013645001964L155.04044444444443,67.24473069807928L155.31594444444445,67.3113019977496L155.50766666666667,67.24190957231066L155.85083333333333,67.15473972289243L155.933,67.17249447998482L156.165,67.21281228952516L156.24072222222222,67.22358284770016L156.42922222222222,67.18349795684504L156.6161111111111,67.17895538068568L156.62738888888887,67.16960791409713L157.08655555555558,67.2082800445538L157.62144444444445,67.21174559071618L158.0596666666667,67.1433271463346L158.21916666666667,67.13214314707153L158.59616666666668,67.07144844339477L158.71377777777778,67.11779101407289L158.80561111111112,67.11335861668648L159.62727777777778,67.13538918209908L159.73683333333332,67.16180920907705L159.8608888888889,67.14407899517421L159.88344444444445,66.69889087678736L159.9462777777778,66.70745905181818L159.99783333333332,66.71221967959751L160.48761111111114,66.74651991902512L160.66322222222223,66.73912092958929L160.9516111111111,66.77475285056524L161.56061111111111,66.80997693670523L161.65083333333334,66.92798909892402L161.65727777777778,66.94282217508369L161.762,66.94650282479002L161.86672222222222,66.90991995565118L162.2292222222222,66.95895017857065L162.255,66.91040970377792L162.487,66.76307528638688L162.52888888888887,66.74689510937868L162.58849999999998,66.7520251004669L163.20555555555558,66.75304515619868L163.23616666666666,66.83127674536101L163.4005,66.86149254195568L163.82583333333332,66.94467078917903L164.00788888888889,66.96228847446336L164.0642777777778,66.89872152470716L164.74577777777776,66.88858473659388L166.0088888888889,66.89285457524439L166.06366666666668,66.85428251233424L166.19094444444443,66.6918881328331L166.55505555555555,66.750735306683L166.63883333333334,66.78964820907616L166.8643888888889,66.84236965722816L167.25588888888888,66.83816260726685L167.66188888888888,66.9428035048047L167.9212777777778,66.95319192224116L168.31116666666668,66.95854241070813L168.3627222222222,66.99122586611739L168.70427777777778,67.04963051224655L169.01361111111112,66.99816305735293L169.15055555555557,67.03207427141793L169.36322222222222,66.97235363156452L169.68866666666665,67.00698161338937L169.74022222222223,67.01123024548862L169.79983333333334,67.0499659266979L169.92872222222223,67.08957402132602L170.172,67.04274660398931L170.47488888888887,67.00451644324193L170.52483333333333,67.02416595726088L170.57799999999997,67.06963813659557L170.76166666666666,67.03326876410588L170.86316666666664,67.10106632675421L171.2433888888889,67.07602927158415L171.29011111111112,67.02281348811444L172.5242222222222,67.0231321397902L172.54516666666666,66.98308952070605L172.66116666666667,66.98302864355539L172.89155555555556,66.97920345195605L173.51183333333336,67.04016566399581L173.60366666666667,67.0454959780619L173.77444444444444,67.08355523668978L173.87916666666666,67.05769805530174L173.95166666666665,67.02766188593137L174.2142777777778,67.08194837227128L174.71050000000002,67.04552643720898L175.57566666666668,66.59111481862475L175.80283333333333,66.65087423237698L176.523,66.64524551406551L176.65994444444445,66.61244581791567L176.68572222222224,66.62921811744854L177.30116666666666,66.61894110463662L177.32855555555557,66.63186018141172L177.53799999999998,66.6662053754926L177.6685,66.69666705881306L177.76838888888886,66.68827940144654L178.09383333333332,66.74187228706263L178.43699999999998,66.76690506405755L179.44233333333335,66.77356710002995L179.47455555555555,66.77075722039271L179.80644444444445,66.8052467069506L180.0867777777778,66.85180838751013L180.32844444444447,66.9292616081318L180.36066666666667,66.9738096976259L180.3655,67.04407873163329L180.50244444444445,67.08514346702317L180.50727777777777,67.07076994409445L181.08566666666664,67.03321218265657L181.12755555555555,67.09344249408178L182.1087222222222,67.11482953525793L182.2037777777778,67.15378976065759L182.74833333333333,67.19347793478774L182.9046111111111,67.13539727661876L183.30416666666667,67.17086257813435L183.99694444444444,67.17322927496774L184.76866666666666,67.20361782522313L185.02,67.0989623843843L185.41955555555558,67.12054342635979L185.59194444444447,67.08720928909632L185.85938888888887,66.98377450920786L186.064,67.04275940357992L186.28472222222223,67.04005723856078L186.37494444444445,67.10745018748864L186.4265,67.15997089592572L186.54088888888887,67.09957865771729L187.15311111111112,67.12340870075109L187.2965,67.17113584223605L187.33355555555556,67.15308817257029L187.8636111111111,67.1829488517266L188.24061111111112,67.1798705372444L188.34533333333331,67.07483980445811L189.01877777777776,67.11705906978017L189.2411111111111,67.06780198980003L189.3538888888889,67.08452343745729L189.46666666666667,67.08700028053124L189.66,67.00467465719248L189.73088888888887,67.05784424905899L189.95000000000002,67.07862589638738L190.18522222222222,67.05964208012342L190.2722222222222,67.09498388519441L190.4011111111111,67.08307530353835L190.57833333333335,66.92923535008435L190.82483333333334,66.96551507076357L190.94244444444445,66.9671330883855L191.2517777777778,66.97712076018038L191.36455555555557,66.87980318396188L191.4435,66.86317413522335L192.3006111111111,66.73043865099037L193.02722222222224,66.73569719027518L193.198,66.71959266854387L193.2012222222222,66.7249718832357L193.63622222222224,66.77938346527466L194.2806666666667,66.83523224670836L194.73499999999999,66.85318722998329L194.77205555555557,66.8268294483032L195.03305555555553,66.78180010417447L195.20544444444442,66.79567515238864L195.3005,66.79808648138889L195.315,66.79055901812026L195.4293888888889,66.77866104200888L195.5502222222222,66.71483129510098L195.68394444444445,66.64874122262006L195.81122222222223,66.61389382932217L195.97394444444444,66.61374915140493L196.00616666666664,66.67763684768279L196.12861111111113,66.64133116121559L196.22044444444444,66.62929126310733L196.23816666666667,66.60773758975182L196.92127777777776,66.52773889922135L196.95350000000002,66.53247332579038L197.53994444444444,66.53128928501283L197.86538888888887,66.48866620153653L197.91694444444445,66.43951816433575L198.00394444444444,66.41559973084462L198.14894444444442,66.34381550231048L198.46311111111112,66.33434448212628L198.51305555555555,66.09571256015107L198.60166666666666,66.08999871280123L198.65805555555556,66.02028311067693L198.67416666666668,66.03017853013039L198.98833333333334,66.03680773236795L199.4007777777778,65.98454312751912L199.4893888888889,66.00306817549199L200.18216666666666,65.9483984167838L200.71222222222224,65.98894654486794L200.80566666666667,65.9551978630227L201.4017777777778,65.98280455548219L201.56933333333336,65.97139747844498L201.5918888888889,65.94349192607795L201.6225,66.00077263020927L201.68855555555555,66.0084371065098L201.7111111111111,65.9609025492269L201.73527777777778,65.89016714057016L201.75622222222222,65.86376964107421L201.81905555555556,65.8928315543597L202.0285,65.90801343110492L202.30561111111112,65.92419107921359L202.57788888888888,65.88360686164754L202.86144444444446,65.91236320256255L203.00966666666665,65.81585576209027L203.12566666666666,65.73109819192898L203.14822222222222,65.75682635844582L203.82811111111113,65.67660401509244L203.91994444444444,65.51073340599889L204.11811111111112,65.3320782495043L204.40166666666667,65.40509527243125L204.56277777777777,65.40134280063111L204.72872222222225,65.42935936403033L205.26683333333332,65.42673574443599L206.33177777777777,65.46038612423452L206.3962222222222,65.4591002789242L206.4493888888889,65.44867429417495L206.74583333333334,65.39465602975964L207.4353888888889,65.36966100188639L207.6561111111111,65.38957722512066L208.713,65.37724342613691L208.7146111111111,65.3613712865862L208.80805555555557,65.39041966983937L209.13027777777776,65.4315685196423L209.25755555555554,65.44974983570647L209.64744444444446,65.4293536609046L210.03572222222223,65.50015090594619L210.24194444444444,65.54480756873816L210.2951111111111,65.41343126751175L210.60766666666666,65.32452272526565L210.70433333333335,65.25971281971962L210.87833333333333,65.27483154351994L210.93633333333335,65.26044662766081L210.96694444444444,65.18104633169166L211.12161111111112,65.20921064725864L211.85788888888888,65.21986803242399L211.92394444444446,65.23060130462767L212.06572222222223,65.21889781684668L212.4233888888889,65.19533560101142L212.6698888888889,65.18684428954565L212.97438888888888,65.23162116631053L213.01950000000002,65.1952379627571L213.91366666666667,65.19236136068707L214.22622222222222,65.23284844668329L214.28905555555554,65.25223036834255L214.60966666666667,65.25118908275752L215.28633333333332,65.16369868829452L215.5135,65.18980373444843L215.7165,65.11791904631455L215.96138888888888,65.08006462866665L216.34644444444444,65.09282658610412L216.84911111111109,65.01260747244541L217.11816666666667,64.98107729207943L217.13105555555555,64.91010877480998L217.69977777777777,64.88657232342221L218.14444444444445,64.8975147555035L218.22983333333332,64.8586903801116L218.80499999999998,64.82477416135214L218.82433333333336,64.78965016855108L219.2222777777778,64.77243740556037L219.23355555555554,64.82674720473251L219.40433333333334,64.86217693753575L219.66372222222222,64.87854889271486L219.8087222222222,64.84999614124104L220.33072222222222,64.61360962501699L220.60622222222221,64.6139661095504L220.68516666666667,64.62760123159379L220.74638888888887,64.66126813655828L220.80116666666666,64.60157141049586L220.8623888888889,64.59151844782542L220.92522222222223,64.62900480879591L221.11211111111112,64.6855207804339L221.23777777777775,64.71053195936798L221.26033333333334,64.71898535005793L221.28772222222221,64.77078784477963L221.46172222222222,64.78134690812838L221.5487222222222,64.80495256502454L222.23505555555556,64.81373998653555L222.54116666666667,64.76892908538173L222.72805555555556,64.74262028361332L223.0825,64.64681029567053L223.12922222222224,64.6499617451598L223.87194444444444,64.66026228948071L224.286,64.65881505584554L224.33272222222223,64.67859605705388L224.431,64.64019435254008L224.92077777777777,64.61012369406092L225.19144444444444,64.59978071976951L226.01149999999998,64.64022057481024L226.03566666666666,64.63477070182702L226.51416666666668,64.65969690840429L227.4212222222222,64.5712393730703L227.5178888888889,64.53734951485698L227.96577777777776,64.60359844930827L227.96738888888888,64.5846422497043L228.14622222222224,64.59723721380921L228.19133333333335,64.60111878073401L228.23966666666666,64.59255184254944L228.30572222222222,64.57922863372382L228.4926111111111,64.57705333929606L229.00172222222224,64.59323475807913L229.06938888888888,64.53311835967952L229.12738888888887,64.46215594469044L229.5978333333333,64.33470158678386L229.64777777777778,64.31060001183778L230.11983333333333,64.31406458848159L230.26966666666667,64.34359054795306L230.28900000000002,64.30123181480383L230.45816666666664,64.3049923057587L230.98822222222222,64.27259847819187L231.85983333333334,64.28598071264652L231.89849999999998,64.30092645950815L231.95166666666665,64.29379476160771L232.6557222222222,64.31282924414583L232.76205555555558,64.31401858285072L232.80716666666666,64.3244495705602L233.3468888888889,64.33685672507832L233.6352777777778,64.3433075142222L233.71422222222222,64.35121270574942L233.71905555555557,64.33886942514383L233.73677777777777,64.34875263887619L233.80766666666668,64.38474961420138L234.17016666666666,64.30261478360612L234.5681111111111,64.28422670638365L236.42733333333334,64.24797820632308L236.81883333333334,64.31399922962147L237.2183888888889,64.32985474104379L237.30377777777775,64.33886546704342L237.4793888888889,64.31652803430829L237.69366666666667,64.31911844420623L237.9901111111111,64.33557946572773L238.19633333333334,64.31635658017946L238.28172222222221,64.31505479715068L238.3493888888889,64.3080050679712L238.525,64.35137583176476L238.5362777777778,64.32847572543795L238.58783333333332,64.32485925928704L238.6393888888889,64.35212855755762L238.73766666666668,64.31617304615311L238.76666666666668,64.29527269839336L239.11466666666666,64.31785113955797L239.424,64.3333245642004L239.59155555555557,64.31812091869429L239.69144444444447,64.30178978299575L239.9717777777778,64.29377581862838L240.30688888888886,64.26192157185132L240.78055555555557,64.29605715671737L240.845,64.30830862611349L241.05766666666668,64.31689391758297L241.19944444444445,64.32435369508671L241.21877777777777,64.30392890757727L241.23166666666665,64.33423955544166L241.27677777777777,64.36693668924491L241.3541111111111,64.38660378507355L241.4233888888889,64.40456480064391L241.62800000000001,64.39972098427174L241.8728888888889,64.39178723489414L242.03561111111114,64.38326294495802L242.27083333333334,64.36924098649223L242.4222777777778,64.32947493147569L242.66555555555553,64.33163950559006L243.28905555555556,64.37573297719968L243.3373888888889,64.35026429816939L243.6483333333333,64.36793574187223L243.745,64.40084054720047L243.7852777777778,64.37699869590276L244.5586111111111,64.40810516694945L244.57633333333334,64.41917943950226L244.8631111111111,64.41812267202643L244.90016666666668,64.43252849896838L244.9501111111111,64.43999549256773L245.17888888888888,64.40735922269783L245.20144444444443,64.41172936545213L246.19388888888886,64.39359093966812L246.4677777777778,64.4248134305873L246.85444444444445,64.46461842946569L246.88022222222222,64.45947264348146L247.09772222222225,64.47466322129189L247.32166666666666,64.46606412126721L247.5021111111111,64.44524733323179L247.7888888888889,64.49408254821317L247.84044444444444,64.44460858432336L247.95644444444446,64.47014251879652L248.37533333333334,64.47774209793577L248.61216666666667,64.5158437104638L249.20666666666665,64.48559210074076L249.22761111111112,64.51549784298601L249.36455555555554,64.4787741162661L249.64005555555553,64.52130016436297L249.9365,64.54126164129475L249.97355555555555,64.53708368035038L249.9816111111111,64.56885115931868L250.01383333333334,64.59688058287138L250.1846111111111,64.59810579569564L250.73883333333333,64.62944457734652L251.20283333333333,64.65118402830153L251.6168888888889,64.68796083068733L252.15983333333335,64.65924781498347L252.27422222222222,64.61351258307835L252.3998888888889,64.63620428092291L252.90738888888887,64.66893204162122L252.91544444444446,64.68803427253793L252.9396111111111,64.71019091425215L253.4712777777778,64.68234127764576L253.52283333333332,64.67636887022964L253.84022222222222,64.69028888433037L254.21077777777776,64.69127111298477L254.3445,64.64479683874644L254.37511111111112,64.61272749486761L254.54105555555554,64.5804711394574L254.63288888888889,64.56228479001034L254.99055555555557,64.53957108830606L255.29666666666665,64.48652818874427L255.76066666666668,64.49358419587851L255.8057777777778,64.433859970412L255.94433333333336,64.38720712212249L256.5581666666667,64.38097287054495L256.5936111111111,64.41179423377491L257.0721111111111,64.44221334844151L257.3057222222222,64.47242479726573L257.3798333333333,64.49783183305216L258.2272777777778,64.49093604747256L258.29172222222223,64.4684738175776L258.3046111111111,64.4898006141923L258.3400555555556,64.5386556001114L258.3561666666667,64.56244076905654L258.4786111111111,64.56306096868032L258.5333888888889,64.61940368958001L258.67355555555554,64.60684752077232L258.7235,64.63943443232091L259.4758888888889,64.68611147951255L259.7610555555556,64.73795904509115L259.86094444444444,64.73062288007716L260.23633333333333,64.74145193195272L260.246,64.70097294014771L261.25294444444444,64.70223509527314L261.3109444444445,64.71834645332305L261.46722222222223,64.70027491327242L261.77816666666666,64.68296897492237L261.80555555555554,64.66470763980048L261.80716666666666,64.7072073023022L262.2888888888889,64.70728789463757L262.3468888888889,64.73073601903131L262.69972222222225,64.69092916858624L262.9268888888889,64.6654967841115L263.40055555555557,64.62993718802939L263.6518888888889,64.61314128912726L263.88227777777774,64.64815948887694L264.0208333333333,64.58165674815477L264.03694444444443,64.59901711535512L264.2641111111111,64.57998099640857L264.3366111111111,64.56877261569747L264.3768888888889,64.55709645396428L264.5798888888889,64.5557445679607L264.69266666666664,64.54650122413581L264.9649444444444,64.56640104383062L265.0761111111111,64.56919353373202L265.17116666666664,64.59653905898408L265.3628888888889,64.63931221565875L265.56266666666664,64.63003756406653L265.5965,64.63159727142946L266.77422222222225,64.66216849764507L267.3091111111111,64.70218928704874L267.3268333333333,64.74801285797191L267.4686111111111,64.77607369532991L267.53144444444445,64.8185232531563L267.59749999999997,64.76453925592753L267.82466666666664,64.77146380625726L268.4368888888889,64.74952876961179L268.57705555555555,64.79381107104149L269.05555555555554,64.7527944429477L270.02222222222224,64.79644732140608L270.1188888888889,64.82188721819055L270.135,64.86205594278925L270.3363888888889,64.86083318370058L271.25794444444443,64.85671505146018L271.4609444444444,64.80244805581208L271.62044444444444,64.74289302143038L271.83955555555553,64.73525681996126L272.0361111111111,64.67801280391926L272.12955555555556,64.6653508084884L272.24072222222225,64.62067150483946L272.24716666666666,64.60432442169979L272.4098888888889,64.58270170603193L272.54844444444444,64.55589395184772L272.5726111111111,64.54856155329135L273.4796666666667,64.53244016946249L273.6617222222222,64.56193432748475L273.86794444444445,64.57605239731114L273.89211111111115,64.53388098365127L274.0048888888889,64.51517286391481L274.195,64.53720099268256L274.2771666666667,64.54182803176386L274.3883333333333,64.54640978873259L274.3947777777778,64.53699632891549L275.2438333333333,64.56404262894551L275.27444444444444,64.57442148167564L275.4033333333333,64.60221892265638L275.59988888888887,64.64468771437728L275.76905555555555,64.64939376474257L276.05744444444446,64.59698480580282L276.08,64.66502224214345L276.13800000000003,64.69613002777365L276.20405555555556,64.6937979416412L276.3555,64.71430704744401L276.4344444444444,64.66694125991383L276.4602222222222,64.69671003460195L276.5907222222222,64.69173962612592L276.72444444444443,64.68867567020766L276.8646111111111,64.69845758111639L276.8936111111111,64.71690975061024L277.11111111111114,64.67883723727073L277.33022222222223,64.70623634511763L277.9537222222222,64.73054872786712L278.0133333333333,64.71641926979488L278.4435,64.77693513661968L278.77538888888887,64.79279419349739L278.835,64.77953269481844L279.0653888888889,64.74334089833005" style="fill: none;" fill="none"></path></g></g></g></g><g opacity="0.2"><g><g><g><path stroke="rgb(0, 119, 187)" stroke-width="2px" d="M32.779666666666664,96.53525909423828L32.98105555555556,87.93057678222657L33.08094444444445,114.4484012858073L33.47566666666667,111.45751185099284L33.57555555555555,115.5802577718099L33.64483333333334,116.34173812866212L33.65611111111111,120.42611511230469L33.733444444444444,109.76881235758464L33.75438888888889,115.92973378499349L33.86233333333333,111.3655142211914L34.013777777777776,94.40442504882812L34.345666666666666,113.53438222249349L34.85961111111111,124.13688385009766L34.94338888888889,109.41866638183595L34.95466666666667,122.62663431803387L35.025555555555556,110.87698928833008L35.436388888888885,74.60320159912109L35.50566666666667,105.2575107828776L35.5105,99.81609293619792L35.73605555555556,103.36037144978842L35.8005,120.79702992757161L35.992222222222225,63.38327514648438L36.42883333333333,114.41643320719402L36.560944444444445,94.49869964599608L36.71561111111111,105.67551310221354L36.717222222222226,70.21390563964843L37.03783333333333,102.03092127482097L37.60655555555556,93.52037775675456L37.91588888888889,113.30942418416342L37.94166666666666,97.63397959391276L38.036722222222224,106.35593251546224L38.541,69.47082661946615L38.544222222222224,106.21767125447592L38.62477777777778,104.24332778930663L38.86805555555556,102.09907638549804L39.08555555555555,93.15863871256511L39.66716666666667,95.57483154296875L39.80088888888889,87.40247426350912L39.94911111111111,95.68522145589193L39.9765,80.68593658447266L40.245555555555555,106.2706526184082L40.426,80.65216684977213L40.72083333333333,103.17883422851563L40.983444444444444,82.16707895914713L41.32338888888889,74.51919372558594L41.34594444444444,74.09134114583334L41.93238888888889,96.03866744995116L42.159555555555556,54.132929992675784L42.228833333333334,106.07819681803386L42.36255555555556,47.77716715494793L42.70088888888889,93.6867231241862L42.731500000000004,58.47176147460938L43.50483333333333,53.54476623535156L43.52416666666667,68.36273569742838L43.754555555555555,45.97284027099607L43.935,56.34579823811849L44.2395,21.821287333170574L44.605222222222224,54.11499491373698L44.730888888888884,79.38747670491537L44.73572222222222,40.5958565266927L45.275444444444446,75.8856185913086L45.33183333333333,80.42263224283853L45.70722222222222,87.53138320922852L45.89088888888889,74.39171071370443L45.95694444444444,57.141342569986975L46.40322222222222,70.92445526123046L46.419333333333334,72.80456034342447L46.56916666666667,79.03001546223959L47.01544444444445,94.2591291809082L47.107277777777774,73.8167832438151L47.63088888888889,69.81145731608072L47.965999999999994,71.27238311767579L48.10455555555556,72.39468811035157L48.125499999999995,60.683090616861975L48.336555555555556,49.23372914632162L49.46594444444444,64.71898132324219L49.594833333333334,82.26177001953126L49.66411111111111,55.47337117513021L49.80105555555556,96.45082117716471L50.07977777777778,55.60905670166015L50.27633333333333,49.84057942708333L50.281166666666664,69.33986704508463L50.379444444444445,8.01597534179686L50.46644444444444,90.38935750325521L50.598555555555556,54.45187744140625L51.291333333333334,58.119451700846355L51.34611111111111,78.2192611694336L51.53783333333333,85.6683485921224L51.65705555555555,80.38400075276694L51.99538888888889,76.54681732177734L52.00344444444444,69.74398122151693L52.309555555555555,56.75318074544272L52.51255555555556,57.31269002278647L53.458277777777774,62.76044535319009L53.71122222222222,59.100331217447916L53.75472222222222,55.63106587727863L54.61827777777778,86.54536580403646L54.65533333333333,102.16795125325521L54.961444444444446,50.86038014729819L55.62361111111111,98.98768422444661L55.74122222222222,49.76867614746092L55.81211111111111,52.568078511555996L55.98772222222222,41.929733886718765L56.29544444444444,71.03689127604166L56.34377777777778,73.04994771321616L56.52261111111111,43.25282847086589L56.674055555555555,97.87409779866536L57.64072222222222,91.6666818745931L57.695499999999996,51.995323893229155L58.10955555555555,78.39662923177085L58.67666666666667,64.030458984375L59.00694444444444,65.15023803710938L59.8705,52.14899881998697L60.20722222222222,48.4777850341797L60.25716666666666,59.270528869628905L60.61161111111111,65.14288655598959L60.64705555555555,21.571771545410172L60.975722222222224,70.29555053710938L60.99827777777777,35.8010883585612L62.43861111111111,70.810625L63.51,111.30357889811198L63.595388888888884,65.59357218424479L64.17861111111111,87.10074666341144L64.35422222222222,64.5191514078776L64.37677777777778,68.1782334391276L64.50083333333333,69.29780426025391L64.92616666666666,43.86014953613281L65.0196111111111,74.80370147705078L65.03411111111112,66.11052073160806L65.15655555555556,14.0856913248698L65.32733333333333,80.94911417643229L65.34022222222222,74.16232096354166L65.4546111111111,56.8086880493164L65.64311111111111,94.37969980875651L65.8026111111111,73.49094604492187L65.86544444444445,81.2623941040039L66.18927777777778,-3.7780999755859455L66.19411111111111,75.27616088867188L66.31172222222223,74.90556294759115L66.67422222222223,44.3229669189453L66.77733333333333,70.96444478352865L66.9191111111111,64.11912943522135L67.05927777777778,36.501579488118495L67.38794444444444,54.53275278727213L67.91155555555557,98.24191630045573L68.55116666666666,91.53151692708333L68.68811111111111,70.07341267903647L68.73322222222222,63.146343790690096L69.98988888888888,55.642618204752594L70.006,25.047247619628905L70.07688888888889,57.19570007324219L70.11877777777778,68.84456553141275L70.22833333333334,48.01596354166668L70.34916666666668,86.13673390706381L70.4555,56.15646138509115L70.63755555555555,27.74877207438152L70.847,59.419731343587245L70.86472222222223,93.60168314615885L70.89694444444444,79.41767028808594L71.27877777777778,68.7181689453125L71.6155,54.96285970052084L71.833,74.42937347412109L71.83622222222222,17.2497887166341L71.89744444444445,26.481067097981764L72.37916666666666,32.42731984456381L72.53705555555555,67.0360196940104L72.54994444444445,59.74258992513022L72.83027777777778,73.20472717285156L72.88344444444445,76.1906869506836L73.3973888888889,81.93215749104819L73.52466666666666,50.32726196289063L73.61972222222222,79.09453104654948L74.298,51.91244771321615L74.35438888888888,69.36540710449219L74.47361111111111,71.8577402750651L75.08905555555555,45.53867736816406L75.88494444444444,51.48948404947916L75.88655555555556,47.37960774739582L76.4601111111111,51.010949707031244L76.46816666666666,63.16318339029948L77.0256111111111,66.39314534505209L77.1835,61.00016398111978L77.23988888888888,74.92291859944662L77.54116666666665,57.85206420898437L77.68777777777778,69.36364166259766L78.52877777777779,73.64137980143231L78.69794444444445,98.11439707438151L79.38588888888889,55.644881591796874L79.42777777777778,81.7121381632487L79.5341111111111,56.69377136230469L79.75805555555554,54.971451517740874L79.85794444444446,60.546056111653655L80.19305555555555,41.82185180664061L80.21883333333334,80.9367470296224L80.41861111111112,80.64216267903646L80.76983333333334,90.6450840250651L81.05338888888889,53.914657999674475L81.09527777777778,69.88204783121745L81.32566666666666,51.15114390055338L81.57216666666666,63.78083455403646L81.80255555555556,39.95021179199219L82.03133333333334,37.717987060546875L82.18277777777779,26.168882649739572L82.20533333333333,72.1625732421875L83.31055555555557,66.52929260253906L83.37016666666666,53.114668375651036L83.77777777777777,71.94729797363281L84.07422222222222,13.429807027180999L84.16444444444444,22.443284200032537L84.274,54.67521036783853L84.60105555555555,54.64871968587241L84.9683888888889,62.29018595377603L85.14077777777779,29.431102396647134L85.32605555555556,68.3459413655599L85.49522222222222,85.88883870442709L85.70788888888889,42.29705444335937L85.72077777777778,84.5001421101888L85.93344444444445,72.52487813313803L86.17027777777778,53.08786081949869L86.31527777777778,68.75658315022787L86.48283333333333,57.985803222656244L86.52794444444444,77.426215616862L87.06605555555555,50.184722900390625L87.08538888888889,71.18187479654948L87.116,75.27700286865235L87.1433888888889,38.20122924804687L87.23038888888888,63.14325653076172L87.28999999999999,75.03122619628907L87.34961111111112,64.73417317708333L87.54777777777777,45.04526804606121L87.71694444444444,60.72220194498698L88.07300000000001,87.94175791422525L88.10683333333334,77.84499654134115L88.33561111111112,50.289689737955726L88.45483333333333,72.28916900634766L88.75127777777779,38.095302734375L89.63738888888889,42.02045043945313L89.67122222222223,83.04262949625651L89.70827777777778,64.96138102213541L89.87905555555557,95.41060923258463L90.02405555555556,68.60260040283202L90.34305555555557,66.24821614583334L90.46872222222223,97.36135009765624L90.63627777777778,50.07457743326822L90.66366666666666,53.52349945068359L90.7716111111111,85.5501816813151L91.10833333333333,48.549108886718756L91.15505555555555,93.56237716674805L91.72538888888889,68.20998423258463L91.77372222222223,38.370231831868495L91.94772222222223,64.80319742838542L92.08144444444444,75.6858701578776L92.17327777777778,78.75820983886719L92.64855555555556,66.50194183349609L93.11094444444444,28.039200846354163L93.554,67.53107676188151L93.73444444444445,57.67685994466146L94.24355555555555,74.82064066569009L94.6415,28.469733276367208L94.66727777777778,40.791087239583334L95.09422222222221,76.5364057413737L95.28755555555556,54.81592061360678L95.51472222222222,13.33008219401043L96.02222222222223,70.15777364095052L96.67633333333333,37.66850941975912L96.80361111111112,79.31281209309897L96.95988888888888,83.82654907226562L97.00983333333333,55.48088562011719L97.18866666666666,75.08200754801432L97.63333333333334,79.99245290120443L97.962,90.88467712402344L98.2246111111111,83.59178151448569L98.23105555555556,38.681447550455744L98.28422222222223,80.86710713704427L98.31644444444444,67.27115844726562L98.43405555555556,16.780335083007827L98.832,15.076321512858073L99.16066666666666,53.336788126627596L99.20416666666667,76.09007486979166L99.31694444444445,96.7297021484375L99.63594444444445,65.46478546142578L99.66172222222221,85.28019582112631L100.59455555555556,52.24538289388022L101.10366666666667,42.01881174723309L101.13266666666667,50.11127146402994L101.471,86.41066711425782L102.82433333333333,80.76251149495444L102.96772222222222,73.76023478190103L103.01927777777777,95.27834142049154L103.13527777777777,40.14771494547526L103.17877777777777,78.62314900716146L103.18522222222222,90.29383351643881L103.28672222222222,17.508837890625017L103.58961111111111,77.29300170898438L103.7185,59.00434549967447L103.92311111111111,57.15007019042969L103.93438888888889,89.14244400024414L104.00527777777778,68.97503621419271L104.09066666666666,63.500491434733064L104.91555555555554,55.10322591145834L105.154,67.09550150553385L105.71144444444445,69.73810546875L105.72594444444445,38.52692159016928L105.81133333333334,55.84851399739584L106.02883333333332,47.375922953287755L106.2721111111111,83.9013857014974L107.33544444444445,19.926787109375L107.36122222222222,64.78700968424481L107.48849999999999,80.91299051920572L107.62705555555556,83.959853515625L108.91916666666667,81.47333272298178L109.37672222222223,37.89817077636718L109.46211111111111,80.73953358968097L109.51205555555556,62.29494812011718L109.57005555555556,34.93121439615885L109.6328888888889,22.52571675618489L109.85522222222222,63.00324340820312L109.95994444444445,52.59925893147785L109.99700000000001,74.08506703694663L110.16777777777777,49.36861796061197L110.33694444444444,67.17834147135416L110.41105555555555,57.874046223958345L110.88633333333334,86.86099965413412L111.4051111111111,64.13857645670572L112.09466666666667,91.81962799072267L112.22194444444445,13.110243937174488L112.42494444444444,61.6861875406901L113.27722222222222,41.16385803222656L113.35777777777778,75.14325480143229L113.50761111111112,76.60823659261068L113.53338888888888,53.912150166829434L113.58172222222223,69.18357564290365L113.69933333333334,67.98465047200521L114.28094444444444,76.89067108154296L114.58705555555557,46.73941324869793L114.84483333333334,64.85118123372396L115.09455555555556,71.15080301920572L115.24438888888889,57.97341796875L115.333,74.82420776367188L116.16433333333333,49.62501444498699L116.17722222222221,58.27437601725259L116.41566666666665,71.42499877929687L116.49138888888889,68.98832682291666L116.96022222222223,37.51567647298177L117.05850000000001,73.5742930094401L117.31144444444445,59.773453470865874L117.58855555555556,59.54301350911459L117.94944444444444,59.535770670572916L118.00261111111112,59.298902689615886L118.2491111111111,65.36271575927735L118.27327777777776,86.19133585611979L118.8548888888889,68.85667012532552L119.23833333333334,86.19244944254557L119.24961111111111,70.20418212890625L119.25605555555556,57.14878458658853L119.2625,67.19946339925129L119.48966666666666,52.11405212402343L119.56055555555557,59.27311818440754L119.828,73.823935546875L119.886,63.03755635579428L119.91016666666665,67.39425048828124L120.10027777777778,45.86312032063802L120.82527777777779,40.422146097819024L121.01216666666667,43.47535563151041L121.22161111111112,80.70133666992187L121.2941111111111,49.06135864257814L121.63405555555556,40.031367797851544L121.80483333333333,67.88491658528646L122.19794444444445,72.73928426106771L122.21083333333333,101.54089345296224L122.47183333333334,88.34253133138021L122.55722222222222,83.59701446533204L123.47716666666668,50.39921956380209L123.75105555555555,47.88265004475912L123.77361111111111,70.79376729329428L123.91377777777778,72.23804361979168L124.20216666666667,76.40167083740235L124.25533333333333,79.81449635823569L124.54372222222223,69.00053100585937L125.02705555555555,47.227906494140626L125.03672222222222,94.29530263264974L125.32511111111111,6.6296417236328296L125.76977777777778,62.852646687825526L126.63172222222222,57.36177836100259L126.86533333333334,79.84398376464844L127.05222222222223,75.98543395996094L127.18916666666667,59.26848276774088L127.31483333333334,63.95449971516928L127.35833333333333,95.71422902425131L127.38572222222221,72.03001118977865L128.1928888888889,97.37814442952474L128.2686111111111,97.31544860839844L128.46355555555556,48.864380594889326L128.79866666666666,58.81707285563151L128.84699999999998,61.78341359456381L129.66705555555555,54.79713450113931L129.67672222222222,60.12327351888021L129.71216666666666,38.30409566243489L129.85716666666667,40.08047424316405L130.14394444444446,55.128231811523435L131.32005555555554,88.19506713867187L131.43444444444447,100.2765473429362L131.69544444444443,59.293805541992185L131.85011111111112,68.67259338378906L132.08533333333335,33.79907725016275L132.82483333333334,77.59425852457682L132.9537222222222,54.664291788736975L133.43222222222224,94.05215148925781L133.48216666666667,75.44631327311197L134.00900000000001,92.57849639892578L134.25066666666666,65.50992645263672L134.56644444444444,54.49467356363934L134.78877777777777,64.42921346028646L134.90155555555557,54.72026082356771L134.90316666666666,54.912159830729166L135.0385,79.26741760253907L135.29305555555555,60.239530131022136L135.6056111111111,58.602458496093746L135.80377777777778,67.61168955485026L135.981,91.54467625935872L136.18561111111111,99.58327189127604L136.6463888888889,54.77742492675782L136.6625,84.37838094075519L136.92994444444443,86.89235209147135L137.2553888888889,63.73473388671874L137.82894444444443,64.21477111816407L137.90466666666666,45.464746093749994L138.1592222222222,65.05950337727865L138.20916666666668,39.84487375895182L138.4025,85.34185953776041L138.47016666666667,92.41688603719075L138.5765,29.18802368164063L138.8955,36.391868591308594L139.12427777777776,53.733215840657536L139.52544444444445,92.15417470296224L140.31327777777778,72.52450693766275L140.57266666666666,66.76655893961588L140.61777777777777,70.79278951009115L140.6902777777778,88.16524022420248L141.36533333333333,51.4250771077474L142.6912777777778,82.44971262613932L142.7202777777778,41.35467061360677L142.87655555555554,51.469837849934905L142.95872222222224,80.03530334472656L143.2181111111111,81.51273376464843L143.76427777777778,82.96548421223959L143.85933333333332,72.0384853108724L144.15416666666667,76.88805460611978L144.17672222222222,69.96047871907552L144.61172222222223,59.60718505859376L144.64555555555555,63.86237080891928L145.03705555555555,76.91016337076825L145.16433333333336,80.72515655517579L145.35283333333334,53.10566914876303L146.2341111111111,63.76712748209637L146.42422222222223,57.210285339355465L146.54666666666665,67.97395823160807L146.96394444444442,94.42733957926433L147.09444444444446,52.63709370930988L147.79044444444443,63.57542765299479L147.99344444444444,63.33747324625651L148.0353333333333,76.88424306233725L148.2222222222222,44.572862955729164L148.47033333333334,65.95314290364584L148.56055555555557,67.46446980794272L148.64272222222223,46.36184407552082L148.67816666666667,92.19860046386718L148.73133333333334,55.50933186848957L148.77161111111113,43.34456807454427L149.1905,72.5949254353841L149.19372222222222,85.78943979899088L149.35805555555555,62.29101888020834L149.36288888888888,74.45815470377603L149.61100000000002,41.78532073974611L149.87683333333334,55.97309082031251L150.1185,88.87618367513019L150.3376111111111,79.51624532063802L150.6115,57.58829813639322L150.83544444444445,77.86679748535157L151.59427777777776,53.47958068847656L151.60233333333335,55.04263956705731L151.67805555555555,101.85267501831055L151.77472222222224,67.37740183512369L151.8117777777778,95.92060012817383L152.2355,57.34770914713543L152.24677777777777,64.34901713053385L153.38583333333335,88.1858551534017L153.82083333333333,74.39090494791667L154.30094444444444,36.02184102376302L154.32994444444446,95.12646362304687L154.45883333333333,62.78092447916666L155.04044444444443,84.53606658935547L155.31594444444445,93.16489018758138L155.50766666666667,40.2503369140625L155.85083333333333,33.195105997721356L155.933,74.10021362304687L156.165,82.96894266764322L156.24072222222222,71.4392490641276L156.42922222222222,51.46965677897137L156.6161111111111,65.3954443359375L156.62738888888887,63.49392761230469L157.08655555555558,82.43864919026693L157.62144444444445,68.57868998209635L158.0596666666667,40.11510406494139L158.21916666666667,62.70722859700521L158.59616666666668,43.02115722656248L158.71377777777778,85.50897898356119L158.80561111111112,65.35167948404947L159.62727777777778,75.90480305989584L159.73683333333332,77.69435455322265L159.8608888888889,60.06514973958333L159.88344444444445,-111.31301269531247L159.9462777777778,70.13864349365234L159.99783333333332,68.6214951578776L160.48761111111114,80.52332580566406L160.66322222222223,63.76287231445312L160.9516111111111,81.12898101806641L161.56061111111111,81.02090881347657L161.65083333333334,114.60952275594076L161.65727777777778,72.94479075113932L161.762,68.43800689697265L161.86672222222222,52.0637777709961L162.2292222222222,86.88558909098309L162.255,47.15404764811197L162.487,6.7095664469401015L162.52888888888887,60.142285970052086L162.58849999999998,68.84907419840496L163.20555555555558,67.17062784830729L163.23616666666666,98.90325988769531L163.4005,79.26662089029948L163.82583333333332,101.14253733317057L164.00788888888889,74.21597229003906L164.0642777777778,40.68913523356119L164.74577777777776,62.703091125488285L166.0088888888889,68.65837931315103L166.06366666666668,50.88263376871744L166.19094444444443,-0.6462241617838629L166.55505555555555,91.18656768798827L166.63883333333334,82.97064473470053L166.8643888888889,88.79606430053711L167.25588888888888,65.083857421875L167.66188888888888,110.63809783935547L167.9212777777778,71.29716267903646L168.31116666666668,69.19898478190103L168.3627222222222,80.69593170166016L168.70427777777778,91.57350728352864L169.01361111111112,45.357380065917965L169.15055555555557,81.3105137125651L169.36322222222222,41.79224670410156L169.68866666666665,81.62722493489584L169.74022222222223,68.8074912516276L169.79983333333334,83.44917907714844L169.92872222222223,83.88093373616537L170.172,47.163916015625006L170.47488888888887,50.75336720784506L170.52483333333333,75.38819854736329L170.57799999999997,86.4514442952474L170.76166666666666,51.51056070963541L170.86316666666664,96.0763437906901L171.2433888888889,56.36139750162759L171.29011111111112,44.21867909749349L172.5242222222222,67.15986317952475L172.54516666666666,49.77828196207682L172.66116666666667,66.95683736165365L172.89155555555556,65.33130900065103L173.51183333333336,93.33735575358072L173.60366666666667,69.34785227457682L173.77444444444444,83.54431376139323L173.87916666666666,55.85973134358724L173.95166666666665,54.0029029337565L174.2142777777778,90.65320505777994L174.71050000000002,51.21050801595052L175.57566666666668,-131.22799397786457L175.80283333333333,92.69963740030924L176.523,64.18855204264322L176.65994444444445,52.27833780924479L176.68572222222224,73.96846638997397L177.30116666666666,62.11614054361979L177.32855555555557,72.29950815836588L177.53799999999998,81.75281575520832L177.6685,80.09444112141928L177.76838888888886,62.99449768066407L178.09383333333332,90.3732059733073L178.43699999999998,77.81886800130209L179.44233333333335,69.71856791178385L179.47455555555555,65.52706481933593L179.80644444444445,82.08996988932292L180.0867777777778,87.51245223999024L180.32844444444447,101.34030303955079L180.36066666666667,86.79041819254557L180.3655,98.34123825073243L180.50244444444445,85.39771993001303L180.50727777777777,60.653032836914065L181.08566666666664,50.24302775065104L181.12755555555555,94.05262680053711L182.1087222222222,76.69949635823568L182.2037777777778,84.63539306640625L182.74833333333333,85.02355489095052L182.9046111111111,41.01049092610677L183.30416666666667,83.14277079264322L183.99694444444444,68.2403769938151L184.76866666666666,80.9225239054362L185.02,19.794976501464845L185.41955555555558,76.88692291259765L185.59194444444447,51.98381683349609L185.85938888888887,20.061956583658855L186.064,93.83264368693034L186.28472222222223,65.81131001790365L186.37494444444445,97.78951955159505L186.4265,91.09969436645507L186.54088888888887,39.53909016927082L187.15311111111112,78.0113735961914L187.2965,89.00357615152994L187.33355555555556,58.887536621093744L187.8636111111111,80.87482981363932L188.24061111111112,65.76672129313151L188.34533333333331,18.802101033528658L189.01877777777776,86.54405303955077L189.2411111111111,44.37584869384767L189.3538888888889,74.79682983398438L189.46666666666667,68.23070780436197L189.66,28.945750732421857L189.73088888888887,91.66654607137045L189.95000000000002,76.70822397867838L190.18522222222222,58.25293721516928L190.2722222222222,83.50916788736978L190.4011111111111,61.545875651041655L190.57833333333335,-4.684740397135386L190.82483333333334,83.87342834472656L190.94244444444445,67.72206136067709L191.2517777777778,71.64244689941407L191.36455555555557,21.37017618815105L191.4435,59.077923685709635L192.3006111111111,4.516978149414058L193.02722222222224,69.20317657470703L193.198,59.15429036458332L193.2012222222222,69.25477274576822L193.63622222222224,92.39747522989909L194.2806666666667,93.15948521931966L194.73499999999999,75.32572001139323L194.77205555555557,54.37532063802084L195.03305555555553,45.48606719970704L195.20544444444442,73.36490254720053L195.3005,67.94101236979166L195.315,63.21872690836588L195.4293888888889,61.12675069173177L195.5502222222222,36.3602626546224L195.68394444444445,35.184668477376306L195.81122222222223,50.0055712890625L195.97394444444444,66.54471984863281L196.00616666666664,97.19332982381185L196.12861111111113,49.281142578124985L196.22044444444444,60.86593607584635L196.23816666666667,56.27903737386069L196.92127777777776,28.150115865071626L196.95350000000002,68.80616943359375L197.53994444444444,65.9620425415039L197.86538888888887,45.97484110514324L197.91694444444445,42.75988993326823L198.00394444444444,54.879277343750005L198.14894444444442,31.683806254069026L198.46311111111112,61.756506449381504L198.51305555555555,-49.37059163411456L198.60166666666666,63.3223085530599L198.65805555555556,32.21535817464192L198.67416666666668,70.83353047688803L198.98833333333334,69.2581044514974L199.4007777777778,40.56103658040365L199.4893888888889,75.02385660807293L200.18216666666666,39.298917643229174L200.71222222222224,85.77539774576825L200.80566666666667,49.46945638020833L201.4017777777778,79.48236694335938L201.56933333333336,60.38756469726563L201.5918888888889,52.26933858235678L201.6225,94.09836079915365L201.68855555555555,69.77194763183594L201.7111111111111,42.595721944173164L201.73527777777778,31.084923095703118L201.75622222222222,52.861540222167974L201.81905555555556,80.22215047200521L202.0285,73.4012978108724L202.30561111111112,73.9171327718099L202.57788888888888,45.811542256673164L202.86144444444446,80.14912455240885L203.00966666666665,17.988078409830734L203.12566666666666,23.683728942871113L203.14822222222222,78.53324727376302L203.82811111111113,25.798465779622404L203.91994444444444,-17.025994059244795L204.11811111111112,-23.65578063964844L204.40166666666667,101.81133651733398L204.56277777777777,63.52848500569662L204.72872222222225,79.42642506917318L205.26683333333332,64.11466603597006L206.33177777777777,82.30569783528647L206.3962222222222,64.81476786295572L206.4493888888889,60.219060058593755L206.74583333333334,38.272534993489586L207.4353888888889,52.8074452718099L207.6561111111111,75.4091303507487L208.713,59.166177673339845L208.7146111111111,57.36060139973959L208.80805555555557,80.04739888509116L209.13027777777776,86.21444051106769L209.25755555555554,74.64148905436197L209.64744444444446,55.10780700683594L210.03572222222223,101.36221262613932L210.24194444444444,88.18745310465496L210.2951111111111,-1.2640382893879973L210.60766666666666,20.157036946614568L210.70433333333335,32.30304178873698L210.87833333333333,72.97031270345053L210.93633333333335,57.93142761230469L210.96694444444444,24.688256327311194L211.12161111111112,79.58630167643229L211.85788888888888,70.66536987304687L211.92394444444446,70.7201166788737L212.06572222222223,59.227461140950524L212.4233888888889,53.12151285807293L212.6698888888889,60.831568806966146L212.97438888888888,88.21987838745117L213.01950000000002,46.49858886718749L213.91366666666667,63.71273376464843L214.22622222222222,86.0776685587565L214.28905555555554,75.24041748046875L214.60966666666667,64.71407430013019L215.28633333333332,19.992226155598956L215.5135,78.6804941813151L215.7165,27.93434265136719L215.96138888888888,45.4809881591797L216.34644444444444,71.70645548502604L216.84911111111109,23.402091166178394L217.11816666666667,48.610890299479166L217.13105555555555,28.029839477539042L217.69977777777777,52.644083048502594L218.14444444444445,70.59446248372396L218.22983333333332,44.62702128092448L218.80499999999998,47.13457346598307L218.82433333333336,46.452723592122396L219.2222777777778,55.77808644612631L219.23355555555554,93.2316465250651L219.40433333333334,83.40936157226562L219.66372222222222,73.4569228108724L219.8087222222222,49.875716247558614L220.33072222222222,-59.469734090169254L220.60622222222221,64.80125996907553L220.68516666666667,71.79783294677735L220.74638888888887,82.38143981933594L220.80116666666666,33.15269917805989L220.8623888888889,59.290763549804694L220.92522222222223,84.4126033528646L221.11211111111112,94.5387163289388L221.23777777777775,77.93385711669922L221.26033333333334,69.19223988850912L221.28772222222221,92.20729187011719L221.46172222222222,70.37877075195313L221.5487222222222,77.32952372233072L222.23505555555556,69.48024230957031L222.54116666666667,40.95142557779948L222.72805555555556,50.746893920898444L223.0825,13.633176879882797L223.12922222222224,66.32940836588541L223.87194444444444,70.15435139973957L224.286,63.886217854817716L224.33272222222223,75.24776896158853L224.431,44.103961588541665L224.92077777777777,48.51515808105469L225.19144444444444,59.059028930664056L226.01149999999998,86.32266662597657L226.03566666666666,61.710215657552084L226.51416666666668,78.04732523600259L227.4212222222222,17.02067962646484L227.5178888888889,46.3041367594401L227.96577777777776,100.27698191324869L227.96738888888888,54.36847615559897L228.14622222222224,71.39090311686198L228.19133333333335,66.69660217285156L228.23966666666666,59.963713785807286L228.30572222222222,57.37439900716146L228.4926111111111,63.39971638997396L229.00172222222224,73.35852884928384L229.06938888888888,31.941243896484394L229.12738888888887,25.957735799153653L229.5978333333333,-4.880586751302076L229.64777777777778,51.21102406819662L230.11983333333333,66.19869323730468L230.26966666666667,80.41828653971353L230.28900000000002,41.22078674316407L230.45816666666664,66.35571797688803L230.98822222222222,46.59242889404297L231.85983333333334,71.59591166178384L231.89849999999998,72.47167948404947L231.95166666666665,60.39171122233073L232.6557222222222,74.73608052571615L232.76205555555558,64.96583536783854L232.80716666666666,70.04585367838541L233.3468888888889,71.14777913411459L233.6352777777778,67.88737915039063L233.71422222222222,68.69788899739584L233.71905555555557,57.54636210123698L233.73677777777777,69.79191975911459L233.80766666666668,84.2261726888021L234.17016666666666,18.993366292317717L234.5681111111111,54.13231435139974L236.42733333333334,44.219267578125L236.81883333333334,100.82266642252604L237.2183888888889,73.10479410807291L237.30377777777775,69.32969991048178L237.4793888888889,51.934393513997406L237.69366666666667,65.75619201660156L237.9901111111111,73.47492126464844L238.19633333333334,53.63506632486978L238.28172222222221,63.59113555908203L238.3493888888889,60.38454081217448L238.525,88.50817957560221L238.5362777777778,51.56337005615234L238.58783333333332,62.30735148111978L238.6393888888889,79.57680450439453L238.73766666666668,44.226066792805995L238.76666666666668,52.60802276611328L239.11466666666666,76.95340311686198L239.424,72.99950134277344L239.59155555555557,55.79636555989583L239.69144444444447,55.14090677897137L239.9717777777778,59.79486511230469L240.30688888888886,46.365519816080734L240.78055555555557,83.48908711751302L240.845,71.20215474446616L241.05766666666668,69.15154418945312L241.19944444444445,68.52844278971354L241.21877777777777,52.78428629557291L241.23166666666665,81.44272267659505L241.27677777777777,82.83665222167969L241.3541111111111,75.50454569498697L241.4233888888889,74.56583760579427L241.62800000000001,61.65727956136068L241.8728888888889,59.89647308349609L242.03561111111114,59.54965881347657L242.27083333333334,56.41218790690104L242.4222777777778,41.746236572265644L242.66555555555553,65.56183949788412L243.28905555555556,89.4545198059082L243.3373888888889,49.85363464355467L243.6483333333333,74.43401794433593L243.745,83.15834289550781L243.7852777777778,50.77563893636068L244.5586111111111,82.16713328043619L244.57633333333334,70.74634480794272L244.8631111111111,63.81389811197916L244.90016666666668,72.67545674641927L244.9501111111111,68.71575164794922L245.17888888888888,45.70523549397785L245.20144444444443,66.91788899739583L246.19388888888886,53.98397196451822L246.4677777777778,82.35663309733073L246.85444444444445,87.34248092651367L246.88022222222222,61.4997568766276L247.09772222222225,73.21830749511719L247.32166666666666,59.51281087239582L247.5021111111111,52.445556844075526L247.7888888888889,92.66543309529622L247.84044444444444,35.883901163736994L247.95644444444446,79.22133504231772L248.37533333333334,68.87129160563153L248.61216666666667,86.55958892822265L249.20666666666665,46.97075856526692L249.22761111111112,81.84264506022134L249.36455555555554,43.185931803385415L249.64005555555553,89.196222076416L249.9365,76.13188415527344L249.97355555555555,62.109404703776036L249.9816111111111,83.04118998209637L250.01383333333334,80.90729583740234L250.1846111111111,65.311572265625L250.73883333333333,82.89171590169272L251.20283333333333,77.32861836751303L251.6168888888889,86.1497710164388L252.15983333333335,47.89128712972004L252.27422222222222,37.885857950846344L252.3998888888889,77.90663309733073L252.90738888888887,83.82214904785157L252.91544444444446,75.875107421875L252.9396111111111,77.69521464029947L253.4712777777778,48.34940572102863L253.52283333333332,61.17127604166666L253.84022222222222,72.86541829427084L254.21077777777776,65.26853169759116L254.3445,37.312523905436194L254.37511111111112,45.73905049641928L254.54105555555554,45.58349243164062L254.63288888888889,53.84420328776041L254.99055555555557,51.144000651041665L255.29666666666665,33.18238576253256L255.76066666666668,68.6606879679362L255.8057777777778,29.13781270345052L255.94433333333336,36.797096354166655L256.5581666666667,60.69154663085938L256.5936111111111,82.66440846761068L257.0721111111111,82.46898763020832L257.3057222222222,82.38841105143229L257.3798333333333,79.57502095540363L258.2272777777778,60.39600260416668L258.29172222222223,51.120597229003906L258.3046111111111,77.17159362792968L258.3400555555556,93.60960047403971L258.3561666666667,78.72530924479166L258.4786111111111,64.93260884602866L258.5333888888889,98.21410380045573L258.67355555555554,57.115096333821626L258.7235,84.09581970214843L259.4758888888889,92.57393341064453L259.7610555555556,95.73579457600911L259.86094444444444,60.341645100911464L260.23633333333333,71.22444458007813L260.246,40.45134379069012L261.25294444444444,65.45885538736978L261.3109444444445,74.38301025390625L261.46722222222223,53.852550659179684L261.77816666666666,54.28790863037109L261.80555555555554,53.68850036621093L261.80716666666666,90.26908111572266L262.2888888888889,64.75579305013021L262.3468888888889,78.85249348958334L262.69972222222225,40.70124888102214L262.9268888888889,49.32853790283201L263.40055555555557,43.17169962565103L263.6518888888889,54.47110717773438L263.88227777777774,85.80738393147787L264.0208333333333,24.37211547851561L264.03694444444443,75.10245951334635L264.2641111111111,53.05516845703124L264.3366111111111,57.778603719075505L264.3768888888889,57.47894938151043L264.5798888888889,63.73569356282553L264.69266666666664,58.935882568359375L264.9649444444444,76.65319651285807L265.0761111111111,66.2663956705729L265.17116666666664,81.22713053385417L265.3628888888889,90.66916646321614L265.56266666666664,58.98227294921875L265.5965,65.58198364257812L266.77422222222225,83.30223999023437L267.3091111111111,89.11948420206706L267.3268333333333,92.72349349975586L267.4686111111111,81.91823313395182L267.53144444444445,90.7671213277181L267.59749999999997,31.744229634602874L267.82466666666664,69.00967508951823L268.4368888888889,51.31557444254557L268.57705555555555,91.93130350748697L269.05555555555554,39.60076293945312L270.02222222222224,91.58190897623697L270.1188888888889,80.4416446940104L270.135,89.54058283487956L270.3363888888889,64.10913431803385L271.25794444444443,62.32348490397135L271.4609444444444,31.39978739420573L271.62044444444444,28.062477518717458L271.83955555555553,60.029134724934906L272.0361111111111,29.37713419596355L272.12955555555556,56.85219034830729L272.24072222222225,37.03397338867188L272.24716666666666,54.50477732340494L272.4098888888889,51.21552368164062L272.54844444444444,47.97311309814455L272.5726111111111,60.01008605957031L273.4796666666667,54.547790730794276L273.6617222222222,82.84010162353516L273.86794444444445,73.33068013509116L273.89211111111115,38.367370910644524L274.0048888888889,52.90008117675781L274.195,78.22187764485678L274.2771666666667,67.41806131998698L274.3883333333333,67.39622416178385L274.3947777777778,58.678354390462246L275.2438333333333,81.40699737548829L275.27444444444444,71.04170776367188L275.4033333333333,81.93385050455728L275.59988888888887,91.13981516520182L275.76905555555555,67.587136332194L276.05744444444446,31.861156209309883L276.08,107.1882251993815L276.13800000000003,84.15004140218099L276.20405555555556,63.23450724283853L276.3555,77.5554278564453L276.4344444444444,34.9927060953776L276.4602222222222,83.35766581217447L276.5907222222222,61.57412272135416L276.72444444444443,62.76571451822916L276.8646111111111,70.84128936767578L276.8936111111111,76.31132548014322L277.11111111111114,40.74187215169272L277.33022222222223,81.94275919596353L277.9537222222222,80.03423502604166L278.0133333333333,55.81726114908854L278.4435,102.9139907836914L278.77538888888887,74.79300923665365L278.835,56.41236897786459L279.0653888888889,41.895294189453125" style="fill: none;" fill="none"></path></g></g></g></g></g></g><g transform="translate(40, 178)" clip-path="url(#clip_1)"><clipPath id="clip_1"><rect width="290" height="22"></rect></clipPath><g><g><line x1="0" y1="0" x2="0" y2="5" style="visibility: inherit;" fill="rgb(0, 0, 0)" stroke="rgb(204, 204, 204)" stroke-width="1px"></line><line x1="32.22222222222222" y1="0" x2="32.22222222222222" y2="5" style="visibility: inherit;" fill="rgb(0, 0, 0)" stroke="rgb(204, 204, 204)" stroke-width="1px"></line><line x1="64.44444444444444" y1="0" x2="64.44444444444444" y2="5" style="visibility: inherit;" fill="rgb(0, 0, 0)" stroke="rgb(204, 204, 204)" stroke-width="1px"></line><line x1="96.66666666666666" y1="0" x2="96.66666666666666" y2="5" style="visibility: inherit;" fill="rgb(0, 0, 0)" stroke="rgb(204, 204, 204)" stroke-width="1px"></line><line x1="128.88888888888889" y1="0" x2="128.88888888888889" y2="5" style="visibility: inherit;" fill="rgb(0, 0, 0)" stroke="rgb(204, 204, 204)" stroke-width="1px"></line><line x1="161.11111111111111" y1="0" x2="161.11111111111111" y2="5" style="visibility: inherit;" fill="rgb(0, 0, 0)" stroke="rgb(204, 204, 204)" stroke-width="1px"></line><line x1="193.33333333333331" y1="0" x2="193.33333333333331" y2="5" style="visibility: inherit;" fill="rgb(0, 0, 0)" stroke="rgb(204, 204, 204)" stroke-width="1px"></line><line x1="225.55555555555557" y1="0" x2="225.55555555555557" y2="5" style="visibility: inherit;" fill="rgb(0, 0, 0)" stroke="rgb(204, 204, 204)" stroke-width="1px"></line><line x1="257.77777777777777" y1="0" x2="257.77777777777777" y2="5" style="visibility: inherit;" fill="rgb(0, 0, 0)" stroke="rgb(204, 204, 204)" stroke-width="1px"></line><line x1="290" y1="0" x2="290" y2="5" style="visibility: inherit;" fill="rgb(0, 0, 0)" stroke="rgb(204, 204, 204)" stroke-width="1px"></line></g><g transform="translate(0, 8)"><text x="0" y="0" dx="0em" dy="0.95em" style="text-anchor: middle; visibility: hidden; font-family: &quot;Helvetica Neue&quot;, sans-serif; font-size: 12px; font-weight: 200;" fill="rgb(50, 49, 63)" stroke="none" stroke-width="1px">-20k</text><text x="32.22222222222222" y="0" dx="0em" dy="0.95em" style="text-anchor: middle; visibility: inherit; font-family: &quot;Helvetica Neue&quot;, sans-serif; font-size: 12px; font-weight: 200;" fill="rgb(50, 49, 63)" stroke="none" stroke-width="1px">0</text><text x="64.44444444444444" y="0" dx="0em" dy="0.95em" style="text-anchor: middle; visibility: inherit; font-family: &quot;Helvetica Neue&quot;, sans-serif; font-size: 12px; font-weight: 200;" fill="rgb(50, 49, 63)" stroke="none" stroke-width="1px">20k</text><text x="96.66666666666666" y="0" dx="0em" dy="0.95em" style="text-anchor: middle; visibility: inherit; font-family: &quot;Helvetica Neue&quot;, sans-serif; font-size: 12px; font-weight: 200;" fill="rgb(50, 49, 63)" stroke="none" stroke-width="1px">40k</text><text x="128.88888888888889" y="0" dx="0em" dy="0.95em" style="text-anchor: middle; visibility: inherit; font-family: &quot;Helvetica Neue&quot;, sans-serif; font-size: 12px; font-weight: 200;" fill="rgb(50, 49, 63)" stroke="none" stroke-width="1px">60k</text><text x="161.11111111111111" y="0" dx="0em" dy="0.95em" style="text-anchor: middle; visibility: inherit; font-family: &quot;Helvetica Neue&quot;, sans-serif; font-size: 12px; font-weight: 200;" fill="rgb(50, 49, 63)" stroke="none" stroke-width="1px">80k</text><text x="193.33333333333331" y="0" dx="0em" dy="0.95em" style="text-anchor: middle; visibility: inherit; font-family: &quot;Helvetica Neue&quot;, sans-serif; font-size: 12px; font-weight: 200;" fill="rgb(50, 49, 63)" stroke="none" stroke-width="1px">100k</text><text x="225.55555555555557" y="0" dx="0em" dy="0.95em" style="text-anchor: middle; visibility: inherit; font-family: &quot;Helvetica Neue&quot;, sans-serif; font-size: 12px; font-weight: 200;" fill="rgb(50, 49, 63)" stroke="none" stroke-width="1px">120k</text><text x="257.77777777777777" y="0" dx="0em" dy="0.95em" style="text-anchor: middle; visibility: inherit; font-family: &quot;Helvetica Neue&quot;, sans-serif; font-size: 12px; font-weight: 200;" fill="rgb(50, 49, 63)" stroke="none" stroke-width="1px">140k</text><text x="290" y="0" dx="0em" dy="0.95em" style="text-anchor: middle; visibility: hidden; font-family: &quot;Helvetica Neue&quot;, sans-serif; font-size: 12px; font-weight: 200;" fill="rgb(50, 49, 63)" stroke="none" stroke-width="1px">160k</text></g><line x1="0" y1="0" x2="290" y2="0" fill="rgb(0, 0, 0)" stroke="rgb(204, 204, 204)" stroke-width="1px"></line></g></g></g></g></svg>