<svg viewBox="0 0 330 200" xmlns="http://www.w3.org/2000/svg"><g><g><g><g><g><line x1="70" y1="178" x2="65" y2="178" style="visibility: inherit;" fill="rgb(0, 0, 0)" stroke="rgb(204, 204, 204)" stroke-width="1px"></line><line x1="70" y1="158.22222222222223" x2="65" y2="158.22222222222223" style="visibility: inherit;" fill="rgb(0, 0, 0)" stroke="rgb(204, 204, 204)" stroke-width="1px"></line><line x1="70" y1="138.44444444444446" x2="65" y2="138.44444444444446" style="visibility: inherit;" fill="rgb(0, 0, 0)" stroke="rgb(204, 204, 204)" stroke-width="1px"></line><line x1="70" y1="118.66666666666667" x2="65" y2="118.66666666666667" style="visibility: inherit;" fill="rgb(0, 0, 0)" stroke="rgb(204, 204, 204)" stroke-width="1px"></line><line x1="70" y1="98.8888888888889" x2="65" y2="98.8888888888889" style="visibility: inherit;" fill="rgb(0, 0, 0)" stroke="rgb(204, 204, 204)" stroke-width="1px"></line><line x1="70" y1="79.1111111111111" x2="65" y2="79.1111111111111" style="visibility: inherit;" fill="rgb(0, 0, 0)" stroke="rgb(204, 204, 204)" stroke-width="1px"></line><line x1="70" y1="59.33333333333334" x2="65" y2="59.33333333333334" style="visibility: inherit;" fill="rgb(0, 0, 0)" stroke="rgb(204, 204, 204)" stroke-width="1px"></line><line x1="70" y1="39.55555555555554" x2="65" y2="39.55555555555554" style="visibility: inherit;" fill="rgb(0, 0, 0)" stroke="rgb(204, 204, 204)" stroke-width="1px"></line><line x1="70" y1="19.7777777777778" x2="65" y2="19.7777777777778" style="visibility: inherit;" fill="rgb(0, 0, 0)" stroke="rgb(204, 204, 204)" stroke-width="1px"></line><line x1="70" y1="0" x2="65" y2="0" style="visibility: inherit;" fill="rgb(0, 0, 0)" stroke="rgb(204, 204, 204)" stroke-width="1px"></line></g><g transform="translate(60, 0)"><text x="0" y="178" dx="0em" dy="0.3em" style="text-anchor: end; visibility: hidden; font-family: &quot;Helvetica Neue&quot;, sans-serif; font-size: 12px; font-weight: 200;" fill="rgb(50, 49, 63)" stroke="none" stroke-width="1px">-200</text><text x="0" y="158.22222222222223" dx="0em" dy="0.3em" style="text-anchor: end; visibility: inherit; font-family: &quot;Helvetica Neue&quot;, sans-serif; font-size: 12px; font-weight: 200;" fill="rgb(50, 49, 63)" stroke="none" stroke-width="1px">0</text><text x="0" y="138.44444444444446" dx="0em" dy="0.3em" style="text-anchor: end; visibility: hidden; font-family: &quot;Helvetica Neue&quot;, sans-serif; font-size: 12px; font-weight: 200;" fill="rgb(50, 49, 63)" stroke="none" stroke-width="1px">200</text><text x="0" y="118.66666666666667" dx="0em" dy="0.3em" style="text-anchor: end; visibility: inherit; font-family: &quot;Helvetica Neue&quot;, sans-serif; font-size: 12px; font-weight: 200;" fill="rgb(50, 49, 63)" stroke="none" stroke-width="1px">400</text><text x="0" y="98.8888888888889" dx="0em" dy="0.3em" style="text-anchor: end; visibility: hidden; font-family: &quot;Helvetica Neue&quot;, sans-serif; font-size: 12px; font-weight: 200;" fill="rgb(50, 49, 63)" stroke="none" stroke-width="1px">600</text><text x="0" y="79.1111111111111" dx="0em" dy="0.3em" style="text-anchor: end; visibility: inherit; font-family: &quot;Helvetica Neue&quot;, sans-serif; font-size: 12px; font-weight: 200;" fill="rgb(50, 49, 63)" stroke="none" stroke-width="1px">800</text><text x="0" y="59.33333333333334" dx="0em" dy="0.3em" style="text-anchor: end; visibility: hidden; font-family: &quot;Helvetica Neue&quot;, sans-serif; font-size: 12px; font-weight: 200;" fill="rgb(50, 49, 63)" stroke="none" stroke-width="1px">1e+3</text><text x="0" y="39.55555555555554" dx="0em" dy="0.3em" style="text-anchor: end; visibility: inherit; font-family: &quot;Helvetica Neue&quot;, sans-serif; font-size: 12px; font-weight: 200;" fill="rgb(50, 49, 63)" stroke="none" stroke-width="1px">1.2e+3</text><text x="0" y="19.7777777777778" dx="0em" dy="0.3em" style="text-anchor: end; visibility: hidden; font-family: &quot;Helvetica Neue&quot;, sans-serif; font-size: 12px; font-weight: 200;" fill="rgb(50, 49, 63)" stroke="none" stroke-width="1px">1.4e+3</text><text x="0" y="0" dx="0em" dy="0.3em" style="text-anchor: end; visibility: hidden; font-family: &quot;Helvetica Neue&quot;, sans-serif; font-size: 12px; font-weight: 200;" fill="rgb(50, 49, 63)" stroke="none" stroke-width="1px">1.6e+3</text></g><line x1="70" y1="0" x2="70" y2="178" fill="rgb(0, 0, 0)" stroke="rgb(204, 204, 204)" stroke-width="1px"></line></g></g><g transform="translate(70, 0)" clip-path="url(#clip_0)"><clipPath id="clip_0"><rect width="260" height="178"></rect></clipPath><g><g><g><line x1="0" y1="0" x2="0" y2="178" fill="rgb(0, 0, 0)" stroke="rgb(60, 60, 60)" stroke-width="1px" opacity="0.25"></line><line x1="28.888888888888886" y1="0" x2="28.888888888888886" y2="178" fill="rgb(0, 0, 0)" stroke="rgb(60, 60, 60)" stroke-width="1px" opacity="0.25"></line><line x1="57.77777777777777" y1="0" x2="57.77777777777777" y2="178" fill="rgb(0, 0, 0)" stroke="rgb(60, 60, 60)" stroke-width="1px" opacity="0.25"></line><line x1="86.66666666666666" y1="0" x2="86.66666666666666" y2="178" fill="rgb(0, 0, 0)" stroke="rgb(60, 60, 60)" stroke-width="1px" opacity="0.25"></line><line x1="115.55555555555554" y1="0" x2="115.55555555555554" y2="178" fill="rgb(0, 0, 0)" stroke="rgb(60, 60, 60)" stroke-width="1px" opacity="0.25"></line><line x1="144.44444444444446" y1="0" x2="144.44444444444446" y2="178" fill="rgb(0, 0, 0)" stroke="rgb(60, 60, 60)" stroke-width="1px" opacity="0.25"></line><line x1="173.33333333333331" y1="0" x2="173.33333333333331" y2="178" fill="rgb(0, 0, 0)" stroke="rgb(60, 60, 60)" stroke-width="1px" opacity="0.25"></line><line x1="202.22222222222223" y1="0" x2="202.22222222222223" y2="178" fill="rgb(0, 0, 0)" stroke="rgb(60, 60, 60)" stroke-width="1px" opacity="0.25"></line><line x1="231.1111111111111" y1="0" x2="231.1111111111111" y2="178" fill="rgb(0, 0, 0)" stroke="rgb(60, 60, 60)" stroke-width="1px" opacity="0.25"></line><line x1="260" y1="0" x2="260" y2="178" fill="rgb(0, 0, 0)" stroke="rgb(60, 60, 60)" stroke-width="1px" opacity="0.25"></line></g><g><line x1="0" y1="178" x2="260" y2="178" fill="rgb(0, 0, 0)" stroke="rgb(60, 60, 60)" stroke-width="1px" opacity="0.25"></line><line x1="0" y1="158.22222222222223" x2="260" y2="158.22222222222223" fill="rgb(0, 0, 0)" stroke="rgb(60, 60, 60)" stroke-width="1px" opacity="0.25"></line><line x1="0" y1="138.44444444444446" x2="260" y2="138.44444444444446" fill="rgb(0, 0, 0)" stroke="rgb(60, 60, 60)" stroke-width="1px" opacity="0.25"></line><line x1="0" y1="118.66666666666667" x2="260" y2="118.66666666666667" fill="rgb(0, 0, 0)" stroke="rgb(60, 60, 60)" stroke-width="1px" opacity="0.25"></line><line x1="0" y1="98.8888888888889" x2="260" y2="98.8888888888889" fill="rgb(0, 0, 0)" stroke="rgb(60, 60, 60)" stroke-width="1px" opacity="0.25"></line><line x1="0" y1="79.1111111111111" x2="260" y2="79.1111111111111" fill="rgb(0, 0, 0)" stroke="rgb(60, 60, 60)" stroke-width="1px" opacity="0.25"></line><line x1="0" y1="59.33333333333334" x2="260" y2="59.33333333333334" fill="rgb(0, 0, 0)" stroke="rgb(60, 60, 60)" stroke-width="1px" opacity="0.25"></line><line x1="0" y1="39.55555555555554" x2="260" y2="39.55555555555554" fill="rgb(0, 0, 0)" stroke="rgb(60, 60, 60)" stroke-width="1px" opacity="0.25"></line><line x1="0" y1="19.7777777777778" x2="260" y2="19.7777777777778" fill="rgb(0, 0, 0)" stroke="rgb(60, 60, 60)" stroke-width="1px" opacity="0.25"></line><line x1="0" y1="0" x2="260" y2="0" fill="rgb(0, 0, 0)" stroke="rgb(60, 60, 60)" stroke-width="1px" opacity="0.25"></line></g></g></g><g><g><line x1="0" y1="158.22222222222223" x2="260" y2="158.22222222222223" fill="rgb(0, 0, 0)" stroke="rgb(153, 153, 153)" stroke-width="1.5px"></line></g></g><g><g><line x1="28.888888888888886" y1="0" x2="28.888888888888886" y2="178" fill="rgb(0, 0, 0)" stroke="rgb(153, 153, 153)" stroke-width="1.5px"></line></g></g><g><g><g><g><g><path stroke="rgb(204, 51, 17)" stroke-width="2px" d="M28.949555555555555,158.22222222222223L29.13011111111111,158.1232838641543L29.21966666666667,158.05730847455692L29.573555555555554,157.9500427868472L29.66311111111111,157.86586604426194L29.72522222222222,157.79322552940317L29.735333333333333,157.74133949929916L29.804666666666666,157.69002058223856L29.823444444444444,157.650105922242L29.920222222222222,157.6082407716773L30.055999999999997,157.564952585387L30.353555555555555,157.50402067381486L30.814333333333334,157.41420007979707L30.889444444444443,157.3372111661864L30.899555555555555,157.27048759690095L30.96311111111111,157.20587757875518L31.393555555555555,157.12541421503454L31.39788888888889,157.05389142791066L31.60011111111111,156.9793941940232L31.657888888888888,156.9073553149019L31.829777777777778,156.83266498407826L32.221222222222224,156.75113793879L32.339666666666666,156.66800647326465L32.47833333333333,156.5876349701095L32.47977777777778,156.51369348326645L32.767222222222216,156.43388656101888L33.27711111111111,156.34143964860914L33.55444444444445,156.24485750827725L33.577555555555556,156.1549366252559L33.66277777777778,156.06766653415178L34.11488888888889,155.97307490434304L34.117777777777775,155.88439571002561L34.190000000000005,155.7980466061108L34.40811111111111,155.71086377466028L34.60311111111111,155.6229158517536L35.12455555555555,155.52587800382767L35.24444444444445,155.43136491066093L35.37733333333333,155.3365251524396L35.40188888888889,155.2465495419669L35.64311111111111,155.15603174788708L36.06922222222222,155.05762752837768L36.30466666666667,154.95910364385614L36.60944444444444,154.85811775231105L36.629666666666665,154.76172282006638L37.15544444444445,154.6583815463313L37.35911111111111,154.55513709934885L37.42122222222222,154.45413399300966L37.541111111111114,154.35523111328376L37.84444444444444,154.25416490611437L37.87188888888889,154.15714214034887L38.565222222222225,154.05000971495997L38.58255555555555,153.94699864390685L38.78911111111111,153.84404609012415L38.95088888888889,153.74114697130267L39.22388888888889,153.6364495962401L39.66444444444444,153.52823275521015L39.66877777777778,153.42381397182592L40.15266666666667,153.31422654066873L40.20322222222222,153.2083549620834L40.53977777777777,153.0992243912567L40.70444444444445,152.9920026624693L40.763666666666666,152.88659661498698L41.16377777777778,152.77806247173027L41.178222222222225,152.6729211254721L41.312555555555555,152.5694453985343L41.71266666666667,152.46291616458444L41.795,152.3580428333835L42.26444444444445,152.24873751874912L42.56488888888889,152.138154271419L42.68911111111111,152.02926976846175L42.70788888888889,151.92345367026488L42.89711111111111,151.81773251067176L43.909666666666666,151.70086894476705L44.02522222222222,151.5857795157162L44.08733333333333,151.4723925990388L44.21011111111111,151.3606403399798L44.46,151.247790992167L44.63622222222222,151.13651937000023L44.64055555555556,151.0280661620951L44.72866666666667,150.92104008097925L44.806666666666665,150.81538766000634L44.92511111111111,150.71105804067494L45.54622222222222,150.60179798916064L45.595333333333336,150.49391404729914L45.76722222222222,150.38735706518764L45.87411111111111,150.28088072979622L46.17744444444444,150.17329487723532L46.184666666666665,150.06815568354978L46.45911111111111,149.96305920985907L46.64111111111111,149.85800293428298L47.489000000000004,149.74616639218144L47.71577777777778,149.63338910630074L47.754777777777775,149.52303883190098L48.529,149.40622448944788L48.56222222222222,149.2918711893875L48.836666666666666,149.1766625842412L49.43033333333333,149.05741597711486L49.53577777777778,148.9395460462835L49.599333333333334,148.8240592140619L49.75677777777778,148.70880666114428L50.03266666666667,148.59275156545087L50.076,148.47897397673208L50.236333333333334,148.36538776041107L50.37211111111111,148.25298712741176L51.23877777777778,148.13380462993143L51.28788888888889,148.0168729068132L51.65911111111111,147.898232614091L52.16755555555555,147.77696386865424L52.46366666666667,147.65505100198155L53.23788888888889,147.52871466841358L53.53977777777778,147.4018345269874L53.58455555555555,147.27628954690906L53.90233333333334,147.15019372212987L53.934111111111115,147.0263124397603L54.22877777777778,146.9018583318174L54.249,146.77955233040592L55.540333333333336,146.64770188088698L56.500888888888895,146.50920831965198L56.577444444444446,146.37304506125648L57.10033333333333,146.23390927471348L57.25777777777778,146.09620869533762L57.278,145.96076823598534L57.38922222222222,145.82667874075318L57.77055555555555,145.69136445071857L57.85433333333334,145.55737675282185L57.867333333333335,145.42551859288727L57.97711111111111,145.2949109122623L58.130222222222216,145.16470133475488L58.141777777777776,145.03651324708468L58.24433333333334,144.90948918008638L58.41333333333333,144.7827970764585L58.556333333333335,144.65722796021714L58.61266666666667,144.5335498242438L58.903,144.40935586311306L58.907333333333334,144.2870045469768L59.01277777777778,144.1656779032208L59.337777777777774,144.04303704560922L59.43022222222222,143.9214095436398L59.55733333333333,143.80077317151128L59.683,143.68110633846106L59.977666666666664,143.56088487525832L60.44711111111111,143.43862612339905L61.02055555555556,143.31437109937147L61.14333333333333,143.19037072920264L61.18377777777778,143.06808364581417L62.31044444444445,142.93947071232805L62.32488888888889,142.81261070362757L62.388444444444445,142.68674958909662L62.426,142.56258095030898L62.52422222222223,142.43936132737468L62.632555555555555,142.31707153923026L62.72788888888889,142.195692909593L62.89111111111111,142.07451053566172L63.07888888888889,141.953519954291L63.09477777777778,141.83409360888245L63.123666666666665,141.71620141788105L63.466,141.59777319942484L63.76788888888889,141.47881819582278L63.96288888888889,141.36001780342116L63.96577777777778,141.24270552654102L64.02066666666667,141.12618895538753L64.45255555555556,141.00847035204544L64.5941111111111,140.8908849605303L64.60566666666666,140.77473669436756L64.857,140.6586997616716L64.90466666666667,140.54341778780523L65.36544444444445,140.42694889488084L65.47955555555555,140.31123058228505L65.56477777777778,140.19624923469763L66.17288888888889,140.07883028795368L66.22344444444445,139.96215908981455L66.33033333333333,139.84622231187137L66.88211111111112,139.72851814864265L67.59566666666667,139.60783781581426L67.5971111111111,139.48854014818698L68.11133333333333,139.36753916499973L68.11855555555555,139.24729961754673L68.61833333333334,139.12598982913585L68.75988888888888,139.0048328274131L68.81044444444444,138.88502559056738L69.08055555555556,138.7647547161286L69.212,138.64521507152142L69.96600000000001,138.52225699010984L70.11766666666666,138.40005098913252L70.73444444444445,138.2756584262261L70.772,138.15202484160486L70.86733333333333,138.0291377960388L71.06811111111112,137.90640837973072L71.15766666666667,137.78440753196205L71.45811111111112,137.66198105494237L71.48122222222221,137.54084036827302L71.66033333333334,137.41983375090274L71.97522222222223,137.29839545318015L72.22944444444444,137.17709191492114L72.267,137.05647847874408L72.47355555555556,136.93598898873032L72.69455555555555,136.81562105832265L72.90111111111112,136.69537234920955L73.10622222222223,136.5752405701131L73.242,136.4557687651121L73.26222222222222,136.33748967830726L74.25311111111111,136.21498146676566L74.30655555555556,136.0931463069478L74.672,135.97090279555732L74.93777777777778,135.8482561895656L75.01866666666666,135.72627353346294L75.1168888888889,135.60494496738673L75.41011111111112,135.4832081256295L75.73944444444444,135.36106816365867L75.89399999999999,135.2395738159418L76.06011111111111,135.11819605412217L76.21177777777778,134.99693276512332L76.40244444444444,134.8762971097678L76.414,134.7562800599225L76.60466666666667,134.63687275543526L76.817,134.51704887238108L76.947,134.39782691824095L77.09722222222223,134.27919838433138L77.13766666666668,134.1611549173944L77.62011111111111,134.04218673501703L77.63744444444444,133.9238010088775L77.66488888888888,133.8064861427931L77.68944444444445,133.6902277303841L77.76744444444445,133.5745190852939L77.82088888888889,133.45984324350673L77.87433333333333,133.34569784621692L78.052,133.23158893651708L78.52288888888889,133.11654594616368L78.55322222222222,133.0020290879082L78.75833333333334,132.88755021006324L78.86522222222222,132.77358761846702L79.131,132.65965703795985L79.92544444444444,132.54290423142695L79.95577777777777,132.426680044885L79.98899999999999,132.31144949482925L80.1421111111111,132.1967297504805L80.27211111111112,132.08204569833947L80.55811111111112,131.96692978002434L80.67077777777777,131.85231673583328L80.821,131.73820007554963L80.94233333333334,131.6245734166938L81.24422222222223,131.5105107519434L81.28611111111111,131.3969332446124L81.79744444444445,131.2820085933605L81.84077777777777,131.1680267379207L81.99677777777778,131.054069666633L82.11666666666667,130.94058832042546L82.199,130.82757674697783L82.62511111111111,130.71368376713912L83.03966666666668,130.5989191745967L83.43688888888889,130.48329260702891L83.59866666666667,130.36770102907496L84.05511111111112,130.2512592431066L84.4118888888889,130.13397652035792L84.435,130.01761858765605L84.81777777777778,129.90042402987544L84.99111111111111,129.78371030253737L85.19477777777777,129.66703695695418L85.64977777777779,129.54910355679516L86.23622222222222,129.4294919633282L86.35033333333334,129.31037178741647L86.49044444444444,129.19173721530632L86.53522222222222,129.0735825216818L86.69555555555556,128.9559020679899L87.09422222222221,128.83741648345625L87.3888888888889,128.71855732528417L87.62433333333334,128.5997500700583L87.6301111111111,128.4818346825071L87.67777777777778,128.3643821233831L87.70666666666666,128.2478048088085L87.81211111111111,128.13167665221224L88.16888888888889,128.01474732613667L88.46355555555556,127.89743866063444L88.50255555555556,127.78099155994742L88.60366666666667,127.66498549984007L88.88966666666666,127.54859584716223L88.91277777777778,127.43305186670335L89.7491111111111,127.31508626335543L90.20555555555555,127.19594169148698L90.23155555555556,127.07765365116475L90.5348888888889,126.95900249770548L91.74822222222222,126.8363712268773L91.87677777777778,126.71421129849705L91.92299999999999,126.59251756153176L92.027,126.47128493725931L92.066,126.35090580970235L92.07177777777778,126.23137125696732L92.16277777777778,126.11227747290212L92.43433333333333,125.9928320553141L92.54988888888889,125.87382345271519L92.73333333333333,125.7548554993044L92.74344444444445,125.63670812282436L92.807,125.5189837284345L92.88355555555555,125.40206588743796L93.62311111111111,125.2828510205305L93.8368888888889,125.16367588175785L94.33666666666667,125.04338569462479L94.34966666666666,124.92390873566524L94.42622222222222,124.804854372383L94.62122222222223,124.68583683718124L94.83933333333334,124.56685543915552L95.79266666666666,124.44525500198547L95.81577777777777,124.32446328481282L95.9298888888889,124.20371815297904L96.05411111111111,124.08339484774939L97.21255555555555,123.95973939284609L97.62277777777777,123.8354000757889L97.69933333333334,123.71150158673656L97.74411111111111,123.58803948799945L97.79611111111112,123.46538023231867L97.85244444444444,123.3431462586772L98.05177777777779,123.2209645158446L98.14566666666667,123.09956979579309L98.17888888888889,122.97858777444631L98.332,122.85801436663334L98.48366666666668,122.73748071039243L98.55011111111111,122.61771382256791L98.97622222222222,122.49689208042024L99.44133333333333,122.3753865538653L100.05955555555555,122.25248114263559L100.17366666666666,122.12962801150951L100.35566666666666,122.00718542079883L101.11977777777778,121.88264265515889L101.192,121.75851815899682L101.32633333333332,121.63480792154476L101.34944444444444,121.5118632972333L101.39277777777778,121.38932286466685L101.49822222222222,121.26718277856853L102.01966666666667,121.14402893667958L102.2941111111111,121.02057316686623L102.52522222222223,120.89716854255792L102.7491111111111,120.77381430892143L102.88344444444444,120.65085872026471L102.96288888888888,120.5282980502905L103.70822222222222,120.40404515075346L103.71977777777778,120.28019236728463L103.93355555555556,120.15639048389228L104.00144444444445,120.03332806206699L104.42177777777778,119.90927957809762L104.50988888888888,119.78596775204616L104.73666666666666,119.66235979591151L104.98511111111111,119.53879914475846L105.30866666666667,119.41494467337768L105.35633333333334,119.29147771933208L105.57733333333334,119.16805599763516L105.599,119.04535474489668L106.12044444444444,118.92168203401715L106.46422222222222,118.7973818728164L106.47433333333332,118.6738011940628L106.48011111111111,118.55093383026694L106.48588888888888,118.42877368422279L106.68955555555556,118.30664845899383L106.75311111111111,118.1848899304459L106.99288888888888,118.06316328934071L107.04488888888889,117.94212956557635L107.06655555555557,117.82145290716383L107.237,117.70113017760227L107.887,117.5791874097051L108.05455555555555,117.45760349890634L108.24233333333333,117.33604835976193L108.30733333333333,117.21484769274554L108.6121111111111,117.0933475068417L108.76522222222222,116.97187459330654L109.11766666666666,116.85010448553223L109.12922222222221,116.72900894905882L109.36322222222222,116.60793743718764L109.43977777777778,116.48721127063914L110.26455555555556,116.36458010233912L110.51011111111112,116.24166006024141L110.53033333333333,116.11941195977708L110.65599999999999,115.9975114570408L110.91455555555555,115.8753192147823L110.96222222222222,115.75378968405892L111.22077777777778,115.6319671561877L111.6541111111111,115.50953748783523L111.66277777777778,115.38776664184199L111.92133333333334,115.26570521807113L112.32,115.14304110588031L113.09277777777777,115.01883851096326L113.30222222222221,114.89467205949407L113.46977777777778,114.77054121330198L113.59255555555555,114.6467567682044L113.70522222222222,114.52331588448504L113.74422222222223,114.40021575202316L113.76877777777777,114.27776292661264L114.49244444444444,114.15379161820917L114.56033333333333,114.03016088436462L114.73511111111111,113.90656059081473L115.03555555555555,113.78268352511101L115.0788888888889,113.65944970420749L115.8141111111111,113.53471606817469L115.82277777777777,113.41062690250702L115.85455555555556,113.28687311075898L115.98455555555556,113.1634520166057L116.24166666666666,113.04005805169892L117.2961111111111,112.91397010808682L117.39866666666667,112.7882239595986L117.63266666666667,112.66251585089648L117.77133333333333,112.53684525438034L117.98222222222222,112.41121164775795L118.64522222222222,112.28441761724385L118.76077777777779,112.15796420109007L119.18977777777778,112.03065667462212L119.23455555555556,111.90398787716839L119.70688888888888,111.77646896420605L119.92355555555555,111.64899431411419L120.20666666666666,111.52126772442955L120.50711111111112,111.39329069401788L120.50855555555555,111.26594811243457L120.62988888888889,111.13894144947632L120.85811111111111,111.01197482692885L121.13833333333332,110.88475498637813L121.316,110.75757557867243L121.4748888888889,110.63072766914112L121.65833333333333,110.503917721574L122.07144444444445,110.37656431252432L122.08588888888889,110.24983048187893L122.32566666666666,110.1228437658523L122.61744444444444,109.99560563127827L123.13166666666667,109.86754107280936L123.19955555555556,109.74009380141926L123.42777777777778,109.61239803759514L123.47255555555556,109.48531495721382L123.64588888888889,109.35826814109198L123.70655555555557,109.2318281099821L123.80188888888888,109.10570562637277L124.0878888888889,108.97932948957181L124.29299999999999,108.8529850371694L124.65266666666666,108.72610509254649L125.35900000000001,108.59784443199632L125.59155555555556,108.46962345287918L125.632,108.3420052378378L125.697,108.21470433994239L126.30222222222221,108.0863146940487L127.491,107.95516172810038L127.517,107.82461982559076L127.6571111111111,107.69440557753542L127.73077777777777,107.5645166298525L127.96333333333332,107.4346724507896L128.453,107.30403943042955L128.53822222222223,107.17373117049442L128.80255555555556,107.04319196692846L128.82277777777776,106.91325165625511L129.21277777777777,106.78280337296621L129.24311111111112,106.65295096165978L129.59411111111112,106.522591523005L129.70822222222222,106.39255073717946L129.87722222222223,106.26282636305437L130.66733333333335,106.13150331488153L130.83777777777777,106.0002281143104L130.94755555555557,105.8692725373411L131.32166666666666,105.73781886687591L131.43866666666665,105.60668404571783L132.06266666666667,105.47451144706125L132.2446666666667,105.34238893445584L132.28222222222223,105.21085585719034L132.44977777777777,105.07936938870917L132.67222222222225,104.94792901495201L132.7531111111111,104.81680277843385L132.82677777777778,104.68625661818284L132.85855555555554,104.5560191242224L132.9062222222222,104.42635536660822L132.94233333333332,104.29699490257627L133.3178888888889,104.16740312295526L133.32077777777778,104.03837867990164L133.4681111111111,103.90938717111928L133.47244444444445,103.78095803754339L133.69488888888887,103.65255870449951L133.9332222222222,103.52418877786097L134.14988888888888,103.39558426488983L134.34633333333335,103.26700952002652L134.5918888888889,103.13846415194774L134.79266666666666,103.009947772671L135.473,102.88015069773724L135.4802222222222,102.75091031930849L135.54811111111113,102.62222312783223L135.63477777777777,102.49382507022987L135.668,102.36571423167508L136.04788888888888,102.23736926519166L137.0792222222222,102.1067169180766L137.46922222222221,101.97584155568343L137.89966666666666,101.8442273416791L137.92566666666667,101.7131686127877L138.04122222222222,101.58240429175149L138.56266666666667,101.45090357782617L138.8096666666667,101.31918414660025L138.98155555555556,101.18775985196832L139.28922222222224,101.05611679779926L139.36288888888888,100.92476720645375L139.5708888888889,100.79345400214913L139.63877777777776,100.66243154762167L139.80777777777777,100.53144359503887L139.97533333333334,100.40074372001028L139.98544444444445,100.27058365707342L140.3971111111111,100.13994739481637L140.87666666666667,100.00858464101621L141.26955555555554,99.87675170195654L141.41255555555557,99.74520704833114L141.75055555555556,99.61319400123931L141.856,99.48146867813732L141.93833333333333,99.35002926080165L142.67499999999998,99.21737120125535L142.77322222222222,99.08500155434379L142.88444444444445,98.95291850859847L142.90466666666666,98.82136957906224L142.96099999999998,98.69010266444599L143.00722222222223,98.55936455825355L143.6037777777778,98.42766305210068L143.86233333333334,98.2957466872585L144.40833333333333,98.16312158123169L144.48922222222222,98.03077968427343L144.495,97.89896593704725L144.5888888888889,97.76743092474912L144.6827777777778,97.63617292776556L145.0077777777778,97.50469905362525L145.0308888888889,97.37374597054045L145.23888888888888,97.24282092147538L145.27644444444445,97.11216806726058L145.3298888888889,96.98202988921685L145.8831111111111,96.85094068653211L145.91055555555556,96.72036598286819L146.0578888888889,96.59005974376372L146.4392222222222,96.45929217074143L146.60244444444444,96.32855028506253L146.65300000000002,96.19831779741023L147.264,96.06714178711603L148.39644444444446,95.9338204863973L148.44555555555556,95.80077484019958L148.55966666666666,95.6680031953042L148.88611111111112,95.53502334421935L148.96122222222223,95.40231607753466L149.16344444444445,95.26964017015214L149.51444444444445,95.13651675210942L149.87844444444445,95.00318690398215L150.11100000000002,94.86989010031144L150.46055555555554,94.73614949081859L150.50677777777778,94.6029188418171L150.813,94.46948258239979L151.09033333333332,94.33584159497677L151.21311111111112,94.20247057777728L151.40377777777778,94.0691313649618L151.69555555555556,93.93558735447506L151.7417777777778,93.80231126649579L151.7952222222222,93.66953713400522L151.91077777777778,93.5370269201043L152.1288888888889,93.4045441392188L152.40044444444445,93.27185384292545L152.4452222222222,93.1394255181997L152.49288888888887,93.00749163073853L152.65755555555558,92.87558215337549L152.74855555555555,92.74393012875272L153.08944444444444,92.61206801256002L153.13133333333332,92.48069483163583L154.23777777777778,92.34725154342664L154.25655555555556,92.21430135805173L154.36055555555555,92.08160983964811L154.5671111111111,91.9489440470713L155.1232222222222,91.81537906162248L155.20555555555558,91.68207342814726L155.35866666666666,91.54902567263386L155.45255555555553,91.41623433159458L155.51755555555556,91.28369795197244L155.753,91.1511854706071L156.19788888888888,91.0180086419699L156.97355555555555,90.88371254959868L157.1772222222222,90.74944612007597L157.82288888888888,90.61406695888579L157.94566666666668,90.4789490618007L157.96877777777777,90.34431878602236L158.52055555555555,90.20880843613895L158.5451111111111,90.07378550001971L158.73288888888888,89.93879355749155L158.84988888888887,89.80405892031384L158.93944444444443,89.6695801612684L159.23122222222221,89.53490375514528L159.5388888888889,89.40003048796243L160.44022222222222,89.26360829414828L160.46911111111112,89.12767116366483L160.76666666666665,88.99154188510883L161.018,88.85544582347802L161.23466666666667,88.7193826460429L161.26355555555557,88.58357606565731L161.2678888888889,88.44824844094431L161.39066666666668,88.31317383212524L161.395,88.17857405761228L161.91355555555555,88.04333210270185L161.95111111111112,87.90834140216087L162.83077777777777,87.77204408100324L162.91600000000003,87.6360007356291L163.40422222222222,87.49932277316266L163.54433333333333,87.36289914191013L163.90255555555555,87.22606470647709L164.52366666666668,87.08837926718608L165.21555555555557,86.94962594361743L165.4408888888889,86.8109117650044L165.7991111111111,86.67179604259883L165.95366666666666,86.53294017634005L166.19344444444445,86.39412315466818L166.37688888888889,86.25534462717422L166.57477777777777,86.11660424581589L166.65566666666666,85.97812049319678L166.70188888888887,85.83989201211949L166.80444444444444,85.70191745440363L167.35333333333335,85.56332333783274L167.48188888888888,85.42498344519333L167.5151111111111,85.28689644019703L167.99033333333333,85.14840924159456L168.32833333333332,85.00952351913864L168.42222222222222,84.87089112976369L169.026,84.73164485145864L169.22533333333334,84.59243597272724L169.32644444444446,84.45348011946746L169.42755555555556,84.3147759765844L169.60088888888887,84.17610678604979L169.66444444444446,84.03768742389181L169.86088888888887,83.89930165198311L170.07177777777778,83.76094915622548L170.14977777777779,83.62284406654398L170.26533333333333,83.48498510790111L170.42422222222223,83.34737101349963L170.6452222222222,83.20957313752297L170.75066666666666,83.07201903473653L171.02800000000002,82.93449425701455L171.12911111111111,82.79721146716675L171.1998888888889,82.66016942847891L171.96833333333333,82.52187967275611L172.61977777777776,82.38277202106643L172.7728888888889,82.24369784512285L172.7757777777778,82.10508030565659L173.16577777777778,81.96628274851815L173.74355555555556,81.82667205371364L174.1508888888889,81.6866736690548L174.1841111111111,81.54692146075263L174.4181111111111,81.40720365476295L174.57266666666666,81.26773024027489L174.6578888888889,81.12849999071553L174.6708888888889,80.98972151238752L174.77344444444444,80.8511830890924L174.88177777777778,80.71288352041925L175.00166666666667,80.57461249140715L175.1157777777778,80.43657861327998L175.26166666666668,80.2987807048458L175.29055555555556,80.16142601803011L175.40033333333332,80.0240960959884L175.4826666666667,79.887206610684L175.49855555555555,79.75054777874549L176.111,79.61308091966687L176.1398888888889,79.47605303049114L176.66566666666665,79.33842681467286L176.95744444444446,79.20061833497054L177.00366666666665,79.06324802353312L177.08166666666668,78.92610748576058L177.21166666666667,78.78919559437956L177.49333333333334,78.65209937075917L177.5381111111111,78.5152308617201L177.61755555555555,78.37879443910685L177.66811111111113,78.24258286474769L177.68255555555555,78.10680008514444L177.96422222222222,77.97082967789623L178.33399999999997,77.83446768368589L178.41344444444442,77.69853314341924L179.03455555555556,77.5617991140399L179.5097777777778,77.42447275040985L179.59355555555558,77.28737131991537L180.128,77.14967966566662L180.2782222222222,77.01201001231485L180.29844444444447,76.87476829977102L180.32588888888887,76.73795260414532L180.38511111111112,76.60135835148408L180.40533333333332,76.4651869297208L180.427,76.32943644640241L180.44577777777778,76.19410502033776L180.5021111111111,76.0589889658106L180.6898888888889,75.92388564915797L180.93833333333333,75.7887948776623L181.18244444444446,75.65351527165471L181.43666666666667,75.5182484456748L181.56955555555555,75.38299420775873L181.67355555555554,75.24795293339822L181.69377777777777,75.11332397483673L182.30333333333334,74.97790458425285L182.38566666666668,74.84269758995075L182.56333333333333,74.70770199083802L182.81755555555557,74.57251770669491L182.962,74.43754404338459L183.11077777777777,74.30258087467361L183.59322222222224,74.16703121442308L184.548,74.03010235192187L184.60577777777777,73.89338797459678L184.65344444444443,73.75708541675877L184.91922222222223,73.62059848326665L185.53744444444445,73.4833339669501L185.73533333333333,73.34608579535168L186.6828888888889,73.20747097994139L186.6843333333333,73.0692709310208L186.7681111111111,72.9312867109127L187.05700000000002,72.79312341994036L187.17111111111112,72.65517514615433L187.52066666666664,72.51704777552514L187.86877777777775,72.37854551247376L188.05366666666666,72.24006205297631L188.10133333333334,72.10198915099156L188.38155555555556,71.96373768230727L188.4682222222222,71.82569941107545L188.62422222222222,71.68787336421435L188.6762222222222,71.55025857416913L188.70366666666666,71.41304910558044L188.84233333333336,71.27604840145098L189.50244444444445,71.13808762242073L189.56166666666667,71.00033714209219L189.68877777777777,70.86279600789146L190.00944444444445,70.72507510228156L190.23044444444443,70.58736888963314L190.50344444444445,70.44948346824188L190.5438888888889,70.31199998059016L191.34555555555553,70.17337000597021L191.62577777777778,70.03456362698408L191.6821111111111,69.89596733839873L191.96955555555556,69.75738740925573L192.5762222222222,69.61805321693467L192.7798888888889,69.47873722473827L192.9618888888889,69.33943923108876L193.18144444444445,69.20015903555345L193.52666666666664,69.06051267738398L193.97733333333332,68.92050142342774L194.21855555555555,68.78031805432184L194.2301111111111,68.64053711849891L194.74,68.50020114140753L195.1386666666667,68.35950308396448L195.21522222222222,68.21901660841925L195.7308888888889,68.07797826453647L195.7482222222222,67.93734227266776L196.105,67.79653615326896L196.1151111111111,67.65613072087012L196.26822222222222,67.5157444857047L196.50077777777776,67.3753772463556L196.63077777777778,67.23502880252846L197.0987777777778,67.09432014834685L197.34577777777778,66.95344173357437L197.41655555555556,66.81296123637858L197.47144444444444,66.67268815804667L197.52055555555555,66.5328103111592L197.57544444444443,66.39313755518657L197.63177777777778,66.25385737250923L197.79933333333335,66.1145917775437L197.912,65.97552862171746L197.93222222222224,65.83685489220368L197.95677777777777,65.69838133152993L198.11277777777778,65.56010707637951L198.8061111111111,65.42090712758505L199.08055555555555,65.28153352563166L199.24811111111111,65.14236082904138L199.5658888888889,65.0028276089188L199.60777777777778,64.86368182163766L200.27366666666666,64.7236162566445L200.6448888888889,64.58337958841359L200.68677777777776,64.44334470608027L200.77488888888888,64.30369678022383L201.214,64.16350494774319L201.45666666666668,64.02332817174096L202.19188888888888,63.88205303456418L202.21355555555556,63.7411664159238L202.64255555555553,63.599925923329025L203.45577777777777,63.457592497248484L203.944,63.31472463974258L203.94544444444446,63.17224781537986L204.10577777777777,63.02997591994742L204.1462222222222,62.88790809300073L204.18955555555556,62.74622773147094L204.24877777777778,62.604749229049716L204.41633333333334,62.46328780514065L204.87277777777777,62.32147572209182L204.93344444444446,62.17986497051322L204.98544444444445,62.03863817325771L205.40722222222223,61.89706061791277L205.452,61.755682880369136L205.87522222222222,61.613955149259155L206.00955555555555,61.472427060480285L206.0268888888889,61.33128046920015L206.17855555555556,61.19014884868774L206.65377777777778,61.048484904420164L207.43522222222222,60.90592595571452L207.4698888888889,60.76356743898326L207.51755555555556,60.621590442492334L208.14877777777778,60.47890293818436L208.2441111111111,60.336415346772114L208.28455555555556,60.194126847873264L208.76844444444444,60.051311401963545L209.02700000000002,59.90851419791663L209.09777777777776,59.765916057460686L209.1021111111111,59.62369702171151L209.118,59.48185565176851L209.18155555555555,59.340209961052196L209.50655555555556,59.198398340593215L209.86333333333334,59.05642124940579L211.53022222222222,58.91175761603249L211.88122222222222,58.766936081256006L212.23944444444444,58.621777258334546L212.316,58.47682119383161L212.47344444444443,58.3320670700906L212.66555555555556,58.18733469954633L212.93133333333333,58.04244466142363L213.1162222222222,57.897576462262876L213.19277777777776,57.7530877846998L213.25344444444443,57.60879841852521L213.4108888888889,57.46470756506589L213.421,57.3208144296202L213.46722222222223,57.177296582313375L213.51344444444445,57.03415262842249L213.60155555555554,56.89120310530576L213.62755555555555,56.74844723734023L213.93955555555556,56.60552867231186L214.2168888888889,56.46262549646056L214.36711111111111,56.31973754381872L214.45666666666665,56.17704201534936L214.708,56.03436092216603L215.00844444444445,55.89151701734251L215.43311111111112,55.748333791394984L215.4908888888889,55.60534269053194L215.68155555555555,55.46236628967242L215.80866666666665,55.31958095462376L215.826,55.17716232168033L215.83755555555555,55.03510905101078L215.94733333333335,54.89306758278073L216.00944444444445,54.75138971826898L216.1928888888889,54.60972245623232L216.41244444444445,54.46806565107448L216.55833333333334,54.32641915793167L216.7692222222222,54.184782832668134L216.905,54.04333182583028L217.12311111111111,53.90189025494061L217.6821111111111,53.75975788509341L218.0042222222222,53.61746155891224L218.09088888888888,53.47535121806145L218.12699999999998,53.333600760495415L218.82033333333334,53.190987481935935L218.8362222222222,53.048734590055815L219.09333333333333,52.906318128911266L219.12655555555554,52.7642607917702L219.17133333333334,52.62256129279872L219.37644444444445,52.48087070428625L219.39666666666668,52.33936258206192L220.28644444444444,52.19682129522013L220.53199999999998,52.05411725860391L220.87866666666667,51.911250895127154L220.90177777777777,51.768568964134644L221.29755555555556,51.62572468026565L221.45933333333335,51.48289137323745L221.71644444444445,51.339896120270424L221.76266666666666,51.19725729285912L221.86666666666667,51.0548011086271L222.2422222222222,50.91200968862891L222.45455555555554,50.76922854117896L222.98755555555556,50.625941112001726L223.00633333333334,50.483008980330425L223.12911111111111,50.34008712980672L223.6418888888889,50.196660150572924L223.6751111111111,50.05358771101676L223.68233333333333,49.91086856951449L223.71122222222223,49.768501490214135L223.86433333333332,49.62614273681777L224.3612222222222,49.48327879493661L224.77722222222224,49.340082174637075L225.14844444444446,49.19655383142435L225.6352222222222,49.05269471644604L225.73777777777778,48.90901766659897L225.85044444444443,48.765521999593176L226.30544444444445,48.62152550455653L226.31266666666664,48.47788096286129L226.33433333333335,48.33458715735762L226.81099999999998,48.190792803705335L226.85722222222222,48.04734884008167L227.14177777777778,47.90374474747114L227.474,47.75981127826384L227.5938888888889,47.61605794803705L227.62133333333333,47.4726534947246L227.7701111111111,47.32942743550964L227.85244444444444,47.18637910929479L228.1731111111111,47.043169767466225L228.44755555555557,46.89979981186369L228.86355555555556,46.75610083667587L228.904,46.61257982649255L229.0282222222222,46.46923612545092L229.57855555555554,46.32539528492845L229.61033333333333,46.18173207131986L230.03933333333333,46.03774119492857L230.24877777777778,45.89375976019886L230.31522222222222,45.74995561409938L231.07500000000002,45.60532094908794L231.1327777777778,45.46086468779049L231.14433333333335,45.31675380482747L231.1761111111111,45.172987134907345L231.19055555555553,45.029563517954756L231.30033333333333,44.886314521523076L231.34944444444443,44.74323950985729L231.47511111111112,44.600337850052966L231.5198888888889,44.457608912040655L232.19444444444446,44.31421798463151L232.4501111111111,44.17066710136925L232.53966666666665,44.02728982866307L232.87622222222222,43.88375259025523L232.8848888888889,43.740554856860854L233.78766666666667,43.59619927428983L233.83966666666666,43.4520183366825L233.97977777777777,43.30801141528269L234.25855555555555,43.163846067606215L234.2831111111111,43.02002006391635L234.28455555555556,42.87653227920424L234.71644444444445,42.73271930557419L234.76844444444444,42.58907840976539L235.0847777777778,42.44527827753288L235.28844444444442,42.30148453029696L235.71311111111112,42.157366797860305L235.93844444444446,42.01325599164224L236.145,41.86915199443092L236.26922222222223,41.725054689554554L236.28366666666668,41.5812933341698L236.4873333333333,41.4375376722119L236.55233333333334,41.29411652690703L236.58844444444443,41.15086444462884L236.77044444444445,41.00778082587567L236.87155555555555,40.864865073759034L237.11566666666667,40.72178852714478L237.21533333333332,40.57887942097781L237.30055555555558,40.43613716365189L237.47244444444445,40.293561166128654L237.65155555555555,40.15098723895886L238.73777777777778,40.00694381893359L239.21733333333333,39.86241549506272L239.23322222222222,39.71822001978188L239.36033333333333,39.57419314004281L239.41666666666666,39.43033426498755L239.47588888888887,39.286805770989815L239.67955555555557,39.14328087451133L240.22844444444445,38.99910845659332L240.3541111111111,38.85510356953165L240.7831111111111,38.71077799697463L241.64977777777779,38.56532038821038L241.73644444444446,38.42003264401484L241.7508888888889,38.27507640559145L241.93144444444445,38.13012635751247L242.75766666666667,37.984210247407674L242.93966666666668,37.83830231861222L243.08266666666665,37.692564271354996L243.27911111111112,37.5468338047003L243.45533333333333,37.401110804010386L243.5391111111111,37.255718173274914L243.63877777777776,37.11049345596217L243.64455555555557,36.96559737891877L243.79044444444446,36.82070649387401L243.91466666666668,36.67598179609783L243.93633333333335,36.53158371518211L244.74955555555556,36.38622402465768L244.91277777777776,36.240870193370625L245.09766666666667,36.095522113431L245.11933333333332,35.950500872314024L245.22044444444444,35.80564494388153L245.3908888888889,35.66079336639939L245.46455555555556,35.51626663258469L245.5642222222222,35.3719035248387L245.57,35.22770348585189L246.3312222222222,35.08270596135992L246.35866666666666,34.93803244423722L246.47422222222224,34.79352211936501L246.65044444444445,34.64901472902068L246.8021111111111,34.504510175954834L247.0606666666667,34.36000836334807L247.0808888888889,34.21582801538048L247.13288888888889,34.07180881966673L247.1921111111111,33.92795023179511L247.32788888888888,33.78425170960878L247.39866666666666,33.64071271319406L247.42177777777778,33.497491629804955L247.53877777777777,33.354428647364074L247.65866666666668,33.211523233705776L247.78433333333334,33.068774858857466L247.81033333333332,32.926182995028654L248.00533333333334,32.78358867166719L248.20177777777778,32.64099180976177L248.76077777777778,32.49791756742255L248.81422222222224,32.35499983318962L249.1998888888889,32.211921954164666L249.49744444444445,32.06868429216263L249.55088888888886,31.925602959311817L250.69199999999998,31.781099616779528L250.7887777777778,31.63675501802149L250.8768888888889,31.492568635435106L251.02277777777778,31.348539943566124L251.3968888888889,31.204196197068995L251.48933333333335,31.060010127277593L252.0858888888889,30.915195105176053L252.29244444444444,30.770381301317258L252.76044444444443,30.625097518442146L253.05077777777777,30.479658857442132L253.16344444444445,30.33437936403473L253.17644444444446,30.189415274080233L253.62133333333335,30.044138960878854L253.81777777777776,29.898864352235535L253.83944444444444,29.75390432964315L253.93622222222223,29.609101550298988" style="fill: none;" fill="none"></path></g></g></g></g><g opacity="0.2"><g><g><g><path stroke="rgb(204, 51, 17)" stroke-width="2px" d="M28.949555555555555,158.22222222222223L29.13011111111111,158.02444444444444L29.21966666666667,157.92555555555555L29.573555555555554,157.6288888888889L29.66311111111111,157.53L29.72522222222222,157.4311111111111L29.735333333333333,157.4311111111111L29.804666666666666,157.3322222222222L29.823444444444444,157.3322222222222L29.920222222222222,157.23333333333335L30.055999999999997,157.13444444444445L30.353555555555555,156.83777777777777L30.814333333333334,156.34333333333333L30.889444444444443,156.34333333333333L30.899555555555555,156.34333333333333L30.96311111111111,156.24444444444444L31.393555555555555,155.8488888888889L31.39788888888889,155.8488888888889L31.60011111111111,155.6511111111111L31.657888888888888,155.5522222222222L31.829777777777778,155.35444444444445L32.221222222222224,155.05777777777777L32.339666666666666,154.86L32.47833333333333,154.76111111111112L32.47977777777778,154.76111111111112L32.767222222222216,154.46444444444444L33.27711111111111,153.97L33.55444444444445,153.67333333333335L33.577555555555556,153.67333333333335L33.66277777777778,153.57444444444445L34.11488888888889,153.17888888888888L34.117777777777775,153.17888888888888L34.190000000000005,153.07999999999998L34.40811111111111,152.88222222222223L34.60311111111111,152.68444444444444L35.12455555555555,152.19L35.24444444444445,152.0911111111111L35.37733333333333,151.89333333333335L35.40188888888889,151.89333333333335L35.64311111111111,151.69555555555556L36.06922222222222,151.20111111111112L36.30466666666667,151.00333333333333L36.60944444444444,150.70666666666668L36.629666666666665,150.70666666666668L37.15544444444445,150.2122222222222L37.35911111111111,150.01444444444445L37.42122222222222,149.91555555555556L37.541111111111114,149.81666666666666L37.84444444444444,149.52L37.87188888888889,149.52L38.565222222222225,148.82777777777778L38.58255555555555,148.82777777777778L38.78911111111111,148.63L38.95088888888889,148.43222222222224L39.22388888888889,148.13555555555556L39.66444444444444,147.74L39.66877777777778,147.74L40.15266666666667,147.24555555555554L40.20322222222222,147.24555555555554L40.53977777777777,146.85L40.70444444444445,146.7511111111111L40.763666666666666,146.65222222222224L41.16377777777778,146.25666666666666L41.178222222222225,146.25666666666666L41.312555555555555,146.15777777777777L41.71266666666667,145.76222222222222L41.795,145.66333333333333L42.26444444444445,145.1688888888889L42.56488888888889,144.8722222222222L42.68911111111111,144.77333333333334L42.70788888888889,144.77333333333334L42.89711111111111,144.57555555555555L43.909666666666666,143.58666666666667L44.02522222222222,143.48777777777778L44.08733333333333,143.38888888888889L44.21011111111111,143.29L44.46,142.99333333333334L44.63622222222222,142.89444444444445L44.64055555555556,142.89444444444445L44.72866666666667,142.79555555555555L44.806666666666665,142.69666666666666L44.92511111111111,142.59777777777776L45.54622222222222,142.00444444444446L45.595333333333336,141.90555555555557L45.76722222222222,141.80666666666667L45.87411111111111,141.60888888888888L46.17744444444444,141.31222222222223L46.184666666666665,141.31222222222223L46.45911111111111,141.11444444444444L46.64111111111111,140.91666666666666L47.489000000000004,140.12555555555554L47.71577777777778,139.82888888888888L47.754777777777775,139.82888888888888L48.529,139.03777777777776L48.56222222222222,139.03777777777776L48.836666666666666,138.7411111111111L49.43033333333333,138.14777777777778L49.53577777777778,138.04888888888888L49.599333333333334,138.04888888888888L49.75677777777778,137.8511111111111L50.03266666666667,137.55444444444444L50.076,137.55444444444444L50.236333333333334,137.35666666666668L50.37211111111111,137.2577777777778L51.23877777777778,136.36777777777777L51.28788888888889,136.36777777777777L51.65911111111111,135.97222222222223L52.16755555555555,135.47777777777776L52.46366666666667,135.1811111111111L53.23788888888889,134.48888888888888L53.53977777777778,134.19222222222223L53.58455555555555,134.09333333333333L53.90233333333334,133.79666666666668L53.934111111111115,133.79666666666668L54.22877777777778,133.5L54.249,133.5L55.540333333333336,132.21444444444444L56.500888888888895,131.22555555555556L56.577444444444446,131.22555555555556L57.10033333333333,130.63222222222223L57.25777777777778,130.53333333333333L57.278,130.53333333333333L57.38922222222222,130.43444444444444L57.77055555555555,130.0388888888889L57.85433333333334,129.94L57.867333333333335,129.94L57.97711111111111,129.8411111111111L58.130222222222216,129.64333333333332L58.141777777777776,129.64333333333332L58.24433333333334,129.54444444444445L58.41333333333333,129.34666666666666L58.556333333333335,129.24777777777777L58.61266666666667,129.24777777777777L58.903,128.95111111111112L58.907333333333334,128.95111111111112L59.01277777777778,128.85222222222222L59.337777777777774,128.45666666666668L59.43022222222222,128.35777777777778L59.55733333333333,128.2588888888889L59.683,128.16L59.977666666666664,127.86333333333333L60.44711111111111,127.36888888888889L61.02055555555556,126.87444444444445L61.14333333333333,126.67666666666668L61.18377777777778,126.67666666666668L62.31044444444445,125.58888888888889L62.32488888888889,125.58888888888889L62.388444444444445,125.49000000000001L62.426,125.49000000000001L62.52422222222223,125.39111111111112L62.632555555555555,125.29222222222222L62.72788888888889,125.19333333333333L62.89111111111111,124.99555555555557L63.07888888888889,124.79777777777778L63.09477777777778,124.79777777777778L63.123666666666665,124.79777777777778L63.466,124.5011111111111L63.76788888888889,124.20444444444445L63.96288888888889,124.00666666666666L63.96577777777778,124.00666666666666L64.02066666666667,123.90777777777778L64.45255555555556,123.51222222222222L64.5941111111111,123.31444444444443L64.60566666666666,123.31444444444443L64.857,123.11666666666667L64.90466666666667,123.01777777777778L65.36544444444445,122.62222222222222L65.47955555555555,122.52333333333334L65.56477777777778,122.42444444444445L66.17288888888889,121.83111111111111L66.22344444444445,121.73222222222222L66.33033333333333,121.63333333333333L66.88211111111112,121.13888888888889L67.59566666666667,120.44666666666667L67.5971111111111,120.44666666666667L68.11133333333333,119.95222222222222L68.11855555555555,119.85333333333332L68.61833333333334,119.45777777777778L68.75988888888888,119.25999999999999L68.81044444444444,119.25999999999999L69.08055555555556,118.96333333333334L69.212,118.86444444444444L69.96600000000001,118.07333333333332L70.11766666666666,117.97444444444446L70.73444444444445,117.38111111111111L70.772,117.28222222222223L70.86733333333333,117.18333333333334L71.06811111111112,116.98555555555555L71.15766666666667,116.88666666666667L71.45811111111112,116.59L71.48122222222221,116.59L71.66033333333334,116.39222222222222L71.97522222222223,116.09555555555555L72.22944444444444,115.89777777777778L72.267,115.79888888888888L72.47355555555556,115.60111111111111L72.69455555555555,115.40333333333334L72.90111111111112,115.20555555555555L73.10622222222223,115.00777777777779L73.242,114.9088888888889L73.26222222222222,114.9088888888889L74.25311111111111,113.92L74.30655555555556,113.82111111111111L74.672,113.52444444444444L74.93777777777778,113.22777777777777L75.01866666666666,113.12888888888888L75.1168888888889,113.03L75.41011111111112,112.73333333333333L75.73944444444444,112.43666666666667L75.89399999999999,112.33777777777777L76.06011111111111,112.14L76.21177777777778,111.94222222222223L76.40244444444444,111.84333333333333L76.414,111.74444444444444L76.60466666666667,111.64555555555556L76.817,111.34888888888888L76.947,111.25L77.09722222222223,111.15111111111112L77.13766666666668,111.05222222222223L77.62011111111111,110.65666666666667L77.63744444444444,110.55777777777777L77.66488888888888,110.55777777777777L77.68944444444445,110.55777777777777L77.76744444444445,110.4588888888889L77.82088888888889,110.4588888888889L77.87433333333333,110.36L78.052,110.16222222222223L78.52288888888889,109.76666666666667L78.55322222222222,109.66777777777777L78.75833333333334,109.47L78.86522222222222,109.37111111111112L79.131,109.17333333333333L79.92544444444444,108.38222222222223L79.95577777777777,108.28333333333333L79.98899999999999,108.28333333333333L80.1421111111111,108.18444444444444L80.27211111111112,107.98666666666666L80.55811111111112,107.69L80.67077777777777,107.59111111111112L80.821,107.49222222222222L80.94233333333334,107.39333333333333L81.24422222222223,107.09666666666666L81.28611111111111,106.99777777777777L81.79744444444445,106.50333333333333L81.84077777777777,106.50333333333333L81.99677777777778,106.30555555555556L82.11666666666667,106.20666666666666L82.199,106.10777777777777L82.62511111111111,105.71222222222222L83.03966666666668,105.31666666666666L83.43688888888889,104.92111111111112L83.59866666666667,104.72333333333333L84.05511111111112,104.32777777777778L84.4118888888889,103.93222222222222L84.435,103.93222222222222L84.81777777777778,103.53666666666666L84.99111111111111,103.43777777777778L85.19477777777777,103.24000000000001L85.64977777777779,102.74555555555555L86.23622222222222,102.15222222222222L86.35033333333334,102.05333333333333L86.49044444444444,101.95444444444445L86.53522222222222,101.85555555555555L86.69555555555556,101.75666666666666L87.09422222222221,101.3611111111111L87.3888888888889,101.06444444444445L87.62433333333334,100.86666666666666L87.6301111111111,100.86666666666666L87.67777777777778,100.76777777777778L87.70666666666666,100.76777777777778L87.81211111111111,100.66888888888889L88.16888888888889,100.27333333333334L88.46355555555556,99.97666666666666L88.50255555555556,99.97666666666666L88.60366666666667,99.87777777777778L88.88966666666666,99.58111111111111L88.91277777777778,99.58111111111111L89.7491111111111,98.78999999999999L90.20555555555555,98.29555555555555L90.23155555555556,98.29555555555555L90.5348888888889,97.9988888888889L91.74822222222222,96.81222222222222L91.87677777777778,96.71333333333334L91.92299999999999,96.61444444444444L92.027,96.51555555555555L92.066,96.51555555555555L92.07177777777778,96.51555555555555L92.16277777777778,96.41666666666667L92.43433333333333,96.11999999999999L92.54988888888889,96.02111111111111L92.73333333333333,95.82333333333334L92.74344444444445,95.82333333333334L92.807,95.72444444444444L92.88355555555555,95.72444444444444L93.62311111111111,94.93333333333334L93.8368888888889,94.73555555555555L94.33666666666667,94.24111111111111L94.34966666666666,94.24111111111111L94.42622222222222,94.14222222222223L94.62122222222223,93.94444444444444L94.83933333333334,93.74666666666667L95.79266666666666,92.85666666666667L95.81577777777777,92.85666666666667L95.9298888888889,92.65888888888888L96.05411111111111,92.56L97.21255555555555,91.47222222222223L97.62277777777777,91.07666666666667L97.69933333333334,90.97777777777777L97.74411111111111,90.87888888888888L97.79611111111112,90.87888888888888L97.85244444444444,90.78L98.05177777777779,90.58222222222223L98.14566666666667,90.58222222222223L98.17888888888889,90.48333333333333L98.332,90.38444444444444L98.48366666666668,90.18666666666667L98.55011111111111,90.18666666666667L98.97622222222222,89.69222222222223L99.44133333333333,89.29666666666667L100.05955555555555,88.70333333333333L100.17366666666666,88.50555555555556L100.35566666666666,88.40666666666667L101.11977777777778,87.61555555555556L101.192,87.51666666666667L101.32633333333332,87.41777777777779L101.34944444444444,87.41777777777779L101.39277777777778,87.31888888888888L101.49822222222222,87.22L102.01966666666667,86.72555555555556L102.2941111111111,86.42888888888888L102.52522222222223,86.23111111111112L102.7491111111111,86.03333333333332L102.88344444444444,85.93444444444444L102.96288888888888,85.83555555555556L103.70822222222222,85.14333333333335L103.71977777777778,85.04444444444444L103.93355555555556,84.84666666666666L104.00144444444445,84.84666666666666L104.42177777777778,84.35222222222222L104.50988888888888,84.35222222222222L104.73666666666666,84.05555555555556L104.98511111111111,83.85777777777778L105.30866666666667,83.56111111111112L105.35633333333334,83.46222222222222L105.57733333333334,83.26444444444444L105.599,83.26444444444444L106.12044444444444,82.77L106.46422222222222,82.37444444444444L106.47433333333332,82.37444444444444L106.48011111111111,82.37444444444444L106.48588888888888,82.37444444444444L106.68955555555556,82.17666666666666L106.75311111111111,82.07777777777778L106.99288888888888,81.88L107.04488888888889,81.88L107.06655555555557,81.78111111111112L107.237,81.68222222222222L107.887,80.99L108.05455555555555,80.89111111111112L108.24233333333333,80.69333333333334L108.30733333333333,80.59444444444443L108.6121111111111,80.29777777777778L108.76522222222222,80.1L109.11766666666666,79.80333333333334L109.12922222222221,79.80333333333334L109.36322222222222,79.60555555555555L109.43977777777778,79.50666666666666L110.26455555555556,78.71555555555555L110.51011111111112,78.4188888888889L110.53033333333333,78.4188888888889L110.65599999999999,78.32L110.91455555555555,78.02333333333334L110.96222222222222,78.02333333333334L111.22077777777778,77.72666666666666L111.6541111111111,77.3311111111111L111.66277777777778,77.3311111111111L111.92133333333334,77.03444444444445L112.32,76.6388888888889L113.09277777777777,75.94666666666666L113.30222222222221,75.7488888888889L113.46977777777778,75.5511111111111L113.59255555555555,75.45222222222222L113.70522222222222,75.35333333333334L113.74422222222223,75.25444444444445L113.76877777777777,75.25444444444445L114.49244444444444,74.56222222222222L114.56033333333333,74.46333333333334L114.73511111111111,74.26555555555557L115.03555555555555,73.96888888888888L115.0788888888889,73.96888888888888L115.8141111111111,73.27666666666666L115.82277777777777,73.27666666666666L115.85455555555556,73.17777777777778L115.98455555555556,73.07888888888888L116.24166666666666,72.88111111111112L117.2961111111111,71.79333333333334L117.39866666666667,71.69444444444444L117.63266666666667,71.49666666666666L117.77133333333333,71.29888888888888L117.98222222222222,71.10111111111112L118.64522222222222,70.50777777777778L118.76077777777779,70.40888888888888L119.18977777777778,69.91444444444444L119.23455555555556,69.91444444444444L119.70688888888888,69.42L119.92355555555555,69.22222222222221L120.20666666666666,68.92555555555556L120.50711111111112,68.62888888888888L120.50855555555555,68.62888888888888L120.62988888888889,68.53L120.85811111111111,68.33222222222221L121.13833333333332,68.03555555555556L121.316,67.83777777777777L121.4748888888889,67.73888888888888L121.65833333333333,67.54111111111112L122.07144444444445,67.14555555555556L122.08588888888889,67.14555555555556L122.32566666666666,66.84888888888888L122.61744444444444,66.55222222222223L123.13166666666667,66.05777777777777L123.19955555555556,66.05777777777777L123.42777777777778,65.76111111111112L123.47255555555556,65.76111111111112L123.64588888888889,65.56333333333333L123.70655555555557,65.56333333333333L123.80188888888888,65.46444444444444L124.0878888888889,65.16777777777779L124.29299999999999,64.97L124.65266666666666,64.57444444444444L125.35900000000001,63.882222222222225L125.59155555555556,63.68444444444444L125.632,63.68444444444444L125.697,63.58555555555556L126.30222222222221,62.992222222222225L127.491,61.80555555555556L127.517,61.80555555555556L127.6571111111111,61.70666666666666L127.73077777777777,61.607777777777784L127.96333333333332,61.41L128.453,60.91555555555556L128.53822222222223,60.81666666666666L128.80255555555556,60.519999999999996L128.82277777777776,60.519999999999996L129.21277777777777,60.124444444444435L129.24311111111112,60.124444444444435L129.59411111111112,59.7288888888889L129.70822222222222,59.629999999999995L129.87722222222223,59.531111111111116L130.66733333333335,58.739999999999995L130.83777777777777,58.54222222222222L130.94755555555557,58.44333333333334L131.32166666666666,58.04777777777778L131.43866666666665,57.9488888888889L132.06266666666667,57.355555555555554L132.2446666666667,57.15777777777778L132.28222222222223,57.15777777777778L132.44977777777777,56.959999999999994L132.67222222222225,56.76222222222222L132.7531111111111,56.66333333333334L132.82677777777778,56.66333333333334L132.85855555555554,56.56444444444445L132.9062222222222,56.56444444444445L132.94233333333332,56.465555555555554L133.3178888888889,56.1688888888889L133.32077777777778,56.1688888888889L133.4681111111111,55.9711111111111L133.47244444444445,55.9711111111111L133.69488888888887,55.77333333333334L133.9332222222222,55.57555555555555L134.14988888888888,55.2788888888889L134.34633333333335,55.0811111111111L134.5918888888889,54.88333333333334L134.79266666666666,54.68555555555555L135.473,53.99333333333334L135.4802222222222,53.99333333333334L135.54811111111113,53.99333333333334L135.63477777777777,53.894444444444446L135.668,53.79555555555555L136.04788888888888,53.4988888888889L137.0792222222222,52.4111111111111L137.46922222222221,52.114444444444445L137.89966666666666,51.620000000000005L137.92566666666667,51.620000000000005L138.04122222222222,51.5211111111111L138.56266666666667,51.02666666666666L138.8096666666667,50.730000000000004L138.98155555555556,50.631111111111125L139.28922222222224,50.33444444444444L139.36288888888888,50.235555555555564L139.5708888888889,50.03777777777778L139.63877777777776,49.9388888888889L139.80777777777777,49.74111111111111L139.97533333333334,49.642222222222216L139.98544444444445,49.642222222222216L140.3971111111111,49.24666666666667L140.87666666666667,48.7522222222222L141.26955555555554,48.356666666666655L141.41255555555557,48.25777777777776L141.75055555555556,47.862222222222215L141.856,47.76333333333332L141.93833333333333,47.664444444444456L142.67499999999998,46.9722222222222L142.77322222222222,46.873333333333335L142.88444444444445,46.77444444444444L142.90466666666666,46.77444444444444L142.96099999999998,46.67555555555555L143.00722222222223,46.67555555555555L143.6037777777778,46.082222222222214L143.86233333333334,45.78555555555556L144.40833333333333,45.29111111111112L144.48922222222222,45.19222222222223L144.495,45.19222222222223L144.5888888888889,45.093333333333334L144.6827777777778,44.99444444444444L145.0077777777778,44.69777777777776L145.0308888888889,44.69777777777776L145.23888888888888,44.5L145.27644444444445,44.401111111111106L145.3298888888889,44.401111111111106L145.8831111111111,43.80777777777777L145.91055555555556,43.80777777777777L146.0578888888889,43.70888888888888L146.4392222222222,43.31333333333333L146.60244444444444,43.115555555555545L146.65300000000002,43.115555555555545L147.264,42.52222222222224L148.39644444444446,41.43444444444444L148.44555555555556,41.335555555555544L148.55966666666666,41.23666666666668L148.88611111111112,40.94L148.96122222222223,40.841111111111104L149.16344444444445,40.643333333333345L149.51444444444445,40.2477777777778L149.87844444444445,39.95111111111112L150.11100000000002,39.75333333333333L150.46055555555554,39.357777777777784L150.50677777777778,39.357777777777784L150.813,39.0611111111111L151.09033333333332,38.76444444444445L151.21311111111112,38.66555555555556L151.40377777777778,38.46777777777777L151.69555555555556,38.17111111111112L151.7417777777778,38.07222222222222L151.7952222222222,38.07222222222222L151.91077777777778,37.97333333333333L152.1288888888889,37.77555555555554L152.40044444444445,37.47888888888889L152.4452222222222,37.379999999999995L152.49288888888887,37.379999999999995L152.65755555555558,37.18222222222224L152.74855555555555,37.08333333333334L153.08944444444444,36.78666666666666L153.13133333333332,36.78666666666666L154.23777777777778,35.69888888888889L154.25655555555556,35.69888888888889L154.36055555555555,35.599999999999994L154.5671111111111,35.402222222222235L155.1232222222222,34.8088888888889L155.20555555555558,34.70999999999998L155.35866666666666,34.611111111111114L155.45255555555553,34.51222222222222L155.51755555555556,34.41333333333333L155.753,34.21555555555554L156.19788888888888,33.7211111111111L156.97355555555555,33.0288888888889L157.1772222222222,32.83111111111111L157.82288888888888,32.138888888888886L157.94566666666668,32.04000000000002L157.96877777777777,32.04000000000002L158.52055555555555,31.44666666666666L158.5451111111111,31.44666666666666L158.73288888888888,31.2488888888889L158.84988888888887,31.150000000000006L158.93944444444443,31.051111111111112L159.23122222222221,30.75444444444446L159.5388888888889,30.45777777777778L160.44022222222222,29.567777777777764L160.46911111111112,29.567777777777764L160.76666666666665,29.27111111111111L161.018,29.073333333333323L161.23466666666667,28.875555555555565L161.26355555555557,28.77666666666667L161.2678888888889,28.77666666666667L161.39066666666668,28.677777777777777L161.395,28.677777777777777L161.91355555555555,28.183333333333337L161.95111111111112,28.084444444444443L162.83077777777777,27.293333333333322L162.91600000000003,27.194444444444457L163.40422222222222,26.700000000000017L163.54433333333333,26.601111111111123L163.90255555555555,26.20555555555555L164.52366666666668,25.612222222222215L165.21555555555557,24.920000000000016L165.4408888888889,24.7222222222222L165.7991111111111,24.326666666666682L165.95366666666666,24.22777777777776L166.19344444444445,24.03L166.37688888888889,23.832222222222214L166.57477777777777,23.634444444444455L166.65566666666666,23.53555555555556L166.70188888888887,23.436666666666667L166.80444444444444,23.337777777777774L167.35333333333335,22.843333333333334L167.48188888888888,22.74444444444444L167.5151111111111,22.645555555555546L167.99033333333333,22.25L168.32833333333332,21.854444444444454L168.42222222222222,21.75555555555556L169.026,21.26111111111112L169.22533333333334,21.063333333333333L169.32644444444446,20.96444444444444L169.42755555555556,20.865555555555545L169.60088888888887,20.667777777777786L169.66444444444446,20.568888888888893L169.86088888888887,20.371111111111105L170.07177777777778,20.173333333333318L170.14977777777779,20.074444444444453L170.26533333333333,19.97555555555556L170.42422222222223,19.876666666666665L170.6452222222222,19.579999999999984L170.75066666666666,19.48111111111112L171.02800000000002,19.28333333333333L171.12911111111111,19.184444444444438L171.1998888888889,19.085555555555544L171.96833333333333,18.29444444444445L172.61977777777776,17.701111111111118L172.7728888888889,17.50333333333333L172.7757777777778,17.50333333333333L173.16577777777778,17.206666666666678L173.74355555555556,16.613333333333344L174.1508888888889,16.21777777777777L174.1841111111111,16.118888888888875L174.4181111111111,15.921111111111117L174.57266666666666,15.822222222222223L174.6578888888889,15.72333333333333L174.6708888888889,15.72333333333333L174.77344444444444,15.624444444444435L174.88177777777778,15.525555555555542L175.00166666666667,15.327777777777783L175.1157777777778,15.22888888888889L175.26166666666668,15.129999999999995L175.29055555555556,15.129999999999995L175.40033333333332,14.932222222222236L175.4826666666667,14.932222222222236L175.49855555555555,14.833333333333343L176.111,14.23999999999998L176.1398888888889,14.23999999999998L176.66566666666665,13.74555555555554L176.95744444444446,13.448888888888888L177.00366666666665,13.448888888888888L177.08166666666668,13.349999999999994L177.21166666666667,13.2511111111111L177.49333333333334,12.954444444444448L177.5381111111111,12.855555555555554L177.61755555555555,12.855555555555554L177.66811111111113,12.75666666666666L177.68255555555555,12.75666666666666L177.96422222222222,12.45999999999998L178.33399999999997,12.064444444444462L178.41344444444442,12.064444444444462L179.03455555555556,11.4711111111111L179.5097777777778,10.97666666666666L179.59355555555558,10.877777777777766L180.128,10.383333333333326L180.2782222222222,10.185555555555538L180.29844444444447,10.185555555555538L180.32588888888887,10.185555555555538L180.38511111111112,10.086666666666673L180.40533333333332,10.086666666666673L180.427,10.086666666666673L180.44577777777778,10.086666666666673L180.5021111111111,9.98777777777778L180.6898888888889,9.79000000000002L180.93833333333333,9.592222222222233L181.18244444444446,9.295555555555552L181.43666666666667,9.097777777777765L181.56955555555555,8.900000000000006L181.67355555555554,8.801111111111112L181.69377777777777,8.801111111111112L182.30333333333334,8.207777777777778L182.38566666666668,8.108888888888885L182.56333333333333,8.01000000000002L182.81755555555557,7.713333333333338L182.962,7.614444444444445L183.11077777777777,7.416666666666657L183.59322222222224,6.922222222222217L184.548,6.032222222222231L184.60577777777777,5.933333333333337L184.65344444444443,5.933333333333337L184.91922222222223,5.636666666666656L185.53744444444445,5.043333333333322L185.73533333333333,4.845555555555563L186.6828888888889,3.9555555555555486L186.6843333333333,3.9555555555555486L186.7681111111111,3.856666666666655L187.05700000000002,3.5600000000000023L187.17111111111112,3.4611111111111086L187.52066666666664,3.164444444444456L187.86877777777775,2.768888888888881L188.05366666666666,2.5711111111111222L188.10133333333334,2.5711111111111222L188.38155555555556,2.274444444444441L188.4682222222222,2.1755555555555475L188.62422222222222,2.076666666666682L188.6762222222222,1.97777777777776L188.70366666666666,1.97777777777776L188.84233333333336,1.8788888888888948L189.50244444444445,1.1866666666666674L189.56166666666667,1.0877777777777737L189.68877777777777,0.98888888888888L190.00944444444445,0.6922222222222274L190.23044444444443,0.49444444444444L190.50344444444445,0.19777777777775896L190.5438888888889,0.19777777777775896L191.34555555555553,-0.5933333333333337" style="fill: none;" fill="none"></path></g></g></g></g></g></g><g transform="translate(70, 178)" clip-path="url(#clip_1)"><clipPath id="clip_1"><rect width="260" height="22"></rect></clipPath><g><g><line x1="0" y1="0" x2="0" y2="5" style="visibility: inherit;" fill="rgb(0, 0, 0)" stroke="rgb(204, 204, 204)" stroke-width="1px"></line><line x1="28.888888888888886" y1="0" x2="28.888888888888886" y2="5" style="visibility: inherit;" fill="rgb(0, 0, 0)" stroke="rgb(204, 204, 204)" stroke-width="1px"></line><line x1="57.77777777777777" y1="0" x2="57.77777777777777" y2="5" style="visibility: inherit;" fill="rgb(0, 0, 0)" stroke="rgb(204, 204, 204)" stroke-width="1px"></line><line x1="86.66666666666666" y1="0" x2="86.66666666666666" y2="5" style="visibility: inherit;" fill="rgb(0, 0, 0)" stroke="rgb(204, 204, 204)" stroke-width="1px"></line><line x1="115.55555555555554" y1="0" x2="115.55555555555554" y2="5" style="visibility: inherit;" fill="rgb(0, 0, 0)" stroke="rgb(204, 204, 204)" stroke-width="1px"></line><line x1="144.44444444444446" y1="0" x2="144.44444444444446" y2="5" style="visibility: inherit;" fill="rgb(0, 0, 0)" stroke="rgb(204, 204, 204)" stroke-width="1px"></line><line x1="173.33333333333331" y1="0" x2="173.33333333333331" y2="5" style="visibility: inherit;" fill="rgb(0, 0, 0)" stroke="rgb(204, 204, 204)" stroke-width="1px"></line><line x1="202.22222222222223" y1="0" x2="202.22222222222223" y2="5" style="visibility: inherit;" fill="rgb(0, 0, 0)" stroke="rgb(204, 204, 204)" stroke-width="1px"></line><line x1="231.1111111111111" y1="0" x2="231.1111111111111" y2="5" style="visibility: inherit;" fill="rgb(0, 0, 0)" stroke="rgb(204, 204, 204)" stroke-width="1px"></line><line x1="260" y1="0" x2="260" y2="5" style="visibility: inherit;" fill="rgb(0, 0, 0)" stroke="rgb(204, 204, 204)" stroke-width="1px"></line></g><g transform="translate(0, 8)"><text x="0" y="0" dx="0em" dy="0.95em" style="text-anchor: middle; visibility: hidden; font-family: &quot;Helvetica Neue&quot;, sans-serif; font-size: 12px; font-weight: 200;" fill="rgb(50, 49, 63)" stroke="none" stroke-width="1px">-20k</text><text x="28.888888888888886" y="0" dx="0em" dy="0.95em" style="text-anchor: middle; visibility: inherit; font-family: &quot;Helvetica Neue&quot;, sans-serif; font-size: 12px; font-weight: 200;" fill="rgb(50, 49, 63)" stroke="none" stroke-width="1px">0</text><text x="57.77777777777777" y="0" dx="0em" dy="0.95em" style="text-anchor: middle; visibility: hidden; font-family: &quot;Helvetica Neue&quot;, sans-serif; font-size: 12px; font-weight: 200;" fill="rgb(50, 49, 63)" stroke="none" stroke-width="1px">20k</text><text x="86.66666666666666" y="0" dx="0em" dy="0.95em" style="text-anchor: middle; visibility: inherit; font-family: &quot;Helvetica Neue&quot;, sans-serif; font-size: 12px; font-weight: 200;" fill="rgb(50, 49, 63)" stroke="none" stroke-width="1px">40k</text><text x="115.55555555555554" y="0" dx="0em" dy="0.95em" style="text-anchor: middle; visibility: hidden; font-family: &quot;Helvetica Neue&quot;, sans-serif; font-size: 12px; font-weight: 200;" fill="rgb(50, 49, 63)" stroke="none" stroke-width="1px">60k</text><text x="144.44444444444446" y="0" dx="0em" dy="0.95em" style="text-anchor: middle; visibility: inherit; font-family: &quot;Helvetica Neue&quot;, sans-serif; font-size: 12px; font-weight: 200;" fill="rgb(50, 49, 63)" stroke="none" stroke-width="1px">80k</text><text x="173.33333333333331" y="0" dx="0em" dy="0.95em" style="text-anchor: middle; visibility: hidden; font-family: &quot;Helvetica Neue&quot;, sans-serif; font-size: 12px; font-weight: 200;" fill="rgb(50, 49, 63)" stroke="none" stroke-width="1px">100k</text><text x="202.22222222222223" y="0" dx="0em" dy="0.95em" style="text-anchor: middle; visibility: inherit; font-family: &quot;Helvetica Neue&quot;, sans-serif; font-size: 12px; font-weight: 200;" fill="rgb(50, 49, 63)" stroke="none" stroke-width="1px">120k</text><text x="231.1111111111111" y="0" dx="0em" dy="0.95em" style="text-anchor: middle; visibility: hidden; font-family: &quot;Helvetica Neue&quot;, sans-serif; font-size: 12px; font-weight: 200;" fill="rgb(50, 49, 63)" stroke="none" stroke-width="1px">140k</text><text x="260" y="0" dx="0em" dy="0.95em" style="text-anchor: middle; visibility: hidden; font-family: &quot;Helvetica Neue&quot;, sans-serif; font-size: 12px; font-weight: 200;" fill="rgb(50, 49, 63)" stroke="none" stroke-width="1px">160k</text></g><line x1="0" y1="0" x2="260" y2="0" fill="rgb(0, 0, 0)" stroke="rgb(204, 204, 204)" stroke-width="1px"></line></g></g></g></g></svg>