<svg viewBox="0 0 330 200" xmlns="http://www.w3.org/2000/svg"><g><g><g><g><g><line x1="70" y1="178" x2="65" y2="178" style="visibility: inherit;" fill="rgb(0, 0, 0)" stroke="rgb(204, 204, 204)" stroke-width="1px"></line><line x1="70" y1="158.22222222222223" x2="65" y2="158.22222222222223" style="visibility: inherit;" fill="rgb(0, 0, 0)" stroke="rgb(204, 204, 204)" stroke-width="1px"></line><line x1="70" y1="138.44444444444446" x2="65" y2="138.44444444444446" style="visibility: inherit;" fill="rgb(0, 0, 0)" stroke="rgb(204, 204, 204)" stroke-width="1px"></line><line x1="70" y1="118.66666666666667" x2="65" y2="118.66666666666667" style="visibility: inherit;" fill="rgb(0, 0, 0)" stroke="rgb(204, 204, 204)" stroke-width="1px"></line><line x1="70" y1="98.8888888888889" x2="65" y2="98.8888888888889" style="visibility: inherit;" fill="rgb(0, 0, 0)" stroke="rgb(204, 204, 204)" stroke-width="1px"></line><line x1="70" y1="79.1111111111111" x2="65" y2="79.1111111111111" style="visibility: inherit;" fill="rgb(0, 0, 0)" stroke="rgb(204, 204, 204)" stroke-width="1px"></line><line x1="70" y1="59.33333333333334" x2="65" y2="59.33333333333334" style="visibility: inherit;" fill="rgb(0, 0, 0)" stroke="rgb(204, 204, 204)" stroke-width="1px"></line><line x1="70" y1="39.55555555555554" x2="65" y2="39.55555555555554" style="visibility: inherit;" fill="rgb(0, 0, 0)" stroke="rgb(204, 204, 204)" stroke-width="1px"></line><line x1="70" y1="19.7777777777778" x2="65" y2="19.7777777777778" style="visibility: inherit;" fill="rgb(0, 0, 0)" stroke="rgb(204, 204, 204)" stroke-width="1px"></line><line x1="70" y1="0" x2="65" y2="0" style="visibility: inherit;" fill="rgb(0, 0, 0)" stroke="rgb(204, 204, 204)" stroke-width="1px"></line></g><g transform="translate(60, 0)"><text x="0" y="178" dx="0em" dy="0.3em" style="text-anchor: end; visibility: hidden; font-family: &quot;Helvetica Neue&quot;, sans-serif; font-size: 12px; font-weight: 200;" fill="rgb(50, 49, 63)" stroke="none" stroke-width="1px">-200</text><text x="0" y="158.22222222222223" dx="0em" dy="0.3em" style="text-anchor: end; visibility: inherit; font-family: &quot;Helvetica Neue&quot;, sans-serif; font-size: 12px; font-weight: 200;" fill="rgb(50, 49, 63)" stroke="none" stroke-width="1px">0</text><text x="0" y="138.44444444444446" dx="0em" dy="0.3em" style="text-anchor: end; visibility: hidden; font-family: &quot;Helvetica Neue&quot;, sans-serif; font-size: 12px; font-weight: 200;" fill="rgb(50, 49, 63)" stroke="none" stroke-width="1px">200</text><text x="0" y="118.66666666666667" dx="0em" dy="0.3em" style="text-anchor: end; visibility: inherit; font-family: &quot;Helvetica Neue&quot;, sans-serif; font-size: 12px; font-weight: 200;" fill="rgb(50, 49, 63)" stroke="none" stroke-width="1px">400</text><text x="0" y="98.8888888888889" dx="0em" dy="0.3em" style="text-anchor: end; visibility: hidden; font-family: &quot;Helvetica Neue&quot;, sans-serif; font-size: 12px; font-weight: 200;" fill="rgb(50, 49, 63)" stroke="none" stroke-width="1px">600</text><text x="0" y="79.1111111111111" dx="0em" dy="0.3em" style="text-anchor: end; visibility: inherit; font-family: &quot;Helvetica Neue&quot;, sans-serif; font-size: 12px; font-weight: 200;" fill="rgb(50, 49, 63)" stroke="none" stroke-width="1px">800</text><text x="0" y="59.33333333333334" dx="0em" dy="0.3em" style="text-anchor: end; visibility: hidden; font-family: &quot;Helvetica Neue&quot;, sans-serif; font-size: 12px; font-weight: 200;" fill="rgb(50, 49, 63)" stroke="none" stroke-width="1px">1e+3</text><text x="0" y="39.55555555555554" dx="0em" dy="0.3em" style="text-anchor: end; visibility: inherit; font-family: &quot;Helvetica Neue&quot;, sans-serif; font-size: 12px; font-weight: 200;" fill="rgb(50, 49, 63)" stroke="none" stroke-width="1px">1.2e+3</text><text x="0" y="19.7777777777778" dx="0em" dy="0.3em" style="text-anchor: end; visibility: hidden; font-family: &quot;Helvetica Neue&quot;, sans-serif; font-size: 12px; font-weight: 200;" fill="rgb(50, 49, 63)" stroke="none" stroke-width="1px">1.4e+3</text><text x="0" y="0" dx="0em" dy="0.3em" style="text-anchor: end; visibility: hidden; font-family: &quot;Helvetica Neue&quot;, sans-serif; font-size: 12px; font-weight: 200;" fill="rgb(50, 49, 63)" stroke="none" stroke-width="1px">1.6e+3</text></g><line x1="70" y1="0" x2="70" y2="178" fill="rgb(0, 0, 0)" stroke="rgb(204, 204, 204)" stroke-width="1px"></line></g></g><g transform="translate(70, 0)" clip-path="url(#clip_0)"><clipPath id="clip_0"><rect width="260" height="178"></rect></clipPath><g><g><g><line x1="0" y1="0" x2="0" y2="178" fill="rgb(0, 0, 0)" stroke="rgb(60, 60, 60)" stroke-width="1px" opacity="0.25"></line><line x1="28.888888888888886" y1="0" x2="28.888888888888886" y2="178" fill="rgb(0, 0, 0)" stroke="rgb(60, 60, 60)" stroke-width="1px" opacity="0.25"></line><line x1="57.77777777777777" y1="0" x2="57.77777777777777" y2="178" fill="rgb(0, 0, 0)" stroke="rgb(60, 60, 60)" stroke-width="1px" opacity="0.25"></line><line x1="86.66666666666666" y1="0" x2="86.66666666666666" y2="178" fill="rgb(0, 0, 0)" stroke="rgb(60, 60, 60)" stroke-width="1px" opacity="0.25"></line><line x1="115.55555555555554" y1="0" x2="115.55555555555554" y2="178" fill="rgb(0, 0, 0)" stroke="rgb(60, 60, 60)" stroke-width="1px" opacity="0.25"></line><line x1="144.44444444444446" y1="0" x2="144.44444444444446" y2="178" fill="rgb(0, 0, 0)" stroke="rgb(60, 60, 60)" stroke-width="1px" opacity="0.25"></line><line x1="173.33333333333331" y1="0" x2="173.33333333333331" y2="178" fill="rgb(0, 0, 0)" stroke="rgb(60, 60, 60)" stroke-width="1px" opacity="0.25"></line><line x1="202.22222222222223" y1="0" x2="202.22222222222223" y2="178" fill="rgb(0, 0, 0)" stroke="rgb(60, 60, 60)" stroke-width="1px" opacity="0.25"></line><line x1="231.1111111111111" y1="0" x2="231.1111111111111" y2="178" fill="rgb(0, 0, 0)" stroke="rgb(60, 60, 60)" stroke-width="1px" opacity="0.25"></line><line x1="260" y1="0" x2="260" y2="178" fill="rgb(0, 0, 0)" stroke="rgb(60, 60, 60)" stroke-width="1px" opacity="0.25"></line></g><g><line x1="0" y1="178" x2="260" y2="178" fill="rgb(0, 0, 0)" stroke="rgb(60, 60, 60)" stroke-width="1px" opacity="0.25"></line><line x1="0" y1="158.22222222222223" x2="260" y2="158.22222222222223" fill="rgb(0, 0, 0)" stroke="rgb(60, 60, 60)" stroke-width="1px" opacity="0.25"></line><line x1="0" y1="138.44444444444446" x2="260" y2="138.44444444444446" fill="rgb(0, 0, 0)" stroke="rgb(60, 60, 60)" stroke-width="1px" opacity="0.25"></line><line x1="0" y1="118.66666666666667" x2="260" y2="118.66666666666667" fill="rgb(0, 0, 0)" stroke="rgb(60, 60, 60)" stroke-width="1px" opacity="0.25"></line><line x1="0" y1="98.8888888888889" x2="260" y2="98.8888888888889" fill="rgb(0, 0, 0)" stroke="rgb(60, 60, 60)" stroke-width="1px" opacity="0.25"></line><line x1="0" y1="79.1111111111111" x2="260" y2="79.1111111111111" fill="rgb(0, 0, 0)" stroke="rgb(60, 60, 60)" stroke-width="1px" opacity="0.25"></line><line x1="0" y1="59.33333333333334" x2="260" y2="59.33333333333334" fill="rgb(0, 0, 0)" stroke="rgb(60, 60, 60)" stroke-width="1px" opacity="0.25"></line><line x1="0" y1="39.55555555555554" x2="260" y2="39.55555555555554" fill="rgb(0, 0, 0)" stroke="rgb(60, 60, 60)" stroke-width="1px" opacity="0.25"></line><line x1="0" y1="19.7777777777778" x2="260" y2="19.7777777777778" fill="rgb(0, 0, 0)" stroke="rgb(60, 60, 60)" stroke-width="1px" opacity="0.25"></line><line x1="0" y1="0" x2="260" y2="0" fill="rgb(0, 0, 0)" stroke="rgb(60, 60, 60)" stroke-width="1px" opacity="0.25"></line></g></g></g><g><g><line x1="0" y1="158.22222222222223" x2="260" y2="158.22222222222223" fill="rgb(0, 0, 0)" stroke="rgb(153, 153, 153)" stroke-width="1.5px"></line></g></g><g><g><line x1="28.888888888888886" y1="0" x2="28.888888888888886" y2="178" fill="rgb(0, 0, 0)" stroke="rgb(153, 153, 153)" stroke-width="1.5px"></line></g></g><g><g><g><g><g><path stroke="rgb(204, 51, 17)" stroke-width="2px" d="M28.949555555555555,158.22222222222223L29.13011111111111,158.02444444444444L29.21966666666667,157.92555555555555L29.573555555555554,157.6288888888889L29.66311111111111,157.53L29.72522222222222,157.4311111111111L29.735333333333333,157.4311111111111L29.804666666666666,157.3322222222222L29.823444444444444,157.3322222222222L29.920222222222222,157.23333333333335L30.055999999999997,157.13444444444445L30.353555555555555,156.83777777777777L30.814333333333334,156.34333333333333L30.889444444444443,156.34333333333333L30.899555555555555,156.34333333333333L30.96311111111111,156.24444444444444L31.393555555555555,155.8488888888889L31.39788888888889,155.8488888888889L31.60011111111111,155.6511111111111L31.657888888888888,155.5522222222222L31.829777777777778,155.35444444444445L32.221222222222224,155.05777777777777L32.339666666666666,154.86L32.47833333333333,154.76111111111112L32.47977777777778,154.76111111111112L32.767222222222216,154.46444444444444L33.27711111111111,153.97L33.55444444444445,153.67333333333335L33.577555555555556,153.67333333333335L33.66277777777778,153.57444444444445L34.11488888888889,153.17888888888888L34.117777777777775,153.17888888888888L34.190000000000005,153.07999999999998L34.40811111111111,152.88222222222223L34.60311111111111,152.68444444444444L35.12455555555555,152.19L35.24444444444445,152.0911111111111L35.37733333333333,151.89333333333335L35.40188888888889,151.89333333333335L35.64311111111111,151.69555555555556L36.06922222222222,151.20111111111112L36.30466666666667,151.00333333333333L36.60944444444444,150.70666666666668L36.629666666666665,150.70666666666668L37.15544444444445,150.2122222222222L37.35911111111111,150.01444444444445L37.42122222222222,149.91555555555556L37.541111111111114,149.81666666666666L37.84444444444444,149.52L37.87188888888889,149.52L38.565222222222225,148.82777777777778L38.58255555555555,148.82777777777778L38.78911111111111,148.63L38.95088888888889,148.43222222222224L39.22388888888889,148.13555555555556L39.66444444444444,147.74L39.66877777777778,147.74L40.15266666666667,147.24555555555554L40.20322222222222,147.24555555555554L40.53977777777777,146.85L40.70444444444445,146.7511111111111L40.763666666666666,146.65222222222224L41.16377777777778,146.25666666666666L41.178222222222225,146.25666666666666L41.312555555555555,146.15777777777777L41.71266666666667,145.76222222222222L41.795,145.66333333333333L42.26444444444445,145.1688888888889L42.56488888888889,144.8722222222222L42.68911111111111,144.77333333333334L42.70788888888889,144.77333333333334L42.89711111111111,144.57555555555555L43.909666666666666,143.58666666666667L44.02522222222222,143.48777777777778L44.08733333333333,143.38888888888889L44.21011111111111,143.29L44.46,142.99333333333334L44.63622222222222,142.89444444444445L44.64055555555556,142.89444444444445L44.72866666666667,142.79555555555555L44.806666666666665,142.69666666666666L44.92511111111111,142.59777777777776L45.54622222222222,142.00444444444446L45.595333333333336,141.90555555555557L45.76722222222222,141.80666666666667L45.87411111111111,141.60888888888888L46.17744444444444,141.31222222222223L46.184666666666665,141.31222222222223L46.45911111111111,141.11444444444444L46.64111111111111,140.91666666666666L47.489000000000004,140.12555555555554L47.71577777777778,139.82888888888888L47.754777777777775,139.82888888888888L48.529,139.03777777777776L48.56222222222222,139.03777777777776L48.836666666666666,138.7411111111111L49.43033333333333,138.14777777777778L49.53577777777778,138.04888888888888L49.599333333333334,138.04888888888888L49.75677777777778,137.8511111111111L50.03266666666667,137.55444444444444L50.076,137.55444444444444L50.236333333333334,137.35666666666668L50.37211111111111,137.2577777777778L51.23877777777778,136.36777777777777L51.28788888888889,136.36777777777777L51.65911111111111,135.97222222222223L52.16755555555555,135.47777777777776L52.46366666666667,135.1811111111111L53.23788888888889,134.48888888888888L53.53977777777778,134.19222222222223L53.58455555555555,134.09333333333333L53.90233333333334,133.79666666666668L53.934111111111115,133.79666666666668L54.22877777777778,133.5L54.249,133.5L55.540333333333336,132.21444444444444L56.500888888888895,131.22555555555556L56.577444444444446,131.22555555555556L57.10033333333333,130.63222222222223L57.25777777777778,130.53333333333333L57.278,130.53333333333333L57.38922222222222,130.43444444444444L57.77055555555555,130.0388888888889L57.85433333333334,129.94L57.867333333333335,129.94L57.97711111111111,129.8411111111111L58.130222222222216,129.64333333333332L58.141777777777776,129.64333333333332L58.24433333333334,129.54444444444445L58.41333333333333,129.34666666666666L58.556333333333335,129.24777777777777L58.61266666666667,129.24777777777777L58.903,128.95111111111112L58.907333333333334,128.95111111111112L59.01277777777778,128.85222222222222L59.337777777777774,128.45666666666668L59.43022222222222,128.35777777777778L59.55733333333333,128.2588888888889L59.683,128.16L59.977666666666664,127.86333333333333L60.44711111111111,127.36888888888889L61.02055555555556,126.87444444444445L61.14333333333333,126.67666666666668L61.18377777777778,126.67666666666668L62.31044444444445,125.58888888888889L62.32488888888889,125.58888888888889L62.388444444444445,125.49000000000001L62.426,125.49000000000001L62.52422222222223,125.39111111111112L62.632555555555555,125.29222222222222L62.72788888888889,125.19333333333333L62.89111111111111,124.99555555555557L63.07888888888889,124.79777777777778L63.09477777777778,124.79777777777778L63.123666666666665,124.79777777777778L63.466,124.5011111111111L63.76788888888889,124.20444444444445L63.96288888888889,124.00666666666666L63.96577777777778,124.00666666666666L64.02066666666667,123.90777777777778L64.45255555555556,123.51222222222222L64.5941111111111,123.31444444444443L64.60566666666666,123.31444444444443L64.857,123.11666666666667L64.90466666666667,123.01777777777778L65.36544444444445,122.62222222222222L65.47955555555555,122.52333333333334L65.56477777777778,122.42444444444445L66.17288888888889,121.83111111111111L66.22344444444445,121.73222222222222L66.33033333333333,121.63333333333333L66.88211111111112,121.13888888888889L67.59566666666667,120.44666666666667L67.5971111111111,120.44666666666667L68.11133333333333,119.95222222222222L68.11855555555555,119.85333333333332L68.61833333333334,119.45777777777778L68.75988888888888,119.25999999999999L68.81044444444444,119.25999999999999L69.08055555555556,118.96333333333334L69.212,118.86444444444444L69.96600000000001,118.07333333333332L70.11766666666666,117.97444444444446L70.73444444444445,117.38111111111111L70.772,117.28222222222223L70.86733333333333,117.18333333333334L71.06811111111112,116.98555555555555L71.15766666666667,116.88666666666667L71.45811111111112,116.59L71.48122222222221,116.59L71.66033333333334,116.39222222222222L71.97522222222223,116.09555555555555L72.22944444444444,115.89777777777778L72.267,115.79888888888888L72.47355555555556,115.60111111111111L72.69455555555555,115.40333333333334L72.90111111111112,115.20555555555555L73.10622222222223,115.00777777777779L73.242,114.9088888888889L73.26222222222222,114.9088888888889L74.25311111111111,113.92L74.30655555555556,113.82111111111111L74.672,113.52444444444444L74.93777777777778,113.22777777777777L75.01866666666666,113.12888888888888L75.1168888888889,113.03L75.41011111111112,112.73333333333333L75.73944444444444,112.43666666666667L75.89399999999999,112.33777777777777L76.06011111111111,112.14L76.21177777777778,111.94222222222223L76.40244444444444,111.84333333333333L76.414,111.74444444444444L76.60466666666667,111.64555555555556L76.817,111.34888888888888L76.947,111.25L77.09722222222223,111.15111111111112L77.13766666666668,111.05222222222223L77.62011111111111,110.65666666666667L77.63744444444444,110.55777777777777L77.66488888888888,110.55777777777777L77.68944444444445,110.55777777777777L77.76744444444445,110.4588888888889L77.82088888888889,110.4588888888889L77.87433333333333,110.36L78.052,110.16222222222223L78.52288888888889,109.76666666666667L78.55322222222222,109.66777777777777L78.75833333333334,109.47L78.86522222222222,109.37111111111112L79.131,109.17333333333333L79.92544444444444,108.38222222222223L79.95577777777777,108.28333333333333L79.98899999999999,108.28333333333333L80.1421111111111,108.18444444444444L80.27211111111112,107.98666666666666L80.55811111111112,107.69L80.67077777777777,107.59111111111112L80.821,107.49222222222222L80.94233333333334,107.39333333333333L81.24422222222223,107.09666666666666L81.28611111111111,106.99777777777777L81.79744444444445,106.50333333333333L81.84077777777777,106.50333333333333L81.99677777777778,106.30555555555556L82.11666666666667,106.20666666666666L82.199,106.10777777777777L82.62511111111111,105.71222222222222L83.03966666666668,105.31666666666666L83.43688888888889,104.92111111111112L83.59866666666667,104.72333333333333L84.05511111111112,104.32777777777778L84.4118888888889,103.93222222222222L84.435,103.93222222222222L84.81777777777778,103.53666666666666L84.99111111111111,103.43777777777778L85.19477777777777,103.24000000000001L85.64977777777779,102.74555555555555L86.23622222222222,102.15222222222222L86.35033333333334,102.05333333333333L86.49044444444444,101.95444444444445L86.53522222222222,101.85555555555555L86.69555555555556,101.75666666666666L87.09422222222221,101.3611111111111L87.3888888888889,101.06444444444445L87.62433333333334,100.86666666666666L87.6301111111111,100.86666666666666L87.67777777777778,100.76777777777778L87.70666666666666,100.76777777777778L87.81211111111111,100.66888888888889L88.16888888888889,100.27333333333334L88.46355555555556,99.97666666666666L88.50255555555556,99.97666666666666L88.60366666666667,99.87777777777778L88.88966666666666,99.58111111111111L88.91277777777778,99.58111111111111L89.7491111111111,98.78999999999999L90.20555555555555,98.29555555555555L90.23155555555556,98.29555555555555L90.5348888888889,97.9988888888889L91.74822222222222,96.81222222222222L91.87677777777778,96.71333333333334L91.92299999999999,96.61444444444444L92.027,96.51555555555555L92.066,96.51555555555555L92.07177777777778,96.51555555555555L92.16277777777778,96.41666666666667L92.43433333333333,96.11999999999999L92.54988888888889,96.02111111111111L92.73333333333333,95.82333333333334L92.74344444444445,95.82333333333334L92.807,95.72444444444444L92.88355555555555,95.72444444444444L93.62311111111111,94.93333333333334L93.8368888888889,94.73555555555555L94.33666666666667,94.24111111111111L94.34966666666666,94.24111111111111L94.42622222222222,94.14222222222223L94.62122222222223,93.94444444444444L94.83933333333334,93.74666666666667L95.79266666666666,92.85666666666667L95.81577777777777,92.85666666666667L95.9298888888889,92.65888888888888L96.05411111111111,92.56L97.21255555555555,91.47222222222223L97.62277777777777,91.07666666666667L97.69933333333334,90.97777777777777L97.74411111111111,90.87888888888888L97.79611111111112,90.87888888888888L97.85244444444444,90.78L98.05177777777779,90.58222222222223L98.14566666666667,90.58222222222223L98.17888888888889,90.48333333333333L98.332,90.38444444444444L98.48366666666668,90.18666666666667L98.55011111111111,90.18666666666667L98.97622222222222,89.69222222222223L99.44133333333333,89.29666666666667L100.05955555555555,88.70333333333333L100.17366666666666,88.50555555555556L100.35566666666666,88.40666666666667L101.11977777777778,87.61555555555556L101.192,87.51666666666667L101.32633333333332,87.41777777777779L101.34944444444444,87.41777777777779L101.39277777777778,87.31888888888888L101.49822222222222,87.22L102.01966666666667,86.72555555555556L102.2941111111111,86.42888888888888L102.52522222222223,86.23111111111112L102.7491111111111,86.03333333333332L102.88344444444444,85.93444444444444L102.96288888888888,85.83555555555556L103.70822222222222,85.14333333333335L103.71977777777778,85.04444444444444L103.93355555555556,84.84666666666666L104.00144444444445,84.84666666666666L104.42177777777778,84.35222222222222L104.50988888888888,84.35222222222222L104.73666666666666,84.05555555555556L104.98511111111111,83.85777777777778L105.30866666666667,83.56111111111112L105.35633333333334,83.46222222222222L105.57733333333334,83.26444444444444L105.599,83.26444444444444L106.12044444444444,82.77L106.46422222222222,82.37444444444444L106.47433333333332,82.37444444444444L106.48011111111111,82.37444444444444L106.48588888888888,82.37444444444444L106.68955555555556,82.17666666666666L106.75311111111111,82.07777777777778L106.99288888888888,81.88L107.04488888888889,81.88L107.06655555555557,81.78111111111112L107.237,81.68222222222222L107.887,80.99L108.05455555555555,80.89111111111112L108.24233333333333,80.69333333333334L108.30733333333333,80.59444444444443L108.6121111111111,80.29777777777778L108.76522222222222,80.1L109.11766666666666,79.80333333333334L109.12922222222221,79.80333333333334L109.36322222222222,79.60555555555555L109.43977777777778,79.50666666666666L110.26455555555556,78.71555555555555L110.51011111111112,78.4188888888889L110.53033333333333,78.4188888888889L110.65599999999999,78.32L110.91455555555555,78.02333333333334L110.96222222222222,78.02333333333334L111.22077777777778,77.72666666666666L111.6541111111111,77.3311111111111L111.66277777777778,77.3311111111111L111.92133333333334,77.03444444444445L112.32,76.6388888888889L113.09277777777777,75.94666666666666L113.30222222222221,75.7488888888889L113.46977777777778,75.5511111111111L113.59255555555555,75.45222222222222L113.70522222222222,75.35333333333334L113.74422222222223,75.25444444444445L113.76877777777777,75.25444444444445L114.49244444444444,74.56222222222222L114.56033333333333,74.46333333333334L114.73511111111111,74.26555555555557L115.03555555555555,73.96888888888888L115.0788888888889,73.96888888888888L115.8141111111111,73.27666666666666L115.82277777777777,73.27666666666666L115.85455555555556,73.17777777777778L115.98455555555556,73.07888888888888L116.24166666666666,72.88111111111112L117.2961111111111,71.79333333333334L117.39866666666667,71.69444444444444L117.63266666666667,71.49666666666666L117.77133333333333,71.29888888888888L117.98222222222222,71.10111111111112L118.64522222222222,70.50777777777778L118.76077777777779,70.40888888888888L119.18977777777778,69.91444444444444L119.23455555555556,69.91444444444444L119.70688888888888,69.42L119.92355555555555,69.22222222222221L120.20666666666666,68.92555555555556L120.50711111111112,68.62888888888888L120.50855555555555,68.62888888888888L120.62988888888889,68.53L120.85811111111111,68.33222222222221L121.13833333333332,68.03555555555556L121.316,67.83777777777777L121.4748888888889,67.73888888888888L121.65833333333333,67.54111111111112L122.07144444444445,67.14555555555556L122.08588888888889,67.14555555555556L122.32566666666666,66.84888888888888L122.61744444444444,66.55222222222223L123.13166666666667,66.05777777777777L123.19955555555556,66.05777777777777L123.42777777777778,65.76111111111112L123.47255555555556,65.76111111111112L123.64588888888889,65.56333333333333L123.70655555555557,65.56333333333333L123.80188888888888,65.46444444444444L124.0878888888889,65.16777777777779L124.29299999999999,64.97L124.65266666666666,64.57444444444444L125.35900000000001,63.882222222222225L125.59155555555556,63.68444444444444L125.632,63.68444444444444L125.697,63.58555555555556L126.30222222222221,62.992222222222225L127.491,61.80555555555556L127.517,61.80555555555556L127.6571111111111,61.70666666666666L127.73077777777777,61.607777777777784L127.96333333333332,61.41L128.453,60.91555555555556L128.53822222222223,60.81666666666666L128.80255555555556,60.519999999999996L128.82277777777776,60.519999999999996L129.21277777777777,60.124444444444435L129.24311111111112,60.124444444444435L129.59411111111112,59.7288888888889L129.70822222222222,59.629999999999995L129.87722222222223,59.531111111111116L130.66733333333335,58.739999999999995L130.83777777777777,58.54222222222222L130.94755555555557,58.44333333333334L131.32166666666666,58.04777777777778L131.43866666666665,57.9488888888889L132.06266666666667,57.355555555555554L132.2446666666667,57.15777777777778L132.28222222222223,57.15777777777778L132.44977777777777,56.959999999999994L132.67222222222225,56.76222222222222L132.7531111111111,56.66333333333334L132.82677777777778,56.66333333333334L132.85855555555554,56.56444444444445L132.9062222222222,56.56444444444445L132.94233333333332,56.465555555555554L133.3178888888889,56.1688888888889L133.32077777777778,56.1688888888889L133.4681111111111,55.9711111111111L133.47244444444445,55.9711111111111L133.69488888888887,55.77333333333334L133.9332222222222,55.57555555555555L134.14988888888888,55.2788888888889L134.34633333333335,55.0811111111111L134.5918888888889,54.88333333333334L134.79266666666666,54.68555555555555L135.473,53.99333333333334L135.4802222222222,53.99333333333334L135.54811111111113,53.99333333333334L135.63477777777777,53.894444444444446L135.668,53.79555555555555L136.04788888888888,53.4988888888889L137.0792222222222,52.4111111111111L137.46922222222221,52.114444444444445L137.89966666666666,51.620000000000005L137.92566666666667,51.620000000000005L138.04122222222222,51.5211111111111L138.56266666666667,51.02666666666666L138.8096666666667,50.730000000000004L138.98155555555556,50.631111111111125L139.28922222222224,50.33444444444444L139.36288888888888,50.235555555555564L139.5708888888889,50.03777777777778L139.63877777777776,49.9388888888889L139.80777777777777,49.74111111111111L139.97533333333334,49.642222222222216L139.98544444444445,49.642222222222216L140.3971111111111,49.24666666666667L140.87666666666667,48.7522222222222L141.26955555555554,48.356666666666655L141.41255555555557,48.25777777777776L141.75055555555556,47.862222222222215L141.856,47.76333333333332L141.93833333333333,47.664444444444456L142.67499999999998,46.9722222222222L142.77322222222222,46.873333333333335L142.88444444444445,46.77444444444444L142.90466666666666,46.77444444444444L142.96099999999998,46.67555555555555L143.00722222222223,46.67555555555555L143.6037777777778,46.082222222222214L143.86233333333334,45.78555555555556L144.40833333333333,45.29111111111112L144.48922222222222,45.19222222222223L144.495,45.19222222222223L144.5888888888889,45.093333333333334L144.6827777777778,44.99444444444444L145.0077777777778,44.69777777777776L145.0308888888889,44.69777777777776L145.23888888888888,44.5L145.27644444444445,44.401111111111106L145.3298888888889,44.401111111111106L145.8831111111111,43.80777777777777L145.91055555555556,43.80777777777777L146.0578888888889,43.70888888888888L146.4392222222222,43.31333333333333L146.60244444444444,43.115555555555545L146.65300000000002,43.115555555555545L147.264,42.52222222222224L148.39644444444446,41.43444444444444L148.44555555555556,41.335555555555544L148.55966666666666,41.23666666666668L148.88611111111112,40.94L148.96122222222223,40.841111111111104L149.16344444444445,40.643333333333345L149.51444444444445,40.2477777777778L149.87844444444445,39.95111111111112L150.11100000000002,39.75333333333333L150.46055555555554,39.357777777777784L150.50677777777778,39.357777777777784L150.813,39.0611111111111L151.09033333333332,38.76444444444445L151.21311111111112,38.66555555555556L151.40377777777778,38.46777777777777L151.69555555555556,38.17111111111112L151.7417777777778,38.07222222222222L151.7952222222222,38.07222222222222L151.91077777777778,37.97333333333333L152.1288888888889,37.77555555555554L152.40044444444445,37.47888888888889L152.4452222222222,37.379999999999995L152.49288888888887,37.379999999999995L152.65755555555558,37.18222222222224L152.74855555555555,37.08333333333334L153.08944444444444,36.78666666666666L153.13133333333332,36.78666666666666L154.23777777777778,35.69888888888889L154.25655555555556,35.69888888888889L154.36055555555555,35.599999999999994L154.5671111111111,35.402222222222235L155.1232222222222,34.8088888888889L155.20555555555558,34.70999999999998L155.35866666666666,34.611111111111114L155.45255555555553,34.51222222222222L155.51755555555556,34.41333333333333L155.753,34.21555555555554L156.19788888888888,33.7211111111111L156.97355555555555,33.0288888888889L157.1772222222222,32.83111111111111L157.82288888888888,32.138888888888886L157.94566666666668,32.04000000000002L157.96877777777777,32.04000000000002L158.52055555555555,31.44666666666666L158.5451111111111,31.44666666666666L158.73288888888888,31.2488888888889L158.84988888888887,31.150000000000006L158.93944444444443,31.051111111111112L159.23122222222221,30.75444444444446L159.5388888888889,30.45777777777778L160.44022222222222,29.567777777777764L160.46911111111112,29.567777777777764L160.76666666666665,29.27111111111111L161.018,29.073333333333323L161.23466666666667,28.875555555555565L161.26355555555557,28.77666666666667L161.2678888888889,28.77666666666667L161.39066666666668,28.677777777777777L161.395,28.677777777777777L161.91355555555555,28.183333333333337L161.95111111111112,28.084444444444443L162.83077777777777,27.293333333333322L162.91600000000003,27.194444444444457L163.40422222222222,26.700000000000017L163.54433333333333,26.601111111111123L163.90255555555555,26.20555555555555L164.52366666666668,25.612222222222215L165.21555555555557,24.920000000000016L165.4408888888889,24.7222222222222L165.7991111111111,24.326666666666682L165.95366666666666,24.22777777777776L166.19344444444445,24.03L166.37688888888889,23.832222222222214L166.57477777777777,23.634444444444455L166.65566666666666,23.53555555555556L166.70188888888887,23.436666666666667L166.80444444444444,23.337777777777774L167.35333333333335,22.843333333333334L167.48188888888888,22.74444444444444L167.5151111111111,22.645555555555546L167.99033333333333,22.25L168.32833333333332,21.854444444444454L168.42222222222222,21.75555555555556L169.026,21.26111111111112L169.22533333333334,21.063333333333333L169.32644444444446,20.96444444444444L169.42755555555556,20.865555555555545L169.60088888888887,20.667777777777786L169.66444444444446,20.568888888888893L169.86088888888887,20.371111111111105L170.07177777777778,20.173333333333318L170.14977777777779,20.074444444444453L170.26533333333333,19.97555555555556L170.42422222222223,19.876666666666665L170.6452222222222,19.579999999999984L170.75066666666666,19.48111111111112L171.02800000000002,19.28333333333333L171.12911111111111,19.184444444444438L171.1998888888889,19.085555555555544L171.96833333333333,18.29444444444445L172.61977777777776,17.701111111111118L172.7728888888889,17.50333333333333L172.7757777777778,17.50333333333333L173.16577777777778,17.206666666666678L173.74355555555556,16.613333333333344L174.1508888888889,16.21777777777777L174.1841111111111,16.118888888888875L174.4181111111111,15.921111111111117L174.57266666666666,15.822222222222223L174.6578888888889,15.72333333333333L174.6708888888889,15.72333333333333L174.77344444444444,15.624444444444435L174.88177777777778,15.525555555555542L175.00166666666667,15.327777777777783L175.1157777777778,15.22888888888889L175.26166666666668,15.129999999999995L175.29055555555556,15.129999999999995L175.40033333333332,14.932222222222236L175.4826666666667,14.932222222222236L175.49855555555555,14.833333333333343L176.111,14.23999999999998L176.1398888888889,14.23999999999998L176.66566666666665,13.74555555555554L176.95744444444446,13.448888888888888L177.00366666666665,13.448888888888888L177.08166666666668,13.349999999999994L177.21166666666667,13.2511111111111L177.49333333333334,12.954444444444448L177.5381111111111,12.855555555555554L177.61755555555555,12.855555555555554L177.66811111111113,12.75666666666666L177.68255555555555,12.75666666666666L177.96422222222222,12.45999999999998L178.33399999999997,12.064444444444462L178.41344444444442,12.064444444444462L179.03455555555556,11.4711111111111L179.5097777777778,10.97666666666666L179.59355555555558,10.877777777777766L180.128,10.383333333333326L180.2782222222222,10.185555555555538L180.29844444444447,10.185555555555538L180.32588888888887,10.185555555555538L180.38511111111112,10.086666666666673L180.40533333333332,10.086666666666673L180.427,10.086666666666673L180.44577777777778,10.086666666666673L180.5021111111111,9.98777777777778L180.6898888888889,9.79000000000002L180.93833333333333,9.592222222222233L181.18244444444446,9.295555555555552L181.43666666666667,9.097777777777765L181.56955555555555,8.900000000000006L181.67355555555554,8.801111111111112L181.69377777777777,8.801111111111112L182.30333333333334,8.207777777777778L182.38566666666668,8.108888888888885L182.56333333333333,8.01000000000002L182.81755555555557,7.713333333333338L182.962,7.614444444444445L183.11077777777777,7.416666666666657L183.59322222222224,6.922222222222217L184.548,6.032222222222231L184.60577777777777,5.933333333333337L184.65344444444443,5.933333333333337L184.91922222222223,5.636666666666656L185.53744444444445,5.043333333333322L185.73533333333333,4.845555555555563L186.6828888888889,3.9555555555555486L186.6843333333333,3.9555555555555486L186.7681111111111,3.856666666666655L187.05700000000002,3.5600000000000023L187.17111111111112,3.4611111111111086L187.52066666666664,3.164444444444456L187.86877777777775,2.768888888888881L188.05366666666666,2.5711111111111222L188.10133333333334,2.5711111111111222L188.38155555555556,2.274444444444441L188.4682222222222,2.1755555555555475L188.62422222222222,2.076666666666682L188.6762222222222,1.97777777777776L188.70366666666666,1.97777777777776L188.84233333333336,1.8788888888888948L189.50244444444445,1.1866666666666674L189.56166666666667,1.0877777777777737L189.68877777777777,0.98888888888888L190.00944444444445,0.6922222222222274L190.23044444444443,0.49444444444444L190.50344444444445,0.19777777777775896L190.5438888888889,0.19777777777775896L191.34555555555553,-0.5933333333333337" style="fill: none;" fill="none"></path></g></g></g></g></g></g><g transform="translate(70, 178)" clip-path="url(#clip_1)"><clipPath id="clip_1"><rect width="260" height="22"></rect></clipPath><g><g><line x1="0" y1="0" x2="0" y2="5" style="visibility: inherit;" fill="rgb(0, 0, 0)" stroke="rgb(204, 204, 204)" stroke-width="1px"></line><line x1="28.888888888888886" y1="0" x2="28.888888888888886" y2="5" style="visibility: inherit;" fill="rgb(0, 0, 0)" stroke="rgb(204, 204, 204)" stroke-width="1px"></line><line x1="57.77777777777777" y1="0" x2="57.77777777777777" y2="5" style="visibility: inherit;" fill="rgb(0, 0, 0)" stroke="rgb(204, 204, 204)" stroke-width="1px"></line><line x1="86.66666666666666" y1="0" x2="86.66666666666666" y2="5" style="visibility: inherit;" fill="rgb(0, 0, 0)" stroke="rgb(204, 204, 204)" stroke-width="1px"></line><line x1="115.55555555555554" y1="0" x2="115.55555555555554" y2="5" style="visibility: inherit;" fill="rgb(0, 0, 0)" stroke="rgb(204, 204, 204)" stroke-width="1px"></line><line x1="144.44444444444446" y1="0" x2="144.44444444444446" y2="5" style="visibility: inherit;" fill="rgb(0, 0, 0)" stroke="rgb(204, 204, 204)" stroke-width="1px"></line><line x1="173.33333333333331" y1="0" x2="173.33333333333331" y2="5" style="visibility: inherit;" fill="rgb(0, 0, 0)" stroke="rgb(204, 204, 204)" stroke-width="1px"></line><line x1="202.22222222222223" y1="0" x2="202.22222222222223" y2="5" style="visibility: inherit;" fill="rgb(0, 0, 0)" stroke="rgb(204, 204, 204)" stroke-width="1px"></line><line x1="231.1111111111111" y1="0" x2="231.1111111111111" y2="5" style="visibility: inherit;" fill="rgb(0, 0, 0)" stroke="rgb(204, 204, 204)" stroke-width="1px"></line><line x1="260" y1="0" x2="260" y2="5" style="visibility: inherit;" fill="rgb(0, 0, 0)" stroke="rgb(204, 204, 204)" stroke-width="1px"></line></g><g transform="translate(0, 8)"><text x="0" y="0" dx="0em" dy="0.95em" style="text-anchor: middle; visibility: hidden; font-family: &quot;Helvetica Neue&quot;, sans-serif; font-size: 12px; font-weight: 200;" fill="rgb(50, 49, 63)" stroke="none" stroke-width="1px">-20k</text><text x="28.888888888888886" y="0" dx="0em" dy="0.95em" style="text-anchor: middle; visibility: inherit; font-family: &quot;Helvetica Neue&quot;, sans-serif; font-size: 12px; font-weight: 200;" fill="rgb(50, 49, 63)" stroke="none" stroke-width="1px">0</text><text x="57.77777777777777" y="0" dx="0em" dy="0.95em" style="text-anchor: middle; visibility: hidden; font-family: &quot;Helvetica Neue&quot;, sans-serif; font-size: 12px; font-weight: 200;" fill="rgb(50, 49, 63)" stroke="none" stroke-width="1px">20k</text><text x="86.66666666666666" y="0" dx="0em" dy="0.95em" style="text-anchor: middle; visibility: inherit; font-family: &quot;Helvetica Neue&quot;, sans-serif; font-size: 12px; font-weight: 200;" fill="rgb(50, 49, 63)" stroke="none" stroke-width="1px">40k</text><text x="115.55555555555554" y="0" dx="0em" dy="0.95em" style="text-anchor: middle; visibility: hidden; font-family: &quot;Helvetica Neue&quot;, sans-serif; font-size: 12px; font-weight: 200;" fill="rgb(50, 49, 63)" stroke="none" stroke-width="1px">60k</text><text x="144.44444444444446" y="0" dx="0em" dy="0.95em" style="text-anchor: middle; visibility: inherit; font-family: &quot;Helvetica Neue&quot;, sans-serif; font-size: 12px; font-weight: 200;" fill="rgb(50, 49, 63)" stroke="none" stroke-width="1px">80k</text><text x="173.33333333333331" y="0" dx="0em" dy="0.95em" style="text-anchor: middle; visibility: hidden; font-family: &quot;Helvetica Neue&quot;, sans-serif; font-size: 12px; font-weight: 200;" fill="rgb(50, 49, 63)" stroke="none" stroke-width="1px">100k</text><text x="202.22222222222223" y="0" dx="0em" dy="0.95em" style="text-anchor: middle; visibility: inherit; font-family: &quot;Helvetica Neue&quot;, sans-serif; font-size: 12px; font-weight: 200;" fill="rgb(50, 49, 63)" stroke="none" stroke-width="1px">120k</text><text x="231.1111111111111" y="0" dx="0em" dy="0.95em" style="text-anchor: middle; visibility: hidden; font-family: &quot;Helvetica Neue&quot;, sans-serif; font-size: 12px; font-weight: 200;" fill="rgb(50, 49, 63)" stroke="none" stroke-width="1px">140k</text><text x="260" y="0" dx="0em" dy="0.95em" style="text-anchor: middle; visibility: hidden; font-family: &quot;Helvetica Neue&quot;, sans-serif; font-size: 12px; font-weight: 200;" fill="rgb(50, 49, 63)" stroke="none" stroke-width="1px">160k</text></g><line x1="0" y1="0" x2="260" y2="0" fill="rgb(0, 0, 0)" stroke="rgb(204, 204, 204)" stroke-width="1px"></line></g></g></g></g></svg>