<svg viewBox="0 0 330 200" xmlns="http://www.w3.org/2000/svg"><g><g><g><g><g><line x1="30" y1="178" x2="25" y2="178" style="visibility: inherit;" fill="rgb(0, 0, 0)" stroke="rgb(204, 204, 204)" stroke-width="1px"></line><line x1="30" y1="155.75" x2="25" y2="155.75" style="visibility: inherit;" fill="rgb(0, 0, 0)" stroke="rgb(204, 204, 204)" stroke-width="1px"></line><line x1="30" y1="133.5" x2="25" y2="133.5" style="visibility: inherit;" fill="rgb(0, 0, 0)" stroke="rgb(204, 204, 204)" stroke-width="1px"></line><line x1="30" y1="111.25" x2="25" y2="111.25" style="visibility: inherit;" fill="rgb(0, 0, 0)" stroke="rgb(204, 204, 204)" stroke-width="1px"></line><line x1="30" y1="89" x2="25" y2="89" style="visibility: inherit;" fill="rgb(0, 0, 0)" stroke="rgb(204, 204, 204)" stroke-width="1px"></line><line x1="30" y1="66.75" x2="25" y2="66.75" style="visibility: inherit;" fill="rgb(0, 0, 0)" stroke="rgb(204, 204, 204)" stroke-width="1px"></line><line x1="30" y1="44.5" x2="25" y2="44.5" style="visibility: inherit;" fill="rgb(0, 0, 0)" stroke="rgb(204, 204, 204)" stroke-width="1px"></line><line x1="30" y1="22.25" x2="25" y2="22.25" style="visibility: inherit;" fill="rgb(0, 0, 0)" stroke="rgb(204, 204, 204)" stroke-width="1px"></line><line x1="30" y1="0" x2="25" y2="0" style="visibility: inherit;" fill="rgb(0, 0, 0)" stroke="rgb(204, 204, 204)" stroke-width="1px"></line></g><g transform="translate(20, 0)"><text x="0" y="178" dx="0em" dy="0.3em" style="text-anchor: end; visibility: hidden; font-family: &quot;Helvetica Neue&quot;, sans-serif; font-size: 12px; font-weight: 200;" fill="rgb(50, 49, 63)" stroke="none" stroke-width="1px">82</text><text x="0" y="155.75" dx="0em" dy="0.3em" style="text-anchor: end; visibility: inherit; font-family: &quot;Helvetica Neue&quot;, sans-serif; font-size: 12px; font-weight: 200;" fill="rgb(50, 49, 63)" stroke="none" stroke-width="1px">84</text><text x="0" y="133.5" dx="0em" dy="0.3em" style="text-anchor: end; visibility: hidden; font-family: &quot;Helvetica Neue&quot;, sans-serif; font-size: 12px; font-weight: 200;" fill="rgb(50, 49, 63)" stroke="none" stroke-width="1px">86</text><text x="0" y="111.25" dx="0em" dy="0.3em" style="text-anchor: end; visibility: inherit; font-family: &quot;Helvetica Neue&quot;, sans-serif; font-size: 12px; font-weight: 200;" fill="rgb(50, 49, 63)" stroke="none" stroke-width="1px">88</text><text x="0" y="89" dx="0em" dy="0.3em" style="text-anchor: end; visibility: hidden; font-family: &quot;Helvetica Neue&quot;, sans-serif; font-size: 12px; font-weight: 200;" fill="rgb(50, 49, 63)" stroke="none" stroke-width="1px">90</text><text x="0" y="66.75" dx="0em" dy="0.3em" style="text-anchor: end; visibility: inherit; font-family: &quot;Helvetica Neue&quot;, sans-serif; font-size: 12px; font-weight: 200;" fill="rgb(50, 49, 63)" stroke="none" stroke-width="1px">92</text><text x="0" y="44.5" dx="0em" dy="0.3em" style="text-anchor: end; visibility: hidden; font-family: &quot;Helvetica Neue&quot;, sans-serif; font-size: 12px; font-weight: 200;" fill="rgb(50, 49, 63)" stroke="none" stroke-width="1px">94</text><text x="0" y="22.25" dx="0em" dy="0.3em" style="text-anchor: end; visibility: inherit; font-family: &quot;Helvetica Neue&quot;, sans-serif; font-size: 12px; font-weight: 200;" fill="rgb(50, 49, 63)" stroke="none" stroke-width="1px">96</text><text x="0" y="0" dx="0em" dy="0.3em" style="text-anchor: end; visibility: hidden; font-family: &quot;Helvetica Neue&quot;, sans-serif; font-size: 12px; font-weight: 200;" fill="rgb(50, 49, 63)" stroke="none" stroke-width="1px">98</text></g><line x1="30" y1="0" x2="30" y2="178" fill="rgb(0, 0, 0)" stroke="rgb(204, 204, 204)" stroke-width="1px"></line></g></g><g transform="translate(30, 0)" clip-path="url(#clip_0)"><clipPath id="clip_0"><rect width="300" height="178"></rect></clipPath><g><g><g><line x1="0" y1="0" x2="0" y2="178" fill="rgb(0, 0, 0)" stroke="rgb(60, 60, 60)" stroke-width="1px" opacity="0.25"></line><line x1="33.33333333333333" y1="0" x2="33.33333333333333" y2="178" fill="rgb(0, 0, 0)" stroke="rgb(60, 60, 60)" stroke-width="1px" opacity="0.25"></line><line x1="66.66666666666666" y1="0" x2="66.66666666666666" y2="178" fill="rgb(0, 0, 0)" stroke="rgb(60, 60, 60)" stroke-width="1px" opacity="0.25"></line><line x1="100" y1="0" x2="100" y2="178" fill="rgb(0, 0, 0)" stroke="rgb(60, 60, 60)" stroke-width="1px" opacity="0.25"></line><line x1="133.33333333333331" y1="0" x2="133.33333333333331" y2="178" fill="rgb(0, 0, 0)" stroke="rgb(60, 60, 60)" stroke-width="1px" opacity="0.25"></line><line x1="166.66666666666669" y1="0" x2="166.66666666666669" y2="178" fill="rgb(0, 0, 0)" stroke="rgb(60, 60, 60)" stroke-width="1px" opacity="0.25"></line><line x1="200" y1="0" x2="200" y2="178" fill="rgb(0, 0, 0)" stroke="rgb(60, 60, 60)" stroke-width="1px" opacity="0.25"></line><line x1="233.33333333333334" y1="0" x2="233.33333333333334" y2="178" fill="rgb(0, 0, 0)" stroke="rgb(60, 60, 60)" stroke-width="1px" opacity="0.25"></line><line x1="266.66666666666663" y1="0" x2="266.66666666666663" y2="178" fill="rgb(0, 0, 0)" stroke="rgb(60, 60, 60)" stroke-width="1px" opacity="0.25"></line><line x1="300" y1="0" x2="300" y2="178" fill="rgb(0, 0, 0)" stroke="rgb(60, 60, 60)" stroke-width="1px" opacity="0.25"></line></g><g><line x1="0" y1="178" x2="300" y2="178" fill="rgb(0, 0, 0)" stroke="rgb(60, 60, 60)" stroke-width="1px" opacity="0.25"></line><line x1="0" y1="155.75" x2="300" y2="155.75" fill="rgb(0, 0, 0)" stroke="rgb(60, 60, 60)" stroke-width="1px" opacity="0.25"></line><line x1="0" y1="133.5" x2="300" y2="133.5" fill="rgb(0, 0, 0)" stroke="rgb(60, 60, 60)" stroke-width="1px" opacity="0.25"></line><line x1="0" y1="111.25" x2="300" y2="111.25" fill="rgb(0, 0, 0)" stroke="rgb(60, 60, 60)" stroke-width="1px" opacity="0.25"></line><line x1="0" y1="89" x2="300" y2="89" fill="rgb(0, 0, 0)" stroke="rgb(60, 60, 60)" stroke-width="1px" opacity="0.25"></line><line x1="0" y1="66.75" x2="300" y2="66.75" fill="rgb(0, 0, 0)" stroke="rgb(60, 60, 60)" stroke-width="1px" opacity="0.25"></line><line x1="0" y1="44.5" x2="300" y2="44.5" fill="rgb(0, 0, 0)" stroke="rgb(60, 60, 60)" stroke-width="1px" opacity="0.25"></line><line x1="0" y1="22.25" x2="300" y2="22.25" fill="rgb(0, 0, 0)" stroke="rgb(60, 60, 60)" stroke-width="1px" opacity="0.25"></line><line x1="0" y1="0" x2="300" y2="0" fill="rgb(0, 0, 0)" stroke="rgb(60, 60, 60)" stroke-width="1px" opacity="0.25"></line></g></g></g><g><g><line x1="0" y1="1090.25" x2="300" y2="1090.25" fill="rgb(0, 0, 0)" stroke="rgb(153, 153, 153)" stroke-width="1.5px"></line></g></g><g><g><line x1="33.33333333333333" y1="0" x2="33.33333333333333" y2="178" fill="rgb(0, 0, 0)" stroke="rgb(153, 153, 153)" stroke-width="1.5px"></line></g></g><g><g><g><g><g><path stroke="rgb(51, 187, 238)" stroke-width="2px" d="M37.47666666666667,180.5223989664979L37.80833333333333,173.9253066696844L38.39666666666667,166.982077317026L38.71666666666667,160.937533165238L38.74333333333333,155.30988041575375L38.84166666666666,151.5623827751743L39.36333333333334,146.59954569842455L39.36666666666667,141.9469100013235L39.45,205.4003304762191L40.82,180.30668646844808L40.848333333333336,176.7578602155898L41.12666666666667,172.25215514984836L41.61833333333333,167.9662691756231L41.89,163.34380103769607L42.24166666666666,160.52152588893486L42.265,157.05260196485L42.87166666666667,154.4959852551503L43.10666666666667,150.8138839139387L43.17833333333333,147.28849479036825L43.31666666666667,144.8590711671734L43.666666666666664,141.3661502269372L43.69833333333333,138.0129735350099L44.498333333333335,135.01495881216658L44.51833333333333,132.1322768742563L44.75666666666667,130.86628588438617L44.943333333333335,128.3780257654987L45.25833333333333,125.77248434663991L45.766666666666666,124.28090006781119L45.77166666666667,122.64097232320245L46.33,120.26828599390541L46.388333333333335,117.97605188897354L46.776666666666664,115.95118948929527L46.96666666666667,114.74435531308265L47.035,116.53591524286202L47.49666666666667,114.26394396648443L47.513333333333335,112.06299492417962L47.66833333333334,111.87339162045392L48.13,109.94853561132746L48.225,108.4243313126491L48.766666666666666,106.43753300382913L49.11333333333334,104.84190043692988L49.25666666666667,103.2918752137589L49.27833333333333,102.11001052925533L49.49666666666666,100.48079133857048L50.665,99.37008108395209L50.79833333333333,98.13350939711654L50.870000000000005,96.46825417159565L51.01166666666666,95.15072446366877L51.300000000000004,93.8674325764336L51.50333333333334,93.20982855227336L51.50833333333334,92.56888107112104L51.61000000000001,91.2208172474412L51.7,90.47771496748933L51.836666666666666,89.329022623144L52.55333333333333,87.92880776061747L52.61,86.69996492197784L52.80833333333334,85.36359461334428L52.93166666666667,84.05832119176164L53.281666666666666,83.18343075704541L53.29,110.18072090275072L53.60666666666667,108.6262814749511L53.81666666666666,107.36479823652778L54.795,106.13105842669854L55.056666666666665,104.67113484151608L55.10166666666666,103.49305455232542L55.995000000000005,102.21611613308444L56.03333333333333,101.70226405557686L56.349999999999994,100.47025123205773L57.035,99.38394588144507L57.156666666666666,98.43894426924726L57.23,97.51304873450565L57.41166666666667,96.48883648963024L57.730000000000004,95.25342322586704L57.78,94.04225415670814L57.965,93.42269171681573L58.12166666666666,92.92763098587629L59.12166666666667,92.1073305961605L59.178333333333335,91.19196052147323L59.60666666666667,90.2937160498399L60.19333333333333,89.30350106808191L60.535000000000004,88.54682620367667L61.428333333333335,88.44442435084645L61.77666666666667,87.39130455391349L61.82833333333333,86.35700961749072L62.195,85.4451091501663L62.23166666666667,84.54922382261134L62.571666666666665,83.56657595098879L62.595,82.60088880766979L64.08500000000001,82.45739884309594L65.19333333333334,81.91672591063994L65.28166666666667,81.6824908672191L65.88499999999999,80.76381406029101L66.06666666666668,79.86034007737655L66.09,78.97169507810669L66.21833333333333,78.09751737952251L66.65833333333333,77.71420877555956L66.755,76.95850528688413L66.77,76.40267027012318L66.89666666666666,76.04206982873653L67.07333333333332,75.40945591264703L67.08666666666667,74.6947839571848L67.205,73.991122094716L67.39999999999999,73.20765301620115L67.565,72.97560987873797L67.63000000000001,72.56847991617373L67.965,72.078767792358L67.97,71.5963214452784L68.09166666666667,71.12098060016123L68.46666666666667,70.56573635699152L68.57333333333332,69.93228554642671L68.72,69.39365083947608L68.865,68.7776063612535L69.205,68.17031428244094L69.74666666666667,67.7395898103347L70.40833333333333,67.06453933933392L70.55,66.64762343526776L70.59666666666666,66.23646796970628L71.89666666666668,65.8309545771911L71.91333333333334,65.26828566115364L71.98666666666666,64.71323398675585L72.03,64.16564618631641L72.14333333333333,64.34385339521572L72.26833333333333,63.72628425313533L72.37833333333333,63.35342923029866L72.56666666666666,62.82869662642338L72.78333333333333,62.38870136585359L72.80166666666668,61.954394617579055L72.835,61.60265256500436L73.23,62.250322860682274L73.57833333333333,61.74850047129706L73.80333333333334,61.47993381266697L73.80666666666667,61.21473126929908L73.87,60.72850037362832L74.36833333333334,60.24828522179101L74.53166666666667,59.84790611966265L74.545,59.37890444763575L74.83500000000001,59.06181231616719L74.89,58.53044631211041L75.42166666666667,58.00545850549436L75.55333333333333,57.918167261794736L75.65166666666667,57.47433814949423L76.35333333333334,57.39138570394468L76.41166666666668,56.884923917752246L76.535,56.525105188490016L77.17166666666667,56.16945641390555L77.995,55.748277078242225L77.99666666666667,55.401187676560895L78.59,55.12695676667505L78.59833333333333,54.65018767111651L79.17500000000001,54.24698570576962L79.33833333333332,53.78045242408275L79.39666666666666,53.38662063127276L79.70833333333334,52.92998861500433L79.86,52.67886923979731L80.73,52.49699597079547L80.905,52.184775488607045L81.61666666666666,51.81010077733434L81.66,51.63601678339637L81.77000000000001,51.26820575779284L82.00166666666668,50.969201676838026L82.105,50.60880023378003L82.45166666666667,50.31646570593472L82.47833333333332,50.02720143645267L82.685,49.80461366397654L83.04833333333333,49.457629419236326L83.34166666666665,49.17729239656467L83.38499999999999,48.89983959987157L83.62333333333333,48.50027487832449L83.87833333333333,48.16696852485134L84.11666666666667,47.837039738889445L84.35333333333334,47.63368465340167L84.51,47.43236979809359L84.53333333333333,47.04985654729086L85.67666666666666,47.096718417338735L85.73833333333334,47.02206460672895L86.16,46.767369306778306L86.46666666666667,46.455173748659746L86.55999999999999,46.384944929563716L86.67333333333333,46.13698268820616L87.01166666666667,46.36512613691508L87.39166666666667,46.23732298716544L87.57,45.99332774138L87.76166666666667,45.8685673452633L87.93666666666667,45.512151620164076L88.15666666666667,45.27502269109624L88.17,45.09783908912351L88.39,45.439630676785924L88.63499999999999,45.09134658157669L88.785,45.08831648113653L88.95833333333333,44.801458613742824L89.00500000000001,44.74338739602754L89.56166666666667,44.460609041954854L89.58166666666668,44.40472609942378L89.61333333333333,44.4610602439659L89.64166666666667,44.405622851763326L89.73166666666667,44.12904072384444L89.79333333333332,43.85492733916442L89.85499999999999,44.62773681301465L90.06,44.40807939526155L90.60333333333334,44.13581377922026L90.63833333333334,43.92026750001904L90.875,43.65248266809738L90.99833333333332,43.44093915874521L91.305,43.12381516753763L92.22166666666666,42.9164280820641L92.25666666666666,42.71082152108744L92.29499999999999,42.40077870534304L92.47166666666666,52.93735361878399L92.62166666666667,52.68658722459462L92.95166666666667,52.38543456387255L93.08166666666666,52.24374029135214L93.25500000000001,51.99900063488488L93.39500000000001,51.70437715792292L93.74333333333334,51.6708744842185L93.79166666666667,51.58610222236824L94.38166666666667,51.29658798665227L94.43166666666667,51.00944880977718L94.61166666666666,50.77564713528899L94.75,50.54374809974476L94.845,50.212471219273255L95.33666666666667,50.08566714936971L95.81500000000001,49.85933894870411L96.27333333333333,49.885301585214336L96.46000000000001,49.56161189114928L96.98666666666666,49.48923080234255L97.39833333333334,49.169546905484026L97.425,48.85238375915915L97.86666666666667,48.6854167985654L98.06666666666666,48.51975625943541L98.30166666666666,48.355386950460485L98.82666666666667,48.19229391494551L99.50333333333334,47.93332151736965L99.635,47.72475223749555L99.79666666666667,47.759013277200864L99.84833333333333,47.50449994996461L100.03333333333333,47.44363048822294L100.49333333333333,47.38322307620089L100.83333333333334,47.84699713181479L101.105,47.59544145825936L101.11166666666666,47.34577417420712L101.16666666666666,47.428009553491194L101.19999999999999,47.509632123074994L101.32166666666666,47.262735843289846L101.73333333333332,47.25113986155475L102.07333333333334,47.00689963885554L102.11833333333334,46.71805500492977L102.235,46.66258199551251L102.565,46.42308952006374L102.59166666666667,46.23129863865395L103.55666666666666,45.949260336675565L104.08333333333333,45.71493234629585L104.11333333333333,45.482288942236465L104.46333333333334,45.56906836595235L105.86333333333334,45.383702210326305L106.01166666666666,45.199654710494315L106.065,44.92695490592317L106.185,44.745865717369895L106.23,44.5660514251455L106.23666666666666,44.38749870232155L106.34166666666667,44.210194407065615L106.655,43.98981983200255L106.78833333333334,43.859323612244054L107,43.64164421920168L107.01166666666667,43.42546626148743L107.085,43.34212690046954L107.17333333333333,43.17204647556022L108.02666666666667,42.9595986765726L108.27333333333334,42.74859670554292L108.85000000000001,42.58230271487545L108.865,42.373980917571316L108.95333333333333,42.16706284936831L109.17833333333334,42.819637188571335L109.43,42.65496760410673L110.53,42.491396748526284L110.55666666666666,42.37145467056607L110.68833333333333,42.16746543004044L110.83166666666666,42.134032617355274L112.16833333333332,41.93208434699912L112.64166666666667,41.73146192683555L112.73,41.53215244211407L112.78166666666667,41.334143145264676L112.84166666666667,41.13742145320012L112.90666666666667,41.14999653522571L113.13666666666667,40.91354648688048L113.245,40.67861951039768L113.28333333333333,40.56899752410271L113.46,40.58353922749535L113.635,40.5159017203066L113.71166666666666,40.40776135783585L114.20333333333333,40.341130542193724L114.74000000000001,40.11206076391866L115.45333333333333,39.88443476579167L115.585,39.739238496533574L115.795,39.59495178147836L116.67666666666666,39.53214032784183L116.75999999999999,39.34917471026969L116.91499999999999,39.447884364323215L116.94166666666668,39.54598312788181L116.99166666666666,39.444128298732664L117.11333333333333,39.30313313633013L117.71499999999999,39.16300274198741L118.03166666666667,38.984165955434236L118.29833333333333,39.0431940562471L118.55666666666666,38.90505253358833L118.71166666666666,38.924798299998855L118.80333333333333,38.74860748003931L119.66333333333333,38.57347828634536L119.67666666666668,38.63320402940917L119.92333333333333,38.45935287428824L120.00166666666667,38.28654012217146L120.48666666666666,38.346818793798036L120.58833333333332,38.4453209871927L120.85,38.350807410926166L121.13666666666666,38.333636033156836L121.51,38.12507471014456L121.565,37.955942686297334L121.82000000000001,37.825912890082435L121.845,37.658622245089475L122.44666666666666,37.53023359296492L122.84333333333333,37.591775381883025L122.85499999999999,37.61521454268572L122.86166666666666,37.600862112520815L122.86833333333333,37.62415900246825L123.10333333333334,37.422456377292974L123.17666666666666,37.29668642814815L123.45333333333333,37.208935398271734L123.51333333333334,37.19611077389541L123.53833333333334,37.10910618542533L123.735,36.98555433157574L124.485,36.82574628066908L124.67833333333333,36.66683799637863L124.895,36.692737085167806L124.97,36.49830085241774L125.32166666666666,36.304950472998655L125.49833333333333,36.222268527385154L125.905,36.14004584686464L125.91833333333332,35.98554962748423L126.18833333333333,35.83190698524325L126.27666666666666,35.64291060235615L127.22833333333334,35.45495285655298L127.51166666666667,35.268025302789994L127.535,35.118077029767704L127.67999999999999,35.07657836675003L127.97833333333334,34.92791222740365L128.03333333333333,34.78005238118632L128.33166666666668,34.59735265019361L128.83166666666665,34.557884020870546L128.84166666666667,34.51862778137007L129.14,34.373364584498034L129.6,34.33486537863905L130.49166666666667,34.2965717440689L130.73333333333332,34.18813046385344L130.92666666666668,34.08026525130279L131.06833333333333,34.42828925132255L131.19833333333332,34.424980327216815L131.24333333333334,34.282190162735674L131.27166666666665,34.1401508429409L132.10666666666665,33.99885653155641L132.185,33.962260336460815L132.38666666666666,33.960434955588084L132.73333333333332,33.95861907696087L132.78333333333333,33.88794321826359L133.63166666666666,33.81763343620159L133.64166666666665,33.71339584942493L133.67833333333334,33.60969549859627L133.82833333333335,33.472379361716975L134.125,33.335767453367055L135.34166666666667,33.267870910954315L135.46,33.2003208678932L135.73000000000002,33.099245737328374L135.89000000000001,32.99868390894068L136.13333333333333,32.864900408743296L136.89833333333334,33.37138471003081L137.03166666666667,33.20342231477531L137.52666666666667,33.87447832367653L137.57833333333335,34.341410078539184L138.12333333333333,34.271724262210796L138.37333333333333,34.26903805295299L138.7,34.16658685779032L139.04666666666668,34.03145136411894L139.04833333333332,33.8969858075084L139.18833333333333,33.73012297615554L139.45166666666668,33.56408345543602L139.775,33.5635237259967L139.98000000000002,33.46436254570543L140.16333333333333,33.3656871848483L140.375,33.33297443821246L140.85166666666666,33.23506788186694L140.86833333333334,33.13763764404601L141.14499999999998,33.17088275415037L141.48166666666665,33.106502745389804L142.07500000000002,33.04243377382002L142.15333333333334,33.0110374335369L142.41666666666666,32.882885651310914L142.46833333333333,32.88431182170899L142.66833333333332,32.95009054850286L142.73833333333334,32.887079491629635L142.84833333333333,32.88848551001951L143.17833333333334,32.761892051059476L143.415,32.92334356680291L143.82999999999998,32.95651642000641L144.645,32.89407479948622L144.91333333333333,32.736646787684435L144.96,32.57995884159345L145.035,32.487291571437254L145.73333333333332,32.36347336400473L147.105,32.240233331377425L147.135,32.11756749451922L147.29666666666665,31.995471910812796L147.38166666666666,31.9366512992045L147.65,31.784210719866593L148.215,31.694955641025672L148.31333333333333,31.637296217247467L148.61833333333334,31.517645420820344L148.64166666666665,31.429615935642744L149.09166666666667,31.2799559172814L149.12666666666667,31.1309795277854L149.53166666666667,31.168119918602883L149.66333333333333,31.143388521069824L149.85833333333335,31.057175706946765L150.77,31.15580810831642L150.96666666666667,31.19261810894693L151.09333333333333,31.076089724977976L151.525,31.021247357809784L151.66,30.96665122351294L152.38,31.064671277020693L152.59,31.010146079028573L152.63333333333333,30.895126671550827L152.82666666666665,30.932200765187133L153.08333333333334,30.848053826302362L153.17666666666665,30.7642799198411L153.26166666666666,30.68087661240139L153.29833333333332,30.56773264801447L153.35333333333332,30.455087117701794L153.39499999999998,30.402949767007357L153.82833333333335,30.351041141784577L153.83166666666665,30.299359766016437L154.00166666666667,30.27775880732949L154.00666666666666,30.2562520241718L154.26333333333332,30.14557533076791L154.53833333333333,30.065083930717662L154.78833333333333,30.222183092615808L155.01500000000001,30.260179298436526L155.29833333333335,30.12067066953952L155.53,30.040778674446187L156.315,30.020148520875438L156.32333333333332,30.02901762502475L156.40166666666667,29.979123740090984L156.50166666666667,30.017386356546012L156.54000000000002,29.96768603900756L156.97833333333332,29.88897821149311L158.16833333333332,29.898119113210896L158.61833333333334,29.790724203662677L159.115,29.68378346520771L159.14499999999998,29.60632445517311L159.27833333333334,29.587159176430504L159.88000000000002,29.51019990855093L160.16500000000002,29.49134556379215L160.36333333333334,29.414880252401247L160.71833333333333,29.30993540054044L160.80333333333334,29.205428246130936L161.04333333333335,29.10135610856804L161.12166666666664,28.99771632908505L161.31666666666666,28.865888768862106L161.51,28.734606739115122L161.52166666666668,28.632394760343715L161.99666666666667,28.559087392905496L162.54999999999998,28.457642719406692L163.00333333333333,28.52698288521728L163.16833333333335,28.56768816941772L163.55833333333334,28.551613202477995L163.67999999999998,28.535603862733154L163.775,28.717198013590775L164.625,28.728994898726143L164.73833333333334,28.600077225777937L164.86666666666667,28.47168186072264L164.89,28.34380569966703L164.95499999999998,28.272455697900995L165.00833333333333,28.201393129430897L165.6966666666667,28.130616296215493L165.995,28.060123513554544L166.625,27.962076784166385L166.71833333333333,27.92001122160636L166.725,27.822607554912736L166.83333333333334,27.725591880900254L166.94166666666666,27.628961934179074L167.31666666666666,27.56034469231392L167.34333333333333,27.46441095796132L167.58333333333331,27.423951593070313L167.62666666666667,27.383651902655572L167.68833333333333,27.288578001904625L168.32666666666665,27.221304127978385L168.35833333333332,27.099522157934615L168.52833333333334,27.060255568546864L168.96833333333333,27.021142529203416L169.15666666666667,26.900382295808043L169.215,26.780092569811927L169.92000000000002,26.687458432402053L171.22666666666666,26.622332475893415L171.28333333333333,32.087801186230394L171.41500000000002,32.11800397169557L171.79166666666669,32.01293073874575L171.87833333333333,31.93525575878101L172.11166666666668,31.830924775650516L172.51666666666665,31.780827535026475L172.9366666666667,31.70404395684301L173.205,31.573873447063335L173.60833333333332,31.846237908375485L173.66166666666666,32.144328627306805L174.015,32.2809213747274L174.33499999999998,32.310235953577944L174.4766666666667,32.206176822332736L174.69666666666666,32.182357748190185L175.03333333333333,32.158628698730666L175.08666666666667,32.13498917635192L175.1483333333333,32.08493393448228L175.28166666666667,32.08800320884254L175.53333333333333,32.01176583930848L175.84666666666666,31.9886048840049L175.89833333333334,31.912812133114954L175.95333333333332,31.863625527603034L176.14333333333335,31.814622248558265L176.24833333333333,31.765801297345092L176.64166666666668,31.664730024835762L176.69,31.537853201539065L177.96666666666667,31.43759095518959L177.98833333333334,31.36380888366321L178.10833333333332,31.26422442477758L178.34666666666666,31.13896712585671L178.98833333333332,31.014170315675926L179.08333333333334,30.941771468341784L179.26000000000002,30.843702515264425L179.3683333333333,30.745992265889868L179.44333333333336,30.648638804418L179.715,30.551640228659778L180.22833333333332,30.480792844241307L181.12333333333333,30.51325970608002L181.35833333333332,30.545608810743545L182.10333333333332,30.423661066634168L182.245,30.353480160332538L182.27166666666665,30.283552526957465L182.90833333333333,30.188280691168302L182.93666666666667,30.093351536245336L183.15333333333334,30.049822779410192L183.28833333333333,29.9299598392096L183.39166666666665,29.988772839123357L183.72833333333332,29.920220333882156L184.08333333333334,29.85191237535352L185.1233333333333,29.783847691319096L185.15666666666667,29.690691581111167L185.5,29.673769526519038L185.79,29.682176368158792L186.04,29.61484294671027L186.07333333333335,29.522542511776265L186.07833333333335,29.430567597275314L186.22,29.414340313994387L186.225,29.39817007526696L186.82333333333332,29.38205658887489L186.86666666666667,29.290859501014324L187.88166666666666,29.250012224648543L187.98000000000002,29.134355051173458L188.54333333333335,29.019101196863005L188.705,28.90424861309367L189.11833333333334,28.864469033018167L189.835,28.874548495888575L190.63333333333335,28.785273685116977L190.89333333333335,28.721107010041692L191.30666666666667,28.65716197007677L191.48499999999999,28.618175953394996L191.76166666666668,28.57932417172566L191.97333333333333,28.491249679717527L192.20166666666665,28.378829380574103L192.29500000000002,28.365267075219066L192.34833333333333,28.327162813399497L192.46666666666667,28.2646300845727L193.10000000000002,28.324955756085956L193.24833333333333,28.262578467484985L193.28666666666666,28.175943196545717L193.835,28.23624665683107L194.225,28.125464864862636L194.33333333333334,28.112587732263222L195.03,28.026693895501353L195.26000000000002,28.01406332527253L195.37666666666667,27.904292678110835L195.49333333333334,27.794891274848453L195.69333333333333,27.68585731001329L195.76666666666668,32.58860906400503L195.9933333333333,32.493593093560634L196.23666666666668,32.44720073165038L196.32666666666668,32.352713795730665L196.46,32.258541797389796L196.64333333333335,32.14061471174426L196.8983333333333,32.07116056349477L197.01999999999998,32.19403808450113L197.34,32.14861443691342L197.45666666666668,32.07938387956315L197.53833333333336,31.96252285278564L198.42499999999998,31.869949312885637L199.17666666666665,31.82542992122501L199.35333333333335,31.75720961091008L199.35666666666668,31.73685343878492L199.80666666666664,31.62139232109746L200.47333333333333,31.553840900815345L200.94333333333333,31.439032521590235L200.98166666666665,31.348310872855762L201.25166666666667,31.32894050582155L201.43,31.2859746848836L201.52833333333334,31.290412219282956L201.54333333333335,31.294835354868752L201.66166666666666,31.20492864338354L201.78666666666666,31.11531280509203L201.925,31.073038940265462L202.05666666666667,31.03090144412718L202.22500000000002,30.941951828782152L202.25833333333333,30.853288316418883L202.385,30.76490957305748L202.48000000000002,30.653418180153494L202.49833333333333,30.565654154107108L203.205,30.478170787323933L203.23833333333332,30.390966779255194L203.845,30.373921260143447L204.18166666666667,30.333661992006427L204.23499999999999,30.27028807576147L204.32500000000002,30.160680640924397L204.475,30.074612868780918L204.79999999999998,29.96565055478399L204.85166666666666,30.01902656358064L204.94333333333333,30.026000052376133L205.0016666666667,29.96367521047162L205.01833333333332,29.92461386976487L205.34333333333333,29.90871788744758L205.76999999999998,29.915889713662835L205.86166666666665,29.923039058354505L206.57833333333332,29.884228373203058L207.1266666666667,29.79965020986876L207.22333333333336,29.738256106469976L207.84,29.72284492350167L208.01333333333332,29.638866991653344L208.0366666666667,29.60084500122477L208.06833333333333,29.562941036218916L208.13666666666666,29.616352270779288L208.16,29.692373695196437L208.18499999999997,29.79091181841028L208.20666666666665,29.8664178113859L208.27166666666665,29.828169708275823L208.48833333333334,29.79003935048769L208.77499999999998,29.79734046544405L209.05666666666667,29.691450847436585L209.35,29.676326960680626L209.50333333333333,29.638662422075356L209.6233333333333,29.60111304001711L209.64666666666668,29.541137773901283L210.35000000000002,29.59393251107221L210.445,29.534094533455942L210.65,29.496909939158712L210.94333333333333,29.4822867946763L211.10999999999999,29.53498511167203L211.28166666666667,29.565120882915096L211.83833333333334,29.52802472951592L212.94,29.491040619923837L213.00666666666666,29.38716279646104L213.06166666666667,29.28359788019057L213.36833333333334,29.247215083568506L214.08166666666668,29.21094158851747L214.31,29.24151360528441L215.40333333333334,29.160877287723224L215.405,29.08048225203578L215.50166666666667,29.022506573955752L215.835,29.363531731746093L215.96666666666667,29.305107803465518L216.36999999999998,29.313197565973127L216.77166666666665,29.27708039006592L216.98499999999999,29.19693104907813L217.04000000000002,29.117019324295597L217.36333333333334,29.103423321298976L217.4633333333333,29.08986752032456L217.64333333333335,29.164284999387576L217.70333333333332,29.150635500409294L217.735,29.115085699113166L217.895,29.013882881871666L218.65666666666667,28.9129773660365L218.725,28.81236789374671L218.87166666666664,28.75576449733103L219.24166666666667,28.699326738389857L219.49666666666664,28.599426755200085L219.8116666666667,28.543403642302138L219.85833333333332,28.487543835858702L220.78333333333333,28.41009569916821L221.10666666666668,28.354602939532214L221.17166666666665,28.29927131888431L221.50333333333333,28.309166761432607L222.20333333333332,28.340701833567437L222.43833333333333,28.28555458629583L222.64833333333334,28.208939341493817L222.90166666666667,28.154152077707494L223.29999999999998,28.07793611129108L223.82,28.001939496513927L224.09833333333333,27.926161325658597L224.11166666666668,27.87212661165671L224.7,27.861258442278626L225.16000000000003,27.807449872199072L225.24833333333333,27.75379519168382L225.84333333333333,27.700293768241522L225.86333333333332,27.6469449728354L226.275,27.572342041771464L226.28666666666666,27.47656503170191L226.46333333333334,27.4024268973223L226.73166666666665,27.371193238153978L226.88166666666666,27.44668521615847L227.42166666666668,27.458039804979705L227.70666666666668,27.469362282558592L227.78833333333336,27.501921739889383L227.85166666666666,27.406891835688413L227.90833333333333,27.312129686403807L227.97166666666666,27.302478197186133L228.0366666666667,27.29285383506891L228.23000000000002,27.219738613520178L228.35999999999999,27.273749515643857L228.38333333333335,27.264205760150162L228.41166666666666,27.212457755714865L228.59166666666667,27.181950836959942L229.39166666666665,27.21476193790801L229.70833333333334,27.142187631763647L229.90166666666667,27.15397535455574L230.26833333333335,27.18675157963699L230.31666666666666,27.19843420790056L231.085,27.10516464639113L231.51333333333335,27.012153436179972L231.56166666666667,26.96129325275237L231.66333333333333,26.889645236926697L232.17000000000002,26.797285019871822L232.45000000000002,26.746962554512834L233.29833333333335,26.67590539742136L233.32333333333335,26.62589862755118L233.81833333333333,26.721886467549837L234.75666666666666,26.63024377531798L235.32,26.538852209511788L235.3216666666667,26.447710784862835L235.50666666666666,26.419111578747618L235.5533333333333,26.49432234735974L235.60333333333332,26.569327991613704L235.67166666666668,26.51986588159994L235.865,26.470538353261816L236.39166666666665,26.421344882657365L236.46166666666667,26.413599406188922L236.52166666666668,26.426514474554125L237.00833333333333,26.398150751667117L237.06,26.308050796869423L237.54833333333335,26.526995935368234L237.70333333333332,26.539657376611984L237.72333333333333,26.63449203250687L237.89833333333334,26.729071352666836L238.44666666666666,26.679776739337484L239.34833333333333,26.61011476468127L239.38833333333335,26.643052280579894L239.44333333333333,26.757762733407418L240.17166666666668,26.74947730969265L240.28166666666667,26.6799210018566L240.32833333333332,26.71262014438574L240.88666666666666,26.66364443216912L241.185,26.574039381269955L241.26666666666665,26.484672822436664L241.27166666666665,26.415889934950002L241.29,26.32696046645293L241.36333333333332,26.380453893787234L241.73833333333334,26.291735906956205L242.15,30.25904323398018L244.07333333333332,30.20393157425042L244.47833333333335,30.229948043942244L244.89166666666665,30.174979625230776L244.98,30.07973096913932L245.16166666666666,30.12610517182293L245.38333333333335,30.031100446408914L245.69,29.936345170328735L245.9033333333333,29.86198520685258L245.99166666666667,29.787820049499004L246.06166666666667,29.73396316110029L246.24333333333334,29.68024705041404L246.255,29.606589439164424L246.30833333333334,29.533123934562383L246.36166666666665,29.459849822661226L246.4633333333333,29.40679980841702L246.4933333333333,29.373905080370605L246.85333333333335,29.281091568632064L247.17333333333335,29.188518786153026L247.3466666666667,29.13612494029701L247.45,29.143727742706858L247.73999999999998,29.07155944166243L248.08666666666667,28.999577500041767L248.57666666666668,28.927781232812663L248.64333333333335,28.836279318870794L248.86333333333332,28.804637852548183L249.01,28.773077736684627L249.02999999999997,28.721754893474497L249.04333333333335,28.71022019565723L249.17000000000002,28.63927683441989L249.24166666666667,28.568515076979196L249.45333333333332,28.517716122351572L249.70666666666665,28.44728044460956L249.875,28.37702448648369L250.1183333333333,28.32668343024605L250.275,28.276470544576455L250.52666666666667,28.3446174373789L251.17166666666665,28.29445024440227L251.54333333333332,28.28376039041609L251.64333333333332,28.23377783329616L251.685,28.183921853079482L252.485,28.173451589337276L252.50333333333333,28.123778179340462L252.8,28.074230161433803L252.8383333333333,28.005222160388143L252.89,27.955958032264448L253.12666666666667,27.90681786746606L253.15,27.877341615439263L254.17666666666665,27.82841375540167L254.45999999999998,27.8186304013596L254.86,27.789375367947628L254.88666666666666,27.74071202716968L255.34333333333333,27.65323654192838L255.53,27.58543187825373L255.82666666666668,27.556671951320823L255.88,27.527983710494823L256,27.577002043846164L256.43333333333334,27.606504106434443L256.67833333333334,27.519653230153438L257.29333333333335,27.43301793443314L257.315,27.346597460799018L257.45666666666665,27.337738801639688L258.04833333333335,27.290256715492433L258.08666666666664,27.223583555189833L258.09499999999997,27.157075035245924L258.12833333333333,27.09073057974163L258.305,27.024549615431965L258.87833333333333,26.95853157173002L259.35833333333335,26.873438049206328L259.7866666666667,26.846225013467375L260.3483333333333,26.93433773272264L260.4666666666667,26.8494715259626L260.59666666666664,26.937450829598504L261.12166666666667,26.852702155405552L261.13,26.787314854378764L261.15500000000003,26.702946791243676L261.705,26.714417707462644L261.7583333333333,26.744973562556112L262.08666666666664,26.69905832778059L262.47,26.825024223521382L262.60833333333335,26.759965601066057L262.64,26.695064870267657L262.81166666666667,26.630321489403173L262.90666666666664,26.56573491921634L263.27666666666664,26.558357401100665L263.59333333333336,26.493985384764954L264.0733333333333,26.52472211378182L264.12,26.555384695181317L264.2633333333333,26.510117949541836L264.8983333333333,26.446009680054942L264.935,26.476741522308828L265.43,26.450627836359928L265.6716666666667,26.386755554945864L265.74833333333333,26.30413902454157L266.625,26.429446837622947L266.69166666666666,26.40348628787126L266.705,26.377587806813267L266.7416666666667,26.37059601457554L266.7583333333333,26.307125620426888L266.885,26.243806529155137L266.94166666666666,26.218249671638176L267.08666666666664,26.305510089760844L267.1383333333333,26.223544890170388L267.9166666666667,26.16054120640385L268.2116666666667,26.24771902975411L268.315,26.222243325189368L268.7033333333333,26.15937127011017L268.7133333333333,26.09664792471881L269.755,26.090181136900952L269.815,26.083729615162724L269.97666666666663,26.05861595892074L270.29833333333335,26.01489679457663L270.32666666666665,25.952628500587906L270.3283333333333,25.909146062652894L270.82666666666665,25.90301946959704L270.88666666666666,25.84106437620426L271.25166666666667,25.853661638466235L271.4866666666667,25.773283003927958L271.9766666666667,25.76739973465186L272.2366666666667,25.798658977834066L272.475,25.71853336849975L272.61833333333334,25.638594742544313L272.635,25.558842486075434L272.87,25.497790916211216L272.945,25.436881412172454L272.9866666666667,25.431584636036064L273.19666666666666,25.42630016205902L273.31333333333333,25.384096076238848L273.595,25.34198982747924L273.71,25.41063076499725L273.80833333333334,25.350106444131626L274.00666666666666,25.271304636054793L274.2133333333333,25.21109015267629L275.4666666666667,25.187801196576714L276.02,25.16456592510943L276.03833333333336,25.104645551772336L276.185,25.17336451377048L276.25,25.186889232717647L276.3183333333333,25.163715836858188L276.55333333333334,25.085630644012582L277.18666666666667,25.00772444569148L277.33166666666665,24.929996665994196L277.82666666666665,24.92559154559069L278.82666666666665,24.884647614602557L278.9266666666667,24.80727178489542L278.9433333333333,24.73007250507098L279.1516666666667,24.744245765460164L280.105,24.70370378185271L280.315,24.736118148033455L280.47999999999996,24.71384556098684L280.70666666666665,24.673430716401242L280.91,24.724014048337523L281.00666666666666,24.73814316439345L281.12166666666667,24.752240277421834L281.12833333333333,24.711865095026695L281.2966666666667,24.63531049473562L281.44,24.55892882091294L281.46500000000003,24.482719526392884L282.4033333333333,24.424783232940626L282.59166666666664,24.4212469233845L282.805,24.41771857297914L282.83,24.43226536897339L282.94666666666666,24.392611648384047L283.1433333333334,24.389136341320977L283.22833333333335,24.403702314328513L283.3433333333333,24.34614647210185L283.35,24.32474172929946L284.22833333333335,24.35738481946524L284.26,24.389954966304458L284.3933333333333,24.368519063774414L284.5966666666667,24.329164264999406L284.77166666666665,24.27194150392691L285.07,24.196901505579802L285.0933333333333,24.139962101423777L285.1533333333333,24.08314925465595L285.2216666666667,24.0443743157675L285.37833333333333,24.095189524844074L285.46,24.074332379056585L285.4866666666667,24.05352142809062L285.62166666666667,23.99702011425444L285.76,23.94064372041015L285.905,23.902238444324183L285.935,23.84608212296004L286.15999999999997,23.879174906777507L286.38666666666666,23.840937476602562L287.0316666666667,23.802784216643516L287.09333333333336,23.80030074737047L287.53833333333336,23.726693609537847L287.88166666666666,23.653248076237844L287.9433333333333,23.579963652488516L289.26,23.506839845316108L289.37166666666667,23.4693559285287L289.47333333333336,23.396495341293928L289.64166666666665,23.39466931462502L290.0733333333333,23.357430624080706L290.18,23.284877490476703L290.86833333333334,23.23016995112158L291.1066666666667,23.15790461478548L291.64666666666665,23.0857965712826L291.9816666666667,23.066813911608136L292.1116666666667,23.030226668856727L292.12666666666667,22.976083364391457L292.64,22.922057505216003L292.8666666666667,22.885763622992158L292.89166666666665,22.867152950235635L293.0166666666667,22.866176912777632" style="fill: none;" fill="none"></path></g></g></g></g><g opacity="0.2"><g><g><g><path stroke="rgb(51, 187, 238)" stroke-width="2px" d="M33.40333333333333,2202.75L33.611666666666665,33.375L33.715,2213.875L34.123333333333335,0L34.22666666666667,0L34.29833333333333,11.125L34.31,22.25L34.39,33.375L34.41166666666667,11.125L34.52333333333333,-22.25L34.68,22.25L35.02333333333333,-11.125L35.555,22.25L35.641666666666666,-22.25L35.72666666666667,-11.125L36.223333333333336,0L36.22833333333333,-11.125L36.72666666666667,-11.125L37.178333333333335,22.25L37.315,-22.25L37.475,55.625L37.47666666666667,66.75L37.80833333333333,11.125L38.39666666666667,-11.125L38.71666666666667,0L38.74333333333333,0L38.84166666666666,44.5L39.36333333333334,0L39.36666666666667,0L39.45,2202.75L39.70166666666667,11.125L39.92666666666667,55.625L40.52833333333333,-22.25L40.66666666666667,11.125L40.82,33.375L40.848333333333336,44.5L41.12666666666667,0L41.61833333333333,0L41.89,-22.25L42.24166666666666,44.5L42.265,11.125L42.87166666666667,44.5L43.10666666666667,-11.125L43.17833333333333,-11.125L43.31666666666667,33.375L43.666666666666664,-22.25L44.51833333333333,-11.125L44.75666666666667,66.75L44.943333333333335,0L45.25833333333333,-11.125L45.766666666666666,44.5L45.77166666666667,33.375L46.33,-11.125L46.388333333333335,-11.125L46.776666666666664,0L46.96666666666667,44.5L47.035,222.5L47.513333333333335,-22.25L47.66833333333334,100.125L48.13,-11.125L48.225,11.125L48.766666666666666,-22.25L49.11333333333334,0L49.25666666666667,0L49.27833333333333,22.25L49.49666666666666,-11.125L50.665,22.25L50.79833333333333,11.125L50.870000000000005,-22.25L51.01166666666666,0L51.300000000000004,0L51.50333333333334,44.5L51.50833333333334,44.5L51.61000000000001,-11.125L51.7,33.375L51.836666666666666,0L52.55333333333333,-22.25L52.93166666666667,-22.25L53.281666666666666,11.125L53.29,2358.5L53.60666666666667,-22.25L53.81666666666666,0L54.795,0L55.056666666666665,-22.25L55.10166666666666,0L55.995000000000005,-11.125L56.03333333333333,55.625L56.349999999999994,-11.125L57.035,0L57.156666666666666,11.125L57.23,11.125L57.41166666666667,0L57.730000000000004,-22.25L57.78,-22.25L57.965,33.375L58.12166666666666,44.5L59.12166666666667,11.125L59.178333333333335,0L59.60666666666667,0L60.19333333333333,-11.125L60.535000000000004,11.125L61.428333333333335,77.875L61.77666666666667,-22.25L62.595,-22.25L64.08500000000001,66.75L65.19333333333334,22.25L65.28166666666667,55.625L65.88499999999999,-22.25L66.21833333333333,-22.25L66.65833333333333,33.375L66.755,-11.125L66.77,11.125L66.89666666666666,33.375L67.07333333333332,0L67.08666666666667,-11.125L67.39999999999999,-22.25L67.565,44.5L67.63000000000001,22.25L67.965,11.125L67.97,11.125L68.09166666666667,11.125L68.46666666666667,0L68.57333333333332,-11.125L68.72,0L68.865,-11.125L69.205,-11.125L69.74666666666667,11.125L70.40833333333333,-22.25L70.55,11.125L70.59666666666666,11.125L71.89666666666668,11.125L71.91333333333334,-11.125L72.03,-11.125L72.14333333333333,89L72.26833333333333,-22.25L72.37833333333333,11.125L72.56666666666666,-11.125L72.78333333333333,0L72.80166666666668,0L72.835,11.125L73.23,155.75L73.57833333333333,-11.125L73.80333333333334,22.25L73.80666666666667,22.25L73.87,-11.125L74.36833333333334,-11.125L74.53166666666667,0L74.545,-11.125L74.83500000000001,11.125L74.89,-22.25L75.42166666666667,-22.25L75.55333333333333,44.5L75.65166666666667,-11.125L76.35333333333334,44.5L76.41166666666668,-22.25L76.535,0L77.17166666666667,0L77.995,-11.125L77.99666666666667,0L78.59,11.125L78.59833333333333,-22.25L79.70833333333334,-22.25L79.86,11.125L80.73,22.25L80.905,0L81.61666666666666,-11.125L81.66,22.25L81.77000000000001,-11.125L82.00166666666668,0L82.105,-11.125L82.45166666666667,0L82.47833333333332,0L82.685,11.125L83.04833333333333,-11.125L83.34166666666665,0L83.38499999999999,0L83.62333333333333,-22.25L84.11666666666667,-11.125L84.35333333333334,11.125L84.51,11.125L84.53333333333333,-22.25L85.67666666666666,55.625L85.73833333333334,33.375L86.16,0L86.46666666666667,-11.125L86.55999999999999,33.375L86.67333333333333,0L87.01166666666667,89L87.39166666666667,22.25L87.57,0L87.76166666666667,22.25L87.93666666666667,-22.25L88.15666666666667,0L88.17,11.125L88.39,111.25L88.63499999999999,-22.25L88.785,44.5L88.95833333333333,-11.125L89.00500000000001,33.375L89.56166666666667,-11.125L89.58166666666668,33.375L89.61333333333333,55.625L89.64166666666667,33.375L89.73166666666667,-11.125L89.85499999999999,200.25L90.06,0L90.60333333333334,-11.125L90.63833333333334,0L90.875,-11.125L90.99833333333332,0L91.305,-22.25L92.22166666666666,0L92.25666666666666,0L92.29499999999999,-22.25L92.47166666666666,2258.375L92.62166666666667,0L92.95166666666667,-11.125L93.08166666666666,22.25L93.25500000000001,0L93.39500000000001,-11.125L93.74333333333334,44.5L93.79166666666667,33.375L94.38166666666667,-11.125L94.43166666666667,-11.125L94.61166666666666,0L94.75,0L94.845,-22.25L95.33666666666667,22.25L95.81500000000001,0L96.27333333333333,55.625L96.46000000000001,-22.25L96.98666666666666,33.375L97.39833333333334,-22.25L97.425,-22.25L97.86666666666667,11.125L98.06666666666666,11.125L98.30166666666666,11.125L98.82666666666667,11.125L99.50333333333334,-11.125L99.635,0L99.79666666666667,55.625L99.84833333333333,-11.125L100.03333333333333,33.375L100.49333333333333,33.375L100.83333333333334,155.75L101.105,-11.125L101.11166666666666,-11.125L101.16666666666666,66.75L101.19999999999999,66.75L101.32166666666666,-11.125L101.73333333333332,44.5L102.07333333333334,-11.125L102.11833333333334,-22.25L102.235,33.375L102.565,-11.125L102.59166666666667,0L103.55666666666666,-22.25L104.11333333333333,-11.125L104.46333333333334,66.75L105.86333333333334,0L106.01166666666666,0L106.065,-22.25L106.185,0L106.23,0L106.23666666666666,0L106.34166666666667,0L106.655,-11.125L106.78833333333334,11.125L107,-11.125L107.01166666666667,-11.125L107.085,22.25L107.17333333333333,0L108.02666666666667,-11.125L108.27333333333334,-11.125L108.85000000000001,0L108.865,-11.125L109.17833333333334,211.375L109.43,0L110.53,0L110.55666666666666,11.125L110.68833333333333,-11.125L110.83166666666666,33.375L112.16833333333332,-11.125L112.84166666666667,-11.125L112.90666666666667,44.5L113.13666666666667,-22.25L113.245,-22.25L113.28333333333333,11.125L113.46,44.5L113.635,22.25L113.71166666666666,11.125L114.20333333333333,22.25L114.74000000000001,-22.25L115.45333333333333,-22.25L115.585,0L115.795,0L116.67666666666666,22.25L116.75999999999999,-11.125L116.91499999999999,66.75L116.94166666666668,66.75L116.99166666666666,11.125L117.11333333333333,0L117.71499999999999,0L118.03166666666667,-11.125L118.29833333333333,55.625L118.55666666666666,0L118.71166666666666,44.5L118.80333333333333,-11.125L119.66333333333333,-11.125L119.67666666666668,55.625L119.92333333333333,-11.125L120.00166666666667,-11.125L120.48666666666666,55.625L120.58833333333332,66.75L120.85,11.125L121.13666666666666,33.375L121.51,-22.25L121.565,-11.125L121.82000000000001,0L121.845,-11.125L122.44666666666666,0L122.84333333333333,55.625L122.85499999999999,44.5L122.86166666666666,33.375L122.86833333333333,44.5L123.10333333333334,-22.25L123.17666666666666,0L123.45333333333333,11.125L123.51333333333334,33.375L123.53833333333334,11.125L123.735,0L124.485,-11.125L124.67833333333333,-11.125L124.895,44.5L124.97,-22.25L125.32166666666666,-22.25L125.49833333333333,11.125L125.905,11.125L125.91833333333332,-11.125L127.535,-11.125L127.67999999999999,22.25L127.97833333333334,-11.125L128.33166666666668,-22.25L128.83166666666665,22.25L128.84166666666667,22.25L129.14,-11.125L129.6,22.25L130.49166666666667,22.25L130.73333333333332,0L130.92666666666668,0L131.06833333333333,144.625L131.19833333333332,33.375L131.24333333333334,-11.125L132.10666666666665,-11.125L132.185,22.25L132.38666666666666,33.375L132.73333333333332,33.375L132.78333333333333,11.125L133.63166666666666,11.125L133.64166666666665,0L133.67833333333334,0L133.82833333333335,-11.125L134.125,-11.125L135.34166666666667,11.125L135.46,11.125L135.73000000000002,0L135.89000000000001,0L136.13333333333333,-11.125L137.57833333333335,189.125L138.12333333333333,11.125L138.37333333333333,33.375L138.7,0L139.04666666666668,-11.125L139.45166666666668,-22.25L139.775,33.375L139.98000000000002,0L140.16333333333333,0L140.375,22.25L140.85166666666666,0L140.86833333333334,0L141.14499999999998,44.5L141.48166666666665,11.125L142.07500000000002,11.125L142.15333333333334,22.25L142.41666666666666,-11.125L142.46833333333333,33.375L142.66833333333332,55.625L142.73833333333334,11.125L142.84833333333333,33.375L143.17833333333334,-11.125L143.415,89L143.82999999999998,44.5L144.645,11.125L144.91333333333333,-22.25L144.96,-22.25L145.035,0L145.73333333333332,-11.125L147.29666666666665,-11.125L147.38166666666666,11.125L147.65,-22.25L148.215,0L148.31333333333333,11.125L148.61833333333334,-11.125L148.64166666666665,0L149.09166666666667,-22.25L149.12666666666667,-22.25L149.53166666666667,44.5L149.66333333333333,22.25L149.85833333333335,0L150.77,66.75L150.96666666666667,44.5L151.09333333333333,-11.125L151.525,11.125L151.66,11.125L152.38,66.75L152.59,11.125L152.63333333333333,-11.125L152.82666666666665,44.5L153.08333333333334,0L153.17666666666665,0L153.26166666666666,0L153.29833333333332,-11.125L153.35333333333332,-11.125L153.39499999999998,11.125L153.82833333333335,11.125L153.83166666666665,11.125L154.00166666666667,22.25L154.00666666666666,22.25L154.26333333333332,-11.125L154.53833333333333,0L154.78833333333333,89L155.01500000000001,44.5L155.29833333333335,-22.25L155.53,0L156.315,22.25L156.32333333333332,33.375L156.40166666666667,11.125L156.50166666666667,44.5L156.54000000000002,11.125L156.97833333333332,0L158.16833333333332,33.375L158.61833333333334,-11.125L159.115,-11.125L159.14499999999998,0L159.27833333333334,22.25L159.88000000000002,0L160.16500000000002,22.25L160.36333333333334,0L160.71833333333333,-11.125L161.52166666666668,-11.125L161.99666666666667,0L162.54999999999998,-11.125L163.00333333333333,55.625L163.16833333333335,44.5L163.55833333333334,22.25L163.67999999999998,22.25L163.775,100.125L164.625,33.375L164.73833333333334,-22.25L164.89,-22.25L164.95499999999998,0L165.00833333333333,0L165.6966666666667,0L165.995,0L166.625,-11.125L166.71833333333333,11.125L166.725,-11.125L166.94166666666666,-11.125L167.31666666666666,0L167.34333333333333,-11.125L167.58333333333331,11.125L167.62666666666667,11.125L167.68833333333333,-11.125L168.32666666666665,0L168.35833333333332,-22.25L168.52833333333334,11.125L168.96833333333333,11.125L169.15666666666667,-22.25L169.92000000000002,-11.125L171.22666666666666,0L171.28333333333333,2269.5L171.41500000000002,44.5L171.79166666666669,-11.125L171.87833333333333,0L172.11166666666668,-11.125L172.51666666666665,11.125L172.9366666666667,0L173.205,-22.25L173.60833333333332,144.625L173.66166666666666,155.75L174.015,89L174.33499999999998,44.5L174.4766666666667,-11.125L174.69666666666666,22.25L175.03333333333333,22.25L175.08666666666667,22.25L175.1483333333333,11.125L175.28166666666667,33.375L175.53333333333333,0L175.84666666666666,22.25L175.89833333333334,0L175.95333333333332,11.125L176.14333333333335,11.125L176.24833333333333,11.125L176.64166666666668,-11.125L177.96666666666667,-11.125L177.98833333333334,0L178.10833333333332,-11.125L178.98833333333332,-22.25L179.08333333333334,0L179.26000000000002,-11.125L179.715,-11.125L180.22833333333332,0L181.12333333333333,44.5L181.35833333333332,44.5L182.10333333333332,-22.25L182.245,0L182.27166666666665,0L182.90833333333333,-11.125L182.93666666666667,-11.125L183.15333333333334,11.125L183.28833333333333,-22.25L183.39166666666665,55.625L183.72833333333332,0L184.08333333333334,0L185.1233333333333,0L185.15666666666667,-11.125L185.5,22.25L185.79,33.375L186.04,0L186.07333333333335,-11.125L186.07833333333335,-11.125L186.22,22.25L186.225,22.25L186.82333333333332,22.25L186.86666666666667,-11.125L187.88166666666666,11.125L187.98000000000002,-22.25L188.705,-22.25L189.11833333333334,11.125L189.835,33.375L190.63333333333335,-11.125L190.89333333333335,0L191.30666666666667,0L191.48499999999999,11.125L191.76166666666668,11.125L191.97333333333333,-11.125L192.20166666666665,-22.25L192.29500000000002,22.25L192.34833333333333,11.125L192.46666666666667,0L193.10000000000002,55.625L193.24833333333333,0L193.28666666666666,-11.125L193.835,55.625L194.225,-22.25L194.33333333333334,22.25L195.03,-11.125L195.26000000000002,22.25L195.37666666666667,-22.25L195.9933333333333,-11.125L196.23666666666668,11.125L196.32666666666668,-11.125L196.64333333333335,-22.25L196.8983333333333,0L197.01999999999998,89L197.34,11.125L197.45666666666668,0L197.53833333333336,-22.25L198.42499999999998,-11.125L199.17666666666665,11.125L199.35333333333335,0L199.35666666666668,22.25L199.80666666666664,-22.25L200.47333333333333,0L200.94333333333333,-22.25L200.98166666666665,-11.125L201.25166666666667,22.25L201.43,11.125L201.52833333333334,33.375L201.54333333333335,33.375L201.66166666666666,-11.125L201.78666666666666,-11.125L201.925,11.125L202.05666666666667,11.125L202.22500000000002,-11.125L203.23833333333332,-11.125L203.845,22.25L204.18166666666667,11.125L204.23499999999999,0L204.32500000000002,-22.25L204.79999999999998,-22.25L204.85166666666666,55.625L204.94333333333333,33.375L205.0016666666667,0L205.01833333333332,11.125L205.34333333333333,22.25L205.76999999999998,33.375L205.86166666666665,33.375L206.57833333333332,11.125L207.1266666666667,-11.125L207.22333333333336,0L207.84,22.25L208.01333333333332,-11.125L208.0366666666667,11.125L208.06833333333333,11.125L208.13666666666666,55.625L208.16,66.75L208.18499999999997,77.875L208.20666666666665,66.75L208.27166666666665,11.125L208.48833333333334,11.125L208.77499999999998,33.375L209.05666666666667,-22.25L209.35,22.25L209.50333333333333,11.125L209.6233333333333,11.125L209.64666666666668,0L210.35000000000002,55.625L210.445,0L210.65,11.125L210.94333333333333,22.25L211.10999999999999,55.625L211.28166666666667,44.5L211.83833333333334,11.125L212.94,11.125L213.00666666666666,-22.25L213.06166666666667,-22.25L213.36833333333334,11.125L214.08166666666668,11.125L214.31,44.5L215.40333333333334,-11.125L215.405,-11.125L215.50166666666667,0L215.835,200.25L215.96666666666667,0L216.36999999999998,33.375L216.77166666666665,11.125L216.98499999999999,-11.125L217.04000000000002,-11.125L217.36333333333334,22.25L217.4633333333333,22.25L217.64333333333335,66.75L217.70333333333332,22.25L217.735,11.125L217.895,-22.25L218.725,-22.25L218.87166666666664,0L219.24166666666667,0L219.49666666666664,-22.25L219.8116666666667,0L219.85833333333332,0L220.78333333333333,-11.125L221.10666666666668,0L221.17166666666665,0L221.50333333333333,33.375L222.20333333333332,44.5L222.43833333333333,0L222.64833333333334,-11.125L222.90166666666667,0L223.29999999999998,-11.125L224.09833333333333,-11.125L224.11166666666668,0L224.7,22.25L225.16000000000003,0L225.24833333333333,0L225.84333333333333,0L225.86333333333332,0L226.275,-11.125L226.46333333333334,-11.125L226.73166666666665,11.125L226.88166666666666,66.75L227.42166666666668,33.375L227.70666666666668,33.375L227.78833333333336,44.5L227.85166666666666,-22.25L227.90833333333333,-22.25L227.97166666666666,22.25L228.0366666666667,22.25L228.23000000000002,-11.125L228.35999999999999,55.625L228.38333333333335,22.25L228.41166666666666,0L228.59166666666667,11.125L229.39166666666665,44.5L229.70833333333334,-11.125L229.90166666666667,33.375L230.26833333333335,44.5L230.31666666666666,33.375L231.085,-22.25L231.51333333333335,-22.25L231.56166666666667,0L231.66333333333333,-11.125L232.17000000000002,-22.25L232.45000000000002,0L233.29833333333335,-11.125L233.32333333333335,0L233.81833333333333,77.875L234.75666666666666,-22.25L235.3216666666667,-22.25L235.50666666666666,11.125L235.5533333333333,66.75L235.60333333333332,66.75L235.67166666666668,0L235.865,0L236.39166666666665,0L236.46166666666667,22.25L236.52166666666668,33.375L237.00833333333333,11.125L237.06,-22.25L237.54833333333335,144.625L237.70333333333332,33.375L237.72333333333333,77.875L237.89833333333334,77.875L238.44666666666666,0L239.34833333333333,-11.125L239.38833333333335,44.5L239.44333333333333,89L240.17166666666668,22.25L240.28166666666667,-11.125L240.32833333333332,44.5L240.88666666666666,0L241.185,-22.25L241.29,-22.25L241.36333333333332,55.625L241.73833333333334,-22.25L242.15,2202.75L244.07333333333332,0L244.47833333333335,44.5L244.89166666666665,0L244.98,-22.25L245.16166666666666,55.625L245.38333333333335,-22.25L245.99166666666667,-11.125L246.06166666666667,0L246.24333333333334,0L246.255,-11.125L246.36166666666665,-11.125L246.4633333333333,0L246.4933333333333,11.125L246.85333333333335,-22.25L247.17333333333335,-22.25L247.3466666666667,0L247.45,33.375L247.73999999999998,-11.125L248.64333333333335,-22.25L248.86333333333332,11.125L249.01,11.125L249.02999999999997,0L249.04333333333335,22.25L249.17000000000002,-11.125L249.24166666666667,-11.125L249.45333333333332,0L249.70666666666665,-11.125L249.875,-11.125L250.1183333333333,0L250.275,0L250.52666666666667,66.75L251.17166666666665,0L251.54333333333332,22.25L251.64333333333332,0L251.685,0L252.485,22.25L252.50333333333333,0L252.8,0L252.8383333333333,-11.125L252.89,0L253.12666666666667,0L253.15,11.125L254.17666666666665,0L254.45999999999998,22.25L254.86,11.125L254.88666666666666,0L255.34333333333333,-22.25L255.53,-11.125L255.82666666666668,11.125L255.88,11.125L256,55.625L256.43333333333334,44.5L256.67833333333334,-22.25L257.315,-22.25L257.45666666666665,22.25L258.04833333333335,0L258.08666666666664,-11.125L259.35833333333335,-22.25L259.7866666666667,11.125L260.3483333333333,77.875L260.4666666666667,-22.25L260.59666666666664,77.875L261.12166666666667,-22.25L261.15500000000003,-22.25L261.705,33.375L261.7583333333333,44.5L262.08666666666664,0L262.47,100.125L262.60833333333335,-11.125L262.90666666666664,-11.125L263.27666666666664,22.25L263.59333333333336,-11.125L264.0733333333333,44.5L264.12,44.5L264.2633333333333,0L264.8983333333333,-11.125L264.935,44.5L265.43,11.125L265.6716666666667,-11.125L265.74833333333333,-22.25L266.625,100.125L266.69166666666666,11.125L266.705,11.125L266.7416666666667,22.25L266.7583333333333,-11.125L266.885,-11.125L266.94166666666666,11.125L267.08666666666664,77.875L267.1383333333333,-22.25L267.9166666666667,-11.125L268.2116666666667,77.875L268.315,11.125L268.7033333333333,-11.125L268.7133333333333,-11.125L269.755,22.25L269.815,22.25L269.97666666666663,11.125L270.29833333333335,0L270.32666666666665,-11.125L270.3283333333333,0L270.82666666666665,22.25L270.88666666666666,-11.125L271.25166666666667,33.375L271.4866666666667,-22.25L271.9766666666667,22.25L272.2366666666667,44.5L272.475,-22.25L272.945,-11.125L272.9866666666667,22.25L273.19666666666666,22.25L273.31333333333333,0L273.595,0L273.71,66.75L273.80833333333334,-11.125L274.2133333333333,-11.125L275.4666666666667,11.125L276.02,11.125L276.03833333333336,-11.125L276.185,66.75L276.25,33.375L276.3183333333333,11.125L276.55333333333334,-22.25L277.33166666666665,-22.25L277.82666666666665,22.25L278.82666666666665,0L278.9266666666667,-22.25L278.9433333333333,-22.25L279.1516666666667,33.375L280.105,0L280.315,44.5L280.47999999999996,11.125L280.70666666666665,0L280.91,55.625L281.00666666666666,33.375L281.12166666666667,33.375L281.12833333333333,0L281.2966666666667,-22.25L282.4033333333333,-11.125L282.59166666666664,22.25L282.805,22.25L282.83,33.375L282.94666666666666,0L283.1433333333334,22.25L283.22833333333335,33.375L283.3433333333333,-11.125L283.35,11.125L284.22833333333335,44.5L284.26,44.5L284.3933333333333,11.125L284.5966666666667,0L284.77166666666665,-11.125L285.1533333333333,-11.125L285.2216666666667,0L285.37833333333333,55.625L285.46,11.125L285.4866666666667,11.125L285.62166666666667,-11.125L285.76,-11.125L285.905,0L285.935,-11.125L286.15999999999997,44.5L286.38666666666666,0L287.0316666666667,0L287.09333333333336,22.25L287.53833333333336,-22.25L289.26,-22.25L289.37166666666667,0L289.47333333333336,-22.25L289.64166666666665,22.25L290.0733333333333,0L290.18,-22.25L291.64666666666665,-22.25L291.9816666666667,11.125L292.1116666666667,0L292.12666666666667,-11.125L292.64,-11.125L292.8666666666667,0L292.89166666666665,11.125L293.0166666666667,22.25" style="fill: none;" fill="none"></path></g></g></g></g></g></g><g transform="translate(30, 178)" clip-path="url(#clip_1)"><clipPath id="clip_1"><rect width="300" height="22"></rect></clipPath><g><g><line x1="0" y1="0" x2="0" y2="5" style="visibility: inherit;" fill="rgb(0, 0, 0)" stroke="rgb(204, 204, 204)" stroke-width="1px"></line><line x1="33.33333333333333" y1="0" x2="33.33333333333333" y2="5" style="visibility: inherit;" fill="rgb(0, 0, 0)" stroke="rgb(204, 204, 204)" stroke-width="1px"></line><line x1="66.66666666666666" y1="0" x2="66.66666666666666" y2="5" style="visibility: inherit;" fill="rgb(0, 0, 0)" stroke="rgb(204, 204, 204)" stroke-width="1px"></line><line x1="100" y1="0" x2="100" y2="5" style="visibility: inherit;" fill="rgb(0, 0, 0)" stroke="rgb(204, 204, 204)" stroke-width="1px"></line><line x1="133.33333333333331" y1="0" x2="133.33333333333331" y2="5" style="visibility: inherit;" fill="rgb(0, 0, 0)" stroke="rgb(204, 204, 204)" stroke-width="1px"></line><line x1="166.66666666666669" y1="0" x2="166.66666666666669" y2="5" style="visibility: inherit;" fill="rgb(0, 0, 0)" stroke="rgb(204, 204, 204)" stroke-width="1px"></line><line x1="200" y1="0" x2="200" y2="5" style="visibility: inherit;" fill="rgb(0, 0, 0)" stroke="rgb(204, 204, 204)" stroke-width="1px"></line><line x1="233.33333333333334" y1="0" x2="233.33333333333334" y2="5" style="visibility: inherit;" fill="rgb(0, 0, 0)" stroke="rgb(204, 204, 204)" stroke-width="1px"></line><line x1="266.66666666666663" y1="0" x2="266.66666666666663" y2="5" style="visibility: inherit;" fill="rgb(0, 0, 0)" stroke="rgb(204, 204, 204)" stroke-width="1px"></line><line x1="300" y1="0" x2="300" y2="5" style="visibility: inherit;" fill="rgb(0, 0, 0)" stroke="rgb(204, 204, 204)" stroke-width="1px"></line></g><g transform="translate(0, 8)"><text x="0" y="0" dx="0em" dy="0.95em" style="text-anchor: middle; visibility: hidden; font-family: &quot;Helvetica Neue&quot;, sans-serif; font-size: 12px; font-weight: 200;" fill="rgb(50, 49, 63)" stroke="none" stroke-width="1px">-20k</text><text x="33.33333333333333" y="0" dx="0em" dy="0.95em" style="text-anchor: middle; visibility: inherit; font-family: &quot;Helvetica Neue&quot;, sans-serif; font-size: 12px; font-weight: 200;" fill="rgb(50, 49, 63)" stroke="none" stroke-width="1px">0</text><text x="66.66666666666666" y="0" dx="0em" dy="0.95em" style="text-anchor: middle; visibility: inherit; font-family: &quot;Helvetica Neue&quot;, sans-serif; font-size: 12px; font-weight: 200;" fill="rgb(50, 49, 63)" stroke="none" stroke-width="1px">20k</text><text x="100" y="0" dx="0em" dy="0.95em" style="text-anchor: middle; visibility: inherit; font-family: &quot;Helvetica Neue&quot;, sans-serif; font-size: 12px; font-weight: 200;" fill="rgb(50, 49, 63)" stroke="none" stroke-width="1px">40k</text><text x="133.33333333333331" y="0" dx="0em" dy="0.95em" style="text-anchor: middle; visibility: inherit; font-family: &quot;Helvetica Neue&quot;, sans-serif; font-size: 12px; font-weight: 200;" fill="rgb(50, 49, 63)" stroke="none" stroke-width="1px">60k</text><text x="166.66666666666669" y="0" dx="0em" dy="0.95em" style="text-anchor: middle; visibility: inherit; font-family: &quot;Helvetica Neue&quot;, sans-serif; font-size: 12px; font-weight: 200;" fill="rgb(50, 49, 63)" stroke="none" stroke-width="1px">80k</text><text x="200" y="0" dx="0em" dy="0.95em" style="text-anchor: middle; visibility: inherit; font-family: &quot;Helvetica Neue&quot;, sans-serif; font-size: 12px; font-weight: 200;" fill="rgb(50, 49, 63)" stroke="none" stroke-width="1px">100k</text><text x="233.33333333333334" y="0" dx="0em" dy="0.95em" style="text-anchor: middle; visibility: inherit; font-family: &quot;Helvetica Neue&quot;, sans-serif; font-size: 12px; font-weight: 200;" fill="rgb(50, 49, 63)" stroke="none" stroke-width="1px">120k</text><text x="266.66666666666663" y="0" dx="0em" dy="0.95em" style="text-anchor: middle; visibility: inherit; font-family: &quot;Helvetica Neue&quot;, sans-serif; font-size: 12px; font-weight: 200;" fill="rgb(50, 49, 63)" stroke="none" stroke-width="1px">140k</text><text x="300" y="0" dx="0em" dy="0.95em" style="text-anchor: middle; visibility: hidden; font-family: &quot;Helvetica Neue&quot;, sans-serif; font-size: 12px; font-weight: 200;" fill="rgb(50, 49, 63)" stroke="none" stroke-width="1px">160k</text></g><line x1="0" y1="0" x2="300" y2="0" fill="rgb(0, 0, 0)" stroke="rgb(204, 204, 204)" stroke-width="1px"></line></g></g></g></g></svg>