<svg viewBox="0 0 330 200" xmlns="http://www.w3.org/2000/svg"><g><g><g><g><g><line x1="30" y1="178" x2="25" y2="178" style="visibility: inherit;" fill="rgb(0, 0, 0)" stroke="rgb(204, 204, 204)" stroke-width="1px"></line><line x1="30" y1="155.75" x2="25" y2="155.75" style="visibility: inherit;" fill="rgb(0, 0, 0)" stroke="rgb(204, 204, 204)" stroke-width="1px"></line><line x1="30" y1="133.5" x2="25" y2="133.5" style="visibility: inherit;" fill="rgb(0, 0, 0)" stroke="rgb(204, 204, 204)" stroke-width="1px"></line><line x1="30" y1="111.25" x2="25" y2="111.25" style="visibility: inherit;" fill="rgb(0, 0, 0)" stroke="rgb(204, 204, 204)" stroke-width="1px"></line><line x1="30" y1="89" x2="25" y2="89" style="visibility: inherit;" fill="rgb(0, 0, 0)" stroke="rgb(204, 204, 204)" stroke-width="1px"></line><line x1="30" y1="66.75" x2="25" y2="66.75" style="visibility: inherit;" fill="rgb(0, 0, 0)" stroke="rgb(204, 204, 204)" stroke-width="1px"></line><line x1="30" y1="44.5" x2="25" y2="44.5" style="visibility: inherit;" fill="rgb(0, 0, 0)" stroke="rgb(204, 204, 204)" stroke-width="1px"></line><line x1="30" y1="22.25" x2="25" y2="22.25" style="visibility: inherit;" fill="rgb(0, 0, 0)" stroke="rgb(204, 204, 204)" stroke-width="1px"></line><line x1="30" y1="0" x2="25" y2="0" style="visibility: inherit;" fill="rgb(0, 0, 0)" stroke="rgb(204, 204, 204)" stroke-width="1px"></line></g><g transform="translate(20, 0)"><text x="0" y="178" dx="0em" dy="0.3em" style="text-anchor: end; visibility: hidden; font-family: &quot;Helvetica Neue&quot;, sans-serif; font-size: 12px; font-weight: 200;" fill="rgb(50, 49, 63)" stroke="none" stroke-width="1px">82</text><text x="0" y="155.75" dx="0em" dy="0.3em" style="text-anchor: end; visibility: inherit; font-family: &quot;Helvetica Neue&quot;, sans-serif; font-size: 12px; font-weight: 200;" fill="rgb(50, 49, 63)" stroke="none" stroke-width="1px">84</text><text x="0" y="133.5" dx="0em" dy="0.3em" style="text-anchor: end; visibility: hidden; font-family: &quot;Helvetica Neue&quot;, sans-serif; font-size: 12px; font-weight: 200;" fill="rgb(50, 49, 63)" stroke="none" stroke-width="1px">86</text><text x="0" y="111.25" dx="0em" dy="0.3em" style="text-anchor: end; visibility: inherit; font-family: &quot;Helvetica Neue&quot;, sans-serif; font-size: 12px; font-weight: 200;" fill="rgb(50, 49, 63)" stroke="none" stroke-width="1px">88</text><text x="0" y="89" dx="0em" dy="0.3em" style="text-anchor: end; visibility: hidden; font-family: &quot;Helvetica Neue&quot;, sans-serif; font-size: 12px; font-weight: 200;" fill="rgb(50, 49, 63)" stroke="none" stroke-width="1px">90</text><text x="0" y="66.75" dx="0em" dy="0.3em" style="text-anchor: end; visibility: inherit; font-family: &quot;Helvetica Neue&quot;, sans-serif; font-size: 12px; font-weight: 200;" fill="rgb(50, 49, 63)" stroke="none" stroke-width="1px">92</text><text x="0" y="44.5" dx="0em" dy="0.3em" style="text-anchor: end; visibility: hidden; font-family: &quot;Helvetica Neue&quot;, sans-serif; font-size: 12px; font-weight: 200;" fill="rgb(50, 49, 63)" stroke="none" stroke-width="1px">94</text><text x="0" y="22.25" dx="0em" dy="0.3em" style="text-anchor: end; visibility: inherit; font-family: &quot;Helvetica Neue&quot;, sans-serif; font-size: 12px; font-weight: 200;" fill="rgb(50, 49, 63)" stroke="none" stroke-width="1px">96</text><text x="0" y="0" dx="0em" dy="0.3em" style="text-anchor: end; visibility: hidden; font-family: &quot;Helvetica Neue&quot;, sans-serif; font-size: 12px; font-weight: 200;" fill="rgb(50, 49, 63)" stroke="none" stroke-width="1px">98</text></g><line x1="30" y1="0" x2="30" y2="178" fill="rgb(0, 0, 0)" stroke="rgb(204, 204, 204)" stroke-width="1px"></line></g></g><g transform="translate(30, 0)" clip-path="url(#clip_0)"><clipPath id="clip_0"><rect width="300" height="178"></rect></clipPath><g><g><g><line x1="0" y1="0" x2="0" y2="178" fill="rgb(0, 0, 0)" stroke="rgb(60, 60, 60)" stroke-width="1px" opacity="0.25"></line><line x1="33.33333333333333" y1="0" x2="33.33333333333333" y2="178" fill="rgb(0, 0, 0)" stroke="rgb(60, 60, 60)" stroke-width="1px" opacity="0.25"></line><line x1="66.66666666666666" y1="0" x2="66.66666666666666" y2="178" fill="rgb(0, 0, 0)" stroke="rgb(60, 60, 60)" stroke-width="1px" opacity="0.25"></line><line x1="100" y1="0" x2="100" y2="178" fill="rgb(0, 0, 0)" stroke="rgb(60, 60, 60)" stroke-width="1px" opacity="0.25"></line><line x1="133.33333333333331" y1="0" x2="133.33333333333331" y2="178" fill="rgb(0, 0, 0)" stroke="rgb(60, 60, 60)" stroke-width="1px" opacity="0.25"></line><line x1="166.66666666666669" y1="0" x2="166.66666666666669" y2="178" fill="rgb(0, 0, 0)" stroke="rgb(60, 60, 60)" stroke-width="1px" opacity="0.25"></line><line x1="200" y1="0" x2="200" y2="178" fill="rgb(0, 0, 0)" stroke="rgb(60, 60, 60)" stroke-width="1px" opacity="0.25"></line><line x1="233.33333333333334" y1="0" x2="233.33333333333334" y2="178" fill="rgb(0, 0, 0)" stroke="rgb(60, 60, 60)" stroke-width="1px" opacity="0.25"></line><line x1="266.66666666666663" y1="0" x2="266.66666666666663" y2="178" fill="rgb(0, 0, 0)" stroke="rgb(60, 60, 60)" stroke-width="1px" opacity="0.25"></line><line x1="300" y1="0" x2="300" y2="178" fill="rgb(0, 0, 0)" stroke="rgb(60, 60, 60)" stroke-width="1px" opacity="0.25"></line></g><g><line x1="0" y1="178" x2="300" y2="178" fill="rgb(0, 0, 0)" stroke="rgb(60, 60, 60)" stroke-width="1px" opacity="0.25"></line><line x1="0" y1="155.75" x2="300" y2="155.75" fill="rgb(0, 0, 0)" stroke="rgb(60, 60, 60)" stroke-width="1px" opacity="0.25"></line><line x1="0" y1="133.5" x2="300" y2="133.5" fill="rgb(0, 0, 0)" stroke="rgb(60, 60, 60)" stroke-width="1px" opacity="0.25"></line><line x1="0" y1="111.25" x2="300" y2="111.25" fill="rgb(0, 0, 0)" stroke="rgb(60, 60, 60)" stroke-width="1px" opacity="0.25"></line><line x1="0" y1="89" x2="300" y2="89" fill="rgb(0, 0, 0)" stroke="rgb(60, 60, 60)" stroke-width="1px" opacity="0.25"></line><line x1="0" y1="66.75" x2="300" y2="66.75" fill="rgb(0, 0, 0)" stroke="rgb(60, 60, 60)" stroke-width="1px" opacity="0.25"></line><line x1="0" y1="44.5" x2="300" y2="44.5" fill="rgb(0, 0, 0)" stroke="rgb(60, 60, 60)" stroke-width="1px" opacity="0.25"></line><line x1="0" y1="22.25" x2="300" y2="22.25" fill="rgb(0, 0, 0)" stroke="rgb(60, 60, 60)" stroke-width="1px" opacity="0.25"></line><line x1="0" y1="0" x2="300" y2="0" fill="rgb(0, 0, 0)" stroke="rgb(60, 60, 60)" stroke-width="1px" opacity="0.25"></line></g></g></g><g><g><line x1="0" y1="1090.25" x2="300" y2="1090.25" fill="rgb(0, 0, 0)" stroke="rgb(153, 153, 153)" stroke-width="1.5px"></line></g></g><g><g><line x1="33.33333333333333" y1="0" x2="33.33333333333333" y2="178" fill="rgb(0, 0, 0)" stroke="rgb(153, 153, 153)" stroke-width="1.5px"></line></g></g><g><g><g><g><g><path stroke="rgb(51, 187, 238)" stroke-width="2px" d="M33.40333333333333,2202.75L33.611666666666665,33.375L33.715,2213.875L34.123333333333335,0L34.22666666666667,0L34.29833333333333,11.125L34.31,22.25L34.39,33.375L34.41166666666667,11.125L34.52333333333333,-22.25L34.68,22.25L35.02333333333333,-11.125L35.555,22.25L35.641666666666666,-22.25L35.72666666666667,-11.125L36.223333333333336,0L36.22833333333333,-11.125L36.72666666666667,-11.125L37.178333333333335,22.25L37.315,-22.25L37.475,55.625L37.47666666666667,66.75L37.80833333333333,11.125L38.39666666666667,-11.125L38.71666666666667,0L38.74333333333333,0L38.84166666666666,44.5L39.36333333333334,0L39.36666666666667,0L39.45,2202.75L39.70166666666667,11.125L39.92666666666667,55.625L40.52833333333333,-22.25L40.66666666666667,11.125L40.82,33.375L40.848333333333336,44.5L41.12666666666667,0L41.61833333333333,0L41.89,-22.25L42.24166666666666,44.5L42.265,11.125L42.87166666666667,44.5L43.10666666666667,-11.125L43.17833333333333,-11.125L43.31666666666667,33.375L43.666666666666664,-22.25L44.51833333333333,-11.125L44.75666666666667,66.75L44.943333333333335,0L45.25833333333333,-11.125L45.766666666666666,44.5L45.77166666666667,33.375L46.33,-11.125L46.388333333333335,-11.125L46.776666666666664,0L46.96666666666667,44.5L47.035,222.5L47.513333333333335,-22.25L47.66833333333334,100.125L48.13,-11.125L48.225,11.125L48.766666666666666,-22.25L49.11333333333334,0L49.25666666666667,0L49.27833333333333,22.25L49.49666666666666,-11.125L50.665,22.25L50.79833333333333,11.125L50.870000000000005,-22.25L51.01166666666666,0L51.300000000000004,0L51.50333333333334,44.5L51.50833333333334,44.5L51.61000000000001,-11.125L51.7,33.375L51.836666666666666,0L52.55333333333333,-22.25L52.93166666666667,-22.25L53.281666666666666,11.125L53.29,2358.5L53.60666666666667,-22.25L53.81666666666666,0L54.795,0L55.056666666666665,-22.25L55.10166666666666,0L55.995000000000005,-11.125L56.03333333333333,55.625L56.349999999999994,-11.125L57.035,0L57.156666666666666,11.125L57.23,11.125L57.41166666666667,0L57.730000000000004,-22.25L57.78,-22.25L57.965,33.375L58.12166666666666,44.5L59.12166666666667,11.125L59.178333333333335,0L59.60666666666667,0L60.19333333333333,-11.125L60.535000000000004,11.125L61.428333333333335,77.875L61.77666666666667,-22.25L62.595,-22.25L64.08500000000001,66.75L65.19333333333334,22.25L65.28166666666667,55.625L65.88499999999999,-22.25L66.21833333333333,-22.25L66.65833333333333,33.375L66.755,-11.125L66.77,11.125L66.89666666666666,33.375L67.07333333333332,0L67.08666666666667,-11.125L67.39999999999999,-22.25L67.565,44.5L67.63000000000001,22.25L67.965,11.125L67.97,11.125L68.09166666666667,11.125L68.46666666666667,0L68.57333333333332,-11.125L68.72,0L68.865,-11.125L69.205,-11.125L69.74666666666667,11.125L70.40833333333333,-22.25L70.55,11.125L70.59666666666666,11.125L71.89666666666668,11.125L71.91333333333334,-11.125L72.03,-11.125L72.14333333333333,89L72.26833333333333,-22.25L72.37833333333333,11.125L72.56666666666666,-11.125L72.78333333333333,0L72.80166666666668,0L72.835,11.125L73.23,155.75L73.57833333333333,-11.125L73.80333333333334,22.25L73.80666666666667,22.25L73.87,-11.125L74.36833333333334,-11.125L74.53166666666667,0L74.545,-11.125L74.83500000000001,11.125L74.89,-22.25L75.42166666666667,-22.25L75.55333333333333,44.5L75.65166666666667,-11.125L76.35333333333334,44.5L76.41166666666668,-22.25L76.535,0L77.17166666666667,0L77.995,-11.125L77.99666666666667,0L78.59,11.125L78.59833333333333,-22.25L79.70833333333334,-22.25L79.86,11.125L80.73,22.25L80.905,0L81.61666666666666,-11.125L81.66,22.25L81.77000000000001,-11.125L82.00166666666668,0L82.105,-11.125L82.45166666666667,0L82.47833333333332,0L82.685,11.125L83.04833333333333,-11.125L83.34166666666665,0L83.38499999999999,0L83.62333333333333,-22.25L84.11666666666667,-11.125L84.35333333333334,11.125L84.51,11.125L84.53333333333333,-22.25L85.67666666666666,55.625L85.73833333333334,33.375L86.16,0L86.46666666666667,-11.125L86.55999999999999,33.375L86.67333333333333,0L87.01166666666667,89L87.39166666666667,22.25L87.57,0L87.76166666666667,22.25L87.93666666666667,-22.25L88.15666666666667,0L88.17,11.125L88.39,111.25L88.63499999999999,-22.25L88.785,44.5L88.95833333333333,-11.125L89.00500000000001,33.375L89.56166666666667,-11.125L89.58166666666668,33.375L89.61333333333333,55.625L89.64166666666667,33.375L89.73166666666667,-11.125L89.85499999999999,200.25L90.06,0L90.60333333333334,-11.125L90.63833333333334,0L90.875,-11.125L90.99833333333332,0L91.305,-22.25L92.22166666666666,0L92.25666666666666,0L92.29499999999999,-22.25L92.47166666666666,2258.375L92.62166666666667,0L92.95166666666667,-11.125L93.08166666666666,22.25L93.25500000000001,0L93.39500000000001,-11.125L93.74333333333334,44.5L93.79166666666667,33.375L94.38166666666667,-11.125L94.43166666666667,-11.125L94.61166666666666,0L94.75,0L94.845,-22.25L95.33666666666667,22.25L95.81500000000001,0L96.27333333333333,55.625L96.46000000000001,-22.25L96.98666666666666,33.375L97.39833333333334,-22.25L97.425,-22.25L97.86666666666667,11.125L98.06666666666666,11.125L98.30166666666666,11.125L98.82666666666667,11.125L99.50333333333334,-11.125L99.635,0L99.79666666666667,55.625L99.84833333333333,-11.125L100.03333333333333,33.375L100.49333333333333,33.375L100.83333333333334,155.75L101.105,-11.125L101.11166666666666,-11.125L101.16666666666666,66.75L101.19999999999999,66.75L101.32166666666666,-11.125L101.73333333333332,44.5L102.07333333333334,-11.125L102.11833333333334,-22.25L102.235,33.375L102.565,-11.125L102.59166666666667,0L103.55666666666666,-22.25L104.11333333333333,-11.125L104.46333333333334,66.75L105.86333333333334,0L106.01166666666666,0L106.065,-22.25L106.185,0L106.23,0L106.23666666666666,0L106.34166666666667,0L106.655,-11.125L106.78833333333334,11.125L107,-11.125L107.01166666666667,-11.125L107.085,22.25L107.17333333333333,0L108.02666666666667,-11.125L108.27333333333334,-11.125L108.85000000000001,0L108.865,-11.125L109.17833333333334,211.375L109.43,0L110.53,0L110.55666666666666,11.125L110.68833333333333,-11.125L110.83166666666666,33.375L112.16833333333332,-11.125L112.84166666666667,-11.125L112.90666666666667,44.5L113.13666666666667,-22.25L113.245,-22.25L113.28333333333333,11.125L113.46,44.5L113.635,22.25L113.71166666666666,11.125L114.20333333333333,22.25L114.74000000000001,-22.25L115.45333333333333,-22.25L115.585,0L115.795,0L116.67666666666666,22.25L116.75999999999999,-11.125L116.91499999999999,66.75L116.94166666666668,66.75L116.99166666666666,11.125L117.11333333333333,0L117.71499999999999,0L118.03166666666667,-11.125L118.29833333333333,55.625L118.55666666666666,0L118.71166666666666,44.5L118.80333333333333,-11.125L119.66333333333333,-11.125L119.67666666666668,55.625L119.92333333333333,-11.125L120.00166666666667,-11.125L120.48666666666666,55.625L120.58833333333332,66.75L120.85,11.125L121.13666666666666,33.375L121.51,-22.25L121.565,-11.125L121.82000000000001,0L121.845,-11.125L122.44666666666666,0L122.84333333333333,55.625L122.85499999999999,44.5L122.86166666666666,33.375L122.86833333333333,44.5L123.10333333333334,-22.25L123.17666666666666,0L123.45333333333333,11.125L123.51333333333334,33.375L123.53833333333334,11.125L123.735,0L124.485,-11.125L124.67833333333333,-11.125L124.895,44.5L124.97,-22.25L125.32166666666666,-22.25L125.49833333333333,11.125L125.905,11.125L125.91833333333332,-11.125L127.535,-11.125L127.67999999999999,22.25L127.97833333333334,-11.125L128.33166666666668,-22.25L128.83166666666665,22.25L128.84166666666667,22.25L129.14,-11.125L129.6,22.25L130.49166666666667,22.25L130.73333333333332,0L130.92666666666668,0L131.06833333333333,144.625L131.19833333333332,33.375L131.24333333333334,-11.125L132.10666666666665,-11.125L132.185,22.25L132.38666666666666,33.375L132.73333333333332,33.375L132.78333333333333,11.125L133.63166666666666,11.125L133.64166666666665,0L133.67833333333334,0L133.82833333333335,-11.125L134.125,-11.125L135.34166666666667,11.125L135.46,11.125L135.73000000000002,0L135.89000000000001,0L136.13333333333333,-11.125L137.57833333333335,189.125L138.12333333333333,11.125L138.37333333333333,33.375L138.7,0L139.04666666666668,-11.125L139.45166666666668,-22.25L139.775,33.375L139.98000000000002,0L140.16333333333333,0L140.375,22.25L140.85166666666666,0L140.86833333333334,0L141.14499999999998,44.5L141.48166666666665,11.125L142.07500000000002,11.125L142.15333333333334,22.25L142.41666666666666,-11.125L142.46833333333333,33.375L142.66833333333332,55.625L142.73833333333334,11.125L142.84833333333333,33.375L143.17833333333334,-11.125L143.415,89L143.82999999999998,44.5L144.645,11.125L144.91333333333333,-22.25L144.96,-22.25L145.035,0L145.73333333333332,-11.125L147.29666666666665,-11.125L147.38166666666666,11.125L147.65,-22.25L148.215,0L148.31333333333333,11.125L148.61833333333334,-11.125L148.64166666666665,0L149.09166666666667,-22.25L149.12666666666667,-22.25L149.53166666666667,44.5L149.66333333333333,22.25L149.85833333333335,0L150.77,66.75L150.96666666666667,44.5L151.09333333333333,-11.125L151.525,11.125L151.66,11.125L152.38,66.75L152.59,11.125L152.63333333333333,-11.125L152.82666666666665,44.5L153.08333333333334,0L153.17666666666665,0L153.26166666666666,0L153.29833333333332,-11.125L153.35333333333332,-11.125L153.39499999999998,11.125L153.82833333333335,11.125L153.83166666666665,11.125L154.00166666666667,22.25L154.00666666666666,22.25L154.26333333333332,-11.125L154.53833333333333,0L154.78833333333333,89L155.01500000000001,44.5L155.29833333333335,-22.25L155.53,0L156.315,22.25L156.32333333333332,33.375L156.40166666666667,11.125L156.50166666666667,44.5L156.54000000000002,11.125L156.97833333333332,0L158.16833333333332,33.375L158.61833333333334,-11.125L159.115,-11.125L159.14499999999998,0L159.27833333333334,22.25L159.88000000000002,0L160.16500000000002,22.25L160.36333333333334,0L160.71833333333333,-11.125L161.52166666666668,-11.125L161.99666666666667,0L162.54999999999998,-11.125L163.00333333333333,55.625L163.16833333333335,44.5L163.55833333333334,22.25L163.67999999999998,22.25L163.775,100.125L164.625,33.375L164.73833333333334,-22.25L164.89,-22.25L164.95499999999998,0L165.00833333333333,0L165.6966666666667,0L165.995,0L166.625,-11.125L166.71833333333333,11.125L166.725,-11.125L166.94166666666666,-11.125L167.31666666666666,0L167.34333333333333,-11.125L167.58333333333331,11.125L167.62666666666667,11.125L167.68833333333333,-11.125L168.32666666666665,0L168.35833333333332,-22.25L168.52833333333334,11.125L168.96833333333333,11.125L169.15666666666667,-22.25L169.92000000000002,-11.125L171.22666666666666,0L171.28333333333333,2269.5L171.41500000000002,44.5L171.79166666666669,-11.125L171.87833333333333,0L172.11166666666668,-11.125L172.51666666666665,11.125L172.9366666666667,0L173.205,-22.25L173.60833333333332,144.625L173.66166666666666,155.75L174.015,89L174.33499999999998,44.5L174.4766666666667,-11.125L174.69666666666666,22.25L175.03333333333333,22.25L175.08666666666667,22.25L175.1483333333333,11.125L175.28166666666667,33.375L175.53333333333333,0L175.84666666666666,22.25L175.89833333333334,0L175.95333333333332,11.125L176.14333333333335,11.125L176.24833333333333,11.125L176.64166666666668,-11.125L177.96666666666667,-11.125L177.98833333333334,0L178.10833333333332,-11.125L178.98833333333332,-22.25L179.08333333333334,0L179.26000000000002,-11.125L179.715,-11.125L180.22833333333332,0L181.12333333333333,44.5L181.35833333333332,44.5L182.10333333333332,-22.25L182.245,0L182.27166666666665,0L182.90833333333333,-11.125L182.93666666666667,-11.125L183.15333333333334,11.125L183.28833333333333,-22.25L183.39166666666665,55.625L183.72833333333332,0L184.08333333333334,0L185.1233333333333,0L185.15666666666667,-11.125L185.5,22.25L185.79,33.375L186.04,0L186.07333333333335,-11.125L186.07833333333335,-11.125L186.22,22.25L186.225,22.25L186.82333333333332,22.25L186.86666666666667,-11.125L187.88166666666666,11.125L187.98000000000002,-22.25L188.705,-22.25L189.11833333333334,11.125L189.835,33.375L190.63333333333335,-11.125L190.89333333333335,0L191.30666666666667,0L191.48499999999999,11.125L191.76166666666668,11.125L191.97333333333333,-11.125L192.20166666666665,-22.25L192.29500000000002,22.25L192.34833333333333,11.125L192.46666666666667,0L193.10000000000002,55.625L193.24833333333333,0L193.28666666666666,-11.125L193.835,55.625L194.225,-22.25L194.33333333333334,22.25L195.03,-11.125L195.26000000000002,22.25L195.37666666666667,-22.25L195.9933333333333,-11.125L196.23666666666668,11.125L196.32666666666668,-11.125L196.64333333333335,-22.25L196.8983333333333,0L197.01999999999998,89L197.34,11.125L197.45666666666668,0L197.53833333333336,-22.25L198.42499999999998,-11.125L199.17666666666665,11.125L199.35333333333335,0L199.35666666666668,22.25L199.80666666666664,-22.25L200.47333333333333,0L200.94333333333333,-22.25L200.98166666666665,-11.125L201.25166666666667,22.25L201.43,11.125L201.52833333333334,33.375L201.54333333333335,33.375L201.66166666666666,-11.125L201.78666666666666,-11.125L201.925,11.125L202.05666666666667,11.125L202.22500000000002,-11.125L203.23833333333332,-11.125L203.845,22.25L204.18166666666667,11.125L204.23499999999999,0L204.32500000000002,-22.25L204.79999999999998,-22.25L204.85166666666666,55.625L204.94333333333333,33.375L205.0016666666667,0L205.01833333333332,11.125L205.34333333333333,22.25L205.76999999999998,33.375L205.86166666666665,33.375L206.57833333333332,11.125L207.1266666666667,-11.125L207.22333333333336,0L207.84,22.25L208.01333333333332,-11.125L208.0366666666667,11.125L208.06833333333333,11.125L208.13666666666666,55.625L208.16,66.75L208.18499999999997,77.875L208.20666666666665,66.75L208.27166666666665,11.125L208.48833333333334,11.125L208.77499999999998,33.375L209.05666666666667,-22.25L209.35,22.25L209.50333333333333,11.125L209.6233333333333,11.125L209.64666666666668,0L210.35000000000002,55.625L210.445,0L210.65,11.125L210.94333333333333,22.25L211.10999999999999,55.625L211.28166666666667,44.5L211.83833333333334,11.125L212.94,11.125L213.00666666666666,-22.25L213.06166666666667,-22.25L213.36833333333334,11.125L214.08166666666668,11.125L214.31,44.5L215.40333333333334,-11.125L215.405,-11.125L215.50166666666667,0L215.835,200.25L215.96666666666667,0L216.36999999999998,33.375L216.77166666666665,11.125L216.98499999999999,-11.125L217.04000000000002,-11.125L217.36333333333334,22.25L217.4633333333333,22.25L217.64333333333335,66.75L217.70333333333332,22.25L217.735,11.125L217.895,-22.25L218.725,-22.25L218.87166666666664,0L219.24166666666667,0L219.49666666666664,-22.25L219.8116666666667,0L219.85833333333332,0L220.78333333333333,-11.125L221.10666666666668,0L221.17166666666665,0L221.50333333333333,33.375L222.20333333333332,44.5L222.43833333333333,0L222.64833333333334,-11.125L222.90166666666667,0L223.29999999999998,-11.125L224.09833333333333,-11.125L224.11166666666668,0L224.7,22.25L225.16000000000003,0L225.24833333333333,0L225.84333333333333,0L225.86333333333332,0L226.275,-11.125L226.46333333333334,-11.125L226.73166666666665,11.125L226.88166666666666,66.75L227.42166666666668,33.375L227.70666666666668,33.375L227.78833333333336,44.5L227.85166666666666,-22.25L227.90833333333333,-22.25L227.97166666666666,22.25L228.0366666666667,22.25L228.23000000000002,-11.125L228.35999999999999,55.625L228.38333333333335,22.25L228.41166666666666,0L228.59166666666667,11.125L229.39166666666665,44.5L229.70833333333334,-11.125L229.90166666666667,33.375L230.26833333333335,44.5L230.31666666666666,33.375L231.085,-22.25L231.51333333333335,-22.25L231.56166666666667,0L231.66333333333333,-11.125L232.17000000000002,-22.25L232.45000000000002,0L233.29833333333335,-11.125L233.32333333333335,0L233.81833333333333,77.875L234.75666666666666,-22.25L235.3216666666667,-22.25L235.50666666666666,11.125L235.5533333333333,66.75L235.60333333333332,66.75L235.67166666666668,0L235.865,0L236.39166666666665,0L236.46166666666667,22.25L236.52166666666668,33.375L237.00833333333333,11.125L237.06,-22.25L237.54833333333335,144.625L237.70333333333332,33.375L237.72333333333333,77.875L237.89833333333334,77.875L238.44666666666666,0L239.34833333333333,-11.125L239.38833333333335,44.5L239.44333333333333,89L240.17166666666668,22.25L240.28166666666667,-11.125L240.32833333333332,44.5L240.88666666666666,0L241.185,-22.25L241.29,-22.25L241.36333333333332,55.625L241.73833333333334,-22.25L242.15,2202.75L244.07333333333332,0L244.47833333333335,44.5L244.89166666666665,0L244.98,-22.25L245.16166666666666,55.625L245.38333333333335,-22.25L245.99166666666667,-11.125L246.06166666666667,0L246.24333333333334,0L246.255,-11.125L246.36166666666665,-11.125L246.4633333333333,0L246.4933333333333,11.125L246.85333333333335,-22.25L247.17333333333335,-22.25L247.3466666666667,0L247.45,33.375L247.73999999999998,-11.125L248.64333333333335,-22.25L248.86333333333332,11.125L249.01,11.125L249.02999999999997,0L249.04333333333335,22.25L249.17000000000002,-11.125L249.24166666666667,-11.125L249.45333333333332,0L249.70666666666665,-11.125L249.875,-11.125L250.1183333333333,0L250.275,0L250.52666666666667,66.75L251.17166666666665,0L251.54333333333332,22.25L251.64333333333332,0L251.685,0L252.485,22.25L252.50333333333333,0L252.8,0L252.8383333333333,-11.125L252.89,0L253.12666666666667,0L253.15,11.125L254.17666666666665,0L254.45999999999998,22.25L254.86,11.125L254.88666666666666,0L255.34333333333333,-22.25L255.53,-11.125L255.82666666666668,11.125L255.88,11.125L256,55.625L256.43333333333334,44.5L256.67833333333334,-22.25L257.315,-22.25L257.45666666666665,22.25L258.04833333333335,0L258.08666666666664,-11.125L259.35833333333335,-22.25L259.7866666666667,11.125L260.3483333333333,77.875L260.4666666666667,-22.25L260.59666666666664,77.875L261.12166666666667,-22.25L261.15500000000003,-22.25L261.705,33.375L261.7583333333333,44.5L262.08666666666664,0L262.47,100.125L262.60833333333335,-11.125L262.90666666666664,-11.125L263.27666666666664,22.25L263.59333333333336,-11.125L264.0733333333333,44.5L264.12,44.5L264.2633333333333,0L264.8983333333333,-11.125L264.935,44.5L265.43,11.125L265.6716666666667,-11.125L265.74833333333333,-22.25L266.625,100.125L266.69166666666666,11.125L266.705,11.125L266.7416666666667,22.25L266.7583333333333,-11.125L266.885,-11.125L266.94166666666666,11.125L267.08666666666664,77.875L267.1383333333333,-22.25L267.9166666666667,-11.125L268.2116666666667,77.875L268.315,11.125L268.7033333333333,-11.125L268.7133333333333,-11.125L269.755,22.25L269.815,22.25L269.97666666666663,11.125L270.29833333333335,0L270.32666666666665,-11.125L270.3283333333333,0L270.82666666666665,22.25L270.88666666666666,-11.125L271.25166666666667,33.375L271.4866666666667,-22.25L271.9766666666667,22.25L272.2366666666667,44.5L272.475,-22.25L272.945,-11.125L272.9866666666667,22.25L273.19666666666666,22.25L273.31333333333333,0L273.595,0L273.71,66.75L273.80833333333334,-11.125L274.2133333333333,-11.125L275.4666666666667,11.125L276.02,11.125L276.03833333333336,-11.125L276.185,66.75L276.25,33.375L276.3183333333333,11.125L276.55333333333334,-22.25L277.33166666666665,-22.25L277.82666666666665,22.25L278.82666666666665,0L278.9266666666667,-22.25L278.9433333333333,-22.25L279.1516666666667,33.375L280.105,0L280.315,44.5L280.47999999999996,11.125L280.70666666666665,0L280.91,55.625L281.00666666666666,33.375L281.12166666666667,33.375L281.12833333333333,0L281.2966666666667,-22.25L282.4033333333333,-11.125L282.59166666666664,22.25L282.805,22.25L282.83,33.375L282.94666666666666,0L283.1433333333334,22.25L283.22833333333335,33.375L283.3433333333333,-11.125L283.35,11.125L284.22833333333335,44.5L284.26,44.5L284.3933333333333,11.125L284.5966666666667,0L284.77166666666665,-11.125L285.1533333333333,-11.125L285.2216666666667,0L285.37833333333333,55.625L285.46,11.125L285.4866666666667,11.125L285.62166666666667,-11.125L285.76,-11.125L285.905,0L285.935,-11.125L286.15999999999997,44.5L286.38666666666666,0L287.0316666666667,0L287.09333333333336,22.25L287.53833333333336,-22.25L289.26,-22.25L289.37166666666667,0L289.47333333333336,-22.25L289.64166666666665,22.25L290.0733333333333,0L290.18,-22.25L291.64666666666665,-22.25L291.9816666666667,11.125L292.1116666666667,0L292.12666666666667,-11.125L292.64,-11.125L292.8666666666667,0L292.89166666666665,11.125L293.0166666666667,22.25" style="fill: none;" fill="none"></path></g></g></g></g></g></g><g transform="translate(30, 178)" clip-path="url(#clip_1)"><clipPath id="clip_1"><rect width="300" height="22"></rect></clipPath><g><g><line x1="0" y1="0" x2="0" y2="5" style="visibility: inherit;" fill="rgb(0, 0, 0)" stroke="rgb(204, 204, 204)" stroke-width="1px"></line><line x1="33.33333333333333" y1="0" x2="33.33333333333333" y2="5" style="visibility: inherit;" fill="rgb(0, 0, 0)" stroke="rgb(204, 204, 204)" stroke-width="1px"></line><line x1="66.66666666666666" y1="0" x2="66.66666666666666" y2="5" style="visibility: inherit;" fill="rgb(0, 0, 0)" stroke="rgb(204, 204, 204)" stroke-width="1px"></line><line x1="100" y1="0" x2="100" y2="5" style="visibility: inherit;" fill="rgb(0, 0, 0)" stroke="rgb(204, 204, 204)" stroke-width="1px"></line><line x1="133.33333333333331" y1="0" x2="133.33333333333331" y2="5" style="visibility: inherit;" fill="rgb(0, 0, 0)" stroke="rgb(204, 204, 204)" stroke-width="1px"></line><line x1="166.66666666666669" y1="0" x2="166.66666666666669" y2="5" style="visibility: inherit;" fill="rgb(0, 0, 0)" stroke="rgb(204, 204, 204)" stroke-width="1px"></line><line x1="200" y1="0" x2="200" y2="5" style="visibility: inherit;" fill="rgb(0, 0, 0)" stroke="rgb(204, 204, 204)" stroke-width="1px"></line><line x1="233.33333333333334" y1="0" x2="233.33333333333334" y2="5" style="visibility: inherit;" fill="rgb(0, 0, 0)" stroke="rgb(204, 204, 204)" stroke-width="1px"></line><line x1="266.66666666666663" y1="0" x2="266.66666666666663" y2="5" style="visibility: inherit;" fill="rgb(0, 0, 0)" stroke="rgb(204, 204, 204)" stroke-width="1px"></line><line x1="300" y1="0" x2="300" y2="5" style="visibility: inherit;" fill="rgb(0, 0, 0)" stroke="rgb(204, 204, 204)" stroke-width="1px"></line></g><g transform="translate(0, 8)"><text x="0" y="0" dx="0em" dy="0.95em" style="text-anchor: middle; visibility: hidden; font-family: &quot;Helvetica Neue&quot;, sans-serif; font-size: 12px; font-weight: 200;" fill="rgb(50, 49, 63)" stroke="none" stroke-width="1px">-20k</text><text x="33.33333333333333" y="0" dx="0em" dy="0.95em" style="text-anchor: middle; visibility: inherit; font-family: &quot;Helvetica Neue&quot;, sans-serif; font-size: 12px; font-weight: 200;" fill="rgb(50, 49, 63)" stroke="none" stroke-width="1px">0</text><text x="66.66666666666666" y="0" dx="0em" dy="0.95em" style="text-anchor: middle; visibility: inherit; font-family: &quot;Helvetica Neue&quot;, sans-serif; font-size: 12px; font-weight: 200;" fill="rgb(50, 49, 63)" stroke="none" stroke-width="1px">20k</text><text x="100" y="0" dx="0em" dy="0.95em" style="text-anchor: middle; visibility: inherit; font-family: &quot;Helvetica Neue&quot;, sans-serif; font-size: 12px; font-weight: 200;" fill="rgb(50, 49, 63)" stroke="none" stroke-width="1px">40k</text><text x="133.33333333333331" y="0" dx="0em" dy="0.95em" style="text-anchor: middle; visibility: inherit; font-family: &quot;Helvetica Neue&quot;, sans-serif; font-size: 12px; font-weight: 200;" fill="rgb(50, 49, 63)" stroke="none" stroke-width="1px">60k</text><text x="166.66666666666669" y="0" dx="0em" dy="0.95em" style="text-anchor: middle; visibility: inherit; font-family: &quot;Helvetica Neue&quot;, sans-serif; font-size: 12px; font-weight: 200;" fill="rgb(50, 49, 63)" stroke="none" stroke-width="1px">80k</text><text x="200" y="0" dx="0em" dy="0.95em" style="text-anchor: middle; visibility: inherit; font-family: &quot;Helvetica Neue&quot;, sans-serif; font-size: 12px; font-weight: 200;" fill="rgb(50, 49, 63)" stroke="none" stroke-width="1px">100k</text><text x="233.33333333333334" y="0" dx="0em" dy="0.95em" style="text-anchor: middle; visibility: inherit; font-family: &quot;Helvetica Neue&quot;, sans-serif; font-size: 12px; font-weight: 200;" fill="rgb(50, 49, 63)" stroke="none" stroke-width="1px">120k</text><text x="266.66666666666663" y="0" dx="0em" dy="0.95em" style="text-anchor: middle; visibility: inherit; font-family: &quot;Helvetica Neue&quot;, sans-serif; font-size: 12px; font-weight: 200;" fill="rgb(50, 49, 63)" stroke="none" stroke-width="1px">140k</text><text x="300" y="0" dx="0em" dy="0.95em" style="text-anchor: middle; visibility: hidden; font-family: &quot;Helvetica Neue&quot;, sans-serif; font-size: 12px; font-weight: 200;" fill="rgb(50, 49, 63)" stroke="none" stroke-width="1px">160k</text></g><line x1="0" y1="0" x2="300" y2="0" fill="rgb(0, 0, 0)" stroke="rgb(204, 204, 204)" stroke-width="1px"></line></g></g></g></g></svg>