<svg viewBox="0 0 330 200" xmlns="http://www.w3.org/2000/svg"><g><g><g><g><g><line x1="50" y1="178" x2="45" y2="178" style="visibility: inherit;" fill="rgb(0, 0, 0)" stroke="rgb(204, 204, 204)" stroke-width="1px"></line><line x1="50" y1="160.2" x2="45" y2="160.2" style="visibility: inherit;" fill="rgb(0, 0, 0)" stroke="rgb(204, 204, 204)" stroke-width="1px"></line><line x1="50" y1="142.4" x2="45" y2="142.4" style="visibility: inherit;" fill="rgb(0, 0, 0)" stroke="rgb(204, 204, 204)" stroke-width="1px"></line><line x1="50" y1="124.6" x2="45" y2="124.6" style="visibility: inherit;" fill="rgb(0, 0, 0)" stroke="rgb(204, 204, 204)" stroke-width="1px"></line><line x1="50" y1="106.8" x2="45" y2="106.8" style="visibility: inherit;" fill="rgb(0, 0, 0)" stroke="rgb(204, 204, 204)" stroke-width="1px"></line><line x1="50" y1="89" x2="45" y2="89" style="visibility: inherit;" fill="rgb(0, 0, 0)" stroke="rgb(204, 204, 204)" stroke-width="1px"></line><line x1="50" y1="71.2" x2="45" y2="71.2" style="visibility: inherit;" fill="rgb(0, 0, 0)" stroke="rgb(204, 204, 204)" stroke-width="1px"></line><line x1="50" y1="53.400000000000006" x2="45" y2="53.400000000000006" style="visibility: inherit;" fill="rgb(0, 0, 0)" stroke="rgb(204, 204, 204)" stroke-width="1px"></line><line x1="50" y1="35.599999999999994" x2="45" y2="35.599999999999994" style="visibility: inherit;" fill="rgb(0, 0, 0)" stroke="rgb(204, 204, 204)" stroke-width="1px"></line><line x1="50" y1="17.799999999999983" x2="45" y2="17.799999999999983" style="visibility: inherit;" fill="rgb(0, 0, 0)" stroke="rgb(204, 204, 204)" stroke-width="1px"></line><line x1="50" y1="0" x2="45" y2="0" style="visibility: inherit;" fill="rgb(0, 0, 0)" stroke="rgb(204, 204, 204)" stroke-width="1px"></line></g><g transform="translate(40, 0)"><text x="0" y="178" dx="0em" dy="0.3em" style="text-anchor: end; visibility: hidden; font-family: &quot;Helvetica Neue&quot;, sans-serif; font-size: 12px; font-weight: 200;" fill="rgb(50, 49, 63)" stroke="none" stroke-width="1px">-1.5</text><text x="0" y="160.2" dx="0em" dy="0.3em" style="text-anchor: end; visibility: inherit; font-family: &quot;Helvetica Neue&quot;, sans-serif; font-size: 12px; font-weight: 200;" fill="rgb(50, 49, 63)" stroke="none" stroke-width="1px">-1</text><text x="0" y="142.4" dx="0em" dy="0.3em" style="text-anchor: end; visibility: hidden; font-family: &quot;Helvetica Neue&quot;, sans-serif; font-size: 12px; font-weight: 200;" fill="rgb(50, 49, 63)" stroke="none" stroke-width="1px">-0.5</text><text x="0" y="124.6" dx="0em" dy="0.3em" style="text-anchor: end; visibility: inherit; font-family: &quot;Helvetica Neue&quot;, sans-serif; font-size: 12px; font-weight: 200;" fill="rgb(50, 49, 63)" stroke="none" stroke-width="1px">0</text><text x="0" y="106.8" dx="0em" dy="0.3em" style="text-anchor: end; visibility: hidden; font-family: &quot;Helvetica Neue&quot;, sans-serif; font-size: 12px; font-weight: 200;" fill="rgb(50, 49, 63)" stroke="none" stroke-width="1px">0.5</text><text x="0" y="89" dx="0em" dy="0.3em" style="text-anchor: end; visibility: inherit; font-family: &quot;Helvetica Neue&quot;, sans-serif; font-size: 12px; font-weight: 200;" fill="rgb(50, 49, 63)" stroke="none" stroke-width="1px">1</text><text x="0" y="71.2" dx="0em" dy="0.3em" style="text-anchor: end; visibility: hidden; font-family: &quot;Helvetica Neue&quot;, sans-serif; font-size: 12px; font-weight: 200;" fill="rgb(50, 49, 63)" stroke="none" stroke-width="1px">1.5</text><text x="0" y="53.400000000000006" dx="0em" dy="0.3em" style="text-anchor: end; visibility: inherit; font-family: &quot;Helvetica Neue&quot;, sans-serif; font-size: 12px; font-weight: 200;" fill="rgb(50, 49, 63)" stroke="none" stroke-width="1px">2</text><text x="0" y="35.599999999999994" dx="0em" dy="0.3em" style="text-anchor: end; visibility: hidden; font-family: &quot;Helvetica Neue&quot;, sans-serif; font-size: 12px; font-weight: 200;" fill="rgb(50, 49, 63)" stroke="none" stroke-width="1px">2.5</text><text x="0" y="17.799999999999983" dx="0em" dy="0.3em" style="text-anchor: end; visibility: inherit; font-family: &quot;Helvetica Neue&quot;, sans-serif; font-size: 12px; font-weight: 200;" fill="rgb(50, 49, 63)" stroke="none" stroke-width="1px">3</text><text x="0" y="0" dx="0em" dy="0.3em" style="text-anchor: end; visibility: hidden; font-family: &quot;Helvetica Neue&quot;, sans-serif; font-size: 12px; font-weight: 200;" fill="rgb(50, 49, 63)" stroke="none" stroke-width="1px">3.5</text></g><line x1="50" y1="0" x2="50" y2="178" fill="rgb(0, 0, 0)" stroke="rgb(204, 204, 204)" stroke-width="1px"></line></g></g><g transform="translate(50, 0)" clip-path="url(#clip_0)"><clipPath id="clip_0"><rect width="280" height="178"></rect></clipPath><g><g><g><line x1="0" y1="0" x2="0" y2="178" fill="rgb(0, 0, 0)" stroke="rgb(60, 60, 60)" stroke-width="1px" opacity="0.25"></line><line x1="28" y1="0" x2="28" y2="178" fill="rgb(0, 0, 0)" stroke="rgb(60, 60, 60)" stroke-width="1px" opacity="0.25"></line><line x1="56" y1="0" x2="56" y2="178" fill="rgb(0, 0, 0)" stroke="rgb(60, 60, 60)" stroke-width="1px" opacity="0.25"></line><line x1="84" y1="0" x2="84" y2="178" fill="rgb(0, 0, 0)" stroke="rgb(60, 60, 60)" stroke-width="1px" opacity="0.25"></line><line x1="112" y1="0" x2="112" y2="178" fill="rgb(0, 0, 0)" stroke="rgb(60, 60, 60)" stroke-width="1px" opacity="0.25"></line><line x1="140" y1="0" x2="140" y2="178" fill="rgb(0, 0, 0)" stroke="rgb(60, 60, 60)" stroke-width="1px" opacity="0.25"></line><line x1="168" y1="0" x2="168" y2="178" fill="rgb(0, 0, 0)" stroke="rgb(60, 60, 60)" stroke-width="1px" opacity="0.25"></line><line x1="196" y1="0" x2="196" y2="178" fill="rgb(0, 0, 0)" stroke="rgb(60, 60, 60)" stroke-width="1px" opacity="0.25"></line><line x1="224" y1="0" x2="224" y2="178" fill="rgb(0, 0, 0)" stroke="rgb(60, 60, 60)" stroke-width="1px" opacity="0.25"></line><line x1="252" y1="0" x2="252" y2="178" fill="rgb(0, 0, 0)" stroke="rgb(60, 60, 60)" stroke-width="1px" opacity="0.25"></line><line x1="280" y1="0" x2="280" y2="178" fill="rgb(0, 0, 0)" stroke="rgb(60, 60, 60)" stroke-width="1px" opacity="0.25"></line></g><g><line x1="0" y1="178" x2="280" y2="178" fill="rgb(0, 0, 0)" stroke="rgb(60, 60, 60)" stroke-width="1px" opacity="0.25"></line><line x1="0" y1="160.2" x2="280" y2="160.2" fill="rgb(0, 0, 0)" stroke="rgb(60, 60, 60)" stroke-width="1px" opacity="0.25"></line><line x1="0" y1="142.4" x2="280" y2="142.4" fill="rgb(0, 0, 0)" stroke="rgb(60, 60, 60)" stroke-width="1px" opacity="0.25"></line><line x1="0" y1="124.6" x2="280" y2="124.6" fill="rgb(0, 0, 0)" stroke="rgb(60, 60, 60)" stroke-width="1px" opacity="0.25"></line><line x1="0" y1="106.8" x2="280" y2="106.8" fill="rgb(0, 0, 0)" stroke="rgb(60, 60, 60)" stroke-width="1px" opacity="0.25"></line><line x1="0" y1="89" x2="280" y2="89" fill="rgb(0, 0, 0)" stroke="rgb(60, 60, 60)" stroke-width="1px" opacity="0.25"></line><line x1="0" y1="71.2" x2="280" y2="71.2" fill="rgb(0, 0, 0)" stroke="rgb(60, 60, 60)" stroke-width="1px" opacity="0.25"></line><line x1="0" y1="53.400000000000006" x2="280" y2="53.400000000000006" fill="rgb(0, 0, 0)" stroke="rgb(60, 60, 60)" stroke-width="1px" opacity="0.25"></line><line x1="0" y1="35.599999999999994" x2="280" y2="35.599999999999994" fill="rgb(0, 0, 0)" stroke="rgb(60, 60, 60)" stroke-width="1px" opacity="0.25"></line><line x1="0" y1="17.799999999999983" x2="280" y2="17.799999999999983" fill="rgb(0, 0, 0)" stroke="rgb(60, 60, 60)" stroke-width="1px" opacity="0.25"></line><line x1="0" y1="0" x2="280" y2="0" fill="rgb(0, 0, 0)" stroke="rgb(60, 60, 60)" stroke-width="1px" opacity="0.25"></line></g></g></g><g><g><line x1="0" y1="124.6" x2="280" y2="124.6" fill="rgb(0, 0, 0)" stroke="rgb(153, 153, 153)" stroke-width="1.5px"></line></g></g><g><g><line x1="28" y1="0" x2="28" y2="178" fill="rgb(0, 0, 0)" stroke="rgb(153, 153, 153)" stroke-width="1.5px"></line></g></g><g><g><g><g><g><path stroke="rgb(238, 51, 119)" stroke-width="2px" d="M28.058799999999998,124.6L28.2338,89L28.3206,124.6L28.663600000000002,89L28.7504,89L28.8106,89L28.8204,89L28.8876,89L28.9058,89L28.999599999999997,89L29.1312,89L29.4196,89L29.8662,89L29.939,89L29.9488,89L30.0104,89L30.4276,89L30.431800000000003,89L30.6278,89L30.6838,89L30.8504,89L31.229799999999997,89L31.3446,89L31.479,89L31.4804,89L31.759,89L32.2532,89L32.522,89L32.5444,89L32.627,89L33.0652,89L33.068,89L33.138,124.6L33.3494,89L33.538399999999996,89L34.0438,89L34.16,89L34.2888,89L34.3126,89L34.5464,89L34.959399999999995,89L35.1876,89L35.483000000000004,89L35.5026,89L36.0122,89L36.209599999999995,89L36.269800000000004,89L36.386,89L36.68,89L36.706599999999995,89L37.3786,89L37.3954,89L37.5956,89L37.7524,89L38.017,89L38.444,89L38.4482,89L38.9172,89L38.9662,89L39.2924,89L39.452,89L39.5094,89L39.8972,89L39.9112,89L40.429199999999994,89L40.509,89L40.964000000000006,89L41.2552,89L41.375600000000006,89L41.3938,89L41.577200000000005,89L42.5586,89L42.6706,89L42.7308,89L42.8498,89L43.092000000000006,89L43.262800000000006,89L43.266999999999996,89L43.352399999999996,89L43.428,89L43.5428,89L44.1448,89L44.1924,89L44.359,89L44.462599999999995,89L44.7566,89L44.763600000000004,124.6L45.029599999999995,89L45.206,89L46.0278,89L46.247600000000006,89L46.2854,89L47.0358,89L47.068,89L47.334,89L47.909400000000005,89L48.0116,89L48.0732,89L48.2258,89L48.4932,89L48.535199999999996,89L48.690599999999996,89L48.822199999999995,89L49.6622,89L50.0696,89L50.5624,89L50.849399999999996,89L51.5998,89L51.892399999999995,89L51.9358,89L52.2438,89L52.2746,89L52.560199999999995,89L52.5798,89L53.8314,89L54.7624,89L54.8366,89L55.3434,89L55.495999999999995,89L55.5156,89L55.6234,89L55.993,89L56.0742,89L56.0868,89L56.3416,89L56.3528,89L56.4522,89L56.616,89L56.754599999999996,89L56.8092,89L57.090599999999995,89L57.0948,89L57.197,89L57.512,89L57.6016,89L57.7248,89L57.8466,89L58.1322,89L58.5872,89L59.143,89L59.262,89L59.3012,89L60.3932,89L60.407199999999996,89L60.4688,89L60.6004,89L60.7054,89L60.797799999999995,89L60.956,89L61.138,89L61.1534,89L61.181400000000004,89L61.5132,89L61.8058,89L61.9948,89L61.9976,89L62.0508,89L62.4694,89L62.6066,89L62.6178,89L62.8614,89L62.9076,89L63.3542,89L63.547399999999996,89L64.13680000000001,89L64.1858,89L64.2894,89L64.8242,89L65.5158,89L65.5172,89L66.0156,89L66.0226,89L66.50699999999999,89L66.6442,89L66.6932,89L66.955,89L67.08239999999999,89L67.8132,89L67.9602,89L68.558,89L68.59440000000001,89L68.6868,89L68.8814,89L68.9682,89L69.2594,89L69.28179999999999,89L69.4554,89L69.7606,89L70.007,89L70.0434,89L70.2436,89L70.4578,89L70.658,89L70.8568,89L70.9884,89L71.008,89L71.96839999999999,89L72.0202,89L72.3744,89L72.632,89L72.7104,89L72.8056,89L73.08980000000001,89L73.40899999999999,89L73.5588,89L73.71979999999999,89L73.8668,89L74.0516,89L74.06280000000001,89L74.2476,89L74.4534,89L74.5794,89L74.725,89L74.7642,89L75.2318,89L75.24860000000001,89L75.27520000000001,89L75.299,89L75.3746,89L75.4264,89L75.4782,89L75.65039999999999,89L76.10679999999999,89L76.33500000000001,89L76.4386,89L76.6962,89L77.4662,89L77.49560000000001,89L77.5278,89L77.67620000000001,124.6L77.8022,89L78.0794,89L78.18860000000001,89L78.3342,89L78.4518,89L78.7444,89L78.785,89L79.28059999999999,89L79.32260000000001,89L79.4738,89L79.59,89L79.6698,89L80.08279999999999,89L80.4846,89L80.8696,89L81.02640000000001,89L81.8146,89L81.837,89L82.20800000000001,89L82.376,89L82.57339999999999,89L83.01440000000001,89L83.5828,89L83.6934,89L83.8292,89L83.8726,89L84.02799999999999,89L84.4144,89L84.7,89L84.9282,89L84.9338,89L84.98,89L85.008,89L85.11019999999999,89L85.456,89L85.74159999999999,89L85.7794,89L85.8774,89L86.1546,89L86.177,89L86.9876,89L87.43,89L87.4552,89L87.7492,89L88.92519999999999,89L89.0498,89L89.0946,89L89.19539999999999,89L89.2332,89L89.2388,89L89.327,89L89.5902,89L89.7022,89L89.88,89L89.88980000000001,89L89.9514,89L90.0256,89L90.74239999999999,89L90.9496,89L91.434,89L91.4466,89L91.5208,89L91.7098,89L91.92120000000001,89L92.8452,89L92.86760000000001,89L92.9782,89L93.09859999999999,89L94.2214,89L94.619,89L94.69319999999999,89L94.7366,89L94.787,89L94.8416,89L95.03479999999999,89L95.1258,89L95.158,89L95.30640000000001,89L95.4534,89L95.51780000000001,89L95.9308,89L96.3816,89L96.9808,89L97.0914,89L97.2678,89L98.00840000000001,89L98.07839999999999,89L98.20859999999999,89L98.231,89L98.273,89L98.37519999999999,89L98.8806,89L99.14659999999999,89L99.37060000000001,89L99.5876,89L99.7178,89L99.7948,89L100.51719999999999,89L100.73559999999999,89L100.8014,89L101.2088,89L101.2942,89L101.514,89L101.7548,89L102.06840000000001,89L102.1146,89L102.3288,89L102.3498,89L102.8552,89L103.1884,89L103.1982,89L103.2038,89L103.2094,89L103.4068,89L103.4684,89L103.7008,89L103.7512,89L103.77220000000001,89L103.9374,89L104.56739999999999,89L104.7298,89L104.9118,89L104.9748,89L105.2702,89L105.41860000000001,89L105.76020000000001,89L105.7714,89L105.9982,89L106.0724,89L106.8718,89L107.1098,89L107.12939999999999,89L107.2512,89L107.5018,89L107.548,89L107.7986,89L108.2186,89L108.227,89L108.4776,89L108.86399999999999,89L109.613,89L109.816,89L109.97840000000001,89L110.09740000000001,89L110.2066,89L110.24440000000001,89L110.26820000000001,89L110.9696,89L111.0354,89L111.2048,89L111.496,89L111.538,89L112.2506,89L112.25899999999999,89L112.2898,89L112.41579999999999,89L112.66499999999999,89L113.68700000000001,89L113.7864,89L114.0132,89L114.1476,89L114.35199999999999,89L114.99459999999999,89L115.1066,89L115.5224,89L115.56580000000001,89L116.0236,89L116.2336,89L116.50800000000001,89L116.8006,89L116.9182,89L117.1394,89L117.411,89L117.58319999999999,89L117.73719999999999,89L117.915,89L118.31540000000001,89L118.3294,89L118.5618,89L118.8446,89L119.343,89L119.4088,89L119.63000000000001,89L119.6734,89L119.84140000000001,89L119.9002,89L119.9926,89L120.2698,89L120.4686,89L120.8172,89L121.5018,89L121.72720000000001,89L121.76639999999999,89L121.8294,89L122.416,89L123.5682,89L123.5934,89L123.7292,89L123.8006,89L124.026,89L124.5006,89L124.5832,89L124.8394,89L124.85900000000001,89L125.237,89L125.2664,89L125.6066,89L125.7172,89L125.881,89L126.6468,89L126.81200000000001,89L126.9184,89L127.281,89L127.3944,89L127.9992,89L128.1756,89L128.212,89L128.3744,89L128.59,89L128.6684,89L128.7398,89L128.7706,89L128.8168,89L128.8518,89L129.2158,89L129.2186,89L129.3614,89L129.3656,89L129.5812,89L129.8122,89L130.0222,89L130.2126,89L130.4506,89L130.6452,89L131.3046,89L131.3116,89L131.3774,89L131.4614,89L131.4936,89L131.8618,89L132.8614,89L133.2394,89L133.6566,89L133.6818,89L133.7938,89L134.2992,89L134.5386,89L134.7052,89L135.0034,89L135.0748,89L135.2764,89L135.3422,89L135.506,89L135.6684,89L135.6782,89L136.0772,89L136.542,89L137.06140000000002,89L137.38899999999998,89L137.4912,89L137.571,89L138.285,89L138.3802,89L138.488,89L138.5076,89L138.5622,89L138.607,89L139.18519999999998,89L139.4358,89L139.965,89L140.0434,89L140.049,89L140.14,89L140.231,89L140.546,89L140.5684,89L140.77,89L140.8064,89L140.85819999999998,89L141.3944,89L141.42100000000002,89L141.5638,89L141.9334,89L142.0916,89L142.1406,89L142.7328,89L143.8304,89L143.87800000000001,124.6L143.9886,89L144.305,89L144.37779999999998,89L144.5738,89L144.914,89L145.2668,89L145.49220000000003,89L145.831,89L145.8758,89L146.1726,89L146.44140000000002,89L146.5604,89L146.74519999999998,89L147.028,89L147.07279999999997,89L147.12460000000002,89L147.2366,89L147.44799999999998,89L147.7112,89L147.7546,89L147.8008,89L147.9604,89L148.0486,89L148.4196,89L149.49200000000002,89L149.5102,89L149.61100000000002,89L149.81119999999999,89L150.3502,89L150.43,89L150.57840000000002,89L150.66940000000002,89L150.73239999999998,89L150.9606,89L151.3918,89L152.1436,89L152.34099999999998,89L152.96679999999998,89L153.0858,89L153.1082,89L153.643,89L153.6668,89L153.84879999999998,89L153.96220000000002,89L154.04899999999998,89L154.33180000000002,89L154.63,89L155.5036,89L155.5316,89L155.82,89L156.2736,89L156.3016,89L156.3058,89L156.4248,89L156.429,89L156.9316,89L156.968,89L157.82059999999998,89L157.9032,89L158.3764,89L158.5122,89L158.85940000000002,89L159.4614,89L160.13199999999998,89L160.35039999999998,89L160.6976,89L160.84740000000002,89L161.0798,89L161.2576,89L161.4494,89L161.52779999999998,89L161.57260000000002,89L161.672,89L162.204,89L162.3286,89L162.3608,89L162.8214,89L163.149,89L163.23999999999998,89L163.8252,89L164.01839999999999,89L164.1164,89L164.2144,89L164.38240000000002,89L164.44400000000002,124.6L164.63439999999997,89L164.8388,89L164.91439999999997,89L165.0264,89L165.1804,89L165.3946,89L165.4968,89L165.7656,89L165.8636,89L165.9322,89L166.677,89L167.3084,89L167.45680000000002,89L167.4596,89L167.83759999999998,89L168.39759999999998,89L168.7924,89L168.82459999999998,89L169.0514,89L169.2012,89L169.2838,89L169.3958,89L169.5008,89L169.617,89L169.7276,89L169.869,89L169.897,89L170.0034,89L170.0832,89L170.0986,89L170.6922,89L170.7202,89L171.2298,89L171.5126,89L171.55740000000003,89L171.633,89L171.759,89L172.03199999999998,89L172.0754,89L172.1524,89L172.2014,89L172.21540000000002,89L172.48839999999998,89L172.8468,89L172.92380000000003,89L173.5258,89L173.9864,89L174.06759999999997,89L174.5856,89L174.7312,89L174.75080000000003,89L174.7774,89L174.8348,89L174.8544,89L174.87539999999998,89L174.8936,89L174.9482,89L175.1302,89L175.371,89L175.6076,89L175.85399999999998,89L175.9828,89L176.08360000000002,89L176.10320000000002,89L176.694,89L176.7738,89L176.946,89L177.1924,89L177.33239999999998,89L177.4766,89L177.94420000000002,89L178.86960000000002,89L178.9256,89L178.9718,89L179.2294,89L179.8286,89L180.0204,89L180.9388,89L180.9402,89L181.0214,89L181.3014,89L181.412,89L181.7508,89L182.0882,89L182.26739999999998,89L182.3136,89L182.5852,89L182.66920000000002,89L182.8204,89L182.8708,89L182.8974,89L183.03179999999998,89L183.6716,89L183.72899999999998,89L183.85219999999998,89L184.163,89L184.37720000000002,89L184.6418,89L184.681,89L185.458,89L185.7296,89L185.7842,89L186.0628,89L186.6508,89L187.0246,89L187.2374,89L187.572,89L188.00879999999998,89L188.24259999999998,89L188.2538,89L188.74800000000002,89L189.1344,89L189.20860000000002,89L189.70839999999998,89L189.7252,89L190.071,89L190.0808,89L190.22920000000002,89L190.4546,89L190.58059999999998,89L191.0342,89L191.2736,89L191.3422,89L191.3954,89L191.443,89L191.49620000000002,89L191.5508,89L191.7132,89L191.82240000000002,89L191.842,89L191.8658,89L192.017,89L192.689,89L192.95499999999998,89L193.1174,89L193.4254,89L193.46599999999998,89L194.11139999999997,89L194.4712,89L194.5118,89L194.5972,89L195.0228,89L195.258,89L195.97060000000002,89L196.40740000000002,89L197.19559999999998,89L197.6688,89L197.6702,89L197.86479999999997,89L197.9068,89L197.96419999999998,89L198.1266,89L198.569,89L198.6278,89L199.08700000000002,89L199.1304,89L199.54059999999998,89L199.6708,89L199.6876,89L199.8346,89L200.2952,89L201.0526,89L201.08620000000002,89L201.13240000000002,89L201.7442,89L201.83659999999998,89L201.8758,89L202.3448,89L202.664,89L202.66819999999998,89L202.6836,89L202.7452,89L203.0602,89L203.406,124.6L205.0216,89L205.3618,89L205.709,89L205.78320000000002,89L205.93580000000003,89L206.12199999999999,89L206.3796,89L206.5588,89L206.633,89L206.6918,89L206.8444,89L206.8542,89L206.899,89L206.9438,89L207.0292,89L207.05440000000002,89L207.3568,89L207.6256,89L207.77120000000002,89L207.85799999999998,89L208.1016,89L208.39280000000002,89L208.8044,89L208.8604,89L209.0452,89L209.1684,89L209.1852,89L209.19639999999998,89L209.3028,89L209.363,89L209.54080000000002,89L209.7536,89L209.89499999999998,89L210.0994,89L210.231,89L210.44240000000002,89L210.98420000000002,89L211.2964,89L211.3804,89L212.0874,89L212.1028,89L212.35199999999998,89L212.38420000000002,89L212.42759999999998,89L212.62640000000002,89L212.646,89L213.50840000000002,89L213.7464,89L214.0824,89L214.1048,89L214.48839999999998,89L214.6452,89L214.89440000000002,89L214.9392,89L215.04,89L215.404,89L215.6098,89L216.1264,89L216.1446,89L216.2636,89L216.76059999999998,89L216.7928,89L216.7998,89L216.8278,89L216.9762,89L217.861,89L218.22080000000003,89L218.6926,89L218.792,89L218.9012,89L219.3422,89L219.3492,89L219.37019999999998,89L219.8322,89L219.87699999999998,89L220.15279999999998,89L220.47480000000002,89L220.591,89L220.61759999999998,89L220.7618,89L220.8416,89L221.1524,89L221.41840000000002,89L221.82160000000002,89L221.86079999999998,89L221.9812,89L222.5146,89L222.5454,89L222.96120000000002,89L223.1642,89L223.2286,89L223.965,89L224.021,89L224.03220000000002,89L224.063,89L224.077,89L224.1834,89L224.231,89L224.3528,89L224.3962,89L225.04999999999998,89L225.2978,89L225.3846,89L225.7108,89L225.7192,89L226.5942,89L226.6446,89L226.78040000000001,89L227.0744,89L227.0758,89L227.49439999999998,89L227.8514,89L228.0488,89L228.46040000000002,89L228.67880000000002,89L228.879,89L228.9994,89L229.0134,89L229.21079999999998,89L229.2738,89L229.30880000000002,89L229.48520000000002,89L229.5832,89L229.8198,89L229.9164,89L229.999,89L230.16559999999998,89L230.3392,89L231.392,89L231.8568,89L231.87220000000002,89L231.99540000000002,89L232.04999999999998,89L232.1074,89L232.3048,89L232.83679999999998,89L232.95860000000002,89L233.3744,89L234.2144,89L234.2984,89L234.3124,89L234.48739999999998,89L235.28820000000002,89L235.46460000000002,89L235.6032,89L235.7936,89L235.96439999999998,89L236.0456,89L236.1422,89L236.14780000000002,89L236.2892,89L236.40959999999998,89L236.4306,89L237.21880000000002,89L237.37699999999998,89L237.55620000000002,89L237.5772,89L237.67520000000002,89L237.84040000000002,89L237.9118,89L238.0084,89L238.01399999999998,89L238.7518,89L238.7784,89L238.8904,89L239.0612,89L239.2082,89L239.4588,89L239.47840000000002,89L239.5288,89L239.5862,89L239.71779999999998,89L239.78640000000001,89L239.8088,89L239.9222,89L240.03840000000002,89L240.1602,89L240.18540000000002,89L240.3744,89L240.56480000000002,89L241.10660000000001,89L241.1584,89L241.53220000000002,89L241.8206,89L241.8724,89L242.9784,89L243.07219999999998,89L243.1576,89L243.29899999999998,89L243.6616,89L243.75119999999998,89L244.3294,89L244.5296,89L244.9832,89L245.2646,89L245.3738,89L245.3864,89L245.8176,89L246.008,89L246.029,89L246.35940000000002,89L246.4462,89L246.8326,89L246.94879999999998,89L247.3128,89L247.5564,89L247.6586,89L247.6922,89L247.7566,89L247.863,89L247.8896,89L247.98200000000003,89L248.2074,89L248.3348,89L248.402,89L248.6722,89L248.89339999999999,89L248.93259999999998,89L249.09779999999998,89L249.15939999999998,89L249.19299999999998,89L249.25740000000002,89L249.7348,89" style="fill: none;" fill="none"></path></g></g></g></g></g></g><g transform="translate(50, 178)" clip-path="url(#clip_1)"><clipPath id="clip_1"><rect width="280" height="22"></rect></clipPath><g><g><line x1="0" y1="0" x2="0" y2="5" style="visibility: inherit;" fill="rgb(0, 0, 0)" stroke="rgb(204, 204, 204)" stroke-width="1px"></line><line x1="28" y1="0" x2="28" y2="5" style="visibility: inherit;" fill="rgb(0, 0, 0)" stroke="rgb(204, 204, 204)" stroke-width="1px"></line><line x1="56" y1="0" x2="56" y2="5" style="visibility: inherit;" fill="rgb(0, 0, 0)" stroke="rgb(204, 204, 204)" stroke-width="1px"></line><line x1="84" y1="0" x2="84" y2="5" style="visibility: inherit;" fill="rgb(0, 0, 0)" stroke="rgb(204, 204, 204)" stroke-width="1px"></line><line x1="112" y1="0" x2="112" y2="5" style="visibility: inherit;" fill="rgb(0, 0, 0)" stroke="rgb(204, 204, 204)" stroke-width="1px"></line><line x1="140" y1="0" x2="140" y2="5" style="visibility: inherit;" fill="rgb(0, 0, 0)" stroke="rgb(204, 204, 204)" stroke-width="1px"></line><line x1="168" y1="0" x2="168" y2="5" style="visibility: inherit;" fill="rgb(0, 0, 0)" stroke="rgb(204, 204, 204)" stroke-width="1px"></line><line x1="196" y1="0" x2="196" y2="5" style="visibility: inherit;" fill="rgb(0, 0, 0)" stroke="rgb(204, 204, 204)" stroke-width="1px"></line><line x1="224" y1="0" x2="224" y2="5" style="visibility: inherit;" fill="rgb(0, 0, 0)" stroke="rgb(204, 204, 204)" stroke-width="1px"></line><line x1="252" y1="0" x2="252" y2="5" style="visibility: inherit;" fill="rgb(0, 0, 0)" stroke="rgb(204, 204, 204)" stroke-width="1px"></line><line x1="280" y1="0" x2="280" y2="5" style="visibility: inherit;" fill="rgb(0, 0, 0)" stroke="rgb(204, 204, 204)" stroke-width="1px"></line></g><g transform="translate(0, 8)"><text x="0" y="0" dx="0em" dy="0.95em" style="text-anchor: middle; visibility: hidden; font-family: &quot;Helvetica Neue&quot;, sans-serif; font-size: 12px; font-weight: 200;" fill="rgb(50, 49, 63)" stroke="none" stroke-width="1px">-20k</text><text x="28" y="0" dx="0em" dy="0.95em" style="text-anchor: middle; visibility: inherit; font-family: &quot;Helvetica Neue&quot;, sans-serif; font-size: 12px; font-weight: 200;" fill="rgb(50, 49, 63)" stroke="none" stroke-width="1px">0</text><text x="56" y="0" dx="0em" dy="0.95em" style="text-anchor: middle; visibility: hidden; font-family: &quot;Helvetica Neue&quot;, sans-serif; font-size: 12px; font-weight: 200;" fill="rgb(50, 49, 63)" stroke="none" stroke-width="1px">20k</text><text x="84" y="0" dx="0em" dy="0.95em" style="text-anchor: middle; visibility: inherit; font-family: &quot;Helvetica Neue&quot;, sans-serif; font-size: 12px; font-weight: 200;" fill="rgb(50, 49, 63)" stroke="none" stroke-width="1px">40k</text><text x="112" y="0" dx="0em" dy="0.95em" style="text-anchor: middle; visibility: hidden; font-family: &quot;Helvetica Neue&quot;, sans-serif; font-size: 12px; font-weight: 200;" fill="rgb(50, 49, 63)" stroke="none" stroke-width="1px">60k</text><text x="140" y="0" dx="0em" dy="0.95em" style="text-anchor: middle; visibility: inherit; font-family: &quot;Helvetica Neue&quot;, sans-serif; font-size: 12px; font-weight: 200;" fill="rgb(50, 49, 63)" stroke="none" stroke-width="1px">80k</text><text x="168" y="0" dx="0em" dy="0.95em" style="text-anchor: middle; visibility: hidden; font-family: &quot;Helvetica Neue&quot;, sans-serif; font-size: 12px; font-weight: 200;" fill="rgb(50, 49, 63)" stroke="none" stroke-width="1px">100k</text><text x="196" y="0" dx="0em" dy="0.95em" style="text-anchor: middle; visibility: inherit; font-family: &quot;Helvetica Neue&quot;, sans-serif; font-size: 12px; font-weight: 200;" fill="rgb(50, 49, 63)" stroke="none" stroke-width="1px">120k</text><text x="224" y="0" dx="0em" dy="0.95em" style="text-anchor: middle; visibility: hidden; font-family: &quot;Helvetica Neue&quot;, sans-serif; font-size: 12px; font-weight: 200;" fill="rgb(50, 49, 63)" stroke="none" stroke-width="1px">140k</text><text x="252" y="0" dx="0em" dy="0.95em" style="text-anchor: middle; visibility: inherit; font-family: &quot;Helvetica Neue&quot;, sans-serif; font-size: 12px; font-weight: 200;" fill="rgb(50, 49, 63)" stroke="none" stroke-width="1px">160k</text><text x="280" y="0" dx="0em" dy="0.95em" style="text-anchor: middle; visibility: hidden; font-family: &quot;Helvetica Neue&quot;, sans-serif; font-size: 12px; font-weight: 200;" fill="rgb(50, 49, 63)" stroke="none" stroke-width="1px">180k</text></g><line x1="0" y1="0" x2="280" y2="0" fill="rgb(0, 0, 0)" stroke="rgb(204, 204, 204)" stroke-width="1px"></line></g></g></g></g></svg>