<svg viewBox="0 0 330 200" xmlns="http://www.w3.org/2000/svg"><g><g><g><g><g><line x1="50" y1="178" x2="45" y2="178" style="visibility: inherit;" fill="rgb(0, 0, 0)" stroke="rgb(204, 204, 204)" stroke-width="1px"></line><line x1="50" y1="160.2" x2="45" y2="160.2" style="visibility: inherit;" fill="rgb(0, 0, 0)" stroke="rgb(204, 204, 204)" stroke-width="1px"></line><line x1="50" y1="142.4" x2="45" y2="142.4" style="visibility: inherit;" fill="rgb(0, 0, 0)" stroke="rgb(204, 204, 204)" stroke-width="1px"></line><line x1="50" y1="124.6" x2="45" y2="124.6" style="visibility: inherit;" fill="rgb(0, 0, 0)" stroke="rgb(204, 204, 204)" stroke-width="1px"></line><line x1="50" y1="106.8" x2="45" y2="106.8" style="visibility: inherit;" fill="rgb(0, 0, 0)" stroke="rgb(204, 204, 204)" stroke-width="1px"></line><line x1="50" y1="89" x2="45" y2="89" style="visibility: inherit;" fill="rgb(0, 0, 0)" stroke="rgb(204, 204, 204)" stroke-width="1px"></line><line x1="50" y1="71.2" x2="45" y2="71.2" style="visibility: inherit;" fill="rgb(0, 0, 0)" stroke="rgb(204, 204, 204)" stroke-width="1px"></line><line x1="50" y1="53.400000000000006" x2="45" y2="53.400000000000006" style="visibility: inherit;" fill="rgb(0, 0, 0)" stroke="rgb(204, 204, 204)" stroke-width="1px"></line><line x1="50" y1="35.599999999999994" x2="45" y2="35.599999999999994" style="visibility: inherit;" fill="rgb(0, 0, 0)" stroke="rgb(204, 204, 204)" stroke-width="1px"></line><line x1="50" y1="17.799999999999983" x2="45" y2="17.799999999999983" style="visibility: inherit;" fill="rgb(0, 0, 0)" stroke="rgb(204, 204, 204)" stroke-width="1px"></line><line x1="50" y1="0" x2="45" y2="0" style="visibility: inherit;" fill="rgb(0, 0, 0)" stroke="rgb(204, 204, 204)" stroke-width="1px"></line></g><g transform="translate(40, 0)"><text x="0" y="178" dx="0em" dy="0.3em" style="text-anchor: end; visibility: hidden; font-family: &quot;Helvetica Neue&quot;, sans-serif; font-size: 12px; font-weight: 200;" fill="rgb(50, 49, 63)" stroke="none" stroke-width="1px">-1.5</text><text x="0" y="160.2" dx="0em" dy="0.3em" style="text-anchor: end; visibility: inherit; font-family: &quot;Helvetica Neue&quot;, sans-serif; font-size: 12px; font-weight: 200;" fill="rgb(50, 49, 63)" stroke="none" stroke-width="1px">-1</text><text x="0" y="142.4" dx="0em" dy="0.3em" style="text-anchor: end; visibility: hidden; font-family: &quot;Helvetica Neue&quot;, sans-serif; font-size: 12px; font-weight: 200;" fill="rgb(50, 49, 63)" stroke="none" stroke-width="1px">-0.5</text><text x="0" y="124.6" dx="0em" dy="0.3em" style="text-anchor: end; visibility: inherit; font-family: &quot;Helvetica Neue&quot;, sans-serif; font-size: 12px; font-weight: 200;" fill="rgb(50, 49, 63)" stroke="none" stroke-width="1px">0</text><text x="0" y="106.8" dx="0em" dy="0.3em" style="text-anchor: end; visibility: hidden; font-family: &quot;Helvetica Neue&quot;, sans-serif; font-size: 12px; font-weight: 200;" fill="rgb(50, 49, 63)" stroke="none" stroke-width="1px">0.5</text><text x="0" y="89" dx="0em" dy="0.3em" style="text-anchor: end; visibility: inherit; font-family: &quot;Helvetica Neue&quot;, sans-serif; font-size: 12px; font-weight: 200;" fill="rgb(50, 49, 63)" stroke="none" stroke-width="1px">1</text><text x="0" y="71.2" dx="0em" dy="0.3em" style="text-anchor: end; visibility: hidden; font-family: &quot;Helvetica Neue&quot;, sans-serif; font-size: 12px; font-weight: 200;" fill="rgb(50, 49, 63)" stroke="none" stroke-width="1px">1.5</text><text x="0" y="53.400000000000006" dx="0em" dy="0.3em" style="text-anchor: end; visibility: inherit; font-family: &quot;Helvetica Neue&quot;, sans-serif; font-size: 12px; font-weight: 200;" fill="rgb(50, 49, 63)" stroke="none" stroke-width="1px">2</text><text x="0" y="35.599999999999994" dx="0em" dy="0.3em" style="text-anchor: end; visibility: hidden; font-family: &quot;Helvetica Neue&quot;, sans-serif; font-size: 12px; font-weight: 200;" fill="rgb(50, 49, 63)" stroke="none" stroke-width="1px">2.5</text><text x="0" y="17.799999999999983" dx="0em" dy="0.3em" style="text-anchor: end; visibility: inherit; font-family: &quot;Helvetica Neue&quot;, sans-serif; font-size: 12px; font-weight: 200;" fill="rgb(50, 49, 63)" stroke="none" stroke-width="1px">3</text><text x="0" y="0" dx="0em" dy="0.3em" style="text-anchor: end; visibility: hidden; font-family: &quot;Helvetica Neue&quot;, sans-serif; font-size: 12px; font-weight: 200;" fill="rgb(50, 49, 63)" stroke="none" stroke-width="1px">3.5</text></g><line x1="50" y1="0" x2="50" y2="178" fill="rgb(0, 0, 0)" stroke="rgb(204, 204, 204)" stroke-width="1px"></line></g></g><g transform="translate(50, 0)" clip-path="url(#clip_0)"><clipPath id="clip_0"><rect width="280" height="178"></rect></clipPath><g><g><g><line x1="0" y1="0" x2="0" y2="178" fill="rgb(0, 0, 0)" stroke="rgb(60, 60, 60)" stroke-width="1px" opacity="0.25"></line><line x1="28" y1="0" x2="28" y2="178" fill="rgb(0, 0, 0)" stroke="rgb(60, 60, 60)" stroke-width="1px" opacity="0.25"></line><line x1="56" y1="0" x2="56" y2="178" fill="rgb(0, 0, 0)" stroke="rgb(60, 60, 60)" stroke-width="1px" opacity="0.25"></line><line x1="84" y1="0" x2="84" y2="178" fill="rgb(0, 0, 0)" stroke="rgb(60, 60, 60)" stroke-width="1px" opacity="0.25"></line><line x1="112" y1="0" x2="112" y2="178" fill="rgb(0, 0, 0)" stroke="rgb(60, 60, 60)" stroke-width="1px" opacity="0.25"></line><line x1="140" y1="0" x2="140" y2="178" fill="rgb(0, 0, 0)" stroke="rgb(60, 60, 60)" stroke-width="1px" opacity="0.25"></line><line x1="168" y1="0" x2="168" y2="178" fill="rgb(0, 0, 0)" stroke="rgb(60, 60, 60)" stroke-width="1px" opacity="0.25"></line><line x1="196" y1="0" x2="196" y2="178" fill="rgb(0, 0, 0)" stroke="rgb(60, 60, 60)" stroke-width="1px" opacity="0.25"></line><line x1="224" y1="0" x2="224" y2="178" fill="rgb(0, 0, 0)" stroke="rgb(60, 60, 60)" stroke-width="1px" opacity="0.25"></line><line x1="252" y1="0" x2="252" y2="178" fill="rgb(0, 0, 0)" stroke="rgb(60, 60, 60)" stroke-width="1px" opacity="0.25"></line><line x1="280" y1="0" x2="280" y2="178" fill="rgb(0, 0, 0)" stroke="rgb(60, 60, 60)" stroke-width="1px" opacity="0.25"></line></g><g><line x1="0" y1="178" x2="280" y2="178" fill="rgb(0, 0, 0)" stroke="rgb(60, 60, 60)" stroke-width="1px" opacity="0.25"></line><line x1="0" y1="160.2" x2="280" y2="160.2" fill="rgb(0, 0, 0)" stroke="rgb(60, 60, 60)" stroke-width="1px" opacity="0.25"></line><line x1="0" y1="142.4" x2="280" y2="142.4" fill="rgb(0, 0, 0)" stroke="rgb(60, 60, 60)" stroke-width="1px" opacity="0.25"></line><line x1="0" y1="124.6" x2="280" y2="124.6" fill="rgb(0, 0, 0)" stroke="rgb(60, 60, 60)" stroke-width="1px" opacity="0.25"></line><line x1="0" y1="106.8" x2="280" y2="106.8" fill="rgb(0, 0, 0)" stroke="rgb(60, 60, 60)" stroke-width="1px" opacity="0.25"></line><line x1="0" y1="89" x2="280" y2="89" fill="rgb(0, 0, 0)" stroke="rgb(60, 60, 60)" stroke-width="1px" opacity="0.25"></line><line x1="0" y1="71.2" x2="280" y2="71.2" fill="rgb(0, 0, 0)" stroke="rgb(60, 60, 60)" stroke-width="1px" opacity="0.25"></line><line x1="0" y1="53.400000000000006" x2="280" y2="53.400000000000006" fill="rgb(0, 0, 0)" stroke="rgb(60, 60, 60)" stroke-width="1px" opacity="0.25"></line><line x1="0" y1="35.599999999999994" x2="280" y2="35.599999999999994" fill="rgb(0, 0, 0)" stroke="rgb(60, 60, 60)" stroke-width="1px" opacity="0.25"></line><line x1="0" y1="17.799999999999983" x2="280" y2="17.799999999999983" fill="rgb(0, 0, 0)" stroke="rgb(60, 60, 60)" stroke-width="1px" opacity="0.25"></line><line x1="0" y1="0" x2="280" y2="0" fill="rgb(0, 0, 0)" stroke="rgb(60, 60, 60)" stroke-width="1px" opacity="0.25"></line></g></g></g><g><g><line x1="0" y1="124.6" x2="280" y2="124.6" fill="rgb(0, 0, 0)" stroke="rgb(153, 153, 153)" stroke-width="1.5px"></line></g></g><g><g><line x1="28" y1="0" x2="28" y2="178" fill="rgb(0, 0, 0)" stroke="rgb(153, 153, 153)" stroke-width="1.5px"></line></g></g><g><g><g><g><g><path stroke="rgb(238, 51, 119)" stroke-width="2px" d="M28.058799999999998,124.6L28.2338,106.79109554777364L28.3206,112.73333729284707L28.663600000000002,106.7910955477737L28.7504,103.22575288000421L28.8106,100.84885975088466L28.8204,99.15108064384872L28.8876,97.87774780061372L28.9058,96.88737913324341L28.999599999999997,96.0950853889764L29.1312,95.4468461342375L29.4196,94.9066477466421L29.8662,94.44955771838582L29.939,94.05776711532269L29.9488,93.71821605241188L30.0104,93.4211096158723L30.4276,93.15895757751906L30.431800000000003,92.92593420431895L30.6278,92.71744023335049L30.6838,92.52979625427677L30.8504,92.36002369682517L31.229799999999997,92.20568554895411L31.3446,92.06476862680263L31.479,91.93559527715406L31.4804,91.81675627130541L31.759,91.70705918496989L32.2532,91.6054882493107L32.522,91.51117280532429L32.5444,91.42336228490456L32.627,91.34140619569231L33.0652,91.26473797982673L33.068,91.19286189917909L33.138,92.22148864719883L33.3494,92.12516648757212L33.538399999999996,92.03434896649183L34.0438,91.94857736407573L34.16,91.86744255177996L34.2888,91.79057846722316L34.3126,91.71765659288344L34.5464,91.64838126299108L34.959399999999995,91.5824856572172L35.1876,91.51972836669273L35.483000000000004,91.45989043918746L35.5026,91.4027728272192L36.0122,91.34819417641557L36.209599999999995,91.29598890234908L36.269800000000004,91.24600551288421L36.386,91.19810514022976L36.68,91.15216025274086L36.706599999999995,91.10805352130406L37.3786,91.06567681908928L37.3954,91.0249303367148L37.5956,90.9857217975823L37.7524,90.9479657603972L38.017,90.91158299777696L38.444,90.87649994143773L38.4482,90.84264818578247L38.9172,90.80996404284102L38.9662,90.77838814247201L39.2924,90.74786507254323L39.452,90.71834305450507L39.5094,90.68977365035907L39.8972,90.66211149753559L39.9112,90.63531406862532L40.429199999999994,90.60934145329018L40.509,90.58415616000066L40.964000000000006,90.55972293552722L41.2552,90.53600860035975L41.375600000000006,90.51298189843793L41.3938,90.49061335976202L41.577200000000005,90.46887517461384L42.5586,90.44774107825961L42.6706,90.42718624512881L42.7308,90.40718719157377L42.8498,90.38772168640789L43.092000000000006,90.36876866850706L43.262800000000006,90.35030817083143L43.266999999999996,90.33232125029186L43.352399999999996,90.31478992294291L43.428,90.29769710403642L43.5428,90.28102655251546L44.1448,90.26476281956965L44.1924,90.24889120090964L44.359,90.23339769245021L44.462599999999995,90.21826894912195L44.7566,90.20349224655622L44.763600000000004,90.6161044124277L45.029599999999995,90.59692886546522L45.206,90.57818450482931L46.0278,90.55985695763773L46.247600000000006,90.54193248278297L46.2854,90.5243979365971L47.0358,90.50724074073113L47.068,90.49044885208495L47.334,90.47401073463622L47.909400000000005,90.45791533303029L48.0116,90.44215204780316L48.0732,90.42671071212213L48.2258,90.41158156993552L48.4932,90.39675525543375L48.535199999999996,90.38222277373013L48.690599999999996,90.36797548267877L48.822199999999995,90.35400507575098L49.6622,90.34030356589993L50.0696,90.32686327034716L50.5624,90.31367679623033L50.849399999999996,90.3007370270557L51.5998,90.28803710990348L51.892399999999995,90.27557044333697L51.9358,90.26333066597175L52.2438,90.25131164566235L52.2746,90.23950746926863L52.560199999999995,90.22791243296487L52.5798,90.21652103305969L53.8314,90.20532795729441L54.7624,90.1943280765916L54.8366,90.18351643722683L55.3434,90.17288825339858L55.495999999999995,90.16243890017252L55.5156,90.15216390677872L55.6234,90.14205895024138L55.993,90.13211984932138L56.0742,90.122342558755L56.0868,90.11272316377072L56.3416,90.10325787486978L56.3528,90.09394302285487L56.4522,90.08477505409392L56.616,90.07575052600583L56.754599999999996,90.06686610275612L56.8092,90.05811855115142L57.090599999999995,90.04950473672173L57.0948,90.04102161998091L57.197,90.03266625285602L57.512,90.02443577527615L57.6016,90.01632741191322L57.7248,90.00833846906646L57.8466,90.0004663316832L58.1322,89.99270846050948L58.5872,89.98506238936314L59.143,89.9775257225245L59.262,89.97009613223752L59.3012,89.96277135631674L60.3932,89.95554919585442L60.407199999999996,89.94842751302374L60.4688,89.94140422897227L60.6004,89.93447732180245L60.7054,89.9276448246343L60.797799999999995,89.92090482374675L60.956,89.91425545679368L61.138,89.90769491109164L61.1534,89.9012214219751L61.181400000000004,89.89483327121712L61.5132,89.88852878551178L61.8058,89.88230633501547L61.9948,89.87616433194513L61.9976,89.87010122923007L62.0508,89.8641155192153L62.4694,89.85820573241438L62.6066,89.85237043630892L62.6178,89.84660823419357L62.8614,89.84091776406363L62.9076,89.83529769754422L63.3542,89.82974673885849L63.547399999999996,89.82426362383389L64.13680000000001,89.81884711894449L64.1858,89.8134960203878L64.2894,89.8082091531949L64.8242,89.80298537037234L65.5158,89.79782355207436L65.5172,89.79272260480451L66.0156,89.78768146064513L66.0226,89.78269907651394L66.50699999999999,89.77777443344601L66.6442,89.77290653590094L66.6932,89.76809441109347L66.955,89.76333710834709L67.08239999999999,89.75863369846952L67.8132,89.7539832731491L67.9602,89.74938494437164L68.558,89.74483784385659L68.59440000000001,89.74034112251192L68.6868,89.73589394990682L68.8814,89.73149551376207L68.9682,89.72714501945659L69.2594,89.72284168955034L69.28179999999999,89.71858476332233L69.4554,89.7143734963237L69.7606,89.71020715994487L70.007,89.70608504099653L70.0434,89.70200644130388L70.2436,89.69797067731356L70.4578,89.69397707971291L70.658,89.69002499306093L70.8568,89.68611377543093L70.9884,89.6822427980638L71.008,89.6784114450324L71.96839999999999,89.67461911291552L72.0202,89.67086521048239L72.3744,89.66714915838615L72.632,89.66347038886693L72.7104,89.65982834546354L72.8056,89.65622248273371L73.08980000000001,89.65265226598288L73.40899999999999,89.64911717100058L73.5588,89.64561668380492L73.71979999999999,89.64215030039415L73.8668,89.63871752650563L74.0516,89.63531787738182L74.06280000000001,89.63195087754278L74.2476,89.6286160605653L74.4534,89.62531296886831L74.5794,89.62204115350431L74.725,89.61880017395677L74.7642,89.61558959794294L75.2318,89.61240900122273L75.24860000000001,89.60925796741213L75.27520000000001,89.60613608780253L75.299,89.60304296118449L75.3746,89.5999781936765L75.4264,89.59694139855864L75.4782,89.59393219611033L75.65039999999999,89.59095021345281L76.10679999999999,89.58799508439574L76.33500000000001,89.58506644928785L76.4386,89.58216395487159L76.6962,89.5792872541418L77.4662,89.5764360062079L77.49560000000001,89.57360987615986L77.5278,89.57080853493758L77.67620000000001,89.7412189366822L77.8022,89.7376269289548L78.0794,89.73406602392393L78.18860000000001,89.7305358211194L78.3342,89.72703592691657L78.4518,89.7235659543908L78.7444,89.7201255231755L78.785,89.71671425932368L79.28059999999999,89.7133317951732L79.32260000000001,89.7099777692152L79.4738,89.70665182596596L79.59,89.70335361584186L79.6698,89.70008279503753L80.08279999999999,89.69683902540687L80.4846,89.69362197434721L80.8696,89.69043131468602L81.02640000000001,89.68726672457066L81.8146,89.68412788736067L81.837,89.68101449152265L82.20800000000001,89.67792623052772L82.376,89.67486280275142L82.57339999999999,89.67182391137612L83.01440000000001,89.66880926429542L83.5828,89.66581857402129L83.6934,89.662851557593L83.8292,89.6599079364884L83.8726,89.65698743653721L84.02799999999999,89.6540897878364L84.4144,89.65121472466744L84.7,89.64836198541549L84.9282,89.64553131249065L84.9338,89.64272245225062L84.98,89.63993515492554L85.008,89.63716917454425L85.11019999999999,89.6344242688625L85.456,89.6317001992924L85.74159999999999,89.62899673083393L85.7794,89.62631363200764L85.8774,89.62365067478892L86.1546,89.62100763454384L86.177,89.61838428996641L86.9876,89.61578042301711L87.43,89.6131958188628L87.4552,89.61063026581814L87.7492,89.608083555288L88.92519999999999,89.60555548171142L89.0498,89.60304584250645L89.0946,89.60055443801656L89.19539999999999,89.59808107145793L89.2332,89.59562554886803L89.2388,89.59318767905513L89.327,89.59076727354915L89.5902,89.58836414655327L89.7022,89.58597811489675L89.88,89.58360899798872L89.88980000000001,89.5812566177729L89.9514,89.57892079868324L90.0256,89.57660136760066L90.74239999999999,89.57429815381037L90.9496,89.57201098896059L91.434,89.56973970702137L91.4466,89.56748414424516L91.5208,89.5652441391273L91.7098,89.56301953236812L91.92120000000001,89.5608101668352L92.8452,89.5586158875267L92.86760000000001,89.5564365415354L92.9782,89.5542719780134L93.09859999999999,89.55212204813762L94.2214,89.54998660507583L94.619,89.54786550395362L94.69319999999999,89.54575860182175L94.7366,89.54366575762435L94.787,89.54158683216765L94.8416,89.53952168808937L95.03479999999999,89.53747018982862L95.1258,89.53543220359661L95.158,89.53340759734769L95.30640000000001,89.53139624075101L95.4534,89.52939800516286L95.51780000000001,89.52741276359949L95.9308,89.52544039071026L96.3816,89.52348076275167L96.9808,89.52153375756147L97.0914,89.51959925453373L97.2678,89.51767713459391L98.00840000000001,89.51576728017474L98.07839999999999,89.51386957519246L98.20859999999999,89.51198390502343L98.231,89.51011015648129L98.273,89.50824821779452L98.37519999999999,89.50639797858429L98.8806,89.50455932984303L99.14659999999999,89.50273216391301L99.37060000000001,89.50091637446558L99.5876,89.4991118564808L99.7178,89.49731850622724L99.7948,89.49553622124235L100.51719999999999,89.49376490031312L100.73559999999999,89.49200444345709L100.8014,89.49025475190363L101.2088,89.48851572807577L101.2942,89.48678727557207L101.514,89.48506929914909L101.7548,89.48336170470401L102.06840000000001,89.4816643992576L102.1146,89.47997729093754L102.3288,89.47830028896192L102.3498,89.47663330362313L102.8552,89.47497624627212L103.1884,89.47332902930272L103.1982,89.47169156613633L103.2038,89.47006377120702L103.2094,89.46844555994664L103.4068,89.46683684877043L103.4684,89.46523755506264L103.7008,89.46364759716266L103.7512,89.46206689435114L103.77220000000001,89.46049536683657L103.9374,89.45893293574191L104.56739999999999,89.45737952309159L104.7298,89.45583505179859L104.9118,89.45429944565184L104.9748,89.45277262930392L105.2702,89.45125452825873L105.41860000000001,89.4497450688595L105.76020000000001,89.44824417827714L105.7714,89.44675178449845L105.9982,89.44526781631492L106.0724,89.44379220331139L106.8718,89.44232487585509L107.1098,89.4408657650848L107.12939999999999,89.4394148029001L107.2512,89.43797192195106L107.5018,89.43653705562781L107.548,89.43511013805043L107.7986,89.43369110405901L108.2186,89.4322798892038L108.227,89.43087642973552L108.4776,89.429480662596L108.86399999999999,89.42809252540873L109.613,89.4267119564697L109.816,89.4253388947384L109.97840000000001,89.42397327982884L110.09740000000001,89.4226150520009L110.2066,89.42126415215166L110.24440000000001,89.41992052180694L110.26820000000001,89.4185841031129L110.9696,89.41725483882803L111.0354,89.41593267231477L111.2048,89.41461754753186L111.496,89.41330940902634L111.538,89.41200820192587L112.2506,89.41071387193118L112.25899999999999,89.40942636530865L112.2898,89.40814562888286L112.41579999999999,89.40687161002941L112.66499999999999,89.40560425666789L113.68700000000001,89.40434351725466L113.7864,89.40308934077618L114.0132,89.40184167674207L114.1476,89.40060047517844L114.35199999999999,89.39936568662137L114.99459999999999,89.39813726211032L115.1066,89.39691515318188L115.5224,89.39569931186328L115.56580000000001,89.3944896906664L116.0236,89.39328624258151L116.2336,89.39208892107139L116.50800000000001,89.39089768006528L116.8006,89.38971247395315L116.9182,89.38853325757994L117.1394,89.38735998623977L117.411,89.38619261567064L117.58319999999999,89.38503110204863L117.73719999999999,89.38387540198272L117.915,89.38272547250932L118.31540000000001,89.38158127108713L118.3294,89.38044275559183L118.5618,89.37930988431111L118.8446,89.37818261593962L119.343,89.37706090957391L119.4088,89.37594472470772L119.63000000000001,89.37483402122704L119.6734,89.37372875940544L119.84140000000001,89.37262889989935L119.9002,89.37153440374357L119.9926,89.37044523234651L120.2698,89.36936134748603L120.4686,89.36828271130476L120.8172,89.36720928630587L121.5018,89.36614103534879L121.72720000000001,89.365077921645L121.76639999999999,89.36401990875386L121.8294,89.36296696057845L122.416,89.36191904136156L123.5682,89.36087611568175L123.5934,89.35983814844941L123.7292,89.35880510490283L123.8006,89.35777695060435L124.026,89.35675365143673L124.5006,89.3557351735993L124.5832,89.35472148360437L124.8394,89.35371254827358L124.85900000000001,89.35270833473433L125.237,89.35170881041631L125.2664,89.35071394304799L125.6066,89.34972370065327L125.7172,89.34873805154795L125.881,89.34775696433661L126.6468,89.34678040790918L126.81200000000001,89.34580835143777L126.9184,89.34484076437344L127.281,89.34387761644311L127.3944,89.34291887764638L127.9992,89.34196451825252L128.1756,89.34101450879747L128.212,89.34006882008073L128.3744,89.33912742316257L128.59,89.33819028936105L128.6684,89.33725739024915L128.7398,89.33632869765198L128.7706,89.33540418364397L128.8168,89.33448382054611L128.8518,89.33356758092326L129.2158,89.33265543758144L129.2186,89.33174736356521L129.3614,89.330843332155L129.3656,89.3299433168647L129.5812,89.32904729143891L129.8122,89.32815522985057L130.0222,89.32726710629835L130.2126,89.32638289520445L130.4506,89.3255025712119L130.6452,89.32462610918235L131.3046,89.32375348419372L131.3116,89.32288467153779L131.3774,89.32201964671799L131.4614,89.32115838544708L131.4936,89.320300863645L131.8618,89.31944705743656L132.8614,89.31859694314936L133.2394,89.31775049731155L133.6566,89.3169076966498L133.6818,89.3160685180872L133.7938,89.31523293874109L134.2992,89.3144009359211L134.5386,89.3135724871272L134.7052,89.3127475700475L135.0034,89.31192616255656L135.0748,89.31110824271319L135.2764,89.31029378875874L135.3422,89.30948277911504L135.506,89.30867519238268L135.6684,89.30787100733905L135.6782,89.30707020293652L136.0772,89.3062727583008L136.542,89.30547865272892L137.06140000000002,89.30468786568768L137.38899999999998,89.30390037681178L137.4912,89.30311616590214L137.571,89.30233521292426L138.285,89.30155749800653L138.3802,89.30078300143849L138.488,89.3000117036693L138.5076,89.29924358530616L138.5622,89.29847862711253L138.607,89.29771681000675L139.18519999999998,89.29695811506042L139.4358,89.29620252349685L139.965,89.29545001668951L140.0434,89.29470057616066L140.049,89.2939541835797L140.14,89.29321082076183L140.231,89.29247046966654L140.546,89.2917331123962L140.5684,89.29099873119472L140.77,89.29026730844596L140.8064,89.28953882667264L140.85819999999998,89.28881326853462L141.3944,89.28809061682794L141.42100000000002,89.28737085448319L141.5638,89.2866539645643L141.9334,89.28593993026729L142.0916,89.28522873491893L142.1406,89.28452036197544L142.7328,89.28381479502131L143.8304,89.28311201776803L143.87800000000001,89.37043417735413L143.9886,89.36951961347114L144.305,89.36860864567034L144.37779999999998,89.36770125323676L144.5738,89.36679741561422L144.914,89.36589711240374L145.2668,89.36500032336205L145.49220000000003,89.36410702840004L145.831,89.36321720758141L145.8758,89.36233084112115L146.1726,89.36144790938411L146.44140000000002,89.36056839288362L146.5604,89.35969227228006L146.74519999999998,89.35881952837946L147.028,89.35795014213214L147.07279999999997,89.35708409463143L147.12460000000002,89.35622136711221L147.2366,89.35536194094968L147.44799999999998,89.35450579765796L147.7112,89.35365291888895L147.7546,89.35280328643086L147.8008,89.35195688220709L147.9604,89.35111368827494L148.0486,89.3502736868243L148.4196,89.34943686017652L149.49200000000002,89.34860319078318L149.5102,89.34777266122484L149.61100000000002,89.34694525420996L149.81119999999999,89.34612095257357L150.3502,89.34529973927629L150.43,89.34448159740309L150.57840000000002,89.3436665101621L150.66940000000002,89.34285446088366L150.73239999999998,89.342045433019L150.9606,89.3412394101394L151.3918,89.34043637593477L152.1436,89.33963631421294L152.34099999999998,89.33883920889836L152.96679999999998,89.33804504403109L153.0858,89.33725380376583L153.1082,89.33646547237085L153.643,89.33568003422694L153.6668,89.3348974738265L153.84879999999998,89.33411777577246L153.96220000000002,89.33334092477726L154.04899999999998,89.33256690566208L154.33180000000002,89.33179570335562L154.63,89.33102730289335L155.5036,89.33026168941637L155.5316,89.32949884817072L155.82,89.32873876450627L156.2736,89.32798142387583L156.3016,89.32722681183434L156.3058,89.3264749140379L156.4248,89.32572571624287L156.429,89.32497920430512L156.9316,89.32423536417895L156.968,89.32349418191646L157.82059999999998,89.32275564366654L157.9032,89.3220197356741L158.3764,89.32128644427925L158.5122,89.32055575591642L158.85940000000002,89.3198276571136L159.4614,89.31910213449152L160.13199999999998,89.31837917476288L160.35039999999998,89.31765876473148L160.6976,89.3169408912915L160.84740000000002,89.31622554142675L161.0798,89.31551270220986L161.2576,89.31480236080152L161.4494,89.3140945044498L161.52779999999998,89.3133891204893L161.57260000000002,89.31268619634052L161.672,89.31198571950905L162.204,89.31128767758491L162.3286,89.31059205824181L162.3608,89.30989884923648L162.8214,89.3092080384079L163.149,89.3085196136767L163.23999999999998,89.30783356304438L163.8252,89.30714987459272L164.01839999999999,89.3064685364831L164.1164,89.30578953695576L164.2144,89.30511286432922L164.38240000000002,89.30443850699959L164.44400000000002,89.3823541030716L164.63439999999997,89.38151106739282L164.8388,89.38067090276343L164.91439999999997,89.37983359496023L165.0264,89.37899912985374L165.1804,89.37816749340737L165.3946,89.3773386716768L165.4968,89.37651265080898L165.7656,89.37568941704171L165.8636,89.37486895670261L165.9322,89.37405125620855L166.677,89.37323630206481L167.3084,89.37242408086455L167.45680000000002,89.37161457928785L167.4596,89.3708077841012L167.83759999999998,89.37000368215669L168.39759999999998,89.36920226039138L168.7924,89.36840350582656L168.82459999999998,89.36760740556716L169.0514,89.36681394680097L169.2012,89.36602311679808L169.2838,89.36523490291007L169.3958,89.36444929256956L169.5008,89.36366627328943L169.617,89.36288583266216L169.7276,89.3621079583593L169.869,89.36133263813076L169.897,89.36055985980423L170.0034,89.35978961128451L170.0832,89.35902188055299L170.0986,89.35825665566695L170.6922,89.35749392475903L170.7202,89.3567336760366L171.2298,89.35597589778115L171.5126,89.35522057834784L171.55740000000003,89.35446770616473L171.633,89.35371726973233L171.759,89.35296925762302L172.03199999999998,89.35222365848043L172.0754,89.351480461019L172.1524,89.35073965402334L172.2014,89.35000122634767L172.21540000000002,89.34926516691537L172.48839999999998,89.34853146471835L172.8468,89.34780010881663L172.92380000000003,89.34707108833761L173.5258,89.34634439247583L173.9864,89.34562001049224L174.06759999999997,89.34489793171377L174.5856,89.34417814553284L174.7312,89.34346064140679L174.75080000000003,89.34274540885747L174.7774,89.34203243747066L174.8348,89.3413217168957L174.8544,89.34061323684485L174.87539999999998,89.33990698709293L174.8936,89.33920295747686L174.9482,89.33850113789504L175.1302,89.33780151830706L175.371,89.33710408873316L175.6076,89.33640883925375L175.85399999999998,89.335715760009L175.9828,89.33502484119836L176.08360000000002,89.33433607308011L176.10320000000002,89.33364944597103L176.694,89.33296495024577L176.7738,89.3322825763365L176.946,89.33160231473262L177.1924,89.33092415598011L177.33239999999998,89.33024809068128L177.4766,89.32957410949419L177.94420000000002,89.32890220313239L178.86960000000002,89.32823236236446L178.9256,89.32756457801356L178.9718,89.32689884095709L179.2294,89.3262351421262L179.8286,89.3255734725055L180.0204,89.32491382313262L180.9388,89.32425618509777L180.9402,89.32360054954346L181.0214,89.32294690766405L181.3014,89.32229525070538L181.412,89.32164556996435L181.7508,89.32099785678862L182.0882,89.3203521025763L182.26739999999998,89.31970829877534L182.3136,89.31906643688346L182.5852,89.31842650844762L182.66920000000002,89.31778850506365L182.8204,89.31715241837597L182.8708,89.31651824007724L182.8974,89.31588596190802L183.03179999999998,89.31525557565631L183.6716,89.31462707315731L183.72899999999998,89.31400044629314L183.85219999999998,89.31337568699232L184.163,89.31275278722963L184.37720000000002,89.31213173902566L184.6418,89.3115125344465L184.681,89.31089516560353L185.458,89.31027962465284L185.7296,89.30966590379523L185.7842,89.30905399527566L186.0628,89.30844389138305L186.6508,89.30783558444988L187.0246,89.30722906685199L187.2374,89.3066243310082L187.572,89.30602136938003L188.00879999999998,89.30542017447142L188.24259999999998,89.30482073882838L188.2538,89.30422305503873L188.74800000000002,89.30362711573183L189.1344,89.3030329135782L189.20860000000002,89.30244044128938L189.70839999999998,89.30184969161749L189.7252,89.30126065735506L190.071,89.30067333133465L190.0808,89.3000877064287L190.22920000000002,89.29950377554913L190.4546,89.2989215316471L190.58059999999998,89.29834096771283L191.0342,89.29776207677519L191.2736,89.29718485190152L191.3422,89.29660928619735L191.3954,89.29603537280616L191.443,89.29546310490899L191.49620000000002,89.29489247572441L191.5508,89.29432347850805L191.7132,89.29375610655248L191.82240000000002,89.29319035318686L191.842,89.2926262117768L191.8658,89.29206367572404L192.017,89.29150273846615L192.689,89.29094339347648L192.95499999999998,89.29038563426367L193.1174,89.28982945437158L193.4254,89.28927484737902L193.46599999999998,89.2887218068995L194.11139999999997,89.28817032658094L194.4712,89.28762040010552L194.5118,89.28707202118946L194.5972,89.2865251835827L195.0228,89.28597988106876L195.258,89.28543610746442L195.97060000000002,89.28489385661966L196.40740000000002,89.28435312241726L197.19559999999998,89.28381389877266L197.6688,89.28327617963379L197.6702,89.28273995898073L197.86479999999997,89.28220523082564L197.9068,89.28167198921243L197.96419999999998,89.28114022821663L198.1266,89.28060994194512L198.569,89.28008112453594L198.6278,89.27955377015816L199.08700000000002,89.2790278730115L199.1304,89.27850342732631L199.54059999999998,89.2779804273633L199.6708,89.27745886741333L199.6876,89.27693874179718L199.8346,89.27642004486543L200.2952,89.27590277099821L201.0526,89.27538691460504L201.08620000000002,89.27487247012458L201.13240000000002,89.27435943202455L201.7442,89.2738477948014L201.83659999999998,89.27333755298027L201.8758,89.27282870111466L202.3448,89.27232123378636L202.664,89.27181514560522L202.66819999999998,89.27131043120895L202.6836,89.27080708526296L202.7452,89.27030510246021L203.0602,89.26980447752098L203.406,89.33518289205891L205.0216,89.33456316425887L205.3618,89.3339451069725L205.709,89.33332871376248L205.78320000000002,89.33271397822456L205.93580000000003,89.33210089398712L206.12199999999999,89.33148945471112L206.3796,89.3308796540899L206.5588,89.33027148584884L206.633,89.32966494374526L206.6918,89.32906002156822L206.8444,89.32845671313831L206.8542,89.32785501230737L206.899,89.32725491295842L206.9438,89.32665640900537L207.0292,89.32605949439282L207.05440000000002,89.32546416309599L207.3568,89.32487040912038L207.6256,89.32427822650163L207.77120000000002,89.32368760930534L207.85799999999998,89.32309855162696L208.1016,89.32251104759136L208.39280000000002,89.32192509135301L208.8044,89.32134067709542L208.8604,89.32075779903124L209.0452,89.32017645140193L209.1684,89.31959662847764L209.1852,89.319018324557L209.19639999999998,89.31844153396695L209.3028,89.31786625106257L209.363,89.31729247022695L209.54080000000002,89.31672018587093L209.7536,89.31614939243298L209.89499999999998,89.31558008437905L210.0994,89.31501225620234L210.231,89.31444590242315L210.44240000000002,89.31388101758876L210.98420000000002,89.31331759627324L211.2964,89.31275563307723L211.3804,89.3121951226279L212.0874,89.31163605957863L212.1028,89.31107843860902L212.35199999999998,89.31052225442453L212.38420000000002,89.30996750175653L212.42759999999998,89.30941417536202L212.62640000000002,89.30886227002347L212.646,89.30831178054873L213.50840000000002,89.30776270177087L213.7464,89.30721502854793L214.0824,89.30666875576287L214.1048,89.30612387832339L214.48839999999998,89.30558039116178L214.6452,89.3050382892348L214.89440000000002,89.30449756752343L214.9392,89.30395822103283L215.04,89.30342024479216L215.404,89.3028836338545L215.6098,89.30234838329656L216.1264,89.30181448821865L216.1446,89.3012819437445L216.2636,89.30075074502116L216.76059999999998,89.30022088721881L216.7928,89.29969236553066L216.7998,89.29916517517277L216.8278,89.298639311384L216.9762,89.29811476942574L217.861,89.29759154458189L218.22080000000003,89.29706963215871L218.6926,89.29654902748462L218.792,89.29602972591016L218.9012,89.29551172280779L219.3422,89.29499501357179L219.3492,89.29447959361814L219.37019999999998,89.29396545838435L219.8322,89.29345260332941L219.87699999999998,89.2929410239336L220.15279999999998,89.2924307156983L220.47480000000002,89.29192167414612L220.591,89.29141389482047L220.61759999999998,89.29090737328556L220.7618,89.29040210512645L220.8416,89.28989808594856L221.1524,89.28939531137796L221.41840000000002,89.28889377706089L221.82160000000002,89.2883934786639L221.86079999999998,89.2878944118736L221.9812,89.2873965723966L222.5146,89.28689995595937L222.5454,89.28640455830815L222.96120000000002,89.28591037520876L223.1642,89.28541740244657L223.2286,89.2849256358264L223.965,89.28443507117235L224.021,89.28394570432765L224.03220000000002,89.28345753115468L224.063,89.28297054753477L224.077,89.2824847493681L224.1834,89.28200013257359L224.231,89.2815166930888L224.3528,89.28103442686991L224.3962,89.28055332989143L225.04999999999998,89.28007339814626L225.2978,89.27959462764547L225.3846,89.27911701441833L225.7108,89.27864055451204L225.7192,89.27816524399178L226.5942,89.2776910789405L226.6446,89.2772180554589L226.78040000000001,89.27674616966527L227.0744,89.27627541769543L227.0758,89.2758057957026L227.49439999999998,89.2753372998573L227.8514,89.27486992634731L228.0488,89.2744036713775L228.46040000000002,89.27393853116979L228.67880000000002,89.27347450196304L228.879,89.27301158001286L228.9994,89.27254976159176L229.0134,89.27208904298875L229.21079999999998,89.27162942050944L229.2738,89.271170890476L229.30880000000002,89.2707134492268L229.48520000000002,89.27025709311661L229.5832,89.26980181851637L229.8198,89.26934762181313L229.9164,89.26889449940987L229.999,89.26844244772562L230.16559999999998,89.26799146319513L230.3392,89.26754154226897L231.392,89.26709268141337L231.8568,89.26664487711007L231.87220000000002,89.26619812585638L231.99540000000002,89.26575242416492L232.04999999999998,89.26530776856372L232.1074,89.264864155596L232.3048,89.26442158182012L232.83679999999998,89.26398004380953L232.95860000000002,89.26353953815266L233.3744,89.26310006145285L234.2144,89.26266161032824L234.2984,89.26222418141172L234.3124,89.26178777135087L234.48739999999998,89.26135237680782L235.28820000000002,89.26091799445919L235.46460000000002,89.26048462099607L235.6032,89.26005225312386L235.7936,89.25962088756222L235.96439999999998,89.25919052104504L236.0456,89.25876115032028L236.1422,89.25833277214997L236.14780000000002,89.25790538331006L236.2892,89.25747898059046L236.40959999999998,89.25705356079483L236.4306,89.25662912074056L237.21880000000002,89.25620565725876L237.37699999999998,89.25578316719408L237.55620000000002,89.2553616474047L237.5772,89.25494109476226L237.67520000000002,89.25452150615176L237.84040000000002,89.25410287847151L237.9118,89.25368520863304L238.0084,89.25326849356108L238.01399999999998,89.25285273019337L238.7518,89.25243791548074L238.7784,89.25202404638695L238.8904,89.25161111988862L239.0612,89.25119913297526L239.2082,89.25078808264901L239.4588,89.2503779659248L239.47840000000002,89.2499687798301L239.5288,89.24956052140496L239.5862,89.24915318770189L239.71779999999998,89.24874677578583L239.78640000000001,89.24834128273407L239.8088,89.24793670563616L239.9222,89.24753304159388L240.03840000000002,89.2471302877212L240.1602,89.24672844114411L240.18540000000002,89.2463274990007L240.3744,89.24592745844097L240.56480000000002,89.24552831662685L241.10660000000001,89.24513007073212L241.1584,89.24473271794231L241.53220000000002,89.2443362554547L241.8206,89.24394068047816L241.8724,89.24354599023327L242.9784,89.24315218195201L243.07219999999998,89.24275925287797L243.1576,89.24236720026603L243.29899999999998,89.24197602138253L243.6616,89.24158571350503L243.75119999999998,89.24119627392243L244.3294,89.24080769993468L244.5296,89.24041998885295L244.9832,89.24003313799948L245.2646,89.23964714470743L245.3738,89.23926200632103L245.3864,89.23887772019529L245.8176,89.23849428369617L246.008,89.23811169420037L246.029,89.23772994909531L246.35940000000002,89.23734904577907L246.4462,89.23696898166044L246.8326,89.23658975415864L246.94879999999998,89.23621136070354L247.3128,89.23583379873536L247.5564,89.23545706570481L247.6586,89.23508115907289L247.6922,89.23470607631097L247.7566,89.2343318149006L247.863,89.23395837233356L247.8896,89.23358574611176L247.98200000000003,89.23321393374725L248.2074,89.23284293276204L248.3348,89.23247274068825L248.402,89.2321033550678L248.6722,89.23173477345264L248.89339999999999,89.23136699340446L248.93259999999998,89.2310000124948L249.09779999999998,89.23063382830492L249.15939999999998,89.23026843842577L249.19299999999998,89.22990384045798L249.25740000000002,89.22954003201174L249.7348,89.2291770107068" style="fill: none;" fill="none"></path></g></g></g></g><g opacity="0.2"><g><g><g><path stroke="rgb(238, 51, 119)" stroke-width="2px" d="M28.058799999999998,124.6L28.2338,89L28.3206,124.6L28.663600000000002,89L28.7504,89L28.8106,89L28.8204,89L28.8876,89L28.9058,89L28.999599999999997,89L29.1312,89L29.4196,89L29.8662,89L29.939,89L29.9488,89L30.0104,89L30.4276,89L30.431800000000003,89L30.6278,89L30.6838,89L30.8504,89L31.229799999999997,89L31.3446,89L31.479,89L31.4804,89L31.759,89L32.2532,89L32.522,89L32.5444,89L32.627,89L33.0652,89L33.068,89L33.138,124.6L33.3494,89L33.538399999999996,89L34.0438,89L34.16,89L34.2888,89L34.3126,89L34.5464,89L34.959399999999995,89L35.1876,89L35.483000000000004,89L35.5026,89L36.0122,89L36.209599999999995,89L36.269800000000004,89L36.386,89L36.68,89L36.706599999999995,89L37.3786,89L37.3954,89L37.5956,89L37.7524,89L38.017,89L38.444,89L38.4482,89L38.9172,89L38.9662,89L39.2924,89L39.452,89L39.5094,89L39.8972,89L39.9112,89L40.429199999999994,89L40.509,89L40.964000000000006,89L41.2552,89L41.375600000000006,89L41.3938,89L41.577200000000005,89L42.5586,89L42.6706,89L42.7308,89L42.8498,89L43.092000000000006,89L43.262800000000006,89L43.266999999999996,89L43.352399999999996,89L43.428,89L43.5428,89L44.1448,89L44.1924,89L44.359,89L44.462599999999995,89L44.7566,89L44.763600000000004,124.6L45.029599999999995,89L45.206,89L46.0278,89L46.247600000000006,89L46.2854,89L47.0358,89L47.068,89L47.334,89L47.909400000000005,89L48.0116,89L48.0732,89L48.2258,89L48.4932,89L48.535199999999996,89L48.690599999999996,89L48.822199999999995,89L49.6622,89L50.0696,89L50.5624,89L50.849399999999996,89L51.5998,89L51.892399999999995,89L51.9358,89L52.2438,89L52.2746,89L52.560199999999995,89L52.5798,89L53.8314,89L54.7624,89L54.8366,89L55.3434,89L55.495999999999995,89L55.5156,89L55.6234,89L55.993,89L56.0742,89L56.0868,89L56.3416,89L56.3528,89L56.4522,89L56.616,89L56.754599999999996,89L56.8092,89L57.090599999999995,89L57.0948,89L57.197,89L57.512,89L57.6016,89L57.7248,89L57.8466,89L58.1322,89L58.5872,89L59.143,89L59.262,89L59.3012,89L60.3932,89L60.407199999999996,89L60.4688,89L60.6004,89L60.7054,89L60.797799999999995,89L60.956,89L61.138,89L61.1534,89L61.181400000000004,89L61.5132,89L61.8058,89L61.9948,89L61.9976,89L62.0508,89L62.4694,89L62.6066,89L62.6178,89L62.8614,89L62.9076,89L63.3542,89L63.547399999999996,89L64.13680000000001,89L64.1858,89L64.2894,89L64.8242,89L65.5158,89L65.5172,89L66.0156,89L66.0226,89L66.50699999999999,89L66.6442,89L66.6932,89L66.955,89L67.08239999999999,89L67.8132,89L67.9602,89L68.558,89L68.59440000000001,89L68.6868,89L68.8814,89L68.9682,89L69.2594,89L69.28179999999999,89L69.4554,89L69.7606,89L70.007,89L70.0434,89L70.2436,89L70.4578,89L70.658,89L70.8568,89L70.9884,89L71.008,89L71.96839999999999,89L72.0202,89L72.3744,89L72.632,89L72.7104,89L72.8056,89L73.08980000000001,89L73.40899999999999,89L73.5588,89L73.71979999999999,89L73.8668,89L74.0516,89L74.06280000000001,89L74.2476,89L74.4534,89L74.5794,89L74.725,89L74.7642,89L75.2318,89L75.24860000000001,89L75.27520000000001,89L75.299,89L75.3746,89L75.4264,89L75.4782,89L75.65039999999999,89L76.10679999999999,89L76.33500000000001,89L76.4386,89L76.6962,89L77.4662,89L77.49560000000001,89L77.5278,89L77.67620000000001,124.6L77.8022,89L78.0794,89L78.18860000000001,89L78.3342,89L78.4518,89L78.7444,89L78.785,89L79.28059999999999,89L79.32260000000001,89L79.4738,89L79.59,89L79.6698,89L80.08279999999999,89L80.4846,89L80.8696,89L81.02640000000001,89L81.8146,89L81.837,89L82.20800000000001,89L82.376,89L82.57339999999999,89L83.01440000000001,89L83.5828,89L83.6934,89L83.8292,89L83.8726,89L84.02799999999999,89L84.4144,89L84.7,89L84.9282,89L84.9338,89L84.98,89L85.008,89L85.11019999999999,89L85.456,89L85.74159999999999,89L85.7794,89L85.8774,89L86.1546,89L86.177,89L86.9876,89L87.43,89L87.4552,89L87.7492,89L88.92519999999999,89L89.0498,89L89.0946,89L89.19539999999999,89L89.2332,89L89.2388,89L89.327,89L89.5902,89L89.7022,89L89.88,89L89.88980000000001,89L89.9514,89L90.0256,89L90.74239999999999,89L90.9496,89L91.434,89L91.4466,89L91.5208,89L91.7098,89L91.92120000000001,89L92.8452,89L92.86760000000001,89L92.9782,89L93.09859999999999,89L94.2214,89L94.619,89L94.69319999999999,89L94.7366,89L94.787,89L94.8416,89L95.03479999999999,89L95.1258,89L95.158,89L95.30640000000001,89L95.4534,89L95.51780000000001,89L95.9308,89L96.3816,89L96.9808,89L97.0914,89L97.2678,89L98.00840000000001,89L98.07839999999999,89L98.20859999999999,89L98.231,89L98.273,89L98.37519999999999,89L98.8806,89L99.14659999999999,89L99.37060000000001,89L99.5876,89L99.7178,89L99.7948,89L100.51719999999999,89L100.73559999999999,89L100.8014,89L101.2088,89L101.2942,89L101.514,89L101.7548,89L102.06840000000001,89L102.1146,89L102.3288,89L102.3498,89L102.8552,89L103.1884,89L103.1982,89L103.2038,89L103.2094,89L103.4068,89L103.4684,89L103.7008,89L103.7512,89L103.77220000000001,89L103.9374,89L104.56739999999999,89L104.7298,89L104.9118,89L104.9748,89L105.2702,89L105.41860000000001,89L105.76020000000001,89L105.7714,89L105.9982,89L106.0724,89L106.8718,89L107.1098,89L107.12939999999999,89L107.2512,89L107.5018,89L107.548,89L107.7986,89L108.2186,89L108.227,89L108.4776,89L108.86399999999999,89L109.613,89L109.816,89L109.97840000000001,89L110.09740000000001,89L110.2066,89L110.24440000000001,89L110.26820000000001,89L110.9696,89L111.0354,89L111.2048,89L111.496,89L111.538,89L112.2506,89L112.25899999999999,89L112.2898,89L112.41579999999999,89L112.66499999999999,89L113.68700000000001,89L113.7864,89L114.0132,89L114.1476,89L114.35199999999999,89L114.99459999999999,89L115.1066,89L115.5224,89L115.56580000000001,89L116.0236,89L116.2336,89L116.50800000000001,89L116.8006,89L116.9182,89L117.1394,89L117.411,89L117.58319999999999,89L117.73719999999999,89L117.915,89L118.31540000000001,89L118.3294,89L118.5618,89L118.8446,89L119.343,89L119.4088,89L119.63000000000001,89L119.6734,89L119.84140000000001,89L119.9002,89L119.9926,89L120.2698,89L120.4686,89L120.8172,89L121.5018,89L121.72720000000001,89L121.76639999999999,89L121.8294,89L122.416,89L123.5682,89L123.5934,89L123.7292,89L123.8006,89L124.026,89L124.5006,89L124.5832,89L124.8394,89L124.85900000000001,89L125.237,89L125.2664,89L125.6066,89L125.7172,89L125.881,89L126.6468,89L126.81200000000001,89L126.9184,89L127.281,89L127.3944,89L127.9992,89L128.1756,89L128.212,89L128.3744,89L128.59,89L128.6684,89L128.7398,89L128.7706,89L128.8168,89L128.8518,89L129.2158,89L129.2186,89L129.3614,89L129.3656,89L129.5812,89L129.8122,89L130.0222,89L130.2126,89L130.4506,89L130.6452,89L131.3046,89L131.3116,89L131.3774,89L131.4614,89L131.4936,89L131.8618,89L132.8614,89L133.2394,89L133.6566,89L133.6818,89L133.7938,89L134.2992,89L134.5386,89L134.7052,89L135.0034,89L135.0748,89L135.2764,89L135.3422,89L135.506,89L135.6684,89L135.6782,89L136.0772,89L136.542,89L137.06140000000002,89L137.38899999999998,89L137.4912,89L137.571,89L138.285,89L138.3802,89L138.488,89L138.5076,89L138.5622,89L138.607,89L139.18519999999998,89L139.4358,89L139.965,89L140.0434,89L140.049,89L140.14,89L140.231,89L140.546,89L140.5684,89L140.77,89L140.8064,89L140.85819999999998,89L141.3944,89L141.42100000000002,89L141.5638,89L141.9334,89L142.0916,89L142.1406,89L142.7328,89L143.8304,89L143.87800000000001,124.6L143.9886,89L144.305,89L144.37779999999998,89L144.5738,89L144.914,89L145.2668,89L145.49220000000003,89L145.831,89L145.8758,89L146.1726,89L146.44140000000002,89L146.5604,89L146.74519999999998,89L147.028,89L147.07279999999997,89L147.12460000000002,89L147.2366,89L147.44799999999998,89L147.7112,89L147.7546,89L147.8008,89L147.9604,89L148.0486,89L148.4196,89L149.49200000000002,89L149.5102,89L149.61100000000002,89L149.81119999999999,89L150.3502,89L150.43,89L150.57840000000002,89L150.66940000000002,89L150.73239999999998,89L150.9606,89L151.3918,89L152.1436,89L152.34099999999998,89L152.96679999999998,89L153.0858,89L153.1082,89L153.643,89L153.6668,89L153.84879999999998,89L153.96220000000002,89L154.04899999999998,89L154.33180000000002,89L154.63,89L155.5036,89L155.5316,89L155.82,89L156.2736,89L156.3016,89L156.3058,89L156.4248,89L156.429,89L156.9316,89L156.968,89L157.82059999999998,89L157.9032,89L158.3764,89L158.5122,89L158.85940000000002,89L159.4614,89L160.13199999999998,89L160.35039999999998,89L160.6976,89L160.84740000000002,89L161.0798,89L161.2576,89L161.4494,89L161.52779999999998,89L161.57260000000002,89L161.672,89L162.204,89L162.3286,89L162.3608,89L162.8214,89L163.149,89L163.23999999999998,89L163.8252,89L164.01839999999999,89L164.1164,89L164.2144,89L164.38240000000002,89L164.44400000000002,124.6L164.63439999999997,89L164.8388,89L164.91439999999997,89L165.0264,89L165.1804,89L165.3946,89L165.4968,89L165.7656,89L165.8636,89L165.9322,89L166.677,89L167.3084,89L167.45680000000002,89L167.4596,89L167.83759999999998,89L168.39759999999998,89L168.7924,89L168.82459999999998,89L169.0514,89L169.2012,89L169.2838,89L169.3958,89L169.5008,89L169.617,89L169.7276,89L169.869,89L169.897,89L170.0034,89L170.0832,89L170.0986,89L170.6922,89L170.7202,89L171.2298,89L171.5126,89L171.55740000000003,89L171.633,89L171.759,89L172.03199999999998,89L172.0754,89L172.1524,89L172.2014,89L172.21540000000002,89L172.48839999999998,89L172.8468,89L172.92380000000003,89L173.5258,89L173.9864,89L174.06759999999997,89L174.5856,89L174.7312,89L174.75080000000003,89L174.7774,89L174.8348,89L174.8544,89L174.87539999999998,89L174.8936,89L174.9482,89L175.1302,89L175.371,89L175.6076,89L175.85399999999998,89L175.9828,89L176.08360000000002,89L176.10320000000002,89L176.694,89L176.7738,89L176.946,89L177.1924,89L177.33239999999998,89L177.4766,89L177.94420000000002,89L178.86960000000002,89L178.9256,89L178.9718,89L179.2294,89L179.8286,89L180.0204,89L180.9388,89L180.9402,89L181.0214,89L181.3014,89L181.412,89L181.7508,89L182.0882,89L182.26739999999998,89L182.3136,89L182.5852,89L182.66920000000002,89L182.8204,89L182.8708,89L182.8974,89L183.03179999999998,89L183.6716,89L183.72899999999998,89L183.85219999999998,89L184.163,89L184.37720000000002,89L184.6418,89L184.681,89L185.458,89L185.7296,89L185.7842,89L186.0628,89L186.6508,89L187.0246,89L187.2374,89L187.572,89L188.00879999999998,89L188.24259999999998,89L188.2538,89L188.74800000000002,89L189.1344,89L189.20860000000002,89L189.70839999999998,89L189.7252,89L190.071,89L190.0808,89L190.22920000000002,89L190.4546,89L190.58059999999998,89L191.0342,89L191.2736,89L191.3422,89L191.3954,89L191.443,89L191.49620000000002,89L191.5508,89L191.7132,89L191.82240000000002,89L191.842,89L191.8658,89L192.017,89L192.689,89L192.95499999999998,89L193.1174,89L193.4254,89L193.46599999999998,89L194.11139999999997,89L194.4712,89L194.5118,89L194.5972,89L195.0228,89L195.258,89L195.97060000000002,89L196.40740000000002,89L197.19559999999998,89L197.6688,89L197.6702,89L197.86479999999997,89L197.9068,89L197.96419999999998,89L198.1266,89L198.569,89L198.6278,89L199.08700000000002,89L199.1304,89L199.54059999999998,89L199.6708,89L199.6876,89L199.8346,89L200.2952,89L201.0526,89L201.08620000000002,89L201.13240000000002,89L201.7442,89L201.83659999999998,89L201.8758,89L202.3448,89L202.664,89L202.66819999999998,89L202.6836,89L202.7452,89L203.0602,89L203.406,124.6L205.0216,89L205.3618,89L205.709,89L205.78320000000002,89L205.93580000000003,89L206.12199999999999,89L206.3796,89L206.5588,89L206.633,89L206.6918,89L206.8444,89L206.8542,89L206.899,89L206.9438,89L207.0292,89L207.05440000000002,89L207.3568,89L207.6256,89L207.77120000000002,89L207.85799999999998,89L208.1016,89L208.39280000000002,89L208.8044,89L208.8604,89L209.0452,89L209.1684,89L209.1852,89L209.19639999999998,89L209.3028,89L209.363,89L209.54080000000002,89L209.7536,89L209.89499999999998,89L210.0994,89L210.231,89L210.44240000000002,89L210.98420000000002,89L211.2964,89L211.3804,89L212.0874,89L212.1028,89L212.35199999999998,89L212.38420000000002,89L212.42759999999998,89L212.62640000000002,89L212.646,89L213.50840000000002,89L213.7464,89L214.0824,89L214.1048,89L214.48839999999998,89L214.6452,89L214.89440000000002,89L214.9392,89L215.04,89L215.404,89L215.6098,89L216.1264,89L216.1446,89L216.2636,89L216.76059999999998,89L216.7928,89L216.7998,89L216.8278,89L216.9762,89L217.861,89L218.22080000000003,89L218.6926,89L218.792,89L218.9012,89L219.3422,89L219.3492,89L219.37019999999998,89L219.8322,89L219.87699999999998,89L220.15279999999998,89L220.47480000000002,89L220.591,89L220.61759999999998,89L220.7618,89L220.8416,89L221.1524,89L221.41840000000002,89L221.82160000000002,89L221.86079999999998,89L221.9812,89L222.5146,89L222.5454,89L222.96120000000002,89L223.1642,89L223.2286,89L223.965,89L224.021,89L224.03220000000002,89L224.063,89L224.077,89L224.1834,89L224.231,89L224.3528,89L224.3962,89L225.04999999999998,89L225.2978,89L225.3846,89L225.7108,89L225.7192,89L226.5942,89L226.6446,89L226.78040000000001,89L227.0744,89L227.0758,89L227.49439999999998,89L227.8514,89L228.0488,89L228.46040000000002,89L228.67880000000002,89L228.879,89L228.9994,89L229.0134,89L229.21079999999998,89L229.2738,89L229.30880000000002,89L229.48520000000002,89L229.5832,89L229.8198,89L229.9164,89L229.999,89L230.16559999999998,89L230.3392,89L231.392,89L231.8568,89L231.87220000000002,89L231.99540000000002,89L232.04999999999998,89L232.1074,89L232.3048,89L232.83679999999998,89L232.95860000000002,89L233.3744,89L234.2144,89L234.2984,89L234.3124,89L234.48739999999998,89L235.28820000000002,89L235.46460000000002,89L235.6032,89L235.7936,89L235.96439999999998,89L236.0456,89L236.1422,89L236.14780000000002,89L236.2892,89L236.40959999999998,89L236.4306,89L237.21880000000002,89L237.37699999999998,89L237.55620000000002,89L237.5772,89L237.67520000000002,89L237.84040000000002,89L237.9118,89L238.0084,89L238.01399999999998,89L238.7518,89L238.7784,89L238.8904,89L239.0612,89L239.2082,89L239.4588,89L239.47840000000002,89L239.5288,89L239.5862,89L239.71779999999998,89L239.78640000000001,89L239.8088,89L239.9222,89L240.03840000000002,89L240.1602,89L240.18540000000002,89L240.3744,89L240.56480000000002,89L241.10660000000001,89L241.1584,89L241.53220000000002,89L241.8206,89L241.8724,89L242.9784,89L243.07219999999998,89L243.1576,89L243.29899999999998,89L243.6616,89L243.75119999999998,89L244.3294,89L244.5296,89L244.9832,89L245.2646,89L245.3738,89L245.3864,89L245.8176,89L246.008,89L246.029,89L246.35940000000002,89L246.4462,89L246.8326,89L246.94879999999998,89L247.3128,89L247.5564,89L247.6586,89L247.6922,89L247.7566,89L247.863,89L247.8896,89L247.98200000000003,89L248.2074,89L248.3348,89L248.402,89L248.6722,89L248.89339999999999,89L248.93259999999998,89L249.09779999999998,89L249.15939999999998,89L249.19299999999998,89L249.25740000000002,89L249.7348,89" style="fill: none;" fill="none"></path></g></g></g></g></g></g><g transform="translate(50, 178)" clip-path="url(#clip_1)"><clipPath id="clip_1"><rect width="280" height="22"></rect></clipPath><g><g><line x1="0" y1="0" x2="0" y2="5" style="visibility: inherit;" fill="rgb(0, 0, 0)" stroke="rgb(204, 204, 204)" stroke-width="1px"></line><line x1="28" y1="0" x2="28" y2="5" style="visibility: inherit;" fill="rgb(0, 0, 0)" stroke="rgb(204, 204, 204)" stroke-width="1px"></line><line x1="56" y1="0" x2="56" y2="5" style="visibility: inherit;" fill="rgb(0, 0, 0)" stroke="rgb(204, 204, 204)" stroke-width="1px"></line><line x1="84" y1="0" x2="84" y2="5" style="visibility: inherit;" fill="rgb(0, 0, 0)" stroke="rgb(204, 204, 204)" stroke-width="1px"></line><line x1="112" y1="0" x2="112" y2="5" style="visibility: inherit;" fill="rgb(0, 0, 0)" stroke="rgb(204, 204, 204)" stroke-width="1px"></line><line x1="140" y1="0" x2="140" y2="5" style="visibility: inherit;" fill="rgb(0, 0, 0)" stroke="rgb(204, 204, 204)" stroke-width="1px"></line><line x1="168" y1="0" x2="168" y2="5" style="visibility: inherit;" fill="rgb(0, 0, 0)" stroke="rgb(204, 204, 204)" stroke-width="1px"></line><line x1="196" y1="0" x2="196" y2="5" style="visibility: inherit;" fill="rgb(0, 0, 0)" stroke="rgb(204, 204, 204)" stroke-width="1px"></line><line x1="224" y1="0" x2="224" y2="5" style="visibility: inherit;" fill="rgb(0, 0, 0)" stroke="rgb(204, 204, 204)" stroke-width="1px"></line><line x1="252" y1="0" x2="252" y2="5" style="visibility: inherit;" fill="rgb(0, 0, 0)" stroke="rgb(204, 204, 204)" stroke-width="1px"></line><line x1="280" y1="0" x2="280" y2="5" style="visibility: inherit;" fill="rgb(0, 0, 0)" stroke="rgb(204, 204, 204)" stroke-width="1px"></line></g><g transform="translate(0, 8)"><text x="0" y="0" dx="0em" dy="0.95em" style="text-anchor: middle; visibility: hidden; font-family: &quot;Helvetica Neue&quot;, sans-serif; font-size: 12px; font-weight: 200;" fill="rgb(50, 49, 63)" stroke="none" stroke-width="1px">-20k</text><text x="28" y="0" dx="0em" dy="0.95em" style="text-anchor: middle; visibility: inherit; font-family: &quot;Helvetica Neue&quot;, sans-serif; font-size: 12px; font-weight: 200;" fill="rgb(50, 49, 63)" stroke="none" stroke-width="1px">0</text><text x="56" y="0" dx="0em" dy="0.95em" style="text-anchor: middle; visibility: hidden; font-family: &quot;Helvetica Neue&quot;, sans-serif; font-size: 12px; font-weight: 200;" fill="rgb(50, 49, 63)" stroke="none" stroke-width="1px">20k</text><text x="84" y="0" dx="0em" dy="0.95em" style="text-anchor: middle; visibility: inherit; font-family: &quot;Helvetica Neue&quot;, sans-serif; font-size: 12px; font-weight: 200;" fill="rgb(50, 49, 63)" stroke="none" stroke-width="1px">40k</text><text x="112" y="0" dx="0em" dy="0.95em" style="text-anchor: middle; visibility: hidden; font-family: &quot;Helvetica Neue&quot;, sans-serif; font-size: 12px; font-weight: 200;" fill="rgb(50, 49, 63)" stroke="none" stroke-width="1px">60k</text><text x="140" y="0" dx="0em" dy="0.95em" style="text-anchor: middle; visibility: inherit; font-family: &quot;Helvetica Neue&quot;, sans-serif; font-size: 12px; font-weight: 200;" fill="rgb(50, 49, 63)" stroke="none" stroke-width="1px">80k</text><text x="168" y="0" dx="0em" dy="0.95em" style="text-anchor: middle; visibility: hidden; font-family: &quot;Helvetica Neue&quot;, sans-serif; font-size: 12px; font-weight: 200;" fill="rgb(50, 49, 63)" stroke="none" stroke-width="1px">100k</text><text x="196" y="0" dx="0em" dy="0.95em" style="text-anchor: middle; visibility: inherit; font-family: &quot;Helvetica Neue&quot;, sans-serif; font-size: 12px; font-weight: 200;" fill="rgb(50, 49, 63)" stroke="none" stroke-width="1px">120k</text><text x="224" y="0" dx="0em" dy="0.95em" style="text-anchor: middle; visibility: hidden; font-family: &quot;Helvetica Neue&quot;, sans-serif; font-size: 12px; font-weight: 200;" fill="rgb(50, 49, 63)" stroke="none" stroke-width="1px">140k</text><text x="252" y="0" dx="0em" dy="0.95em" style="text-anchor: middle; visibility: inherit; font-family: &quot;Helvetica Neue&quot;, sans-serif; font-size: 12px; font-weight: 200;" fill="rgb(50, 49, 63)" stroke="none" stroke-width="1px">160k</text><text x="280" y="0" dx="0em" dy="0.95em" style="text-anchor: middle; visibility: hidden; font-family: &quot;Helvetica Neue&quot;, sans-serif; font-size: 12px; font-weight: 200;" fill="rgb(50, 49, 63)" stroke="none" stroke-width="1px">180k</text></g><line x1="0" y1="0" x2="280" y2="0" fill="rgb(0, 0, 0)" stroke="rgb(204, 204, 204)" stroke-width="1px"></line></g></g></g></g></svg>